<svg width="1186" height="708" viewBox="0 0 1186 708" fill="none" xmlns="http://www.w3.org/2000/svg">
<g filter="url(#filter0_f_476_789)">
<path d="M501.868 61H684.132L811 493H375L501.868 61Z" fill="url(#paint0_linear_476_789)" fill-opacity="0.8"/>
</g>
<path fill-rule="evenodd" clip-rule="evenodd" d="M518.06 0C511.92 0 506.496 4.00069 504.684 9.86701L487.451 65.641H698.549L681.691 9.94421C679.904 4.03899 674.461 0 668.292 0H518.06Z" fill="#333333"/>
<path d="M480 72.8205C480 76.7856 483.214 80 487.179 80H698.821C702.786 80 706 76.7856 706 72.8205C706 68.8554 702.786 65.641 698.821 65.641H698.549H487.451H487.179C483.214 65.641 480 68.8554 480 72.8205Z" fill="#FFAE0A"/>
<path d="M571.333 235V226.333H588.667V212.9C585.128 212.106 581.968 210.607 579.188 208.404C576.407 206.201 574.367 203.439 573.067 200.117C567.65 199.467 563.118 197.101 559.471 193.021C555.824 188.94 554 184.156 554 178.667V174.333C554 171.95 554.849 169.91 556.546 168.213C558.243 166.515 560.283 165.667 562.667 165.667H571.333V157H614.667V165.667H623.333C625.717 165.667 627.757 166.515 629.454 168.213C631.151 169.91 632 171.95 632 174.333V178.667C632 184.156 630.176 188.94 626.529 193.021C622.882 197.101 618.35 199.467 612.933 200.117C611.633 203.439 609.593 206.201 606.812 208.404C604.032 210.607 600.872 212.106 597.333 212.9V226.333H614.667V235H571.333ZM571.333 190.8V174.333H562.667V178.667C562.667 181.411 563.461 183.885 565.05 186.087C566.639 188.29 568.733 189.861 571.333 190.8ZM614.667 190.8C617.267 189.861 619.361 188.29 620.95 186.087C622.539 183.885 623.333 181.411 623.333 178.667V174.333H614.667V190.8Z" fill="#FFAE0A"/>
<path d="M590.992 196C590.721 196 590.585 195.856 590.585 195.569V177.503L588.407 177.59C588.136 177.59 588 177.446 588 177.158V173.431C588 173.144 588.136 173 588.407 173H595.593C595.864 173 596 173.144 596 173.431V195.569C596 195.856 595.864 196 595.593 196H590.992Z" fill="#FFDD99"/>
<path d="M504.89 312C504.357 312 504.09 311.733 504.09 311.2V270.144C504.09 269.611 504.357 269.344 504.89 269.344H513.946C514.479 269.344 514.746 269.611 514.746 270.144V311.2C514.746 311.733 514.479 312 513.946 312H504.89ZM523.203 312C522.669 312 522.403 311.733 522.403 311.2V270.144C522.403 269.611 522.669 269.344 523.203 269.344H541.379C541.891 269.344 542.317 269.515 542.659 269.856L549.059 276.256C549.421 276.619 549.603 277.045 549.603 277.536V311.2C549.603 311.733 549.336 312 548.803 312H539.747C539.213 312 538.947 311.733 538.947 311.2V277.856H533.059V311.2C533.059 311.733 532.792 312 532.259 312H523.203ZM558.078 312C557.544 312 557.278 311.733 557.278 311.2V270.144C557.278 269.611 557.544 269.344 558.078 269.344H575.422C575.934 269.344 576.36 269.483 576.702 269.76L584.062 277.056C584.296 277.269 584.435 277.451 584.478 277.6C584.542 277.749 584.574 277.995 584.574 278.336V287.104C584.574 287.381 584.467 287.627 584.254 287.84L580.734 291.264L577.758 293.824L581.278 298.496L584.894 306.24C584.979 306.432 585.043 306.624 585.086 306.816C585.15 306.987 585.182 307.2 585.182 307.456V311.2C585.182 311.733 584.915 312 584.382 312H575.934C575.464 312 575.144 311.787 574.974 311.36L569.822 296.384H567.422V311.2C567.422 311.733 567.155 312 566.622 312H558.078ZM570.942 288.544C572.712 288.544 573.918 288.181 574.558 287.456C575.198 286.709 575.518 285.323 575.518 283.296C575.518 281.248 575.198 279.861 574.558 279.136C573.918 278.389 572.712 278.016 570.942 278.016C569.192 278.016 567.987 278.389 567.326 279.136C566.664 279.861 566.334 281.248 566.334 283.296C566.334 285.323 566.664 286.709 567.326 287.456C567.987 288.181 569.192 288.544 570.942 288.544ZM603.409 312C602.876 312 602.609 311.733 602.609 311.2V277.696L598.321 277.856C597.788 277.856 597.521 277.589 597.521 277.056V270.144C597.521 269.611 597.788 269.344 598.321 269.344H612.465C612.998 269.344 613.265 269.611 613.265 270.144V311.2C613.265 311.733 612.998 312 612.465 312H603.409ZM624.101 312C622.885 312 622.053 311.755 621.605 311.264C621.178 310.752 620.965 310.016 620.965 309.056V272.32C620.965 271.36 621.178 270.635 621.605 270.144C622.053 269.632 622.885 269.376 624.101 269.376L646.085 269.28C647.322 269.28 648.154 269.536 648.581 270.048C649.008 270.539 649.221 271.264 649.221 272.224V309.056C649.221 310.016 649.008 310.752 648.581 311.264C648.154 311.755 647.322 312 646.085 312H624.101ZM631.621 304H638.565V277.28H631.621V304ZM674.663 312C674.385 312 674.161 311.957 673.991 311.872C673.841 311.787 673.745 311.669 673.703 311.52L670.023 297.024H667.047V289.344H670.023L673.703 277.344C673.745 277.173 673.841 277.056 673.991 276.992C674.161 276.907 674.385 276.864 674.663 276.864H682.759C683.292 276.864 683.559 277.131 683.559 277.664V281.056C683.559 281.355 683.537 281.589 683.495 281.76C683.452 281.931 683.388 282.112 683.303 282.304L678.567 293.216V294.304L683.559 306.56C683.665 306.795 683.74 307.008 683.783 307.2C683.825 307.371 683.847 307.563 683.847 307.776V311.2C683.847 311.733 683.58 312 683.047 312H674.663ZM657.703 312C657.169 312 656.903 311.733 656.903 311.2V270.144C656.903 269.611 657.169 269.344 657.703 269.344H666.247C666.78 269.344 667.047 269.611 667.047 270.144V311.2C667.047 311.733 666.78 312 666.247 312H657.703Z" fill="#FFAE0A"/>
<g filter="url(#filter1_f_476_789)">
<path d="M857.868 257H1040.13L1167 689H731L857.868 257Z" fill="url(#paint1_linear_476_789)" fill-opacity="0.8"/>
</g>
<path fill-rule="evenodd" clip-rule="evenodd" d="M874.06 196C867.92 196 862.496 200.001 860.684 205.867L843.451 261.641H1054.55L1037.69 205.944C1035.9 200.039 1030.46 196 1024.29 196H874.06Z" fill="#333333"/>
<path d="M836 268.821C836 272.786 839.214 276 843.179 276H1054.82C1058.79 276 1062 272.786 1062 268.821C1062 264.855 1058.79 261.641 1054.82 261.641H1054.55H843.451H843.179C839.214 261.641 836 264.855 836 268.821Z" fill="#D76834"/>
<path d="M927.333 431V422.333H944.667V408.9C941.128 408.106 937.968 406.607 935.188 404.404C932.407 402.201 930.367 399.439 929.067 396.117C923.65 395.467 919.118 393.101 915.471 389.021C911.824 384.94 910 380.156 910 374.667V370.333C910 367.95 910.849 365.91 912.546 364.213C914.243 362.515 916.283 361.667 918.667 361.667H927.333V353H970.667V361.667H979.333C981.717 361.667 983.757 362.515 985.454 364.213C987.151 365.91 988 367.95 988 370.333V374.667C988 380.156 986.176 384.94 982.529 389.021C978.882 393.101 974.35 395.467 968.933 396.117C967.633 399.439 965.593 402.201 962.812 404.404C960.032 406.607 956.872 408.106 953.333 408.9V422.333H970.667V431H927.333ZM927.333 386.8V370.333H918.667V374.667C918.667 377.411 919.461 379.885 921.05 382.087C922.639 384.29 924.733 385.861 927.333 386.8ZM970.667 386.8C973.267 385.861 975.361 384.29 976.95 382.087C978.539 379.885 979.333 377.411 979.333 374.667V370.333H970.667V386.8Z" fill="#D76834"/>
<path d="M943.482 389C943.161 389 943 388.844 943 388.531V384.78C943 384.468 943.161 384.311 943.482 384.311H951.58V378.685H945.082C944.761 378.685 944.6 378.529 944.6 378.216V374.465C944.6 374.153 944.761 373.996 945.082 373.996H951.58V368.989H943.482C943.161 368.989 943 368.832 943 368.52V364.469C943 364.156 943.161 364 943.482 364H953.064C953.36 364 953.617 364.1 953.835 364.3L957.692 368.051C957.897 368.264 958 368.514 958 368.801V372.552C958 372.815 957.936 373.002 957.807 373.115L955.301 375.909V377.091L957.807 379.866C957.936 379.991 958 380.179 958 380.429V384.18C958 384.48 957.897 384.73 957.692 384.93L953.835 388.681C953.617 388.894 953.36 389 953.064 389H943.482Z" fill="#793B1E"/>
<path d="M872.828 508C872.294 508 872.028 507.733 872.028 507.2V466.144C872.028 465.611 872.294 465.344 872.828 465.344H881.884C882.417 465.344 882.684 465.611 882.684 466.144V507.2C882.684 507.733 882.417 508 881.884 508H872.828ZM891.14 508C890.607 508 890.34 507.733 890.34 507.2V466.144C890.34 465.611 890.607 465.344 891.14 465.344H909.316C909.828 465.344 910.255 465.515 910.596 465.856L916.996 472.256C917.359 472.619 917.54 473.045 917.54 473.536V507.2C917.54 507.733 917.273 508 916.74 508H907.684C907.151 508 906.884 507.733 906.884 507.2V473.856H900.996V507.2C900.996 507.733 900.729 508 900.196 508H891.14ZM926.015 508C925.482 508 925.215 507.733 925.215 507.2V466.144C925.215 465.611 925.482 465.344 926.015 465.344H943.359C943.871 465.344 944.298 465.483 944.639 465.76L951.999 473.056C952.234 473.269 952.372 473.451 952.415 473.6C952.479 473.749 952.511 473.995 952.511 474.336V483.104C952.511 483.381 952.404 483.627 952.191 483.84L948.671 487.264L945.695 489.824L949.215 494.496L952.831 502.24C952.916 502.432 952.98 502.624 953.023 502.816C953.087 502.987 953.119 503.2 953.119 503.456V507.2C953.119 507.733 952.852 508 952.319 508H943.871C943.402 508 943.082 507.787 942.911 507.36L937.759 492.384H935.359V507.2C935.359 507.733 935.092 508 934.559 508H926.015ZM938.879 484.544C940.65 484.544 941.855 484.181 942.495 483.456C943.135 482.709 943.455 481.323 943.455 479.296C943.455 477.248 943.135 475.861 942.495 475.136C941.855 474.389 940.65 474.016 938.879 474.016C937.13 474.016 935.924 474.389 935.263 475.136C934.602 475.861 934.271 477.248 934.271 479.296C934.271 481.323 934.602 482.709 935.263 483.456C935.924 484.181 937.13 484.544 938.879 484.544ZM969.203 508C968.669 508 968.403 507.733 968.403 507.2V500.8C968.403 500.267 968.669 500 969.203 500H982.642V490.4H971.859C971.325 490.4 971.059 490.133 971.059 489.6V483.2C971.059 482.667 971.325 482.4 971.859 482.4H982.642V473.856H969.203C968.669 473.856 968.403 473.589 968.403 473.056V466.144C968.403 465.611 968.669 465.344 969.203 465.344H985.107C985.597 465.344 986.024 465.515 986.387 465.856L992.787 472.256C993.128 472.619 993.299 473.045 993.299 473.536V479.936C993.299 480.384 993.192 480.704 992.979 480.896L988.819 485.664V487.68L992.979 492.416C993.192 492.629 993.299 492.949 993.299 493.376V499.776C993.299 500.288 993.128 500.715 992.787 501.056L986.387 507.456C986.024 507.819 985.597 508 985.107 508H969.203ZM1018.73 508C1018.45 508 1018.22 507.957 1018.05 507.872C1017.9 507.787 1017.81 507.669 1017.77 507.52L1014.09 493.024H1011.11V485.344H1014.09L1017.77 473.344C1017.81 473.173 1017.9 473.056 1018.05 472.992C1018.22 472.907 1018.45 472.864 1018.73 472.864H1026.82C1027.35 472.864 1027.62 473.131 1027.62 473.664V477.056C1027.62 477.355 1027.6 477.589 1027.56 477.76C1027.51 477.931 1027.45 478.112 1027.37 478.304L1022.63 489.216V490.304L1027.62 502.56C1027.73 502.795 1027.8 503.008 1027.85 503.2C1027.89 503.371 1027.91 503.563 1027.91 503.776V507.2C1027.91 507.733 1027.64 508 1027.11 508H1018.73ZM1001.77 508C1001.23 508 1000.97 507.733 1000.97 507.2V466.144C1000.97 465.611 1001.23 465.344 1001.77 465.344H1010.31C1010.84 465.344 1011.11 465.611 1011.11 466.144V507.2C1011.11 507.733 1010.84 508 1010.31 508H1001.77Z" fill="#D76834"/>
<g filter="url(#filter2_f_476_789)">
<path d="M145.868 225H328.132L455 657H19L145.868 225Z" fill="url(#paint2_linear_476_789)" fill-opacity="0.8"/>
</g>
<path fill-rule="evenodd" clip-rule="evenodd" d="M162.06 164C155.92 164 150.496 168.001 148.684 173.867L131.451 229.641H342.549L325.691 173.944C323.904 168.039 318.461 164 312.292 164H162.06Z" fill="#333333"/>
<path d="M124 236.821C124 240.786 127.214 244 131.179 244H342.821C346.786 244 350 240.786 350 236.821C350 232.855 346.786 229.641 342.821 229.641H342.549H131.451H131.179C127.214 229.641 124 232.855 124 236.821Z" fill="#BBBBBB"/>
<path d="M215.333 399V390.333H232.667V376.9C229.128 376.106 225.968 374.607 223.188 372.404C220.407 370.201 218.367 367.439 217.067 364.117C211.65 363.467 207.118 361.101 203.471 357.021C199.824 352.94 198 348.156 198 342.667V338.333C198 335.95 198.849 333.91 200.546 332.213C202.243 330.515 204.283 329.667 206.667 329.667H215.333V321H258.667V329.667H267.333C269.717 329.667 271.757 330.515 273.454 332.213C275.151 333.91 276 335.95 276 338.333V342.667C276 348.156 274.176 352.94 270.529 357.021C266.882 361.101 262.35 363.467 256.933 364.117C255.633 367.439 253.593 370.201 250.812 372.404C248.032 374.607 244.872 376.106 241.333 376.9V390.333H258.667V399H215.333ZM215.333 354.8V338.333H206.667V342.667C206.667 345.411 207.461 347.885 209.05 350.087C210.639 352.29 212.733 353.861 215.333 354.8ZM258.667 354.8C261.267 353.861 263.361 352.29 264.95 350.087C266.539 347.885 267.333 345.411 267.333 342.667V338.333H258.667V354.8Z" fill="#BBBBBB"/>
<path d="M230.579 361C230.208 361 230.022 360.819 230.022 360.456L230 353.386C230 353.241 230.03 353.125 230.089 353.038C230.149 352.936 230.23 352.82 230.334 352.689L237.376 344.314V339.897L230.334 337.243C230.111 337.171 230 336.953 230 336.59V332.544C230 332.181 230.186 332 230.557 332H236.195C236.403 332 236.566 332.029 236.685 332.087C236.804 332.145 236.938 332.21 237.086 332.283L244.44 335.437C244.633 335.51 244.745 335.611 244.774 335.742C244.804 335.872 244.819 336.061 244.819 336.308V345.706C244.819 345.851 244.782 345.96 244.708 346.032C244.648 346.09 244.559 346.199 244.44 346.359L237.465 354.647V355.518H245.443C245.814 355.518 246 355.699 246 356.062V360.456C246 360.819 245.814 361 245.443 361H230.579Z" fill="#838281"/>
<path d="M162.89 475C162.357 475 162.09 474.733 162.09 474.2V433.144C162.09 432.611 162.357 432.344 162.89 432.344H171.946C172.479 432.344 172.746 432.611 172.746 433.144V474.2C172.746 474.733 172.479 475 171.946 475H162.89ZM181.203 475C180.669 475 180.403 474.733 180.403 474.2V433.144C180.403 432.611 180.669 432.344 181.203 432.344H199.379C199.891 432.344 200.317 432.515 200.659 432.856L207.059 439.256C207.421 439.619 207.603 440.045 207.603 440.536V474.2C207.603 474.733 207.336 475 206.803 475H197.747C197.213 475 196.947 474.733 196.947 474.2V440.856H191.059V474.2C191.059 474.733 190.792 475 190.259 475H181.203ZM216.078 475C215.544 475 215.278 474.733 215.278 474.2V433.144C215.278 432.611 215.544 432.344 216.078 432.344H233.422C233.934 432.344 234.36 432.483 234.702 432.76L242.062 440.056C242.296 440.269 242.435 440.451 242.478 440.6C242.542 440.749 242.574 440.995 242.574 441.336V450.104C242.574 450.381 242.467 450.627 242.254 450.84L238.734 454.264L235.758 456.824L239.278 461.496L242.894 469.24C242.979 469.432 243.043 469.624 243.086 469.816C243.15 469.987 243.182 470.2 243.182 470.456V474.2C243.182 474.733 242.915 475 242.382 475H233.934C233.464 475 233.144 474.787 232.974 474.36L227.822 459.384H225.422V474.2C225.422 474.733 225.155 475 224.622 475H216.078ZM228.942 451.544C230.712 451.544 231.918 451.181 232.558 450.456C233.198 449.709 233.518 448.323 233.518 446.296C233.518 444.248 233.198 442.861 232.558 442.136C231.918 441.389 230.712 441.016 228.942 441.016C227.192 441.016 225.987 441.389 225.326 442.136C224.664 442.861 224.334 444.248 224.334 446.296C224.334 448.323 224.664 449.709 225.326 450.456C225.987 451.181 227.192 451.544 228.942 451.544ZM256.769 475C256.236 475 255.969 474.733 255.969 474.2V467.8C255.969 467.267 256.236 467 256.769 467H271.041V457.944H256.769C256.236 457.944 255.969 457.677 255.969 457.144L256.001 433.144C256.001 432.611 256.268 432.344 256.801 432.344H280.929C281.462 432.344 281.729 432.611 281.729 433.144V439.544C281.729 440.077 281.462 440.344 280.929 440.344H266.689V449.4H280.929C281.462 449.4 281.729 449.667 281.729 450.2V466.84C281.729 467.224 281.601 467.565 281.345 467.864L274.561 474.616C274.326 474.872 273.996 475 273.569 475H256.769ZM304.663 475C304.385 475 304.161 474.957 303.991 474.872C303.841 474.787 303.745 474.669 303.703 474.52L300.023 460.024H297.047V452.344H300.023L303.703 440.344C303.745 440.173 303.841 440.056 303.991 439.992C304.161 439.907 304.385 439.864 304.663 439.864H312.759C313.292 439.864 313.559 440.131 313.559 440.664V444.056C313.559 444.355 313.537 444.589 313.495 444.76C313.452 444.931 313.388 445.112 313.303 445.304L308.567 456.216V457.304L313.559 469.56C313.665 469.795 313.74 470.008 313.783 470.2C313.825 470.371 313.847 470.563 313.847 470.776V474.2C313.847 474.733 313.58 475 313.047 475H304.663ZM287.703 475C287.169 475 286.903 474.733 286.903 474.2V433.144C286.903 432.611 287.169 432.344 287.703 432.344H296.247C296.78 432.344 297.047 432.611 297.047 433.144V474.2C297.047 474.733 296.78 475 296.247 475H287.703Z" fill="#BBBBBB"/>
<defs>
<filter id="filter0_f_476_789" x="356.5" y="42.5" width="473" height="469" filterUnits="userSpaceOnUse" color-interpolation-filters="sRGB">
<feFlood flood-opacity="0" result="BackgroundImageFix"/>
<feBlend mode="normal" in="SourceGraphic" in2="BackgroundImageFix" result="shape"/>
<feGaussianBlur stdDeviation="9.25" result="effect1_foregroundBlur_476_789"/>
</filter>
<filter id="filter1_f_476_789" x="712.5" y="238.5" width="473" height="469" filterUnits="userSpaceOnUse" color-interpolation-filters="sRGB">
<feFlood flood-opacity="0" result="BackgroundImageFix"/>
<feBlend mode="normal" in="SourceGraphic" in2="BackgroundImageFix" result="shape"/>
<feGaussianBlur stdDeviation="9.25" result="effect1_foregroundBlur_476_789"/>
</filter>
<filter id="filter2_f_476_789" x="0.5" y="206.5" width="473" height="469" filterUnits="userSpaceOnUse" color-interpolation-filters="sRGB">
<feFlood flood-opacity="0" result="BackgroundImageFix"/>
<feBlend mode="normal" in="SourceGraphic" in2="BackgroundImageFix" result="shape"/>
<feGaussianBlur stdDeviation="9.25" result="effect1_foregroundBlur_476_789"/>
</filter>
<linearGradient id="paint0_linear_476_789" x1="595.088" y1="46.9512" x2="607.188" y2="414.523" gradientUnits="userSpaceOnUse">
<stop stop-color="#FFAE0A"/>
<stop offset="0.395" stop-color="#AA7916" stop-opacity="0.605"/>
<stop offset="1" stop-color="#282828" stop-opacity="0"/>
</linearGradient>
<linearGradient id="paint1_linear_476_789" x1="951.088" y1="242.951" x2="963.188" y2="610.523" gradientUnits="userSpaceOnUse">
<stop stop-color="#D76834"/>
<stop offset="1" stop-color="#282828" stop-opacity="0"/>
</linearGradient>
<linearGradient id="paint2_linear_476_789" x1="239.088" y1="210.951" x2="251.188" y2="578.523" gradientUnits="userSpaceOnUse">
<stop stop-color="#BABABA"/>
<stop offset="1" stop-color="#282828" stop-opacity="0"/>
</linearGradient>
</defs>
</svg>
