<svg width="474" height="512" viewBox="0 0 474 512" fill="none" xmlns="http://www.w3.org/2000/svg">
<g filter="url(#filter0_f_476_758)">
<path d="M145.868 61H328.132L455 493H19L145.868 61Z" fill="url(#paint0_linear_476_758)" fill-opacity="0.8"/>
</g>
<path fill-rule="evenodd" clip-rule="evenodd" d="M162.06 0C155.92 0 150.496 4.00069 148.684 9.86701L131.451 65.641H342.549L325.691 9.94421C323.904 4.03899 318.461 0 312.292 0H162.06Z" fill="#333333"/>
<path d="M124 72.8205C124 76.7856 127.214 80 131.179 80H342.821C346.786 80 350 76.7856 350 72.8205C350 68.8554 346.786 65.641 342.821 65.641H342.549H131.451H131.179C127.214 65.641 124 68.8554 124 72.8205Z" fill="#FFAE0A"/>
<path d="M215.333 235V226.333H232.667V212.9C229.128 212.106 225.968 210.607 223.188 208.404C220.407 206.201 218.367 203.439 217.067 200.117C211.65 199.467 207.118 197.101 203.471 193.021C199.824 188.94 198 184.156 198 178.667V174.333C198 171.95 198.849 169.91 200.546 168.213C202.243 166.515 204.283 165.667 206.667 165.667H215.333V157H258.667V165.667H267.333C269.717 165.667 271.757 166.515 273.454 168.213C275.151 169.91 276 171.95 276 174.333V178.667C276 184.156 274.176 188.94 270.529 193.021C266.882 197.101 262.35 199.467 256.933 200.117C255.633 203.439 253.593 206.201 250.812 208.404C248.032 210.607 244.872 212.106 241.333 212.9V226.333H258.667V235H215.333ZM215.333 190.8V174.333H206.667V178.667C206.667 181.411 207.461 183.885 209.05 186.087C210.639 188.29 212.733 189.861 215.333 190.8ZM258.667 190.8C261.267 189.861 263.361 188.29 264.95 186.087C266.539 183.885 267.333 181.411 267.333 178.667V174.333H258.667V190.8Z" fill="#FFAE0A"/>
<path d="M234.992 196C234.721 196 234.585 195.856 234.585 195.569V177.503L232.407 177.59C232.136 177.59 232 177.446 232 177.158V173.431C232 173.144 232.136 173 232.407 173H239.593C239.864 173 240 173.144 240 173.431V195.569C240 195.856 239.864 196 239.593 196H234.992Z" fill="#FFDD99"/>
<path d="M148.89 312C148.357 312 148.09 311.733 148.09 311.2V270.144C148.09 269.611 148.357 269.344 148.89 269.344H157.946C158.479 269.344 158.746 269.611 158.746 270.144V311.2C158.746 311.733 158.479 312 157.946 312H148.89ZM167.203 312C166.669 312 166.403 311.733 166.403 311.2V270.144C166.403 269.611 166.669 269.344 167.203 269.344H185.379C185.891 269.344 186.317 269.515 186.659 269.856L193.059 276.256C193.421 276.619 193.603 277.045 193.603 277.536V311.2C193.603 311.733 193.336 312 192.803 312H183.747C183.213 312 182.947 311.733 182.947 311.2V277.856H177.059V311.2C177.059 311.733 176.792 312 176.259 312H167.203ZM202.078 312C201.544 312 201.278 311.733 201.278 311.2V270.144C201.278 269.611 201.544 269.344 202.078 269.344H219.422C219.934 269.344 220.36 269.483 220.702 269.76L228.062 277.056C228.296 277.269 228.435 277.451 228.478 277.6C228.542 277.749 228.574 277.995 228.574 278.336V287.104C228.574 287.381 228.467 287.627 228.254 287.84L224.734 291.264L221.758 293.824L225.278 298.496L228.894 306.24C228.979 306.432 229.043 306.624 229.086 306.816C229.15 306.987 229.182 307.2 229.182 307.456V311.2C229.182 311.733 228.915 312 228.382 312H219.934C219.464 312 219.144 311.787 218.974 311.36L213.822 296.384H211.422V311.2C211.422 311.733 211.155 312 210.622 312H202.078ZM214.942 288.544C216.712 288.544 217.918 288.181 218.558 287.456C219.198 286.709 219.518 285.323 219.518 283.296C219.518 281.248 219.198 279.861 218.558 279.136C217.918 278.389 216.712 278.016 214.942 278.016C213.192 278.016 211.987 278.389 211.326 279.136C210.664 279.861 210.334 281.248 210.334 283.296C210.334 285.323 210.664 286.709 211.326 287.456C211.987 288.181 213.192 288.544 214.942 288.544ZM247.409 312C246.876 312 246.609 311.733 246.609 311.2V277.696L242.321 277.856C241.788 277.856 241.521 277.589 241.521 277.056V270.144C241.521 269.611 241.788 269.344 242.321 269.344H256.465C256.998 269.344 257.265 269.611 257.265 270.144V311.2C257.265 311.733 256.998 312 256.465 312H247.409ZM268.101 312C266.885 312 266.053 311.755 265.605 311.264C265.178 310.752 264.965 310.016 264.965 309.056V272.32C264.965 271.36 265.178 270.635 265.605 270.144C266.053 269.632 266.885 269.376 268.101 269.376L290.085 269.28C291.322 269.28 292.154 269.536 292.581 270.048C293.008 270.539 293.221 271.264 293.221 272.224V309.056C293.221 310.016 293.008 310.752 292.581 311.264C292.154 311.755 291.322 312 290.085 312H268.101ZM275.621 304H282.565V277.28H275.621V304ZM318.663 312C318.385 312 318.161 311.957 317.991 311.872C317.841 311.787 317.745 311.669 317.703 311.52L314.023 297.024H311.047V289.344H314.023L317.703 277.344C317.745 277.173 317.841 277.056 317.991 276.992C318.161 276.907 318.385 276.864 318.663 276.864H326.759C327.292 276.864 327.559 277.131 327.559 277.664V281.056C327.559 281.355 327.537 281.589 327.495 281.76C327.452 281.931 327.388 282.112 327.303 282.304L322.567 293.216V294.304L327.559 306.56C327.665 306.795 327.74 307.008 327.783 307.2C327.825 307.371 327.847 307.563 327.847 307.776V311.2C327.847 311.733 327.58 312 327.047 312H318.663ZM301.703 312C301.169 312 300.903 311.733 300.903 311.2V270.144C300.903 269.611 301.169 269.344 301.703 269.344H310.247C310.78 269.344 311.047 269.611 311.047 270.144V311.2C311.047 311.733 310.78 312 310.247 312H301.703Z" fill="#FFAE0A"/>
<defs>
<filter id="filter0_f_476_758" x="0.5" y="42.5" width="473" height="469" filterUnits="userSpaceOnUse" color-interpolation-filters="sRGB">
<feFlood flood-opacity="0" result="BackgroundImageFix"/>
<feBlend mode="normal" in="SourceGraphic" in2="BackgroundImageFix" result="shape"/>
<feGaussianBlur stdDeviation="9.25" result="effect1_foregroundBlur_476_758"/>
</filter>
<linearGradient id="paint0_linear_476_758" x1="239.088" y1="46.9512" x2="251.188" y2="414.523" gradientUnits="userSpaceOnUse">
<stop stop-color="#FFAE0A"/>
<stop offset="0.395" stop-color="#AA7916" stop-opacity="0.605"/>
<stop offset="1" stop-color="#282828" stop-opacity="0"/>
</linearGradient>
</defs>
</svg>
