<svg width="474" height="512" viewBox="0 0 474 512" fill="none" xmlns="http://www.w3.org/2000/svg">
<g filter="url(#filter0_f_476_762)">
<path d="M145.868 61H328.132L455 493H19L145.868 61Z" fill="url(#paint0_linear_476_762)" fill-opacity="0.8"/>
</g>
<path fill-rule="evenodd" clip-rule="evenodd" d="M162.06 0C155.92 0 150.496 4.00069 148.684 9.86701L131.451 65.641H342.549L325.691 9.94421C323.904 4.03899 318.461 0 312.292 0H162.06Z" fill="#333333"/>
<path d="M124 72.8205C124 76.7856 127.214 80 131.179 80H342.821C346.786 80 350 76.7856 350 72.8205C350 68.8554 346.786 65.641 342.821 65.641H342.549H131.451H131.179C127.214 65.641 124 68.8554 124 72.8205Z" fill="#BBBBBB"/>
<path d="M215.333 235V226.333H232.667V212.9C229.128 212.106 225.968 210.607 223.188 208.404C220.407 206.201 218.367 203.439 217.067 200.117C211.65 199.467 207.118 197.101 203.471 193.021C199.824 188.94 198 184.156 198 178.667V174.333C198 171.95 198.849 169.91 200.546 168.213C202.243 166.515 204.283 165.667 206.667 165.667H215.333V157H258.667V165.667H267.333C269.717 165.667 271.757 166.515 273.454 168.213C275.151 169.91 276 171.95 276 174.333V178.667C276 184.156 274.176 188.94 270.529 193.021C266.882 197.101 262.35 199.467 256.933 200.117C255.633 203.439 253.593 206.201 250.812 208.404C248.032 210.607 244.872 212.106 241.333 212.9V226.333H258.667V235H215.333ZM215.333 190.8V174.333H206.667V178.667C206.667 181.411 207.461 183.885 209.05 186.087C210.639 188.29 212.733 189.861 215.333 190.8ZM258.667 190.8C261.267 189.861 263.361 188.29 264.95 186.087C266.539 183.885 267.333 181.411 267.333 178.667V174.333H258.667V190.8Z" fill="#BBBBBB"/>
<path d="M230.579 197C230.208 197 230.022 196.819 230.022 196.456L230 189.386C230 189.241 230.03 189.125 230.089 189.038C230.149 188.936 230.23 188.82 230.334 188.689L237.376 180.314V175.897L230.334 173.243C230.111 173.171 230 172.953 230 172.59V168.544C230 168.181 230.186 168 230.557 168H236.195C236.403 168 236.566 168.029 236.685 168.087C236.804 168.145 236.938 168.21 237.086 168.283L244.44 171.437C244.633 171.51 244.745 171.611 244.774 171.742C244.804 171.872 244.819 172.061 244.819 172.308V181.706C244.819 181.851 244.782 181.96 244.708 182.032C244.648 182.09 244.559 182.199 244.44 182.359L237.465 190.647V191.518H245.443C245.814 191.518 246 191.699 246 192.062V196.456C246 196.819 245.814 197 245.443 197H230.579Z" fill="#838281"/>
<path d="M162.89 311C162.357 311 162.09 310.733 162.09 310.2V269.144C162.09 268.611 162.357 268.344 162.89 268.344H171.946C172.479 268.344 172.746 268.611 172.746 269.144V310.2C172.746 310.733 172.479 311 171.946 311H162.89ZM181.203 311C180.669 311 180.403 310.733 180.403 310.2V269.144C180.403 268.611 180.669 268.344 181.203 268.344H199.379C199.891 268.344 200.317 268.515 200.659 268.856L207.059 275.256C207.421 275.619 207.603 276.045 207.603 276.536V310.2C207.603 310.733 207.336 311 206.803 311H197.747C197.213 311 196.947 310.733 196.947 310.2V276.856H191.059V310.2C191.059 310.733 190.792 311 190.259 311H181.203ZM216.078 311C215.544 311 215.278 310.733 215.278 310.2V269.144C215.278 268.611 215.544 268.344 216.078 268.344H233.422C233.934 268.344 234.36 268.483 234.702 268.76L242.062 276.056C242.296 276.269 242.435 276.451 242.478 276.6C242.542 276.749 242.574 276.995 242.574 277.336V286.104C242.574 286.381 242.467 286.627 242.254 286.84L238.734 290.264L235.758 292.824L239.278 297.496L242.894 305.24C242.979 305.432 243.043 305.624 243.086 305.816C243.15 305.987 243.182 306.2 243.182 306.456V310.2C243.182 310.733 242.915 311 242.382 311H233.934C233.464 311 233.144 310.787 232.974 310.36L227.822 295.384H225.422V310.2C225.422 310.733 225.155 311 224.622 311H216.078ZM228.942 287.544C230.712 287.544 231.918 287.181 232.558 286.456C233.198 285.709 233.518 284.323 233.518 282.296C233.518 280.248 233.198 278.861 232.558 278.136C231.918 277.389 230.712 277.016 228.942 277.016C227.192 277.016 225.987 277.389 225.326 278.136C224.664 278.861 224.334 280.248 224.334 282.296C224.334 284.323 224.664 285.709 225.326 286.456C225.987 287.181 227.192 287.544 228.942 287.544ZM256.769 311C256.236 311 255.969 310.733 255.969 310.2V303.8C255.969 303.267 256.236 303 256.769 303H271.041V293.944H256.769C256.236 293.944 255.969 293.677 255.969 293.144L256.001 269.144C256.001 268.611 256.268 268.344 256.801 268.344H280.929C281.462 268.344 281.729 268.611 281.729 269.144V275.544C281.729 276.077 281.462 276.344 280.929 276.344H266.689V285.4H280.929C281.462 285.4 281.729 285.667 281.729 286.2V302.84C281.729 303.224 281.601 303.565 281.345 303.864L274.561 310.616C274.326 310.872 273.996 311 273.569 311H256.769ZM304.663 311C304.385 311 304.161 310.957 303.991 310.872C303.841 310.787 303.745 310.669 303.703 310.52L300.023 296.024H297.047V288.344H300.023L303.703 276.344C303.745 276.173 303.841 276.056 303.991 275.992C304.161 275.907 304.385 275.864 304.663 275.864H312.759C313.292 275.864 313.559 276.131 313.559 276.664V280.056C313.559 280.355 313.537 280.589 313.495 280.76C313.452 280.931 313.388 281.112 313.303 281.304L308.567 292.216V293.304L313.559 305.56C313.665 305.795 313.74 306.008 313.783 306.2C313.825 306.371 313.847 306.563 313.847 306.776V310.2C313.847 310.733 313.58 311 313.047 311H304.663ZM287.703 311C287.169 311 286.903 310.733 286.903 310.2V269.144C286.903 268.611 287.169 268.344 287.703 268.344H296.247C296.78 268.344 297.047 268.611 297.047 269.144V310.2C297.047 310.733 296.78 311 296.247 311H287.703Z" fill="#BBBBBB"/>
<defs>
<filter id="filter0_f_476_762" x="0.5" y="42.5" width="473" height="469" filterUnits="userSpaceOnUse" color-interpolation-filters="sRGB">
<feFlood flood-opacity="0" result="BackgroundImageFix"/>
<feBlend mode="normal" in="SourceGraphic" in2="BackgroundImageFix" result="shape"/>
<feGaussianBlur stdDeviation="9.25" result="effect1_foregroundBlur_476_762"/>
</filter>
<linearGradient id="paint0_linear_476_762" x1="239.088" y1="46.9512" x2="251.188" y2="414.523" gradientUnits="userSpaceOnUse">
<stop stop-color="#BABABA"/>
<stop offset="1" stop-color="#282828" stop-opacity="0"/>
</linearGradient>
</defs>
</svg>
