<svg width="474" height="512" viewBox="0 0 474 512" fill="none" xmlns="http://www.w3.org/2000/svg">
<g filter="url(#filter0_f_476_759)">
<path d="M145.868 61H328.132L455 493H19L145.868 61Z" fill="url(#paint0_linear_476_759)" fill-opacity="0.8"/>
</g>
<path fill-rule="evenodd" clip-rule="evenodd" d="M162.06 0C155.92 0 150.496 4.00069 148.684 9.86701L131.451 65.641H342.549L325.691 9.94421C323.904 4.03899 318.461 0 312.292 0H162.06Z" fill="#333333"/>
<path d="M124 72.8205C124 76.7856 127.214 80 131.179 80H342.821C346.786 80 350 76.7856 350 72.8205C350 68.8554 346.786 65.641 342.821 65.641H342.549H131.451H131.179C127.214 65.641 124 68.8554 124 72.8205Z" fill="#D76834"/>
<path d="M215.333 235V226.333H232.667V212.9C229.128 212.106 225.968 210.607 223.188 208.404C220.407 206.201 218.367 203.439 217.067 200.117C211.65 199.467 207.118 197.101 203.471 193.021C199.824 188.94 198 184.156 198 178.667V174.333C198 171.95 198.849 169.91 200.546 168.213C202.243 166.515 204.283 165.667 206.667 165.667H215.333V157H258.667V165.667H267.333C269.717 165.667 271.757 166.515 273.454 168.213C275.151 169.91 276 171.95 276 174.333V178.667C276 184.156 274.176 188.94 270.529 193.021C266.882 197.101 262.35 199.467 256.933 200.117C255.633 203.439 253.593 206.201 250.812 208.404C248.032 210.607 244.872 212.106 241.333 212.9V226.333H258.667V235H215.333ZM215.333 190.8V174.333H206.667V178.667C206.667 181.411 207.461 183.885 209.05 186.087C210.639 188.29 212.733 189.861 215.333 190.8ZM258.667 190.8C261.267 189.861 263.361 188.29 264.95 186.087C266.539 183.885 267.333 181.411 267.333 178.667V174.333H258.667V190.8Z" fill="#D76834"/>
<path d="M231.482 193C231.161 193 231 192.844 231 192.531V188.78C231 188.468 231.161 188.311 231.482 188.311H239.58V182.685H233.082C232.761 182.685 232.6 182.529 232.6 182.216V178.465C232.6 178.153 232.761 177.996 233.082 177.996H239.58V172.989H231.482C231.161 172.989 231 172.832 231 172.52V168.469C231 168.156 231.161 168 231.482 168H241.064C241.36 168 241.617 168.1 241.835 168.3L245.692 172.051C245.897 172.264 246 172.514 246 172.801V176.552C246 176.815 245.936 177.002 245.807 177.115L243.301 179.909V181.091L245.807 183.866C245.936 183.991 246 184.179 246 184.429V188.18C246 188.48 245.897 188.73 245.692 188.93L241.835 192.681C241.617 192.894 241.36 193 241.064 193H231.482Z" fill="#793B1E"/>
<path d="M160.828 312C160.294 312 160.028 311.733 160.028 311.2V270.144C160.028 269.611 160.294 269.344 160.828 269.344H169.884C170.417 269.344 170.684 269.611 170.684 270.144V311.2C170.684 311.733 170.417 312 169.884 312H160.828ZM179.14 312C178.607 312 178.34 311.733 178.34 311.2V270.144C178.34 269.611 178.607 269.344 179.14 269.344H197.316C197.828 269.344 198.255 269.515 198.596 269.856L204.996 276.256C205.359 276.619 205.54 277.045 205.54 277.536V311.2C205.54 311.733 205.273 312 204.74 312H195.684C195.151 312 194.884 311.733 194.884 311.2V277.856H188.996V311.2C188.996 311.733 188.729 312 188.196 312H179.14ZM214.015 312C213.482 312 213.215 311.733 213.215 311.2V270.144C213.215 269.611 213.482 269.344 214.015 269.344H231.359C231.871 269.344 232.298 269.483 232.639 269.76L239.999 277.056C240.234 277.269 240.372 277.451 240.415 277.6C240.479 277.749 240.511 277.995 240.511 278.336V287.104C240.511 287.381 240.404 287.627 240.191 287.84L236.671 291.264L233.695 293.824L237.215 298.496L240.831 306.24C240.916 306.432 240.98 306.624 241.023 306.816C241.087 306.987 241.119 307.2 241.119 307.456V311.2C241.119 311.733 240.852 312 240.319 312H231.871C231.402 312 231.082 311.787 230.911 311.36L225.759 296.384H223.359V311.2C223.359 311.733 223.092 312 222.559 312H214.015ZM226.879 288.544C228.65 288.544 229.855 288.181 230.495 287.456C231.135 286.709 231.455 285.323 231.455 283.296C231.455 281.248 231.135 279.861 230.495 279.136C229.855 278.389 228.65 278.016 226.879 278.016C225.13 278.016 223.924 278.389 223.263 279.136C222.602 279.861 222.271 281.248 222.271 283.296C222.271 285.323 222.602 286.709 223.263 287.456C223.924 288.181 225.13 288.544 226.879 288.544ZM257.203 312C256.669 312 256.403 311.733 256.403 311.2V304.8C256.403 304.267 256.669 304 257.203 304H270.642V294.4H259.859C259.325 294.4 259.059 294.133 259.059 293.6V287.2C259.059 286.667 259.325 286.4 259.859 286.4H270.642V277.856H257.203C256.669 277.856 256.403 277.589 256.403 277.056V270.144C256.403 269.611 256.669 269.344 257.203 269.344H273.107C273.597 269.344 274.024 269.515 274.387 269.856L280.787 276.256C281.128 276.619 281.299 277.045 281.299 277.536V283.936C281.299 284.384 281.192 284.704 280.979 284.896L276.819 289.664V291.68L280.979 296.416C281.192 296.629 281.299 296.949 281.299 297.376V303.776C281.299 304.288 281.128 304.715 280.787 305.056L274.387 311.456C274.024 311.819 273.597 312 273.107 312H257.203ZM306.725 312C306.448 312 306.224 311.957 306.053 311.872C305.904 311.787 305.808 311.669 305.765 311.52L302.085 297.024H299.109V289.344H302.085L305.765 277.344C305.808 277.173 305.904 277.056 306.053 276.992C306.224 276.907 306.448 276.864 306.725 276.864H314.821C315.354 276.864 315.621 277.131 315.621 277.664V281.056C315.621 281.355 315.6 281.589 315.557 281.76C315.514 281.931 315.45 282.112 315.365 282.304L310.629 293.216V294.304L315.621 306.56C315.728 306.795 315.802 307.008 315.845 307.2C315.888 307.371 315.909 307.563 315.909 307.776V311.2C315.909 311.733 315.642 312 315.109 312H306.725ZM289.765 312C289.232 312 288.965 311.733 288.965 311.2V270.144C288.965 269.611 289.232 269.344 289.765 269.344H298.309C298.842 269.344 299.109 269.611 299.109 270.144V311.2C299.109 311.733 298.842 312 298.309 312H289.765Z" fill="#D76834"/>
<defs>
<filter id="filter0_f_476_759" x="0.5" y="42.5" width="473" height="469" filterUnits="userSpaceOnUse" color-interpolation-filters="sRGB">
<feFlood flood-opacity="0" result="BackgroundImageFix"/>
<feBlend mode="normal" in="SourceGraphic" in2="BackgroundImageFix" result="shape"/>
<feGaussianBlur stdDeviation="9.25" result="effect1_foregroundBlur_476_759"/>
</filter>
<linearGradient id="paint0_linear_476_759" x1="239.088" y1="46.9512" x2="251.188" y2="414.523" gradientUnits="userSpaceOnUse">
<stop stop-color="#D76834"/>
<stop offset="1" stop-color="#282828" stop-opacity="0"/>
</linearGradient>
</defs>
</svg>
