<svg width="167" height="169" viewBox="0 0 167 169" fill="none" xmlns="http://www.w3.org/2000/svg">
<g id="Group 9">
<path id="Vector" d="M163.65 67.1361C162.472 58.6825 159.92 51.0259 155.995 44.1774C149.222 32.3474 137.764 26.4058 126.062 20.5627C114.937 15.014 103.099 8.77318 90.8528 6.20363C83.3918 6.3208 30.2212 142.178 30.2212 142.178C30.2212 142.178 43.8417 148.321 53.6627 152.186C60.6541 154.941 66.3484 157.674 72.9587 160.787C80.0202 164.111 86.3934 166.468 93.8544 166.352C101.315 166.234 108.675 164.434 115.919 160.957C123.167 157.473 130.065 152.422 136.629 145.804C143.195 139.18 148.806 131.289 153.471 122.12C158.136 112.951 161.293 103.608 162.939 94.0913C164.586 84.5746 164.823 75.5838 163.644 67.1359L163.65 67.1361Z" fill="url(#paint0_linear_146_21)" stroke="#282828" stroke-width="1.8" stroke-miterlimit="10"/>
<path id="Vector_2" d="M141.984 56.3219C140.796 47.8661 138.225 40.2071 134.27 33.3562C130.322 26.5054 125.084 21.1624 118.57 17.3334C112.05 13.5041 90.9938 4.86 83.476 4.96974C75.964 5.08529 16.9853 120.313 20.94 127.164C24.8946 134.014 30.0253 140.855 36.5457 144.683C42.8721 148.057 45.2769 148.524 51.9332 151.639C59.0446 154.965 64.2222 155.666 71.7342 155.55C79.2472 155.435 86.657 153.636 93.9495 150.159C101.247 146.676 108.192 141.626 114.8 135.008C121.409 128.385 127.057 120.493 131.752 111.323C136.447 102.152 139.624 92.8077 141.279 83.2891C142.935 73.7704 143.171 64.7776 141.979 56.3218L141.984 56.3219Z" stroke="#282828" stroke-width="1.8" stroke-miterlimit="10"/>
<path id="Vector_3" d="M118.27 47.3409C117.085 38.8654 114.518 31.1887 110.575 24.3224C106.625 17.4557 101.4 12.1011 94.8883 8.26356C88.3822 4.42625 81.3709 2.57137 73.8669 2.68805C66.3639 2.80476 58.9671 4.60321 51.6773 8.08905C44.3873 11.5805 37.4443 16.6435 30.8433 23.2777C24.2473 29.9121 18.6033 37.8284 13.9126 47.0153C9.22265 56.2079 6.04981 65.5747 4.394 75.1158C2.73319 84.6568 2.50167 93.6709 3.68662 102.152C4.87279 110.628 7.44024 118.304 11.3893 125.171C15.3375 132.037 20.5625 137.392 27.0746 141.23C33.5818 145.067 40.5869 146.927 48.0909 146.811C55.5939 146.694 62.9967 144.896 70.2807 141.404C77.5707 137.912 84.5076 132.85 91.1096 126.215C97.7108 119.575 103.355 111.665 108.045 102.472C112.735 93.2795 115.908 83.9127 117.564 74.3715C119.219 64.8303 119.456 55.8164 118.265 47.3407L118.27 47.3409Z" fill="#F0F0F0" stroke="#282828" stroke-width="1.8" stroke-miterlimit="10"/>
<path id="Vector_4" d="M96.7931 60.3332C94.4931 69.2667 91.2395 78.415 87.0264 87.8004C82.8146 97.1802 78.2026 105.532 73.1004 113.073C67.9979 120.619 62.866 126.853 57.6989 131.769C52.5368 136.685 47.5432 140.111 42.7285 142.04C37.9139 143.965 33.6502 143.885 29.9815 142.009C26.345 140.157 23.7344 136.73 22.1066 131.516C20.4789 126.302 19.8487 120.005 20.2066 112.638C20.5635 105.27 21.8996 97.1002 24.2129 88.128C26.526 79.1613 29.7731 70.0296 33.9545 60.7216C38.136 51.4136 42.8153 42.901 47.9056 35.3882C52.9958 27.881 58.1209 21.6693 63.2833 16.7476C68.4506 11.826 73.4439 8.40592 78.2753 6.4877C83.1057 4.56944 87.3403 4.53087 90.9814 6.39445C94.6513 8.2646 97.286 11.8093 98.8973 17.0066C100.508 22.215 101.139 28.5004 100.781 35.8734C100.424 43.2409 99.0941 51.3998 96.7995 60.3222L96.7885 60.3218L96.7931 60.3332Z" stroke="#282828" stroke-width="1.8" stroke-miterlimit="10"/>
<path id="Vector_5" d="M25.9756 29.0615L117.596 72.1283" stroke="#282828" stroke-width="1.8" stroke-miterlimit="10"/>
<path id="Vector_6" d="M4.49219 73.3723L97.0454 118.471" stroke="#282828" stroke-width="1.8" stroke-miterlimit="10"/>
<path id="Vector_7" d="M90.7709 6.20091L30.2183 142.265" stroke="#282828" stroke-width="1.8" stroke-miterlimit="10"/>
<path id="Vector_8" d="M117.562 73.1277L162.906 93.645" stroke="#282828" stroke-width="1.8" stroke-miterlimit="10"/>
<path id="Vector_9" d="M113.061 27.9532L158.371 49.47" stroke="#282828" stroke-width="1.8" stroke-miterlimit="10"/>
<path id="Vector_10" d="M65.1982 143.427L110.542 163.945" stroke="#282828" stroke-width="1.8" stroke-miterlimit="10"/>
<path id="Vector_11" d="M97.0449 118.471L142.355 139.988" stroke="#282828" stroke-width="1.8" stroke-miterlimit="10"/>
</g>
<defs>
<linearGradient id="paint0_linear_146_21" x1="66.2765" y1="147.072" x2="140.107" y2="38.5798" gradientUnits="userSpaceOnUse">
<stop stop-color="#4285F4"/>
<stop offset="0.27" stop-color="#4285F4"/>
<stop offset="0.75" stop-color="#34A853"/>
<stop offset="1" stop-color="#34A853"/>
</linearGradient>
</defs>
</svg>
