<svg width="800" height="265" viewBox="0 0 800 265" fill="none" xmlns="http://www.w3.org/2000/svg">
<rect x="1" y="1" width="798" height="263" rx="9" fill="#468EF5"/>
<rect x="1" y="1" width="798" height="263" rx="9" stroke="black" stroke-width="2"/>
<path fill-rule="evenodd" clip-rule="evenodd" d="M131.206 83.0242C138.436 76.6323 147.704 72.6779 157.294 72.6779C166.884 72.6779 174.981 76.6315 180.319 83.0242C185.656 89.4155 188.236 98.2458 186.793 108C185.348 117.754 180.154 126.584 172.925 132.976C165.694 139.367 156.426 143.321 146.837 143.321C143.123 143.321 139.533 144.852 136.732 147.328C133.932 149.803 131.92 153.224 131.361 157H136.016C136.381 154.53 137.697 152.294 139.528 150.675C141.359 149.056 143.707 148.055 146.136 148.055C157.011 148.055 167.52 143.572 175.72 136.323C183.92 129.074 189.81 119.061 191.447 108C193.085 96.9387 190.159 86.9251 184.105 79.6767C178.052 72.4276 168.87 67.9438 157.995 67.9438C147.121 67.9438 136.611 72.4276 128.411 79.6767C120.212 86.9251 114.321 96.9387 112.684 108H117.338C118.782 98.2458 123.976 89.4155 131.206 83.0242ZM99.5 197.056L105.43 157.001C107.067 145.941 112.958 135.927 121.157 128.678C129.357 121.429 139.867 116.946 150.741 116.946C153.17 116.946 155.518 115.945 157.349 114.326C159.18 112.708 160.496 110.47 160.861 108C161.227 105.53 160.573 103.292 159.221 101.674C157.869 100.054 155.819 99.0537 153.39 99.0537C150.961 99.0537 148.614 100.054 146.782 101.674C144.951 103.292 143.636 105.529 143.269 108H138.615C139.175 104.222 141.186 100.802 143.987 98.3268C146.787 95.8509 150.377 94.3196 154.09 94.3196C157.804 94.3196 160.941 95.8509 163.008 98.3268C165.076 100.802 166.075 104.222 165.516 108C164.957 111.777 162.944 115.197 160.144 117.673C157.344 120.149 153.754 121.68 150.04 121.68C140.45 121.68 131.183 125.634 123.952 132.025C116.721 138.417 111.528 147.248 110.083 157.001L104.154 197.056H99.5ZM114.073 157.001C115.352 148.368 119.949 140.552 126.349 134.895C132.749 129.236 140.951 125.737 149.439 125.737C154.255 125.737 158.909 123.751 162.54 120.541C166.171 117.332 168.779 112.898 169.505 107.999C170.23 103.101 168.934 98.666 166.253 95.4559C163.572 92.2466 159.506 90.2611 154.691 90.2611C149.875 90.2611 145.221 92.2466 141.59 95.4559C137.959 98.666 135.351 103.1 134.625 107.999H129.971C130.889 101.794 134.194 96.1756 138.795 92.1091C143.395 88.0426 149.291 85.5269 155.391 85.5269C161.492 85.5269 166.643 88.0426 170.04 92.1091C173.437 96.1756 175.078 101.794 174.159 107.999C173.24 114.204 169.936 119.822 165.336 123.889C160.735 127.955 154.839 130.471 148.739 130.471V130.47C141.536 130.47 134.575 133.44 129.144 138.241C123.714 143.042 119.812 149.674 118.728 157L112.798 197.056H108.144L114.073 157.001ZM122.717 157.001C123.636 150.796 126.941 145.178 131.54 141.112C136.141 137.045 142.037 134.53 148.138 134.53C155.341 134.53 162.301 131.56 167.732 126.759C173.163 121.958 177.064 115.326 178.149 108C179.233 100.674 177.295 94.0411 173.286 89.2404C169.277 84.4398 163.196 81.4698 155.993 81.4698C148.79 81.4698 141.829 84.4398 136.399 89.2404C130.968 94.0411 127.066 100.674 125.982 108H121.327C122.605 99.3669 127.203 91.5507 133.603 85.8937C140.003 80.2359 148.206 76.7357 156.693 76.7357C165.181 76.7357 172.347 80.2359 177.072 85.8937C181.797 91.5507 184.081 99.3669 182.803 108C181.525 116.633 176.927 124.449 170.527 130.107C164.128 135.764 155.925 139.264 147.437 139.264C142.622 139.264 137.967 141.249 134.337 144.459C130.706 147.669 128.097 152.103 127.372 157.001L121.443 197.056H116.788L122.717 157.001ZM131.361 157L125.432 197.056H171.361L172.062 192.321H130.786L136.015 157H131.361ZM134.691 165.947L133.991 170.681H175.266L175.968 165.947H134.691ZM174.666 174.739H133.391L132.69 179.473H173.966L174.666 174.739ZM173.365 183.531H132.089L131.388 188.265H172.664L173.365 183.531Z" fill="#282828"/>
<path fill-rule="evenodd" clip-rule="evenodd" d="M214.688 83.0242C221.919 76.6323 231.186 72.6779 240.776 72.6779L240.176 76.7357C231.688 76.7357 223.485 80.2359 217.085 85.8937C210.685 91.5507 206.088 99.3669 204.81 108H209.464C210.548 100.674 214.45 94.0411 219.881 89.2404C225.31 84.4398 232.272 81.4698 239.474 81.4698L238.873 85.5276C232.772 85.5276 226.876 88.0434 222.277 92.1099C217.677 96.1764 214.371 101.794 213.453 108H218.107C218.832 103.101 221.441 98.6667 225.071 95.4566C228.703 92.2473 233.356 90.2618 238.172 90.2618L237.571 94.3196C233.858 94.3196 230.268 95.8509 227.467 98.3268C224.667 100.802 222.655 104.222 222.096 108H226.75C227.116 105.53 228.432 103.292 230.263 101.674C232.095 100.054 234.442 99.0537 236.87 99.0537L222.363 197.056H227.017L246.13 67.9438H241.476C230.601 67.9438 220.092 72.4276 211.892 79.6767C203.692 86.9251 197.801 96.9387 196.164 108H200.818C202.263 98.2458 207.458 89.4155 214.688 83.0242ZM250.12 67.9438H254.775L235.662 197.056H231.007L250.12 67.9438ZM258.764 67.9438H263.419L244.305 197.056H239.651L258.764 67.9438ZM267.408 67.9438L248.296 197.056H252.95L272.063 67.9438H267.408Z" fill="#282828"/>
<path d="M294.82 132.5C294.82 135.696 292.273 138.287 289.131 138.287C285.989 138.287 283.441 135.696 283.441 132.5C283.441 129.304 285.989 126.713 289.131 126.713C292.273 126.713 294.82 129.304 294.82 132.5Z" fill="#282828"/>
<path fill-rule="evenodd" clip-rule="evenodd" d="M332.556 82.579C339.786 76.1871 349.053 72.2334 358.644 72.2334C368.234 72.2334 376.33 76.1871 381.669 82.579C387.007 88.9703 389.587 97.8006 388.143 107.555L380.757 157.444C379.313 167.198 374.118 176.028 366.888 182.42C359.658 188.812 350.391 192.766 340.8 192.766C331.21 192.766 323.114 188.812 317.776 182.42C312.438 176.028 309.858 167.198 311.301 157.444L318.687 107.555C320.132 97.8006 325.325 88.9703 332.556 82.579ZM359.479 157.443L366.865 107.555C367.423 103.777 366.425 100.357 364.358 97.8816C362.29 95.4057 359.154 93.8744 355.44 93.8744C351.726 93.8744 348.136 95.4057 345.336 97.8816C342.536 100.357 340.524 103.777 339.964 107.555L332.579 157.443C332.021 161.22 333.019 164.641 335.087 167.117C337.153 169.593 340.29 171.124 344.004 171.124C347.718 171.124 351.307 169.593 354.108 167.117C356.908 164.641 358.92 161.221 359.479 157.443ZM362.211 107.555C362.577 105.085 361.923 102.848 360.571 101.229C359.22 99.6103 357.168 98.6092 354.739 98.6092C352.309 98.6092 349.963 99.6103 348.131 101.229C346.3 102.848 344.985 105.085 344.619 107.555L337.234 157.444C336.868 159.914 337.522 162.151 338.874 163.77C340.226 165.389 342.276 166.39 344.705 166.39C347.135 166.39 349.482 165.389 351.313 163.77C353.144 162.151 354.46 159.914 354.825 157.444L362.211 107.555ZM370.854 107.555C371.58 102.657 370.284 98.223 367.603 95.0129C364.923 91.8028 360.856 89.8173 356.041 89.8173C351.224 89.8173 346.57 91.8028 342.939 95.0129C339.309 98.223 336.7 102.657 335.975 107.555L328.589 157.444C327.864 162.343 329.16 166.777 331.84 169.986C334.521 173.197 338.587 175.182 343.404 175.182C348.219 175.182 352.873 173.196 356.504 169.986C360.135 166.777 362.743 162.343 363.469 157.444L370.854 107.555ZM368.123 157.443L375.509 107.555C376.427 101.349 374.786 95.7312 371.39 91.6647C367.993 87.5982 362.843 85.0824 356.741 85.0824C350.641 85.0824 344.745 87.5982 340.144 91.6647C335.543 95.7319 332.238 101.35 331.32 107.555L323.934 157.443C323.017 163.649 324.658 169.267 328.054 173.333C331.45 177.4 336.601 179.915 342.703 179.915C348.804 179.915 354.7 177.4 359.3 173.333C363.901 169.267 367.205 163.649 368.123 157.443ZM379.498 107.555C380.583 100.229 378.644 93.5966 374.635 88.7952C370.626 83.9946 364.544 81.0253 357.341 81.0253C350.139 81.0253 343.178 83.9946 337.748 88.7952C332.317 93.5966 328.415 100.229 327.331 107.555L319.945 157.444C318.862 164.771 320.8 171.403 324.808 176.204C328.818 181.005 334.899 183.975 342.101 183.975C349.304 183.975 356.266 181.005 361.697 176.204C367.127 171.403 371.028 164.771 372.113 157.444L379.498 107.555ZM376.767 157.443L384.153 107.555C385.431 98.921 383.147 91.1055 378.422 85.4477C373.697 79.7899 366.53 76.2905 358.043 76.2905C349.555 76.2905 341.353 79.7899 334.952 85.4477C328.553 91.1048 323.954 98.921 322.676 107.555L315.291 157.443C314.013 166.077 316.297 173.892 321.023 179.55C325.747 185.208 332.913 188.708 341.401 188.708C349.889 188.708 358.092 185.209 364.492 179.55C370.892 173.893 375.49 166.077 376.767 157.443ZM392.796 107.555C394.435 96.4935 391.508 86.4806 385.456 79.2322C379.401 71.9831 370.22 67.5 359.345 67.5C348.471 67.5 337.961 71.9831 329.761 79.2322C321.561 86.4806 315.67 96.4943 314.033 107.555L306.648 157.444C305.01 168.505 307.936 178.519 313.99 185.767C320.044 193.016 329.226 197.5 340.1 197.5C350.975 197.5 361.485 193.016 369.685 185.767C377.885 178.519 383.775 168.505 385.412 157.444L392.796 107.555Z" fill="#282828"/>
<path fill-rule="evenodd" clip-rule="evenodd" d="M424.952 82.5805C432.182 76.1885 441.45 72.2341 451.04 72.2341C460.63 72.2341 468.727 76.1878 474.065 82.5805C479.402 88.9717 481.982 97.802 480.539 107.556C479.094 117.31 473.9 126.14 466.67 132.532C459.439 138.923 450.172 142.877 440.582 142.877C436.869 142.877 433.279 144.408 430.478 146.884C427.678 149.359 425.666 152.78 425.107 156.557H429.761C430.127 154.086 431.443 151.85 433.274 150.231C435.105 148.612 437.453 147.611 439.882 147.611C450.757 147.611 461.266 143.128 469.466 135.879C477.665 128.63 483.556 118.617 485.193 107.556C486.831 96.495 483.905 86.4813 477.851 79.233C471.798 71.9839 462.616 67.5 451.741 67.5C440.867 67.5 430.357 71.9839 422.157 79.233C413.957 86.4813 408.067 96.495 406.43 107.556H411.084C412.528 97.802 417.722 88.9717 424.952 82.5805ZM393.246 196.612L399.175 156.557C400.813 145.497 406.704 135.483 414.903 128.234C423.103 120.985 433.612 116.502 444.487 116.502C446.916 116.502 449.263 115.501 451.095 113.882C452.926 112.264 454.242 110.026 454.607 107.556C454.973 105.086 454.319 102.849 452.967 101.23C451.615 99.6103 449.565 98.61 447.136 98.61C444.706 98.61 442.36 99.6103 440.528 101.23C438.696 102.849 437.381 105.085 437.015 107.556H432.361C432.92 103.778 434.932 100.358 437.733 97.883C440.533 95.4071 444.122 93.8758 447.836 93.8758C451.55 93.8758 454.687 95.4071 456.754 97.883C458.822 100.358 459.821 103.778 459.262 107.556C458.703 111.333 456.69 114.753 453.89 117.229C451.09 119.705 447.5 121.236 443.786 121.236C434.196 121.236 424.928 125.19 417.697 131.582C410.467 137.974 405.274 146.804 403.829 156.557L397.9 196.612H393.246ZM407.819 156.557C409.097 147.924 413.695 140.108 420.095 134.451C426.494 128.793 434.697 125.293 443.185 125.293C448 125.293 452.655 123.308 456.286 120.098C459.917 116.888 462.525 112.454 463.25 107.555C463.976 102.657 462.679 98.2223 459.999 95.0122C457.318 91.8028 453.252 89.8173 448.436 89.8173C443.621 89.8173 438.967 91.8028 435.335 95.0122C431.705 98.2223 429.097 102.656 428.371 107.555H423.717C424.635 101.35 427.94 95.7319 432.541 91.6654C437.14 87.5989 443.037 85.0832 449.137 85.0832C455.238 85.0832 460.389 87.5989 463.786 91.6654C467.182 95.7319 468.824 101.35 467.905 107.555C466.986 113.761 463.681 119.379 459.082 123.445C454.481 127.512 448.585 130.027 442.485 130.027V130.027C435.281 130.027 428.321 132.996 422.89 137.797C417.46 142.598 413.558 149.231 412.474 156.557L406.544 196.612H401.89L407.819 156.557ZM416.463 156.557C417.382 150.353 420.686 144.735 425.286 140.668C429.887 136.602 435.783 134.086 441.884 134.086C449.086 134.086 456.047 131.117 461.478 126.315C466.909 121.515 470.81 114.882 471.895 107.556C472.979 100.23 471.04 93.5974 467.032 88.7967C463.023 83.996 456.942 81.0261 449.738 81.0261C442.536 81.0261 435.574 83.996 430.145 88.7967C424.714 93.5974 420.812 100.23 419.728 107.556H415.073C416.351 98.9232 420.949 91.107 427.349 85.4499C433.749 79.7921 441.951 76.2919 450.439 76.2919C458.927 76.2919 466.093 79.7921 470.818 85.4499C475.543 91.107 477.827 98.9232 476.549 107.556C475.271 116.189 470.673 124.005 464.273 129.663C457.873 135.321 449.671 138.82 441.183 138.82C436.367 138.82 431.713 140.806 428.082 144.016C424.452 147.225 421.843 151.659 421.118 156.557L415.188 196.612H410.534L416.463 156.557ZM425.107 156.557L419.177 196.612H465.107L465.808 191.878H424.532L429.761 156.557H425.107ZM428.437 165.503L427.737 170.237H469.012L469.713 165.503H428.437ZM468.412 174.295H427.137L426.436 179.029H467.711L468.412 174.295ZM467.111 183.087H425.834L425.134 187.821H466.41L467.111 183.087Z" fill="#282828"/>
<path d="M508.399 132.5C508.399 135.696 505.852 138.287 502.71 138.287C499.568 138.287 497.021 135.696 497.021 132.5C497.021 129.304 499.568 126.713 502.71 126.713C505.852 126.713 508.399 129.304 508.399 132.5Z" fill="#282828"/>
<path fill-rule="evenodd" clip-rule="evenodd" d="M551.484 83.0242C558.714 76.6323 567.982 72.6779 577.572 72.6779C587.162 72.6779 595.259 76.6315 600.597 83.0242C605.934 89.4155 608.514 98.2458 607.071 108C605.626 117.754 600.432 126.584 593.202 132.976C585.971 139.367 576.704 143.321 567.114 143.321C563.401 143.321 559.811 144.852 557.01 147.328C554.21 149.803 552.198 153.224 551.639 157H556.294C556.659 154.53 557.975 152.294 559.806 150.675C561.637 149.056 563.985 148.055 566.414 148.055C577.289 148.055 587.798 143.572 595.998 136.323C604.198 129.074 610.088 119.061 611.725 108C613.363 96.9387 610.437 86.9251 604.383 79.6767C598.33 72.4276 589.148 67.9438 578.273 67.9438C567.399 67.9438 556.889 72.4276 548.689 79.6767C540.49 86.9251 534.599 96.9387 532.962 108H537.616C539.06 98.2458 544.254 89.4155 551.484 83.0242ZM519.778 197.056L525.708 157.001C527.345 145.941 533.236 135.927 541.435 128.678C549.635 121.429 560.144 116.946 571.019 116.946C573.448 116.946 575.796 115.945 577.627 114.326C579.458 112.708 580.774 110.47 581.139 108C581.505 105.53 580.851 103.292 579.499 101.674C578.147 100.054 576.097 99.0537 573.668 99.0537C571.238 99.0537 568.892 100.054 567.06 101.674C565.228 103.292 563.914 105.529 563.547 108H558.893C559.453 104.222 561.464 100.802 564.265 98.3268C567.065 95.8509 570.655 94.3196 574.368 94.3196C578.082 94.3196 581.219 95.8509 583.286 98.3268C585.354 100.802 586.353 104.222 585.794 108C585.235 111.777 583.222 115.197 580.422 117.673C577.622 120.149 574.032 121.68 570.318 121.68C560.728 121.68 551.461 125.634 544.23 132.025C536.999 138.417 531.806 147.248 530.361 157.001L524.432 197.056H519.778ZM534.351 157.001C535.63 148.368 540.227 140.552 546.627 134.895C553.027 129.236 561.229 125.737 569.717 125.737C574.533 125.737 579.187 123.751 582.818 120.541C586.449 117.332 589.057 112.898 589.783 107.999C590.508 103.101 589.211 98.666 586.531 95.4559C583.85 92.2466 579.784 90.2611 574.968 90.2611C570.153 90.2611 565.499 92.2466 561.868 95.4559C558.237 98.666 555.629 103.1 554.903 107.999H550.249C551.167 101.794 554.472 96.1756 559.073 92.1091C563.673 88.0426 569.569 85.5269 575.669 85.5269C581.77 85.5269 586.921 88.0426 590.318 92.1091C593.715 96.1756 595.356 101.794 594.437 107.999C593.518 114.204 590.213 119.822 585.614 123.889C581.013 127.955 575.117 130.471 569.017 130.471V130.47C561.814 130.47 554.853 133.44 549.422 138.241C543.992 143.042 540.09 149.674 539.006 157L533.076 197.056H528.422L534.351 157.001ZM542.995 157.001C543.914 150.796 547.219 145.178 551.818 141.112C556.419 137.045 562.315 134.53 568.416 134.53C575.618 134.53 582.579 131.56 588.01 126.759C593.441 121.958 597.342 115.326 598.427 108C599.511 100.674 597.572 94.0411 593.564 89.2404C589.555 84.4398 583.474 81.4698 576.271 81.4698C569.068 81.4698 562.107 84.4398 556.677 89.2404C551.246 94.0411 547.344 100.674 546.26 108H541.605C542.883 99.3669 547.481 91.5507 553.881 85.8937C560.281 80.2359 568.483 76.7357 576.971 76.7357C585.459 76.7357 592.625 80.2359 597.35 85.8937C602.075 91.5507 604.359 99.3669 603.081 108C601.803 116.633 597.205 124.449 590.805 130.107C584.405 135.764 576.203 139.264 567.715 139.264C562.899 139.264 558.245 141.249 554.615 144.459C550.984 147.669 548.375 152.103 547.65 157.001L541.721 197.056H537.066L542.995 157.001ZM551.639 157L545.709 197.056H591.639L592.34 192.321H551.064L556.293 157H551.639ZM554.969 165.947L554.269 170.681H595.544L596.245 165.947H554.969ZM594.944 174.739H553.669L552.968 179.473H594.244L594.944 174.739ZM593.643 183.531H552.367L551.666 188.265H592.942L593.643 183.531Z" fill="#282828"/>
<path fill-rule="evenodd" clip-rule="evenodd" d="M630.862 181.977C636.201 188.369 644.298 192.322 653.887 192.322C663.477 192.322 672.745 188.369 679.975 181.977C687.206 175.585 692.4 166.755 693.844 157.001C695.287 147.247 692.707 138.417 687.371 132.025C682.032 125.634 673.935 121.679 664.345 121.679H624.963L632.918 67.9434H637.572L630.318 116.945H634.308L641.562 67.9434H646.216L638.962 116.945H642.952L650.206 67.9434H654.86L647.607 116.945H651.595L658.849 67.9441H700.5L699.799 72.679H662.804L662.203 76.7361H699.199L698.498 81.4702H661.502L660.901 85.528H697.898L697.197 90.2621H660.202L659.602 94.3192H696.596L695.896 99.0534H658.901L656.251 116.945H665.047C675.922 116.945 685.104 121.429 691.158 128.677C697.212 135.925 700.138 145.94 698.5 157C696.862 168.061 690.972 178.075 682.772 185.324C674.573 192.573 664.063 197.057 653.188 197.057C642.313 197.057 633.132 192.573 627.078 185.324C621.024 178.075 618.098 168.061 619.736 157H624.391C622.944 166.755 625.524 175.585 630.862 181.977ZM663.745 125.737H624.362L623.662 130.471H663.044V130.47C670.247 130.47 676.329 133.439 680.337 138.241C684.347 143.041 686.284 149.674 685.2 157C684.116 164.326 680.214 170.959 674.784 175.76C669.354 180.561 662.393 183.53 655.19 183.53C647.986 183.53 641.904 180.561 637.896 175.76C633.887 170.959 631.95 164.326 633.034 157H628.379C627.1 165.633 629.385 173.45 634.11 179.107C638.835 184.765 646.001 188.265 654.489 188.265C662.977 188.265 671.179 184.765 677.579 179.107C683.98 173.45 688.577 165.634 689.855 157C691.133 148.367 688.85 140.551 684.124 134.894C679.399 129.236 672.232 125.737 663.745 125.737ZM662.443 134.529H623.061L622.361 139.263H661.742C666.559 139.263 670.624 141.249 673.305 144.459C675.985 147.668 677.281 152.102 676.556 157.001C675.831 161.9 673.222 166.334 669.592 169.543C665.96 172.753 661.307 174.739 656.491 174.739C651.675 174.739 647.609 172.753 644.928 169.543C642.248 166.334 640.952 161.9 641.676 157.001H637.023C636.104 163.207 637.746 168.825 641.142 172.891C644.537 176.958 649.69 179.473 655.79 179.473C661.891 179.473 667.787 176.958 672.387 172.891C676.987 168.825 680.292 163.207 681.211 157.001C682.129 150.796 680.487 145.178 677.092 141.111C673.695 137.044 668.544 134.529 662.443 134.529ZM661.14 143.32H621.758L621.058 148.055H660.44C662.869 148.055 664.92 149.056 666.272 150.674C667.624 152.293 668.278 154.531 667.911 157C667.547 159.471 666.231 161.707 664.399 163.326C662.568 164.946 660.221 165.947 657.791 165.947C655.362 165.947 653.312 164.946 651.96 163.326C650.608 161.707 649.955 159.471 650.32 157H645.665C645.107 160.778 646.106 164.198 648.173 166.674C650.241 169.15 653.376 170.681 657.09 170.681C660.805 170.681 664.395 169.15 667.194 166.674C669.994 164.198 672.007 160.779 672.566 157C673.125 153.223 672.126 149.803 670.059 147.328C667.991 144.852 664.855 143.32 661.14 143.32Z" fill="#282828"/>
</svg>
