<svg width="222" height="222" viewBox="0 0 222 222" fill="none" xmlns="http://www.w3.org/2000/svg">
<g id="Group 10">
<path id="Vector" d="M129.49 15.3045L129.49 15.3046C132.366 17.8543 136.294 18.863 140.043 18.0142L150.929 15.5497C155.522 14.5099 160.214 16.8377 162.164 21.1234C162.164 21.1235 162.164 21.1235 162.164 21.1235L166.836 31.392L166.836 31.3922C168.423 34.8799 171.588 37.3934 175.345 38.1487L186.337 40.3585C190.939 41.2836 194.265 45.3031 194.312 49.9956L194.425 61.3673C194.463 65.1838 196.326 68.7517 199.435 70.966L208.646 77.5264C212.457 80.241 213.856 85.2473 212.005 89.5442L212.923 89.9399L212.005 89.5443L207.493 100.017C207.493 100.017 207.493 100.017 207.493 100.017C205.985 103.514 206.239 107.52 208.173 110.799L208.174 110.8L213.961 120.607C213.961 120.607 213.961 120.607 213.962 120.607C216.337 124.635 215.582 129.773 212.147 132.947L212.826 133.681L212.147 132.947L203.808 140.653C201.009 143.24 199.614 147.007 200.055 150.793L201.371 162.114C201.912 166.767 199.127 171.166 194.688 172.668C194.688 172.668 194.688 172.668 194.688 172.668L184.024 176.275L184.024 176.275C180.401 177.501 177.585 180.388 176.451 184.04L177.406 184.337L176.451 184.041L173.092 194.862L174.047 195.158L173.092 194.862C171.699 199.352 167.347 202.25 162.666 201.805L162.572 202.801L162.666 201.805L151.539 200.748C147.717 200.385 143.954 201.882 141.427 204.771L141.427 204.771L134.033 213.226C130.93 216.775 125.76 217.654 121.657 215.329L111.943 209.824L111.942 209.824C108.597 207.929 104.543 207.762 101.053 209.374L101.053 209.374L90.9163 214.059L91.3359 214.967L90.9163 214.059C86.6371 216.037 81.557 214.735 78.7573 210.942L72.0859 201.906L71.2814 202.5L72.0858 201.906C69.8058 198.818 66.179 197.015 62.3402 197.062L51.1636 197.197L51.1757 198.197L51.1636 197.198C46.4617 197.255 42.3641 194.008 41.3457 189.418L40.3694 189.634L41.3457 189.418L38.8908 178.356C38.0624 174.623 35.4944 171.513 31.9853 169.993L31.9852 169.993L21.6547 165.518C21.6546 165.518 21.6546 165.518 21.6545 165.518C17.3547 163.654 14.9421 159.041 15.8653 154.449L18.1114 143.274L17.131 143.077L18.1114 143.274C18.8623 139.538 17.783 135.668 15.207 132.86L7.5318 124.492C7.53178 124.492 7.53177 124.492 7.53175 124.492C4.37114 121.045 4.04256 115.862 6.74261 112.045L13.319 102.748C15.518 99.6389 16.1007 95.6674 14.8876 92.0581L13.9397 92.3767L14.8876 92.0581L11.2545 81.2489C9.76387 76.8138 11.5715 71.9401 15.5939 69.5492L25.3152 63.771C28.5963 61.8208 30.7462 58.4186 31.099 54.6184L32.1504 43.2948C32.5842 38.6222 36.2303 34.8908 40.8927 34.3485L52.0295 33.0531C55.8361 32.6104 59.1984 30.3666 61.0677 27.0215L66.5709 17.1734C68.8677 13.0632 73.7359 11.1303 78.2275 12.5456L88.8731 15.8998C92.539 17.0549 96.5369 16.3738 99.6133 14.07L108.571 7.36154C112.346 4.53483 117.588 4.75147 121.116 7.87989L121.779 7.13167L121.116 7.87991L129.49 15.3045Z" fill="#468EF5" stroke="#282828" stroke-width="2"/>
<g id="Vector_2">
<path d="M46.4335 88.4981L47.3471 66.3888L61.3526 66.9675L61.2273 69.9996L50.8178 69.5695L50.5737 75.4759L59.5638 75.8473L59.4398 78.8479L50.4498 78.4764L50.1548 85.6146L60.5643 86.0447L60.439 89.0768L46.4335 88.4981Z" fill="#F0F0F0"/>
<path d="M68.4557 89.7878C67.4883 89.7478 66.5915 89.5315 65.7651 89.1387C64.9606 88.7258 64.3208 88.151 63.8457 87.4142C63.3916 86.6783 63.185 85.8155 63.2259 84.8259C63.2746 83.6467 63.6086 82.7008 64.2279 81.9881C64.8472 81.2755 65.6685 80.7716 66.6918 80.4764C67.716 80.1601 68.8379 80.0272 70.0576 80.0776L73.9691 80.2392C74.0039 79.397 73.8955 78.707 73.6438 78.1693C73.3931 77.6105 73.0311 77.1948 72.5579 76.9221C72.0855 76.6284 71.5234 76.4681 70.8714 76.4411C70.0303 76.4064 69.2864 76.5655 68.6399 76.9184C67.9933 77.2714 67.5786 77.8765 67.3958 78.7337L63.7998 78.5851C63.9519 77.4524 64.3704 76.4994 65.0554 75.7262C65.7623 74.9328 66.6396 74.3469 67.6875 73.9683C68.7362 73.5687 69.8493 73.3932 71.027 73.4419C72.5411 73.5045 73.7806 73.8404 74.7455 74.4498C75.7322 75.039 76.4575 75.8388 76.9214 76.8493C77.4062 77.8607 77.6216 79.0192 77.5677 80.3247L77.3706 85.094C77.3681 85.6634 77.4879 86.0796 77.7298 86.3427C77.9927 86.6067 78.4077 86.7609 78.9746 86.8055L78.8493 89.8376C77.966 89.8011 77.2129 89.6751 76.5899 89.4595C75.9668 89.2439 75.4528 88.9379 75.0479 88.5415C74.664 88.146 74.3585 87.6377 74.1314 87.0166C73.5919 87.838 72.8158 88.5231 71.803 89.0718C70.8122 89.6004 69.6964 89.839 68.4557 89.7878ZM69.4905 86.9198C70.3107 86.9537 71.0335 86.7937 71.659 86.4399C72.3064 86.0659 72.8223 85.5599 73.2068 84.9219C73.6132 84.2637 73.8329 83.5346 73.866 82.7344L73.8699 82.6397L70.2108 82.4885C69.664 82.4659 69.1353 82.5179 68.6245 82.6444C68.1137 82.7709 67.7041 82.9966 67.3958 83.3213C67.0883 83.625 66.9228 84.0611 66.8993 84.6296C66.868 85.3877 67.1078 85.9565 67.6188 86.3362C68.1306 86.6948 68.7545 86.8894 69.4905 86.9198Z" fill="#F0F0F0"/>
<path d="M81.2015 89.9348L81.8489 74.2687L85.3187 74.4121L85.2761 76.9731C85.8401 76.0683 86.5741 75.3815 87.4783 74.9127C88.4043 74.4236 89.4561 74.2034 90.6337 74.2521L90.4784 78.0107L89.5006 77.9703C88.0706 77.9112 86.9938 78.2253 86.2702 78.9125C85.5467 79.5997 85.1536 80.7014 85.091 82.2175L84.766 90.0821L81.2015 89.9348Z" fill="#F0F0F0"/>
<path d="M92.1987 90.3892L93.1123 68.2799L96.6768 68.4272L95.7632 90.5365L92.1987 90.3892Z" fill="#F0F0F0"/>
<path d="M100.388 97.6881L104.142 90.1867L98.2946 74.9483L102.269 75.1125L106.223 86.476L111.259 75.484L115.013 75.6391L104.142 97.8433L100.388 97.6881Z" fill="#F0F0F0"/>
<path d="M124.307 91.716L125.221 69.6067L133.328 69.9417C135.557 70.0338 137.25 70.6099 138.407 71.6702C139.585 72.7313 140.14 74.0831 140.072 75.7255C140.021 76.9467 139.675 77.9449 139.032 78.7198C138.389 79.4948 137.608 80.032 136.69 80.3315C137.477 80.6593 138.175 81.11 138.783 81.6836C139.391 82.2571 139.859 82.9197 140.186 83.6715C140.534 84.4241 140.69 85.2426 140.653 86.127C140.605 87.3061 140.287 88.3582 139.701 89.2832C139.115 90.2081 138.275 90.9222 137.18 91.4253C136.106 91.9293 134.78 92.1488 133.203 92.0836L124.307 91.716ZM128.029 88.8325L132.823 89.0306C134.148 89.0853 135.17 88.8323 135.888 88.2713C136.607 87.7104 136.99 86.8404 137.039 85.6612C137.087 84.4821 136.756 83.5825 136.044 82.9625C135.333 82.3425 134.335 82.006 133.053 81.953L128.321 81.7575L128.029 88.8325ZM128.445 78.7569L132.672 78.9316C133.892 78.982 134.806 78.7667 135.416 78.2856C136.027 77.7836 136.352 77.0482 136.392 76.0796C136.431 75.1321 136.167 74.3935 135.599 73.8638C135.032 73.313 134.117 73.0116 132.856 72.9595L128.692 72.7874L128.445 78.7569Z" fill="#F0F0F0"/>
<path d="M146.041 74.4218C145.389 74.3949 144.842 74.1402 144.398 73.6579C143.955 73.1755 143.746 72.608 143.773 71.9552C143.8 71.3025 144.054 70.7646 144.535 70.3415C145.017 69.8974 145.584 69.6888 146.236 69.7157C146.888 69.7426 147.435 69.9973 147.879 70.4797C148.323 70.941 148.532 71.498 148.505 72.1507C148.478 72.8035 148.224 73.3519 147.742 73.7961C147.26 74.2402 146.693 74.4488 146.041 74.4218ZM143.493 92.5088L144.14 76.8427L147.736 76.9913L147.089 92.6574L143.493 92.5088Z" fill="#F0F0F0"/>
<path d="M150.604 92.8026L151.252 77.1366L154.721 77.28L154.679 79.8409C155.243 78.9362 155.977 78.2494 156.881 77.7805C157.807 77.2915 158.859 77.0713 160.036 77.1199L159.881 80.8785L158.903 80.8381C157.473 80.779 156.397 81.0931 155.673 81.7803C154.949 82.4676 154.556 83.5693 154.494 85.0853L154.169 92.9499L150.604 92.8026Z" fill="#F0F0F0"/>
<path d="M168.062 93.9037C166.506 93.8394 165.186 93.4157 164.102 92.6327C163.039 91.8295 162.229 90.7941 161.67 89.5266C161.133 88.2599 160.896 86.858 160.959 85.3209C161.022 83.8048 161.373 82.4483 162.012 81.2513C162.674 80.0342 163.576 79.0907 164.72 78.4208C165.865 77.7299 167.205 77.4162 168.741 77.4796C169.834 77.5248 170.844 77.7986 171.772 78.3009C172.7 78.7822 173.44 79.4667 173.993 80.3543L174.354 71.6369L177.95 71.7855L177.036 93.8949L173.535 93.7502L173.538 91.3774C172.998 92.1988 172.245 92.8426 171.278 93.3089C170.312 93.7541 169.24 93.9524 168.062 93.9037ZM168.98 90.8094C169.926 90.8485 170.745 90.6608 171.436 90.2465C172.127 89.8321 172.678 89.2537 173.088 88.5113C173.498 87.7479 173.724 86.8818 173.764 85.9132C173.81 84.7972 173.628 83.8511 173.217 83.0748C172.828 82.2994 172.284 81.7074 171.585 81.2989C170.906 80.8912 170.168 80.6708 169.368 80.6378C168.485 80.6013 167.687 80.7898 166.975 81.2033C166.285 81.5966 165.724 82.164 165.293 82.9056C164.884 83.6269 164.659 84.4929 164.617 85.5036C164.576 86.4933 164.74 87.3859 165.107 88.1815C165.475 88.9561 165.987 89.5783 166.641 90.0483C167.317 90.5192 168.096 90.7729 168.98 90.8094Z" fill="#F0F0F0"/>
<path d="M63.3502 130.608C61.8361 130.546 60.4695 130.226 59.2505 129.648C58.0324 129.049 57.0767 128.219 56.3833 127.157C55.7118 126.074 55.3973 124.764 55.4398 123.226L59.1935 123.381C59.1658 124.561 59.5359 125.547 60.3037 126.338C61.0723 127.108 62.1191 127.52 63.4439 127.575C64.6216 127.623 65.5792 127.389 66.3168 126.871C67.0544 126.353 67.4437 125.599 67.4846 124.61C67.5081 124.041 67.433 123.563 67.2594 123.176C67.0867 122.769 66.7856 122.408 66.3562 122.095C65.9276 121.761 65.351 121.442 64.6262 121.138C63.9024 120.813 62.9805 120.437 61.8606 120.011C60.554 119.514 59.4919 118.964 58.6742 118.361C57.8574 117.736 57.2649 117.037 56.8967 116.262C56.5503 115.468 56.3967 114.596 56.4359 113.649C56.4916 112.301 56.854 111.177 57.5232 110.277C58.2134 109.377 59.1148 108.719 60.2275 108.3C61.362 107.862 62.6022 107.671 63.9481 107.727C65.315 107.783 66.5352 108.076 67.6087 108.605C68.6822 109.135 69.5359 109.887 70.1697 110.863C70.8043 111.817 71.1043 112.968 71.0697 114.317L67.2528 114.159C67.2903 113.254 66.9855 112.471 66.3387 111.812C65.6919 111.152 64.8112 110.8 63.6966 110.753C62.7512 110.693 61.9316 110.902 61.2377 111.38C60.565 111.858 60.2085 112.581 60.1685 113.55C60.1407 114.224 60.3279 114.791 60.7302 115.25C61.1536 115.711 61.7578 116.126 62.543 116.496C63.3282 116.866 64.2803 117.274 65.3994 117.721C66.0838 117.981 66.7769 118.284 67.4789 118.63C68.2019 118.976 68.8473 119.414 69.4153 119.944C70.0051 120.453 70.474 121.084 70.8221 121.837C71.1711 122.568 71.3233 123.471 71.279 124.545C71.2242 125.871 70.8298 127.005 70.0958 127.945C69.3837 128.864 68.4389 129.553 67.2614 130.011C66.0839 130.468 64.7802 130.667 63.3502 130.608Z" fill="#F0F0F0"/>
<path d="M80.1459 130.923C78.5477 130.857 77.3441 130.417 76.5351 129.603C75.7262 128.789 75.3569 127.529 75.4274 125.824L75.7485 118.054L73.5088 117.961L73.6328 114.961L75.8725 115.053L76.0291 111.263L79.6251 111.412L79.4685 115.202L83.2853 115.36L83.1613 118.36L79.3445 118.202L79.0221 126.004C78.9925 126.72 79.1403 127.222 79.4655 127.509C79.7915 127.776 80.291 127.923 80.9639 127.951L82.7619 128.025L82.6379 131.026L80.1459 130.923Z" fill="#F0F0F0"/>
<path d="M90.3594 131.724C89.392 131.684 88.4952 131.468 87.6688 131.075C86.8643 130.662 86.2245 130.088 85.7494 129.351C85.2953 128.615 85.0887 127.752 85.1296 126.762C85.1783 125.583 85.5123 124.637 86.1316 123.925C86.7509 123.212 87.5722 122.708 88.5955 122.413C89.6197 122.097 90.7416 121.964 91.9613 122.014L95.8728 122.176C95.9076 121.334 95.7992 120.644 95.5475 120.106C95.2968 119.547 94.9348 119.131 94.4616 118.859C93.9892 118.565 93.4271 118.405 92.7751 118.378C91.934 118.343 91.1901 118.502 90.5436 118.855C89.897 119.208 89.4823 119.813 89.2995 120.67L85.7035 120.522C85.8556 119.389 86.2741 118.436 86.9591 117.663C87.666 116.869 88.5433 116.283 89.5912 115.905C90.6399 115.505 91.753 115.33 92.9307 115.378C94.4448 115.441 95.6843 115.777 96.6492 116.386C97.6359 116.976 98.3612 117.775 98.8251 118.786C99.3099 119.797 99.5253 120.956 99.4714 122.261L99.2743 127.031C99.2718 127.6 99.3916 128.016 99.6335 128.279C99.8964 128.543 100.311 128.697 100.878 128.742L100.753 131.774C99.8697 131.738 99.1166 131.612 98.4936 131.396C97.8705 131.18 97.3565 130.874 96.9516 130.478C96.5677 130.083 96.2622 129.574 96.0351 128.953C95.4956 129.775 94.7195 130.46 93.7067 131.008C92.7159 131.537 91.6001 131.776 90.3594 131.724ZM91.3942 128.856C92.2144 128.89 92.9372 128.73 93.5627 128.376C94.2101 128.002 94.726 127.496 95.1105 126.858C95.5169 126.2 95.7366 125.471 95.7697 124.671L95.7736 124.576L92.1145 124.425C91.5677 124.402 91.039 124.454 90.5282 124.581C90.0174 124.707 89.6078 124.933 89.2995 125.258C88.992 125.562 88.8265 125.998 88.803 126.566C88.7717 127.324 89.0115 127.893 89.5225 128.273C90.0343 128.631 90.6582 128.826 91.3942 128.856Z" fill="#F0F0F0"/>
<path d="M103.105 131.871L103.753 116.205L107.222 116.349L107.18 118.91C107.744 118.005 108.478 117.318 109.382 116.849C110.308 116.36 111.36 116.14 112.537 116.189L112.382 119.947L111.404 119.907C109.974 119.848 108.897 120.162 108.174 120.849C107.45 121.536 107.057 122.638 106.995 124.154L106.67 132.019L103.105 131.871Z" fill="#F0F0F0"/>
<path d="M120.469 132.589C118.871 132.523 117.667 132.083 116.858 131.269C116.049 130.455 115.68 129.195 115.751 127.49L116.072 119.72L113.832 119.627L113.956 116.627L116.196 116.719L116.352 112.929L119.948 113.078L119.792 116.868L123.608 117.026L123.484 120.026L119.668 119.869L119.345 127.67C119.316 128.386 119.463 128.888 119.789 129.175C120.115 129.442 120.614 129.589 121.287 129.617L123.085 129.691L122.961 132.692L120.469 132.589Z" fill="#F0F0F0"/>
<path d="M128.515 114.729C127.863 114.702 127.315 114.447 126.872 113.965C126.428 113.483 126.22 112.915 126.247 112.262C126.274 111.61 126.528 111.072 127.009 110.649C127.491 110.205 128.058 109.996 128.71 110.023C129.361 110.05 129.909 110.305 130.353 110.787C130.797 111.248 131.006 111.805 130.979 112.458C130.952 113.111 130.697 113.659 130.216 114.103C129.734 114.547 129.167 114.756 128.515 114.729ZM125.967 132.816L126.614 117.15L130.21 117.299L129.563 132.965L125.967 132.816Z" fill="#F0F0F0"/>
<path d="M133.078 133.11L133.725 117.444L137.195 117.587L137.17 119.738C137.729 118.938 138.48 118.347 139.423 117.964C140.367 117.56 141.343 117.379 142.353 117.421C144.182 117.496 145.641 118.137 146.728 119.342C147.816 120.547 148.314 122.276 148.22 124.529L147.841 133.72L144.308 133.574L144.669 124.825C144.724 123.498 144.452 122.443 143.852 121.659C143.253 120.875 142.343 120.458 141.123 120.407C139.904 120.357 138.919 120.727 138.17 121.519C137.443 122.291 137.051 123.371 136.994 124.761L136.643 133.257L133.078 133.11Z" fill="#F0F0F0"/>
<path d="M157.175 141.446C155.808 141.389 154.564 141.18 153.441 140.817C152.319 140.454 151.425 139.9 150.761 139.156C150.117 138.412 149.82 137.451 149.869 136.272C149.901 135.492 150.097 134.836 150.456 134.303C150.836 133.77 151.359 133.338 152.026 133.007C151.513 132.669 151.119 132.263 150.844 131.787C150.57 131.291 150.445 130.737 150.47 130.127C150.526 128.779 151.2 127.752 152.493 127.047C152.051 126.543 151.716 125.981 151.489 125.36C151.283 124.74 151.194 124.082 151.223 123.387C151.271 122.229 151.574 121.25 152.134 120.451C152.716 119.631 153.489 119.02 154.453 118.617C155.44 118.193 156.553 118.007 157.794 118.059C158.677 118.095 159.503 118.256 160.27 118.541L165.791 118.769L165.676 121.548L163.405 121.454C163.557 121.84 163.678 122.236 163.766 122.64C163.876 123.045 163.922 123.469 163.903 123.911C163.857 125.027 163.533 125.995 162.93 126.813C162.328 127.632 161.544 128.254 160.578 128.678C159.614 129.081 158.532 129.258 157.333 129.208C156.787 129.186 156.284 129.112 155.826 128.988C155.367 128.863 154.922 128.687 154.489 128.458C153.995 128.691 153.737 129.07 153.715 129.596C153.675 130.565 154.465 131.083 156.084 131.15L158.86 131.264C160.101 131.316 161.156 131.528 162.025 131.901C162.916 132.255 163.588 132.81 164.042 133.567C164.496 134.303 164.699 135.239 164.652 136.376C164.605 137.513 164.229 138.468 163.523 139.24C162.838 140.013 161.929 140.588 160.797 140.963C159.686 141.339 158.479 141.5 157.175 141.446ZM157.261 138.602C158.355 138.647 159.288 138.496 160.06 138.148C160.854 137.801 161.267 137.249 161.298 136.491C161.357 135.059 160.441 134.304 158.548 134.226L156.151 134.127C155.246 134.089 154.534 134.239 154.015 134.576C153.516 134.935 153.252 135.462 153.223 136.157C153.199 136.726 153.37 137.176 153.736 137.507C154.1 137.86 154.595 138.123 155.22 138.296C155.845 138.47 156.525 138.571 157.261 138.602ZM157.388 126.363C158.292 126.4 159.038 126.178 159.627 125.696C160.237 125.215 160.558 124.575 160.591 123.774C160.624 122.974 160.357 122.309 159.789 121.78C159.243 121.23 158.518 120.936 157.613 120.899C156.73 120.862 155.994 121.095 155.404 121.598C154.837 122.081 154.536 122.723 154.503 123.523C154.47 124.323 154.706 124.987 155.211 125.514C155.737 126.042 156.462 126.325 157.388 126.363Z" fill="#F0F0F0"/>
<path d="M76.6748 172.19C75.1607 172.128 73.7941 171.808 72.5752 171.23C71.3571 170.631 70.4013 169.801 69.7079 168.739C69.0364 167.656 68.7219 166.346 68.7644 164.808L72.5182 164.963C72.4905 166.143 72.8605 167.129 73.6283 167.92C74.397 168.69 75.4437 169.102 76.7685 169.157C77.9462 169.206 78.9038 168.971 79.6414 168.453C80.379 167.935 80.7683 167.181 80.8092 166.192C80.8327 165.623 80.7576 165.145 80.584 164.759C80.4113 164.351 80.1102 163.99 79.6808 163.677C79.2522 163.343 78.6756 163.024 77.9509 162.72C77.227 162.395 76.3051 162.019 75.1852 161.593C73.8787 161.096 72.8165 160.546 71.9989 159.943C71.182 159.318 70.5895 158.619 70.2213 157.844C69.875 157.05 69.7214 156.179 69.7605 155.231C69.8162 153.883 70.1786 152.759 70.8478 151.859C71.538 150.959 72.4394 150.301 73.5521 149.883C74.6866 149.444 75.9269 149.253 77.2727 149.309C78.6396 149.365 79.8598 149.658 80.9334 150.188C82.0069 150.717 82.8605 151.469 83.4943 152.445C84.1289 153.399 84.4289 154.55 84.3943 155.899L80.5775 155.741C80.6149 154.836 80.3102 154.053 79.6633 153.394C79.0165 152.734 78.1358 152.382 77.0213 152.336C76.0758 152.275 75.2562 152.484 74.5624 152.962C73.8896 153.44 73.5332 154.164 73.4931 155.132C73.4653 155.806 73.6525 156.373 74.0549 156.832C74.4782 157.293 75.0825 157.708 75.8677 158.078C76.6528 158.448 77.605 158.856 78.724 159.303C79.4084 159.563 80.1016 159.866 80.8035 160.212C81.5265 160.558 82.1719 160.996 82.7399 161.526C83.3297 162.035 83.7987 162.666 84.1467 163.419C84.4957 164.15 84.648 165.053 84.6036 166.127C84.5488 167.453 84.1544 168.587 83.4204 169.527C82.7083 170.446 81.7635 171.135 80.586 171.593C79.4085 172.05 78.1048 172.249 76.6748 172.19Z" fill="#F0F0F0"/>
<path d="M94.5957 172.931C93.0605 172.867 91.697 172.474 90.5052 171.749C89.3133 171.025 88.3851 170.038 87.7206 168.787C87.078 167.516 86.791 166.049 86.8598 164.385C86.9302 162.68 87.3587 161.231 88.1452 160.04C88.9317 158.85 89.9588 157.953 91.2265 157.352C92.4951 156.729 93.8864 156.449 95.4005 156.512C96.9357 156.575 98.2991 156.969 99.491 157.693C100.705 158.397 101.644 159.375 102.308 160.626C102.994 161.877 103.302 163.356 103.231 165.062C103.166 166.641 102.75 168.037 101.984 169.25C101.238 170.463 100.22 171.402 98.9287 172.066C97.6593 172.709 96.2149 172.998 94.5957 172.931ZM94.7551 169.837C95.6594 169.874 96.4571 169.686 97.1483 169.271C97.8614 168.837 98.4338 168.238 98.8656 167.476C99.2973 166.713 99.5337 165.837 99.5746 164.847C99.6172 163.815 99.4544 162.912 99.0862 162.138C98.7179 161.363 98.1951 160.762 97.5177 160.333C96.8621 159.884 96.0928 159.641 95.2095 159.605C94.2842 159.566 93.4655 159.754 92.7532 160.168C92.062 160.582 91.5216 161.171 91.1319 161.936C90.7431 162.679 90.5282 163.545 90.4873 164.535C90.4429 165.609 90.6044 166.544 90.9718 167.339C91.3611 168.115 91.8839 168.716 92.5403 169.144C93.2177 169.573 93.956 169.804 94.7551 169.837Z" fill="#F0F0F0"/>
<path d="M113.171 173.698C111.636 173.635 110.272 173.241 109.08 172.517C107.888 171.793 106.96 170.805 106.296 169.554C105.653 168.283 105.366 166.816 105.435 165.153C105.505 163.447 105.934 161.999 106.72 160.808C107.507 159.617 108.534 158.721 109.802 158.119C111.07 157.497 112.462 157.217 113.976 157.28C115.511 157.343 116.874 157.737 118.066 158.461C119.28 159.165 120.219 160.142 120.884 161.393C121.569 162.645 121.877 164.124 121.806 165.829C121.741 167.408 121.325 168.804 120.559 170.017C119.814 171.231 118.795 172.17 117.504 172.833C116.234 173.477 114.79 173.765 113.171 173.698ZM113.33 170.604C114.235 170.642 115.032 170.453 115.723 170.039C116.437 169.604 117.009 169.006 117.441 168.243C117.873 167.481 118.109 166.604 118.15 165.615C118.192 164.583 118.03 163.68 117.661 162.905C117.293 162.131 116.77 161.529 116.093 161.1C115.437 160.651 114.668 160.409 113.785 160.372C112.859 160.334 112.041 160.522 111.328 160.935C110.637 161.35 110.097 161.939 109.707 162.703C109.318 163.446 109.103 164.313 109.062 165.303C109.018 166.376 109.18 167.311 109.547 168.107C109.936 168.882 110.459 169.484 111.115 169.912C111.793 170.34 112.531 170.571 113.33 170.604Z" fill="#F0F0F0"/>
<path d="M124.254 173.777L124.902 158.111L128.371 158.254L128.346 160.404C128.905 159.605 129.657 159.014 130.599 158.631C131.543 158.227 132.519 158.046 133.529 158.087C135.358 158.163 136.817 158.803 137.905 160.008C138.992 161.213 139.49 162.942 139.397 165.196L139.017 174.387L135.484 174.241L135.845 165.492C135.9 164.165 135.628 163.11 135.028 162.326C134.429 161.542 133.519 161.124 132.299 161.074C131.08 161.024 130.095 161.394 129.346 162.186C128.619 162.957 128.227 164.038 128.17 165.428L127.819 173.924L124.254 173.777Z" fill="#F0F0F0"/>
<path d="M143.47 167.863L143.697 152.433L147.545 152.592L146.498 167.988L143.47 167.863ZM144.757 174.94C144.085 174.913 143.526 174.657 143.083 174.175C142.66 173.694 142.463 173.126 142.49 172.474C142.517 171.821 142.76 171.283 143.22 170.859C143.702 170.415 144.279 170.206 144.952 170.234C145.604 170.261 146.141 170.515 146.564 170.997C147.008 171.458 147.217 172.015 147.19 172.668C147.163 173.321 146.908 173.869 146.426 174.313C145.966 174.758 145.409 174.967 144.757 174.94Z" fill="#F0F0F0"/>
</g>
</g>
</svg>
