<?xml version="1.0" encoding="UTF-8"?>
<!DOCTYPE svg PUBLIC "-//W3C//DTD SVG 1.1//EN" "http://www.w3.org/Graphics/SVG/1.1/DTD/svg11.dtd">
<svg xmlns="http://www.w3.org/2000/svg" version="1.1" width="1070px" height="472px" style="shape-rendering:geometricPrecision; text-rendering:geometricPrecision; image-rendering:optimizeQuality; fill-rule:evenodd; clip-rule:evenodd" xmlns:xlink="http://www.w3.org/1999/xlink">
<g><path style="opacity:0.989" fill="#e74435" d="M 509.5,-0.5 C 512.5,-0.5 515.5,-0.5 518.5,-0.5C 525.46,3.72641 527.293,9.72641 524,17.5C 521.647,20.6024 518.981,22.6024 516,23.5C 509.687,27.0669 503.521,30.7336 497.5,34.5C 490.554,30.6913 483.554,26.8579 476.5,23C 474.527,22.5045 472.527,22.3379 470.5,22.5C 483.183,14.2748 496.183,6.6081 509.5,-0.5 Z"/></g>
<g><path style="opacity:0.994" fill="#2ea567" d="M 550.5,-0.5 C 553.5,-0.5 556.5,-0.5 559.5,-0.5C 574.437,8.30696 589.437,17.1403 604.5,26C 608.476,31.8996 608.476,37.733 604.5,43.5C 602.5,44.8333 600.5,46.1667 598.5,47.5C 589.441,44.3042 580.775,39.9708 572.5,34.5C 571.817,34.8627 571.15,35.1961 570.5,35.5C 570.631,34.6236 570.298,33.9569 569.5,33.5C 562.8,29.8035 556.466,26.3035 550.5,23C 544.311,19.1176 542.145,13.6176 544,6.5C 545.425,3.3937 547.592,1.06036 550.5,-0.5 Z"/></g>
<g><path style="opacity:0.999" fill="#4884ee" d="M 470.5,22.5 C 472.527,22.3379 474.527,22.5045 476.5,23C 483.554,26.8579 490.554,30.6913 497.5,34.5C 505.806,39.3216 514.139,44.155 522.5,49C 528.832,63.3368 524.166,70.0034 508.5,69C 507.747,67.513 506.914,67.3463 506,68.5C 504.549,66.5359 502.716,65.2026 500.5,64.5C 489.564,58.1318 478.231,51.4651 466.5,44.5C 461.876,40.6117 460.376,35.6117 462,29.5C 463.804,25.858 466.637,23.5246 470.5,22.5 Z"/></g>
<g><path style="opacity:0.991" fill="#f7bd12" d="M 598.5,47.5 C 593.872,49.5022 589.206,52.1689 584.5,55.5C 576.702,59.979 568.369,64.479 559.5,69C 560.696,69.6543 560.696,70.1543 559.5,70.5C 556.634,69.2054 553.801,69.2054 551,70.5C 542.955,64.9646 541.455,57.9646 546.5,49.5C 554.238,44.4391 562.238,39.7724 570.5,35.5C 571.15,35.1961 571.817,34.8627 572.5,34.5C 580.775,39.9708 589.441,44.3042 598.5,47.5 Z"/></g>
<g><path style="opacity:0.012" fill="#242416" d="M 604.5,43.5 C 605.833,44.1667 605.833,44.1667 604.5,43.5 Z"/></g>
<g><path style="opacity:0.012" fill="#242416" d="M 466.5,44.5 C 465.833,45.1667 465.833,45.1667 466.5,44.5 Z"/></g>
<g><path style="opacity:0.012" fill="#242416" d="M 584.5,55.5 C 585.833,56.1667 585.833,56.1667 584.5,55.5 Z"/></g>
<g><path style="opacity:0.012" fill="#242416" d="M 500.5,64.5 C 499.833,65.1667 499.833,65.1667 500.5,64.5 Z"/></g>
<g><path style="opacity:0.998" fill="#1e1606" d="M 335.5,128.5 C 342.833,128.5 350.167,128.5 357.5,128.5C 357.5,159.833 357.5,191.167 357.5,222.5C 350.167,222.5 342.833,222.5 335.5,222.5C 335.5,191.167 335.5,159.833 335.5,128.5 Z"/></g>
<g><path style="opacity:0.799" fill="#020201" d="M 756.5,128.5 C 763.833,128.5 771.167,128.5 778.5,128.5C 778.5,159.833 778.5,191.167 778.5,222.5C 771.167,222.5 763.833,222.5 756.5,222.5C 756.5,191.167 756.5,159.833 756.5,128.5 Z M 759.5,138.5 C 763.345,144.09 768.678,147.09 775.5,147.5C 775.5,171.5 775.5,195.5 775.5,219.5C 770.167,219.5 764.833,219.5 759.5,219.5C 759.5,192.5 759.5,165.5 759.5,138.5 Z"/></g>
<g><path style="opacity:0.94" fill="#191205" d="M 465.5,128.5 C 480.837,128.333 496.17,128.5 511.5,129C 536.311,134.412 548.311,149.912 547.5,175.5C 547.867,201.327 535.533,216.827 510.5,222C 495.504,222.5 480.504,222.667 465.5,222.5C 465.5,191.167 465.5,159.833 465.5,128.5 Z M 487.5,146.5 C 495.591,146.492 503.591,147.325 511.5,149C 517.828,151.482 521.994,155.982 524,162.5C 525.466,168.572 525.966,174.572 525.5,180.5C 524.579,194.419 517.246,202.086 503.5,203.5C 498.167,203.5 492.833,203.5 487.5,203.5C 487.5,184.5 487.5,165.5 487.5,146.5 Z M 543.5,165.5 C 545.599,176.944 544.265,187.944 539.5,198.5C 534.647,199.849 531.147,202.849 529,207.5C 519.121,206.192 512.288,210.192 508.5,219.5C 504.5,219.5 500.5,219.5 496.5,219.5C 499.102,215.294 501.436,210.961 503.5,206.5C 520.716,204.611 529.049,194.944 528.5,177.5C 534.126,174.199 539.126,170.199 543.5,165.5 Z"/></g>
<g><path style="opacity:0.851" fill="#fbc82c" d="M 338.5,130.5 C 343.833,130.5 349.167,130.5 354.5,130.5C 354.5,160.5 354.5,190.5 354.5,220.5C 349.167,220.5 343.833,220.5 338.5,220.5C 338.5,190.5 338.5,160.5 338.5,130.5 Z"/></g>
<g><path style="opacity:0.851" fill="#feb41e" d="M 477.5,130.5 C 479.863,135.183 482.196,139.85 484.5,144.5C 484.5,160.833 484.5,177.167 484.5,193.5C 478.988,193.238 473.654,192.238 468.5,190.5C 468.5,170.5 468.5,150.5 468.5,130.5C 471.5,130.5 474.5,130.5 477.5,130.5 Z"/></g>
<g><path style="opacity:0.851" fill="#fac72d" d="M 477.5,130.5 C 489.206,130.199 500.873,130.699 512.5,132C 530.68,136.01 541.013,147.176 543.5,165.5C 539.126,170.199 534.126,174.199 528.5,177.5C 530.442,160.181 523.109,149.348 506.5,145C 499.508,144.5 492.508,144.334 485.5,144.5C 485.167,144.5 484.833,144.5 484.5,144.5C 482.196,139.85 479.863,135.183 477.5,130.5 Z"/></g>
<g><path style="opacity:0.851" fill="#4e8af2" d="M 775.5,147.5 C 768.678,147.09 763.345,144.09 759.5,138.5C 759.5,135.833 759.5,133.167 759.5,130.5C 764.833,130.5 770.167,130.5 775.5,130.5C 775.5,136.167 775.5,141.833 775.5,147.5 Z"/></g>
<g><path style="opacity:0.851" fill="#538bee" d="M 97.5,156.5 C 95.3066,157.797 92.9732,157.797 90.5,156.5C 89.9649,154.739 88.9649,153.406 87.5,152.5C 87.4894,150.983 86.8228,149.816 85.5,149C 83.1123,147.139 80.4456,145.806 77.5,145C 69.1428,143.625 61.1428,144.625 53.5,148C 50.9638,150.705 48.2971,153.205 45.5,155.5C 37.567,157.463 30.9003,161.463 25.5,167.5C 25.8101,160.892 27.8101,154.892 31.5,149.5C 32.1667,149.5 32.5,149.167 32.5,148.5C 33.1667,148.5 33.8333,148.5 34.5,148.5C 36.674,148.25 38.3406,147.25 39.5,145.5C 55.2804,137.244 70.9471,137.744 86.5,147C 90.975,149.314 94.6417,152.48 97.5,156.5 Z"/></g>
<g><path style="opacity:0.933" fill="#0c111a" d="M 87.5,152.5 C 87.5,153.5 87.5,154.5 87.5,155.5C 81.6378,148.268 73.9712,145.435 64.5,147C 54.0229,148.464 47.5229,154.631 45,165.5C 41.4235,179.276 44.5902,191.109 54.5,201C 62.2182,204.754 70.2182,205.421 78.5,203C 82.6381,201.022 85.9714,198.189 88.5,194.5C 88.5,195.5 88.5,196.5 88.5,197.5C 85.4073,202.725 80.7406,205.891 74.5,207C 57.1881,209.438 46.3548,202.271 42,185.5C 40.5145,175.122 41.6812,165.122 45.5,155.5C 48.2971,153.205 50.9638,150.705 53.5,148C 61.1428,144.625 69.1428,143.625 77.5,145C 80.4456,145.806 83.1123,147.139 85.5,149C 86.8228,149.816 87.4894,150.983 87.5,152.5 Z"/></g>
<g><path style="opacity:0.824" fill="#2b2006" d="M 484.5,144.5 C 484.833,144.5 485.167,144.5 485.5,144.5C 485.5,164.833 485.5,185.167 485.5,205.5C 491.358,205.178 497.025,205.511 502.5,206.5C 496.5,206.5 490.5,206.5 484.5,206.5C 484.5,202.167 484.5,197.833 484.5,193.5C 484.5,177.167 484.5,160.833 484.5,144.5 Z"/></g>
<g><path style="opacity:0.839" fill="#100b03" d="M 485.5,144.5 C 492.508,144.334 499.508,144.5 506.5,145C 523.109,149.348 530.442,160.181 528.5,177.5C 529.049,194.944 520.716,204.611 503.5,206.5C 503.167,206.5 502.833,206.5 502.5,206.5C 497.025,205.511 491.358,205.178 485.5,205.5C 485.5,185.167 485.5,164.833 485.5,144.5 Z M 487.5,146.5 C 495.591,146.492 503.591,147.325 511.5,149C 517.828,151.482 521.994,155.982 524,162.5C 525.466,168.572 525.966,174.572 525.5,180.5C 524.579,194.419 517.246,202.086 503.5,203.5C 498.167,203.5 492.833,203.5 487.5,203.5C 487.5,184.5 487.5,165.5 487.5,146.5 Z"/></g>
<g><path style="opacity:0.435" fill="#43310a" d="M 487.5,146.5 C 487.5,165.5 487.5,184.5 487.5,203.5C 492.833,203.5 498.167,203.5 503.5,203.5C 498.025,204.489 492.358,204.822 486.5,204.5C 486.17,184.993 486.503,165.659 487.5,146.5 Z"/></g>
<g><path style="opacity:0.702" fill="#070604" d="M 148.5,152.5 C 179.778,152.94 193.278,168.607 189,199.5C 180.478,219.846 165.311,227.68 143.5,223C 123.921,215.7 115.754,201.534 119,180.5C 123.204,165.127 133.037,155.794 148.5,152.5 Z M 137.5,160.5 C 140.658,160.969 143.824,162.302 147,164.5C 151.151,163.545 155.484,163.545 160,164.5C 163.952,163.239 167.786,161.906 171.5,160.5C 174.1,161.919 176.6,163.585 179,165.5C 181.954,169.075 184.121,173.075 185.5,177.5C 185.339,183.53 185.673,189.197 186.5,194.5C 181.657,213.603 169.324,222.436 149.5,221C 134.562,218.728 125.395,210.228 122,195.5C 120.214,185.315 122.214,175.982 128,167.5C 130.501,164.152 133.668,161.818 137.5,160.5 Z M 152.5,171.5 C 162.881,172.091 168.215,177.591 168.5,188C 167.638,200.881 160.971,206.214 148.5,204C 142.813,200.467 139.813,195.3 139.5,188.5C 139.826,179.534 144.16,173.867 152.5,171.5 Z"/></g>
<g><path style="opacity:0.7" fill="#080602" d="M 324.5,184.5 C 323.596,183.791 323.263,182.791 323.5,181.5C 323.67,177.356 323.003,173.356 321.5,169.5C 324.086,168.52 326.753,168.187 329.5,168.5C 330.483,164.702 330.817,160.702 330.5,156.5C 325.305,156.179 320.305,156.513 315.5,157.5C 315.167,157.5 314.833,157.5 314.5,157.5C 308.777,157.319 303.11,156.653 297.5,155.5C 278.478,156.335 270.311,166.002 273,184.5C 274.3,187.295 275.8,189.961 277.5,192.5C 267.521,200.257 267.188,208.424 276.5,217C 267.234,224.387 266.234,232.554 273.5,241.5C 273.557,242.609 273.89,243.609 274.5,244.5C 273.5,244.5 272.5,244.5 271.5,244.5C 263.519,235.447 263.519,226.281 271.5,217C 264.48,208.104 265.146,199.77 273.5,192C 266.37,179.438 268.037,168.105 278.5,158C 282.814,155.34 287.481,153.673 292.5,153C 305.773,154.098 319.106,154.598 332.5,154.5C 332.666,160.176 332.499,165.843 332,171.5C 329.765,172.239 327.765,172.239 326,171.5C 325.825,176.019 325.325,180.353 324.5,184.5 Z"/></g>
<g><path style="opacity:0.68" fill="#060705" d="M 812.5,152.5 C 837.836,151.476 851.836,163.476 854.5,188.5C 853.521,205.958 844.854,217.458 828.5,223C 812.994,226.951 799.827,223.117 789,211.5C 780.45,197.469 779.783,183.136 787,168.5C 793.243,159.467 801.743,154.134 812.5,152.5 Z M 846.5,171.5 C 845.833,171.5 845.5,171.833 845.5,172.5C 844.132,174.418 843.132,176.585 842.5,179C 843.085,180.302 843.751,181.469 844.5,182.5C 845.063,186.311 847.063,188.977 850.5,190.5C 850.841,194.16 850.175,197.493 848.5,200.5C 843.167,200.5 837.833,200.5 832.5,200.5C 836.797,191.548 836.297,182.881 831,174.5C 823.758,168.051 815.925,167.218 807.5,172C 799.565,180.931 798.398,190.764 804,201.5C 807.213,205.524 811.38,207.524 816.5,207.5C 816.389,208.117 816.056,208.617 815.5,209C 808.258,209.016 801.258,210.183 794.5,212.5C 785.953,203.127 783.12,192.127 786,179.5C 792.113,162.404 804.28,154.571 822.5,156C 833.024,157.374 841.024,162.541 846.5,171.5 Z M 815.5,171.5 C 825.885,172.051 831.552,177.551 832.5,188C 830.979,202.069 823.646,207.069 810.5,203C 803.078,195.997 801.578,187.83 806,178.5C 808.529,175.115 811.696,172.782 815.5,171.5 Z"/></g>
<g><path style="opacity:0.999" fill="#1d1606" d="M 739.5,159.5 C 738.508,159.328 737.842,159.662 737.5,160.5C 718.248,150.983 702.248,154.649 689.5,171.5C 689.062,170.494 688.396,170.494 687.5,171.5C 695.338,156.914 707.671,150.747 724.5,153C 730.297,153.571 735.297,155.738 739.5,159.5 Z"/></g>
<g><path style="opacity:0.711" fill="#040403" d="M 615.5,154.5 C 623.087,154.186 630.587,154.519 638,155.5C 642.864,169.092 647.531,182.759 652,196.5C 657.119,182.98 661.952,169.313 666.5,155.5C 674.145,154.335 681.812,154.169 689.5,155C 680.669,177.326 672.336,199.826 664.5,222.5C 656.248,222.816 648.081,222.482 640,221.5C 631.632,199.592 623.465,177.258 615.5,154.5 Z M 648.5,197.5 C 643.651,198.085 639.984,200.419 637.5,204.5C 631.332,189.345 625.332,174.012 619.5,158.5C 625.054,157.194 630.554,157.194 636,158.5C 640.476,171.426 644.642,184.426 648.5,197.5 Z M 664.5,210.5 C 664.21,204.244 661.21,199.911 655.5,197.5C 660.025,184.591 664.359,171.591 668.5,158.5C 673.833,157.167 679.167,157.167 684.5,158.5C 678.001,176.011 671.335,193.344 664.5,210.5 Z"/></g>
<g><path style="opacity:0.84" fill="#170e04" d="M 881.5,158.5 C 880.494,159.396 880.494,160.062 881.5,160.5C 880.415,162.587 878.749,163.92 876.5,164.5C 876.5,162.167 876.5,159.833 876.5,157.5C 871.5,157.5 866.5,157.5 861.5,157.5C 861.5,160.5 861.5,163.5 861.5,166.5C 861.174,174.684 861.508,182.684 862.5,190.5C 861.551,195.74 861.218,201.073 861.5,206.5C 861.5,220.5 861.5,234.5 861.5,248.5C 866.833,248.5 872.167,248.5 877.5,248.5C 877.333,236.495 877.5,224.495 878,212.5C 880.063,214.734 882.229,216.734 884.5,218.5C 883.5,218.5 882.5,218.5 881.5,218.5C 880.883,218.389 880.383,218.056 880,217.5C 879.5,228.495 879.333,239.495 879.5,250.5C 872.5,250.5 865.5,250.5 858.5,250.5C 858.5,218.5 858.5,186.5 858.5,154.5C 865.5,154.5 872.5,154.5 879.5,154.5C 879.157,156.483 879.824,157.817 881.5,158.5 Z"/></g>
<g><path style="opacity:0.851" fill="#4484f0" d="M 45.5,155.5 C 41.6812,165.122 40.5145,175.122 42,185.5C 46.3548,202.271 57.1881,209.438 74.5,207C 80.7406,205.891 85.4073,202.725 88.5,197.5C 91.6656,194.225 93.3322,190.225 93.5,185.5C 84.1667,185.5 74.8333,185.5 65.5,185.5C 65.5,180.833 65.5,176.167 65.5,171.5C 79.2456,171.185 92.9123,171.519 106.5,172.5C 110.429,182.516 110.429,192.516 106.5,202.5C 103.443,206.624 101.443,211.291 100.5,216.5C 100.5,217.5 100.5,218.5 100.5,219.5C 98.8828,220.038 97.2161,220.371 95.5,220.5C 95.3279,216.466 94.8279,212.466 94,208.5C 89.3568,215.461 82.8568,219.628 74.5,221C 46.9735,223.809 30.4735,211.642 25,184.5C 24.1816,178.651 24.3483,172.985 25.5,167.5C 30.9003,161.463 37.567,157.463 45.5,155.5 Z"/></g>
<g><path style="opacity:0.851" fill="#34a970" d="M 171.5,160.5 C 167.786,161.906 163.952,163.239 160,164.5C 155.484,163.545 151.151,163.545 147,164.5C 143.824,162.302 140.658,160.969 137.5,160.5C 138.749,158.864 140.416,157.697 142.5,157C 150.176,155.046 157.842,155.046 165.5,157C 168.025,157.424 170.025,158.59 171.5,160.5 Z"/></g>
<g><path style="opacity:0.851" fill="#e74637" d="M 251.5,162.5 C 256.353,167.208 259.353,172.875 260.5,179.5C 259.84,183.313 258.674,186.979 257,190.5C 249.644,200.856 240.644,209.523 230,216.5C 227.637,217.232 225.137,217.232 222.5,216.5C 219.5,216.5 216.5,216.5 213.5,216.5C 212.833,216.5 212.167,216.5 211.5,216.5C 207.974,215.31 204.974,213.31 202.5,210.5C 194.321,197.652 193.487,184.319 200,170.5C 210.297,156.891 223.797,152.391 240.5,157C 244.303,158.655 247.97,160.489 251.5,162.5 Z M 226.5,171.5 C 237.112,172.112 242.779,177.779 243.5,188.5C 241.74,202.197 234.406,207.03 221.5,203C 214.078,195.997 212.578,187.83 217,178.5C 219.505,175.147 222.671,172.814 226.5,171.5 Z"/></g>
<g><path style="opacity:0.851" fill="#f8c72e" d="M 737.5,160.5 C 737.833,161.167 738.167,161.833 738.5,162.5C 731.782,168.356 724.448,169.022 716.5,164.5C 715.571,165.689 715.238,167.022 715.5,168.5C 709.984,170.016 705.984,173.349 703.5,178.5C 698.173,179.259 693.506,177.926 689.5,174.5C 689.5,173.5 689.5,172.5 689.5,171.5C 702.248,154.649 718.248,150.983 737.5,160.5 Z"/></g>
<g><path style="opacity:0.851" fill="#f9c62c" d="M 893.5,155.5 C 909.667,153.71 920.334,160.377 925.5,175.5C 920.167,176.167 914.833,176.833 909.5,177.5C 905.329,171.917 899.663,169.25 892.5,169.5C 892.353,164.786 892.686,160.119 893.5,155.5 Z"/></g>
<g><path style="opacity:1" fill="#1c1405" d="M 1040.5,152.5 C 1042.5,152.5 1044.5,152.5 1046.5,152.5C 1046.5,159.833 1046.5,167.167 1046.5,174.5C 1042.08,174.305 1037.75,174.805 1033.5,176C 1031,177.167 1029.17,179 1028,181.5C 1027.5,195.163 1027.33,208.829 1027.5,222.5C 1020.17,222.5 1012.83,222.5 1005.5,222.5C 1005.5,199.833 1005.5,177.167 1005.5,154.5C 1012.83,154.5 1020.17,154.5 1027.5,154.5C 1027.34,155.873 1027.51,157.207 1028,158.5C 1031.81,155.509 1035.98,153.509 1040.5,152.5 Z"/></g>
<g><path style="opacity:0.851" fill="#fac62c" d="M 1026.5,177.5 C 1013.07,178.114 1007.57,185.114 1010,198.5C 1011.64,202.3 1014.14,205.3 1017.5,207.5C 1017.02,213.022 1014.02,217.022 1008.5,219.5C 1008.5,198.5 1008.5,177.5 1008.5,156.5C 1013.83,156.5 1019.17,156.5 1024.5,156.5C 1024.34,159.518 1024.5,162.518 1025,165.5C 1029.84,158.829 1036.34,155.496 1044.5,155.5C 1044.5,161.167 1044.5,166.833 1044.5,172.5C 1037.6,171.322 1031.6,172.989 1026.5,177.5 Z"/></g>
<g><path style="opacity:0.722" fill="#b58f1f" d="M 315.5,157.5 C 320.305,156.513 325.305,156.179 330.5,156.5C 330.817,160.702 330.483,164.702 329.5,168.5C 329.5,164.833 329.5,161.167 329.5,157.5C 324.833,157.5 320.167,157.5 315.5,157.5 Z"/></g>
<g><path style="opacity:0.85" fill="#e64735" d="M 893.5,155.5 C 892.686,160.119 892.353,164.786 892.5,169.5C 887.107,170.581 882.774,173.248 879.5,177.5C 877.025,176.313 876.025,174.313 876.5,171.5C 876.5,169.5 876.5,167.5 876.5,165.5C 876.5,165.167 876.5,164.833 876.5,164.5C 878.749,163.92 880.415,162.587 881.5,160.5C 885.255,158.291 889.255,156.624 893.5,155.5 Z"/></g>
<g><path style="opacity:0.695" fill="#060402" d="M 580.5,152.5 C 601.02,150.993 614.186,159.993 620,179.5C 620.804,184.751 620.637,189.918 619.5,195C 604.156,195.167 588.822,195.667 573.5,196.5C 577.349,205.086 583.683,207.586 592.5,204C 594.019,202.649 595.352,201.149 596.5,199.5C 604.167,198.167 611.833,198.167 619.5,199.5C 611.79,219.991 597.124,227.825 575.5,223C 556.966,215.45 549.133,201.617 552,181.5C 555.013,165.321 564.513,155.654 580.5,152.5 Z M 603.5,160.5 C 614.521,168.182 619.187,178.849 617.5,192.5C 601.833,192.5 586.167,192.5 570.5,192.5C 572.75,207.774 581.084,212.274 595.5,206C 597.213,204.622 598.547,202.955 599.5,201C 604.864,200.171 610.198,200.337 615.5,201.5C 607.452,217.855 594.452,224.022 576.5,220C 572.025,218.598 568.025,216.431 564.5,213.5C 564.147,207.802 561.48,203.469 556.5,200.5C 552.892,188.781 554.392,177.781 561,167.5C 561.671,166.748 562.504,166.414 563.5,166.5C 566.179,168.601 569.012,170.601 572,172.5C 573.011,171.663 574.178,171.33 575.5,171.5C 572.117,174.289 570.45,177.955 570.5,182.5C 580.833,182.5 591.167,182.5 601.5,182.5C 601.551,174.887 597.884,170.22 590.5,168.5C 592.666,166.163 594.666,163.663 596.5,161C 599.089,161.279 601.423,161.113 603.5,160.5 Z M 581.5,171.5 C 588.922,170.214 594.589,172.714 598.5,179C 590.479,179.832 582.479,179.665 574.5,178.5C 575.883,175.116 578.217,172.783 581.5,171.5 Z"/></g>
<g><path style="opacity:0.85" fill="#e64938" d="M 603.5,160.5 C 601.423,161.113 599.089,161.279 596.5,161C 594.666,163.663 592.666,166.163 590.5,168.5C 585.154,167.979 580.154,168.979 575.5,171.5C 574.178,171.33 573.011,171.663 572,172.5C 569.012,170.601 566.179,168.601 563.5,166.5C 563.389,165.883 563.056,165.383 562.5,165C 573.687,155.232 586.354,152.899 600.5,158C 601.942,158.377 602.942,159.21 603.5,160.5 Z"/></g>
<g><path style="opacity:0.696" fill="#010101" d="M 739.5,159.5 C 744.939,163.125 748.772,168.125 751,174.5C 752.339,181.426 752.839,188.426 752.5,195.5C 736.83,195.333 721.163,195.5 705.5,196C 709.876,205.764 716.876,208.098 726.5,203C 727.257,201.488 728.257,200.154 729.5,199C 736.826,198.5 744.159,198.334 751.5,198.5C 747.013,215.31 736.013,223.977 718.5,224.5C 696.746,222.411 685.079,210.411 683.5,188.5C 683.735,182.444 685.068,176.778 687.5,171.5C 688.396,170.494 689.062,170.494 689.5,171.5C 689.5,172.5 689.5,173.5 689.5,174.5C 684.66,187.805 686.494,200.139 695,211.5C 706.374,221.906 719.208,224.073 733.5,218C 740.981,214.359 745.647,208.526 747.5,200.5C 742.125,200.172 736.792,200.505 731.5,201.5C 726.804,208.058 720.47,210.224 712.5,208C 705.519,205.209 702.186,200.042 702.5,192.5C 718.167,192.5 733.833,192.5 749.5,192.5C 751.343,180.352 747.676,170.352 738.5,162.5C 738.167,161.833 737.833,161.167 737.5,160.5C 737.842,159.662 738.508,159.328 739.5,159.5 Z M 713.5,171.5 C 720.91,169.791 726.576,172.124 730.5,178.5C 722.5,179.833 714.5,179.833 706.5,178.5C 708.243,175.484 710.577,173.151 713.5,171.5 Z"/></g>
<g><path style="opacity:0.719" fill="#0d0903" d="M 307.5,172.5 C 309.715,184.282 304.715,189.282 292.5,187.5C 284.23,182.181 283.564,176.014 290.5,169C 297.126,166.194 302.793,167.361 307.5,172.5 Z M 294.5,170.5 C 302.927,170.08 306.427,173.747 305,181.5C 300.48,186.338 295.647,186.671 290.5,182.5C 287.805,177.212 289.139,173.212 294.5,170.5 Z"/></g>
<g><path style="opacity:0.691" fill="#010201" d="M 152.5,168.5 C 167.701,170.531 173.868,179.198 171,194.5C 166.368,206.899 157.868,210.733 145.5,206C 135.332,196.155 134.166,185.322 142,173.5C 145.147,170.841 148.647,169.174 152.5,168.5 Z M 152.5,171.5 C 144.16,173.867 139.826,179.534 139.5,188.5C 139.813,195.3 142.813,200.467 148.5,204C 160.971,206.214 167.638,200.881 168.5,188C 168.215,177.591 162.881,172.091 152.5,171.5 Z"/></g>
<g><path style="opacity:0.687" fill="#050301" d="M 251.5,162.5 C 253.754,163.415 255.754,164.748 257.5,166.5C 259.223,168.253 260.723,170.253 262,172.5C 269.303,193.152 263.803,209.319 245.5,221C 231.434,226.527 218.101,225.193 205.5,217C 203.294,214.963 201.294,212.797 199.5,210.5C 200.5,210.5 201.5,210.5 202.5,210.5C 204.974,213.31 207.974,215.31 211.5,216.5C 211.842,217.338 212.508,217.672 213.5,217.5C 226.355,223.482 238.688,222.315 250.5,214C 260.922,204.265 264.256,192.765 260.5,179.5C 259.353,172.875 256.353,167.208 251.5,162.5 Z"/></g>
<g><path style="opacity:0.694" fill="#030201" d="M 590.5,168.5 C 597.884,170.22 601.551,174.887 601.5,182.5C 591.167,182.5 580.833,182.5 570.5,182.5C 570.45,177.955 572.117,174.289 575.5,171.5C 580.154,168.979 585.154,167.979 590.5,168.5 Z M 581.5,171.5 C 578.217,172.783 575.883,175.116 574.5,178.5C 582.479,179.665 590.479,179.832 598.5,179C 594.589,172.714 588.922,170.214 581.5,171.5 Z"/></g>
<g><path style="opacity:0.703" fill="#050401" d="M 715.5,168.5 C 722.208,167.274 727.708,169.274 732,174.5C 732.96,176.98 733.793,179.48 734.5,182C 723.839,182.5 713.172,182.667 702.5,182.5C 702.433,181.041 702.766,179.708 703.5,178.5C 705.984,173.349 709.984,170.016 715.5,168.5 Z M 713.5,171.5 C 710.577,173.151 708.243,175.484 706.5,178.5C 714.5,179.833 722.5,179.833 730.5,178.5C 726.576,172.124 720.91,169.791 713.5,171.5 Z"/></g>
<g><path style="opacity:0.685" fill="#020302" d="M 832.5,200.5 C 828.398,205.538 823.065,207.871 816.5,207.5C 811.38,207.524 807.213,205.524 804,201.5C 798.398,190.764 799.565,180.931 807.5,172C 815.925,167.218 823.758,168.051 831,174.5C 836.297,182.881 836.797,191.548 832.5,200.5 Z M 815.5,171.5 C 811.696,172.782 808.529,175.115 806,178.5C 801.578,187.83 803.078,195.997 810.5,203C 823.646,207.069 830.979,202.069 832.5,188C 831.552,177.551 825.885,172.051 815.5,171.5 Z"/></g>
<g><path style="opacity:0.848" fill="#ed513e" d="M 861.5,166.5 C 869.536,171.058 871.703,177.725 868,186.5C 866.549,188.464 864.716,189.797 862.5,190.5C 861.508,182.684 861.174,174.684 861.5,166.5 Z"/></g>
<g><path style="opacity:0.247" fill="#e5b67f" d="M 876.5,165.5 C 876.5,167.5 876.5,169.5 876.5,171.5C 875.733,170.828 875.066,169.995 874.5,169C 874.011,167.448 874.678,166.281 876.5,165.5 Z"/></g>
<g><path style="opacity:0.785" fill="#05070c" d="M 87.5,155.5 C 87.5,154.5 87.5,153.5 87.5,152.5C 88.9649,153.406 89.9649,154.739 90.5,156.5C 92.9732,157.797 95.3066,157.797 97.5,156.5C 100.833,156.5 104.167,156.5 107.5,156.5C 103.217,140.725 92.8838,131.892 76.5,130C 57.9327,127.344 43.266,133.51 32.5,148.5C 31.8333,148.5 31.5,148.833 31.5,149.5C 27.8101,154.892 25.8101,160.892 25.5,167.5C 24.3483,172.985 24.1816,178.651 25,184.5C 30.4735,211.642 46.9735,223.809 74.5,221C 82.8568,219.628 89.3568,215.461 94,208.5C 94.8279,212.466 95.3279,216.466 95.5,220.5C 97.2161,220.371 98.8828,220.038 100.5,219.5C 103.833,219.5 107.167,219.5 110.5,219.5C 110.5,203.833 110.5,188.167 110.5,172.5C 109.167,172.5 107.833,172.5 106.5,172.5C 92.9123,171.519 79.2456,171.185 65.5,171.5C 65.5,176.167 65.5,180.833 65.5,185.5C 74.8333,185.5 84.1667,185.5 93.5,185.5C 93.3322,190.225 91.6656,194.225 88.5,197.5C 88.5,196.5 88.5,195.5 88.5,194.5C 88.7959,192.597 89.4625,190.93 90.5,189.5C 91.0431,189.44 91.3764,189.107 91.5,188.5C 82.1904,187.502 72.8571,187.168 63.5,187.5C 63.5,181.833 63.5,176.167 63.5,170.5C 77.3435,170.829 91.0102,170.496 104.5,169.5C 107.5,169.5 110.5,169.5 113.5,169.5C 113.5,187.167 113.5,204.833 113.5,222.5C 106.8,222.83 100.134,222.497 93.5,221.5C 92.8108,219.556 92.3108,217.556 92,215.5C 89.347,217.155 87.0136,219.155 85,221.5C 83.1267,220.911 81.46,221.578 80,223.5C 79.586,223.043 79.086,222.709 78.5,222.5C 58.8669,227.289 42.8669,221.956 30.5,206.5C 22.0328,193.588 19.6995,179.421 23.5,164C 27.0601,142.777 39.7268,130.444 61.5,127C 77.4297,124.602 91.263,128.769 103,139.5C 107.755,145.344 110.589,152.011 111.5,159.5C 103.826,159.666 96.1594,159.5 88.5,159C 87.6634,157.989 87.33,156.822 87.5,155.5 Z M 97.5,156.5 C 94.6417,152.48 90.975,149.314 86.5,147C 70.9471,137.744 55.2804,137.244 39.5,145.5C 37.326,145.75 35.6594,146.75 34.5,148.5C 33.8333,148.5 33.1667,148.5 32.5,148.5C 43.266,133.51 57.9327,127.344 76.5,130C 92.8838,131.892 103.217,140.725 107.5,156.5C 104.167,156.5 100.833,156.5 97.5,156.5 Z M 106.5,172.5 C 107.833,172.5 109.167,172.5 110.5,172.5C 110.5,188.167 110.5,203.833 110.5,219.5C 107.167,219.5 103.833,219.5 100.5,219.5C 100.5,218.5 100.5,217.5 100.5,216.5C 103.068,212.144 105.068,207.478 106.5,202.5C 110.429,192.516 110.429,182.516 106.5,172.5 Z"/></g>
<g><path style="opacity:0.792" fill="#0d1c32" d="M 104.5,169.5 C 91.0102,170.496 77.3435,170.829 63.5,170.5C 63.5,176.167 63.5,181.833 63.5,187.5C 72.8571,187.168 82.1904,187.502 91.5,188.5C 91.3764,189.107 91.0431,189.44 90.5,189.5C 81.3483,188.506 72.015,188.173 62.5,188.5C 62.5,182.167 62.5,175.833 62.5,169.5C 76.5,169.5 90.5,169.5 104.5,169.5 Z"/></g>
<g><path style="opacity:0.231" fill="#98cff1" d="M 39.5,145.5 C 38.3406,147.25 36.674,148.25 34.5,148.5C 35.6594,146.75 37.326,145.75 39.5,145.5 Z"/></g>
<g><path style="opacity:0.851" fill="#f9c72d" d="M 314.5,157.5 C 314.833,157.5 315.167,157.5 315.5,157.5C 320.167,157.5 324.833,157.5 329.5,157.5C 329.5,161.167 329.5,164.833 329.5,168.5C 326.753,168.187 324.086,168.52 321.5,169.5C 323.003,173.356 323.67,177.356 323.5,181.5C 323.167,181.5 322.833,181.5 322.5,181.5C 322.047,180.542 321.381,179.708 320.5,179C 318.236,178.764 316.069,178.264 314,177.5C 313.446,183.188 313.613,188.855 314.5,194.5C 310.889,197.768 306.555,199.601 301.5,200C 298.167,200.667 294.833,200.667 291.5,200C 290.584,199.722 289.918,199.222 289.5,198.5C 290.035,194.691 291.035,191.024 292.5,187.5C 304.715,189.282 309.715,184.282 307.5,172.5C 312.649,169.054 314.982,164.054 314.5,157.5 Z"/></g>
<g><path style="opacity:0.851" fill="#e64c3a" d="M 846.5,171.5 C 850.854,177.244 852.188,183.577 850.5,190.5C 847.063,188.977 845.063,186.311 844.5,182.5C 844.46,179.119 844.793,175.786 845.5,172.5C 845.5,171.833 845.833,171.5 846.5,171.5 Z"/></g>
<g><path style="opacity:0.4" fill="#d59d76" d="M 845.5,172.5 C 844.793,175.786 844.46,179.119 844.5,182.5C 843.751,181.469 843.085,180.302 842.5,179C 843.132,176.585 844.132,174.418 845.5,172.5 Z"/></g>
<g><path style="opacity:0.995" fill="#1d1207" d="M 257.5,166.5 C 255.754,164.748 253.754,163.415 251.5,162.5C 247.97,160.489 244.303,158.655 240.5,157C 223.797,152.391 210.297,156.891 200,170.5C 193.487,184.319 194.321,197.652 202.5,210.5C 201.5,210.5 200.5,210.5 199.5,210.5C 190.308,195.482 190.474,180.482 200,165.5C 213.848,151.998 229.681,149.165 247.5,157C 251.982,159.054 255.316,162.221 257.5,166.5 Z"/></g>
<g><path style="opacity:0.851" fill="#fcb21e" d="M 925.5,175.5 C 929.53,188.597 927.696,200.93 920,212.5C 917.561,214.629 915.061,216.629 912.5,218.5C 908.463,214.785 905.13,210.452 902.5,205.5C 911.39,197.94 913.724,188.607 909.5,177.5C 914.833,176.833 920.167,176.167 925.5,175.5 Z"/></g>
<g><path style="opacity:0.851" fill="#f66f39" d="M 1026.5,177.5 C 1024.85,182.341 1024.18,187.341 1024.5,192.5C 1021.69,197.12 1019.69,202.12 1018.5,207.5C 1018.17,207.5 1017.83,207.5 1017.5,207.5C 1014.14,205.3 1011.64,202.3 1010,198.5C 1007.57,185.114 1013.07,178.114 1026.5,177.5 Z"/></g>
<g><path style="opacity:0.851" fill="#fdb41d" d="M 322.5,181.5 C 322.117,187.271 319.45,191.604 314.5,194.5C 313.613,188.855 313.446,183.188 314,177.5C 316.069,178.264 318.236,178.764 320.5,179C 321.381,179.708 322.047,180.542 322.5,181.5 Z"/></g>
<g><path style="opacity:0.995" fill="#1c1406" d="M 892.5,169.5 C 899.663,169.25 905.329,171.917 909.5,177.5C 913.724,188.607 911.39,197.94 902.5,205.5C 889.06,209.779 880.394,205.113 876.5,191.5C 876.485,186.572 877.485,181.906 879.5,177.5C 882.774,173.248 887.107,170.581 892.5,169.5 Z M 889.5,172.5 C 901.602,170.778 908.269,175.944 909.5,188C 907.307,202.887 899.307,207.554 885.5,202C 876.676,190.646 878.01,180.813 889.5,172.5 Z"/></g>
<g><path style="opacity:0.725" fill="#e45d44" d="M 185.5,177.5 C 186.222,177.918 186.722,178.584 187,179.5C 187.816,184.684 187.65,189.684 186.5,194.5C 185.673,189.197 185.339,183.53 185.5,177.5 Z"/></g>
<g><path style="opacity:0.851" fill="#f9c62d" d="M 468.5,190.5 C 473.654,192.238 478.988,193.238 484.5,193.5C 484.5,197.833 484.5,202.167 484.5,206.5C 490.5,206.5 496.5,206.5 502.5,206.5C 502.833,206.5 503.167,206.5 503.5,206.5C 501.436,210.961 499.102,215.294 496.5,219.5C 487.22,220.447 477.886,220.78 468.5,220.5C 468.5,210.5 468.5,200.5 468.5,190.5 Z"/></g>
<g><path style="opacity:0.851" fill="#fac72d" d="M 876.5,191.5 C 880.394,205.113 889.06,209.779 902.5,205.5C 905.13,210.452 908.463,214.785 912.5,218.5C 903.172,222.499 893.839,222.499 884.5,218.5C 882.229,216.734 880.063,214.734 878,212.5C 877.5,224.495 877.333,236.495 877.5,248.5C 872.167,248.5 866.833,248.5 861.5,248.5C 861.5,234.5 861.5,220.5 861.5,206.5C 865.833,200.833 870.833,195.833 876.5,191.5 Z"/></g>
<g><path style="opacity:0.851" fill="#eb4738" d="M 1024.5,192.5 C 1024.5,197.833 1024.5,203.167 1024.5,208.5C 1022.44,208.483 1020.44,208.15 1018.5,207.5C 1019.69,202.12 1021.69,197.12 1024.5,192.5 Z"/></g>
<g><path style="opacity:0.854" fill="#1c1306" d="M 322.5,181.5 C 322.833,181.5 323.167,181.5 323.5,181.5C 323.263,182.791 323.596,183.791 324.5,184.5C 320.271,197.046 311.438,203.046 298,202.5C 294.132,202.381 290.299,202.047 286.5,201.5C 286.36,203.124 287.027,204.29 288.5,205C 297.543,205.192 306.543,205.859 315.5,207C 328.845,211.976 333.678,221.476 330,235.5C 327.5,242 323,246.5 316.5,249C 302.245,254.937 287.911,254.27 273.5,247C 272.619,246.292 271.953,245.458 271.5,244.5C 272.5,244.5 273.5,244.5 274.5,244.5C 289.919,251.303 305.253,251.137 320.5,244C 325.717,239.734 328.383,234.234 328.5,227.5C 328.366,216.865 323.033,210.698 312.5,209C 305.842,208.5 299.175,208.334 292.5,208.5C 287.549,209.03 284.216,207.03 282.5,202.5C 283.521,198.427 285.854,197.093 289.5,198.5C 289.918,199.222 290.584,199.722 291.5,200C 294.833,200.667 298.167,200.667 301.5,200C 306.555,199.601 310.889,197.768 314.5,194.5C 319.45,191.604 322.117,187.271 322.5,181.5 Z"/></g>
<g><path style="opacity:0.851" fill="#4a87ef" d="M 648.5,197.5 C 649.935,199.598 651.102,201.931 652,204.5C 653.262,202.216 654.428,199.882 655.5,197.5C 661.21,199.911 664.21,204.244 664.5,210.5C 664.425,214.597 662.758,217.763 659.5,220C 653.833,220.667 648.167,220.667 642.5,220C 640.112,215.059 638.445,209.892 637.5,204.5C 639.984,200.419 643.651,198.085 648.5,197.5 Z"/></g>
<g><path style="opacity:0.851" fill="#2ba86d" d="M 832.5,200.5 C 837.833,200.5 843.167,200.5 848.5,200.5C 846.188,209.649 840.521,215.816 831.5,219C 822.934,221.86 814.267,222.193 805.5,220C 801.106,218.418 797.439,215.918 794.5,212.5C 801.258,210.183 808.258,209.016 815.5,209C 816.056,208.617 816.389,208.117 816.5,207.5C 823.065,207.871 828.398,205.538 832.5,200.5 Z"/></g>
<g><path style="opacity:0.995" fill="#1d1007" d="M 223.5,169.5 C 234.026,167.676 241.193,171.676 245,181.5C 247.868,193.291 244.035,201.791 233.5,207C 220.002,208.345 212.668,202.178 211.5,188.5C 211.737,179.673 215.737,173.34 223.5,169.5 Z M 226.5,171.5 C 222.671,172.814 219.505,175.147 217,178.5C 212.578,187.83 214.078,195.997 221.5,203C 234.406,207.03 241.74,202.197 243.5,188.5C 242.779,177.779 237.112,172.112 226.5,171.5 Z"/></g>
<g><path style="opacity:0.396" fill="#80b6e9" d="M 106.5,202.5 C 105.068,207.478 103.068,212.144 100.5,216.5C 101.443,211.291 103.443,206.624 106.5,202.5 Z"/></g>
<g><path style="opacity:0.012" fill="#242416" d="M 30.5,206.5 C 29.8333,207.167 29.8333,207.167 30.5,206.5 Z"/></g>
<g><path style="opacity:0.851" fill="#f9c830" d="M 292.5,208.5 C 299.175,208.334 305.842,208.5 312.5,209C 323.033,210.698 328.366,216.865 328.5,227.5C 326.167,224.833 323.833,222.167 321.5,219.5C 321.5,218.833 321.167,218.5 320.5,218.5C 316.802,219.373 313.135,220.373 309.5,221.5C 305.713,220.116 302.046,218.283 298.5,216C 295.882,213.894 293.882,211.394 292.5,208.5 Z"/></g>
<g><path style="opacity:0.849" fill="#f4c631" d="M 539.5,198.5 C 535.589,207.576 528.922,213.742 519.5,217C 515.888,218.15 512.222,218.983 508.5,219.5C 512.288,210.192 519.121,206.192 529,207.5C 531.147,202.849 534.647,199.849 539.5,198.5 Z"/></g>
<g><path style="opacity:0.314" fill="#eac532" d="M 556.5,200.5 C 561.48,203.469 564.147,207.802 564.5,213.5C 560.213,210.203 557.546,205.869 556.5,200.5 Z"/></g>
<g><path style="opacity:0.851" fill="#f3ab1e" d="M 1017.5,207.5 C 1017.83,207.5 1018.17,207.5 1018.5,207.5C 1020.44,208.15 1022.44,208.483 1024.5,208.5C 1024.5,212.5 1024.5,216.5 1024.5,220.5C 1018.97,220.821 1013.64,220.488 1008.5,219.5C 1014.02,217.022 1017.02,213.022 1017.5,207.5 Z"/></g>
<g><path style="opacity:0.247" fill="#cf9e80" d="M 213.5,217.5 C 213.5,217.167 213.5,216.833 213.5,216.5C 216.5,216.5 219.5,216.5 222.5,216.5C 221.359,217.339 220.026,218.006 218.5,218.5C 216.929,217.691 215.262,217.357 213.5,217.5 Z"/></g>
<g><path style="opacity:0.996" fill="#1c1406" d="M 390.5,152.5 C 419.268,152.6 432.268,166.933 429.5,195.5C 414.167,195.5 398.833,195.5 383.5,195.5C 386.485,205.32 392.818,208.154 402.5,204C 404.213,202.622 405.547,200.955 406.5,199C 414.167,198.333 421.833,198.333 429.5,199C 424.2,215.086 413.034,223.919 396,225.5C 369.623,221.446 358.289,206.112 362,179.5C 365.9,164.43 375.4,155.43 390.5,152.5 Z M 407.5,177.5 C 399.903,179.467 391.903,180.134 383.5,179.5C 387.248,172.424 392.914,169.924 400.5,172C 403.305,173.382 405.639,175.216 407.5,177.5 Z"/></g>
<g><path style="opacity:0.851" fill="#f9c62c" d="M 389.5,155.5 C 415.854,154.521 428.521,167.188 427.5,193.5C 411.833,193.5 396.167,193.5 380.5,193.5C 382.516,206.351 389.849,210.851 402.5,207C 405.167,205.667 407.167,203.667 408.5,201C 414.157,200.501 419.824,200.334 425.5,200.5C 422.24,211.59 414.906,218.424 403.5,221C 381.705,224.032 368.539,214.865 364,193.5C 362.326,173.814 370.826,161.147 389.5,155.5 Z M 407.5,177.5 C 399.903,179.467 391.903,180.134 383.5,179.5C 387.248,172.424 392.914,169.924 400.5,172C 403.305,173.382 405.639,175.216 407.5,177.5 Z"/></g>
<g><path style="opacity:0.999" fill="#150e03" d="M 391.5,168.5 C 399.813,167.421 405.979,170.421 410,177.5C 410.494,179.134 410.66,180.801 410.5,182.5C 400.5,182.5 390.5,182.5 380.5,182.5C 381.227,175.448 384.894,170.781 391.5,168.5 Z M 407.5,177.5 C 399.903,179.467 391.903,180.134 383.5,179.5C 387.248,172.424 392.914,169.924 400.5,172C 403.305,173.382 405.639,175.216 407.5,177.5 Z"/></g>
<g><path style="opacity:0.094" fill="#514013" d="M 407.5,177.5 C 408.404,178.209 408.737,179.209 408.5,180.5C 399.983,180.826 391.65,180.493 383.5,179.5C 391.903,180.134 399.903,179.467 407.5,177.5 Z"/></g>
<g><path style="opacity:0.851" fill="#e84637" d="M 320.5,218.5 C 321.167,218.5 321.5,218.833 321.5,219.5C 323.833,222.167 326.167,224.833 328.5,227.5C 328.383,234.234 325.717,239.734 320.5,244C 305.253,251.137 289.919,251.303 274.5,244.5C 273.89,243.609 273.557,242.609 273.5,241.5C 276.833,238.833 280.167,236.167 283.5,233.5C 293.009,238.65 302.509,238.65 312,233.5C 314.745,228.248 313.578,224.248 308.5,221.5C 308.833,221.5 309.167,221.5 309.5,221.5C 313.135,220.373 316.802,219.373 320.5,218.5 Z"/></g>
<g><path style="opacity:0.997" fill="#1f1707" d="M 881.5,218.5 C 882.5,218.5 883.5,218.5 884.5,218.5C 893.839,222.499 903.172,222.499 912.5,218.5C 915.061,216.629 917.561,214.629 920,212.5C 927.696,200.93 929.53,188.597 925.5,175.5C 920.334,160.377 909.667,153.71 893.5,155.5C 889.255,156.624 885.255,158.291 881.5,160.5C 880.494,160.062 880.494,159.396 881.5,158.5C 892.368,151.135 903.702,150.635 915.5,157C 925.821,164.645 930.821,174.978 930.5,188C 930.042,209.287 919.375,221.787 898.5,225.5C 894.506,224.335 890.506,223.168 886.5,222C 884.416,221.303 882.749,220.136 881.5,218.5 Z"/></g>
<g><path style="opacity:0.997" fill="#1c1406" d="M 962.5,152.5 C 991.255,152.587 1004.26,166.921 1001.5,195.5C 986.167,195.5 970.833,195.5 955.5,195.5C 958.485,205.32 964.818,208.154 974.5,204C 976.213,202.622 977.547,200.955 978.5,199C 986.167,198.333 993.833,198.333 1001.5,199C 995.997,214.822 984.831,223.655 968,225.5C 941.796,221.92 930.462,206.587 934,179.5C 937.9,164.43 947.4,155.43 962.5,152.5 Z M 979.5,177.5 C 975.893,178.824 971.893,179.491 967.5,179.5C 963.319,179.499 959.319,179.166 955.5,178.5C 959.564,171.871 965.23,169.704 972.5,172C 975.305,173.382 977.639,175.216 979.5,177.5 Z"/></g>
<g><path style="opacity:0.851" fill="#f9c52c" d="M 986.5,215.5 C 984.992,210.998 982.659,206.998 979.5,203.5C 979.414,202.504 979.748,201.671 980.5,201C 986.196,200.17 991.863,200.337 997.5,201.5C 995.935,204.962 994.102,208.295 992,211.5C 990.549,213.464 988.716,214.797 986.5,215.5 Z"/></g>
<g><path style="opacity:0.851" fill="#fab11e" d="M 937.5,177.5 C 942.512,178.824 947.512,180.491 952.5,182.5C 957.773,185.142 962.773,188.309 967.5,192C 978.161,192.5 988.828,192.667 999.5,192.5C 984.009,193.496 968.342,193.83 952.5,193.5C 953.919,205.389 960.585,210.222 972.5,208C 975.202,206.988 977.535,205.488 979.5,203.5C 982.659,206.998 984.992,210.998 986.5,215.5C 980.865,219.874 974.365,221.874 967,221.5C 946.735,219.397 936.235,208.063 935.5,187.5C 935.398,183.883 936.065,180.55 937.5,177.5 Z"/></g>
<g><path style="opacity:0.851" fill="#fac62c" d="M 999.5,192.5 C 988.828,192.667 978.161,192.5 967.5,192C 962.773,188.309 957.773,185.142 952.5,182.5C 947.512,180.491 942.512,178.824 937.5,177.5C 943.726,160.151 956.059,152.985 974.5,156C 992.803,161.164 1001.14,173.331 999.5,192.5 Z M 979.5,177.5 C 975.893,178.824 971.893,179.491 967.5,179.5C 963.319,179.499 959.319,179.166 955.5,178.5C 959.564,171.871 965.23,169.704 972.5,172C 975.305,173.382 977.639,175.216 979.5,177.5 Z"/></g>
<g><path style="opacity:0.965" fill="#110c02" d="M 952.5,182.5 C 953.542,173.959 958.375,169.292 967,168.5C 976.204,168.877 981.371,173.544 982.5,182.5C 972.5,182.5 962.5,182.5 952.5,182.5 Z M 979.5,177.5 C 975.893,178.824 971.893,179.491 967.5,179.5C 963.319,179.499 959.319,179.166 955.5,178.5C 959.564,171.871 965.23,169.704 972.5,172C 975.305,173.382 977.639,175.216 979.5,177.5 Z"/></g>
<g><path style="opacity:0.094" fill="#4f3e12" d="M 979.5,177.5 C 980.404,178.209 980.737,179.209 980.5,180.5C 971.808,180.831 963.141,180.498 954.5,179.5C 954.624,178.893 954.957,178.56 955.5,178.5C 959.319,179.166 963.319,179.499 967.5,179.5C 971.893,179.491 975.893,178.824 979.5,177.5 Z"/></g>
<g><path style="opacity:0.997" fill="#180d04" d="M 308.5,221.5 C 313.578,224.248 314.745,228.248 312,233.5C 302.509,238.65 293.009,238.65 283.5,233.5C 281.409,228.434 282.743,224.601 287.5,222C 294.492,221.5 301.492,221.334 308.5,221.5 Z M 288.5,224.5 C 295.175,224.334 301.842,224.5 308.5,225C 312.318,229.731 310.985,232.731 304.5,234C 299.096,234.772 293.762,234.439 288.5,233C 284.605,230.178 284.605,227.345 288.5,224.5 Z"/></g>
<g><path style="opacity:0.93" fill="#000000" d="M 47.5,269.5 C 63.1306,267.545 76.6306,271.878 88,282.5C 92.1325,287.433 94.6325,293.1 95.5,299.5C 89.1579,299.666 82.8246,299.5 76.5,299C 72.3591,289.839 65.1925,285.339 55,285.5C 41.2615,286.24 32.5948,293.24 29,306.5C 26.5273,317.33 27.8607,327.663 33,337.5C 41.863,347.582 52.6963,350.416 65.5,346C 73.1693,342.156 77.5026,335.99 78.5,327.5C 69.1667,327.5 59.8333,327.5 50.5,327.5C 50.5,322.5 50.5,317.5 50.5,312.5C 66.1667,312.5 81.8333,312.5 97.5,312.5C 97.5,329.167 97.5,345.833 97.5,362.5C 91.8333,362.5 86.1667,362.5 80.5,362.5C 80.8204,359.102 80.487,355.768 79.5,352.5C 69.8401,362.21 58.1735,365.71 44.5,363C 25.5866,359.086 14.42,347.586 11,328.5C 7.39613,309.397 12.2295,292.897 25.5,279C 32.124,273.966 39.4573,270.8 47.5,269.5 Z"/></g>
<g><path style="opacity:0.94" fill="#000000" d="M 615.5,269.5 C 627.729,268.257 639.062,270.757 649.5,277C 657.393,283.286 661.726,291.452 662.5,301.5C 656.167,301.5 649.833,301.5 643.5,301.5C 642.623,294.592 638.957,289.759 632.5,287C 609.391,282.923 597.391,292.757 596.5,316.5C 597.969,342.165 610.969,351.665 635.5,345C 639.488,342.531 642.155,339.031 643.5,334.5C 649.798,333.504 656.132,333.17 662.5,333.5C 659.673,350.493 649.673,360.326 632.5,363C 604.292,366.666 586.792,354.832 580,327.5C 576.128,307.452 581.628,290.619 596.5,277C 602.479,273.335 608.812,270.835 615.5,269.5 Z"/></g>
<g><path style="opacity:0.936" fill="#000000" d="M 141.5,295.5 C 142.833,295.5 144.167,295.5 145.5,295.5C 145.5,301.5 145.5,307.5 145.5,313.5C 140.739,313.794 136.072,314.627 131.5,316C 129.622,317.543 128.122,319.376 127,321.5C 125.573,335.107 125.073,348.774 125.5,362.5C 119.833,362.5 114.167,362.5 108.5,362.5C 108.5,340.833 108.5,319.167 108.5,297.5C 114.167,297.5 119.833,297.5 125.5,297.5C 125.336,300.187 125.503,302.854 126,305.5C 129.825,300.009 134.991,296.676 141.5,295.5 Z"/></g>
<g><path style="opacity:0.944" fill="#000000" d="M 178.5,295.5 C 208.921,297.013 221.088,312.68 215,342.5C 206.818,359.509 193.318,366.342 174.5,363C 157.868,358.183 149.201,347.016 148.5,329.5C 149.744,310.264 159.744,298.931 178.5,295.5 Z M 177.5,311.5 C 191.04,309.935 198.373,315.935 199.5,329.5C 197.561,345.119 189.227,350.619 174.5,346C 165.752,337.728 164.252,328.228 170,317.5C 172.114,314.879 174.614,312.879 177.5,311.5 Z"/></g>
<g><path style="opacity:0.945" fill="#000000" d="M 331.5,295.5 C 347.911,294.764 358.744,302.097 364,317.5C 367.365,330.446 365.365,342.446 358,353.5C 346.577,364.595 333.744,366.428 319.5,359C 318,357.5 316.5,356 315,354.5C 314.5,366.495 314.333,378.495 314.5,390.5C 308.833,390.5 303.167,390.5 297.5,390.5C 297.5,359.5 297.5,328.5 297.5,297.5C 303.167,297.5 308.833,297.5 314.5,297.5C 313.419,304.144 314.753,305.311 318.5,301C 322.741,298.651 327.075,296.818 331.5,295.5 Z M 326.5,311.5 C 342.768,311.276 349.602,319.276 347,335.5C 341.872,347.985 333.372,351.152 321.5,345C 313.976,337.02 312.809,328.187 318,318.5C 320.441,315.546 323.275,313.213 326.5,311.5 Z"/></g>
<g><path style="opacity:0.938" fill="#000000" d="M 431.5,295.5 C 458.124,296.289 470.624,309.956 469,336.5C 466.389,348.915 459.222,357.415 447.5,362C 430.463,366.793 416.63,362.293 406,348.5C 399.52,334.755 400.187,321.421 408,308.5C 414.215,301.055 422.049,296.722 431.5,295.5 Z M 429.5,311.5 C 449.367,311.861 455.867,321.528 449,340.5C 440.931,350.229 432.264,350.895 423,342.5C 418.119,333.291 418.452,324.291 424,315.5C 426.015,314.303 427.849,312.97 429.5,311.5 Z"/></g>
<g><path style="opacity:0.941" fill="#000000" d="M 511.5,295.5 C 526.77,294.868 536.27,301.868 540,316.5C 540.5,331.83 540.667,347.163 540.5,362.5C 534.833,362.5 529.167,362.5 523.5,362.5C 523.667,349.163 523.5,335.829 523,322.5C 519.369,311.399 512.202,308.232 501.5,313C 498.533,315.1 496.7,317.934 496,321.5C 495.5,335.163 495.333,348.829 495.5,362.5C 489.833,362.5 484.167,362.5 478.5,362.5C 478.5,340.833 478.5,319.167 478.5,297.5C 484.167,297.5 489.833,297.5 495.5,297.5C 495.215,299.288 495.548,300.955 496.5,302.5C 500.967,298.8 505.967,296.466 511.5,295.5 Z"/></g>
<g><path style="opacity:0.933" fill="#000000" d="M 695.5,295.5 C 708.99,294.142 719.157,299.142 726,310.5C 726.92,313.101 727.587,315.768 728,318.5C 728.333,327.5 728.667,336.5 729,345.5C 730.897,347.016 733.064,347.683 735.5,347.5C 735.5,352.5 735.5,357.5 735.5,362.5C 726.627,362.993 719.293,359.993 713.5,353.5C 703.047,364.088 691.047,366.255 677.5,360C 668.997,352.336 667.164,343.169 672,332.5C 675.829,328 680.662,325.167 686.5,324C 694.493,323.5 702.493,323.334 710.5,323.5C 709.157,311.314 702.824,307.814 691.5,313C 689.438,314.532 688.104,316.532 687.5,319C 681.843,319.499 676.176,319.666 670.5,319.5C 670.71,312.247 673.71,306.414 679.5,302C 684.566,298.928 689.9,296.762 695.5,295.5 Z M 694.5,334.5 C 699.833,334.5 705.167,334.5 710.5,334.5C 709.927,343.573 705.094,348.573 696,349.5C 688.163,349.353 685.497,345.686 688,338.5C 689.792,336.372 691.958,335.039 694.5,334.5 Z"/></g>
<g><path style="opacity:0.94" fill="#000000" d="M 773.5,295.5 C 784.426,294.692 793.426,298.358 800.5,306.5C 812.549,293.827 825.882,292.327 840.5,302C 844.709,305.917 847.209,310.75 848,316.5C 848.5,331.83 848.667,347.163 848.5,362.5C 842.833,362.5 837.167,362.5 831.5,362.5C 831.932,347.775 831.432,333.108 830,318.5C 827.657,313.329 823.657,310.995 818,311.5C 811.733,311.129 807.399,313.796 805,319.5C 804.5,333.829 804.333,348.163 804.5,362.5C 798.5,362.5 792.5,362.5 786.5,362.5C 786.667,348.496 786.5,334.496 786,320.5C 781.702,311.526 774.868,309.026 765.5,313C 762.865,314.961 761.031,317.461 760,320.5C 759.5,334.496 759.333,348.496 759.5,362.5C 753.833,362.5 748.167,362.5 742.5,362.5C 742.5,340.833 742.5,319.167 742.5,297.5C 748.167,297.5 753.833,297.5 759.5,297.5C 759.34,299.199 759.506,300.866 760,302.5C 763.96,298.938 768.46,296.605 773.5,295.5 Z"/></g>
<g><path style="opacity:0.95" fill="#000000" d="M 892.5,295.5 C 909.708,294.875 920.541,302.875 925,319.5C 929.031,336.937 923.864,350.771 909.5,361C 897.14,365.733 885.974,363.9 876,355.5C 875.5,367.162 875.333,378.829 875.5,390.5C 869.833,390.5 864.167,390.5 858.5,390.5C 858.5,359.5 858.5,328.5 858.5,297.5C 864.167,297.5 869.833,297.5 875.5,297.5C 875.337,299.857 875.503,302.19 876,304.5C 880.516,299.495 886.016,296.495 892.5,295.5 Z M 887.5,311.5 C 903.244,311.083 910.078,318.749 908,334.5C 903.914,347.127 895.747,350.96 883.5,346C 873.689,336.229 873.022,325.896 881.5,315C 883.432,313.541 885.432,312.375 887.5,311.5 Z"/></g>
<g><path style="opacity:0.93" fill="#000000" d="M 1027.5,295.5 C 1035.71,295.108 1043.38,296.941 1050.5,301C 1055.76,305.604 1058.43,311.437 1058.5,318.5C 1052.83,318.5 1047.17,318.5 1041.5,318.5C 1040.69,312.641 1037.19,309.641 1031,309.5C 1026.92,309.514 1024.08,311.348 1022.5,315C 1022.9,316.473 1023.57,317.806 1024.5,319C 1032,322.125 1039.66,324.792 1047.5,327C 1057.54,331.759 1061.04,339.592 1058,350.5C 1054.23,357.476 1048.4,361.642 1040.5,363C 1027.63,365.578 1016.8,362.078 1008,352.5C 1005.92,349.107 1004.76,345.44 1004.5,341.5C 1010.5,341.5 1016.5,341.5 1022.5,341.5C 1024.91,348.705 1029.91,351.205 1037.5,349C 1044.15,344.892 1043.81,341.225 1036.5,338C 1028.97,336.268 1021.64,333.935 1014.5,331C 1010.94,329.108 1008.44,326.275 1007,322.5C 1004.13,312.1 1007.29,304.267 1016.5,299C 1020.25,297.691 1023.92,296.525 1027.5,295.5 Z"/></g>
<g><path style="opacity:0.948" fill="#010100" d="M 224.5,297.5 C 230.167,297.5 235.833,297.5 241.5,297.5C 241.07,311.892 241.57,326.226 243,340.5C 247.744,348.525 254.577,350.692 263.5,347C 266.467,344.9 268.3,342.066 269,338.5C 269.5,324.837 269.667,311.171 269.5,297.5C 275.5,297.5 281.5,297.5 287.5,297.5C 287.667,318.836 287.5,340.169 287,361.5C 281.259,362.475 275.425,362.808 269.5,362.5C 269.662,360.473 269.495,358.473 269,356.5C 260.58,363.526 251.08,365.359 240.5,362C 231.356,358.226 226.189,351.393 225,341.5C 224.5,326.837 224.333,312.17 224.5,297.5 Z"/></g>
<g><path style="opacity:0.923" fill="#000000" d="M 933.5,297.5 C 939.167,297.5 944.833,297.5 950.5,297.5C 950.112,311.545 950.612,325.545 952,339.5C 956.286,348.466 963.119,350.966 972.5,347C 975.467,344.9 977.3,342.066 978,338.5C 978.5,324.837 978.667,311.171 978.5,297.5C 984.5,297.5 990.5,297.5 996.5,297.5C 996.5,319.167 996.5,340.833 996.5,362.5C 990.5,362.5 984.5,362.5 978.5,362.5C 978.662,360.473 978.495,358.473 978,356.5C 969.595,363.54 960.095,365.373 949.5,362C 940.514,357.668 935.347,350.501 934,340.5C 933.5,326.171 933.333,311.837 933.5,297.5 Z"/></g>
<g><path style="opacity:0.799" fill="#000000" d="M 66.5,422.5 C 74.6249,420.815 81.1249,423.149 86,429.5C 86.49,430.793 86.6567,432.127 86.5,433.5C 84.8008,433.66 83.1341,433.494 81.5,433C 79.6328,428.981 76.4661,427.148 72,427.5C 64.1877,428.153 60.3543,432.486 60.5,440.5C 61.4799,451.321 67.1466,455.154 77.5,452C 80.3593,449.448 82.026,446.281 82.5,442.5C 78.5,442.5 74.5,442.5 70.5,442.5C 70.5,441.167 70.5,439.833 70.5,438.5C 76.1667,438.5 81.8333,438.5 87.5,438.5C 87.5,444.833 87.5,451.167 87.5,457.5C 85.8333,457.5 84.1667,457.5 82.5,457.5C 82.6567,456.127 82.49,454.793 82,453.5C 75.5843,459.281 68.751,459.781 61.5,455C 55.4732,448.097 53.9732,440.264 57,431.5C 59.4057,427.592 62.5724,424.592 66.5,422.5 Z"/></g>
<g><path style="opacity:0.794" fill="#010101" d="M 355.5,422.5 C 362.91,421.045 369.077,423.045 374,428.5C 375.009,430.025 375.509,431.692 375.5,433.5C 373.5,433.5 371.5,433.5 369.5,433.5C 369.703,431.61 369.037,430.11 367.5,429C 358.979,425.066 353.146,427.566 350,436.5C 348.429,445.714 352.095,451.381 361,453.5C 365.511,453.326 368.678,451.159 370.5,447C 372.134,446.506 373.801,446.34 375.5,446.5C 374.16,454.195 369.493,458.195 361.5,458.5C 348.56,456.369 343.06,448.702 345,435.5C 346.505,429.501 350.005,425.167 355.5,422.5 Z"/></g>
<g><path style="opacity:0.779" fill="#000000" d="M 409.5,422.5 C 411.167,422.5 412.833,422.5 414.5,422.5C 414.5,434.167 414.5,445.833 414.5,457.5C 412.833,457.5 411.167,457.5 409.5,457.5C 409.5,445.833 409.5,434.167 409.5,422.5 Z"/></g>
<g><path style="opacity:0.78" fill="#000000" d="M 419.5,422.5 C 421.167,422.5 422.833,422.5 424.5,422.5C 424.5,434.167 424.5,445.833 424.5,457.5C 422.833,457.5 421.167,457.5 419.5,457.5C 419.5,445.833 419.5,434.167 419.5,422.5 Z"/></g>
<g><path style="opacity:0.767" fill="#000000" d="M 558.5,422.5 C 560.167,422.5 561.833,422.5 563.5,422.5C 563.5,424.167 563.5,425.833 563.5,427.5C 561.833,427.5 560.167,427.5 558.5,427.5C 558.5,429.167 558.5,430.833 558.5,432.5C 560.167,432.5 561.833,432.5 563.5,432.5C 563.5,434.167 563.5,435.833 563.5,437.5C 561.833,437.5 560.167,437.5 558.5,437.5C 558.5,444.167 558.5,450.833 558.5,457.5C 556.833,457.5 555.167,457.5 553.5,457.5C 553.5,450.833 553.5,444.167 553.5,437.5C 552.167,437.5 550.833,437.5 549.5,437.5C 549.5,435.833 549.5,434.167 549.5,432.5C 550.833,432.5 552.167,432.5 553.5,432.5C 552.306,427.475 553.972,424.142 558.5,422.5 Z"/></g>
<g><path style="opacity:0.763" fill="#000000" d="M 580.5,422.5 C 587.833,422.5 595.167,422.5 602.5,422.5C 602.5,424.167 602.5,425.833 602.5,427.5C 596.833,427.5 591.167,427.5 585.5,427.5C 585.5,430.833 585.5,434.167 585.5,437.5C 590.5,437.5 595.5,437.5 600.5,437.5C 600.5,438.833 600.5,440.167 600.5,441.5C 595.5,441.5 590.5,441.5 585.5,441.5C 585.5,445.5 585.5,449.5 585.5,453.5C 591.167,453.5 596.833,453.5 602.5,453.5C 602.5,454.833 602.5,456.167 602.5,457.5C 595.167,457.5 587.833,457.5 580.5,457.5C 580.5,445.833 580.5,434.167 580.5,422.5 Z"/></g>
<g><path style="opacity:0.738" fill="#040503" d="M 662.5,421.5 C 666.184,422.372 667.184,424.539 665.5,428C 662.433,429.164 660.767,428.164 660.5,425C 660.862,423.566 661.528,422.399 662.5,421.5 Z"/></g>
<g><path style="opacity:0.738" fill="#030302" d="M 773.5,421.5 C 777.184,422.372 778.184,424.539 776.5,428C 773.433,429.164 771.767,428.164 771.5,425C 771.862,423.566 772.528,422.399 773.5,421.5 Z"/></g>
<g><path style="opacity:0.797" fill="#000000" d="M 857.5,422.5 C 859.467,422.261 861.301,422.594 863,423.5C 868.333,431.5 873.667,439.5 879,447.5C 879.5,439.173 879.666,430.84 879.5,422.5C 881.167,422.5 882.833,422.5 884.5,422.5C 884.5,434.167 884.5,445.833 884.5,457.5C 881.956,457.896 879.789,457.229 878,455.5C 873,447.833 868,440.167 863,432.5C 862.5,440.827 862.334,449.16 862.5,457.5C 860.833,457.5 859.167,457.5 857.5,457.5C 857.5,445.833 857.5,434.167 857.5,422.5 Z"/></g>
<g><path style="opacity:0.773" fill="#000100" d="M 316.5,427.5 C 318.167,427.5 319.833,427.5 321.5,427.5C 321.5,429.167 321.5,430.833 321.5,432.5C 323.833,432.5 326.167,432.5 328.5,432.5C 328.5,434.167 328.5,435.833 328.5,437.5C 326.167,437.5 323.833,437.5 321.5,437.5C 321.334,442.179 321.501,446.845 322,451.5C 324.007,452.669 326.173,453.335 328.5,453.5C 328.5,454.833 328.5,456.167 328.5,457.5C 324.743,457.929 321.243,457.263 318,455.5C 316.639,449.593 316.139,443.593 316.5,437.5C 315.167,437.5 313.833,437.5 312.5,437.5C 312.5,435.833 312.5,434.167 312.5,432.5C 313.833,432.5 315.167,432.5 316.5,432.5C 316.5,430.833 316.5,429.167 316.5,427.5 Z"/></g>
<g><path style="opacity:0.814" fill="#010101" d="M 99.5,432.5 C 109.771,430.613 115.771,434.779 117.5,445C 115.492,455.838 109.159,459.838 98.5,457C 91.848,452.37 90.0147,446.203 93,438.5C 94.4936,435.686 96.6603,433.686 99.5,432.5 Z M 102.5,436.5 C 110.88,437.359 113.713,441.692 111,449.5C 105.392,455.232 100.726,454.565 97,447.5C 96.2801,442.462 98.1134,438.796 102.5,436.5 Z"/></g>
<g><path style="opacity:0.778" fill="#010101" d="M 118.5,432.5 C 120.288,432.215 121.955,432.548 123.5,433.5C 125.765,439.128 127.931,444.794 130,450.5C 132.66,444.689 134.826,438.689 136.5,432.5C 138.167,432.5 139.833,432.5 141.5,432.5C 139.124,440.921 136.457,449.254 133.5,457.5C 131.208,457.756 129.041,457.423 127,456.5C 123.867,448.576 121.034,440.576 118.5,432.5 Z"/></g>
<g><path style="opacity:0.791" fill="#010100" d="M 150.5,432.5 C 161.64,430.646 167.306,435.313 167.5,446.5C 161.132,446.17 154.798,446.504 148.5,447.5C 150.091,452.604 153.424,454.437 158.5,453C 160.453,449.713 163.119,448.88 166.5,450.5C 160.153,459.922 152.987,460.589 145,452.5C 141.692,444.218 143.526,437.551 150.5,432.5 Z M 153.5,436.5 C 157.866,436.023 160.866,437.856 162.5,442C 157.798,442.828 153.131,442.662 148.5,441.5C 149.882,439.451 151.548,437.785 153.5,436.5 Z"/></g>
<g><path style="opacity:0.767" fill="#000000" d="M 171.5,432.5 C 173.167,432.5 174.833,432.5 176.5,432.5C 176.351,433.552 176.517,434.552 177,435.5C 179.305,433.07 182.138,432.07 185.5,432.5C 185.5,434.167 185.5,435.833 185.5,437.5C 181.192,436.735 178.358,438.402 177,442.5C 176.501,447.489 176.334,452.489 176.5,457.5C 174.833,457.5 173.167,457.5 171.5,457.5C 171.5,449.167 171.5,440.833 171.5,432.5 Z"/></g>
<g><path style="opacity:0.8" fill="#000000" d="M 189.5,432.5 C 190.833,432.5 192.167,432.5 193.5,432.5C 193.351,433.552 193.517,434.552 194,435.5C 199.201,431.53 204.368,431.53 209.5,435.5C 210.098,436.795 210.598,438.128 211,439.5C 211.499,445.491 211.666,451.491 211.5,457.5C 209.833,457.5 208.167,457.5 206.5,457.5C 206.666,451.824 206.499,446.157 206,440.5C 203.828,436.262 200.662,435.428 196.5,438C 195.874,438.75 195.374,439.584 195,440.5C 194.501,446.157 194.334,451.824 194.5,457.5C 192.833,457.5 191.167,457.5 189.5,457.5C 189.5,449.167 189.5,440.833 189.5,432.5 Z"/></g>
<g><path style="opacity:0.811" fill="#010100" d="M 216.5,432.5 C 218.766,432.141 220.599,432.808 222,434.5C 227.117,431.57 231.95,431.904 236.5,435.5C 241.184,432.184 246.184,431.684 251.5,434C 252.46,435.419 253.293,436.919 254,438.5C 254.5,444.825 254.666,451.158 254.5,457.5C 252.833,457.5 251.167,457.5 249.5,457.5C 249.666,451.824 249.499,446.157 249,440.5C 245.76,435.299 242.426,435.299 239,440.5C 238.501,446.157 238.334,451.824 238.5,457.5C 236.833,457.5 235.167,457.5 233.5,457.5C 233.804,451.423 233.304,445.423 232,439.5C 227.87,435.194 224.537,435.86 222,441.5C 221.501,446.823 221.334,452.156 221.5,457.5C 219.833,457.5 218.167,457.5 216.5,457.5C 216.5,449.167 216.5,440.833 216.5,432.5 Z"/></g>
<g><path style="opacity:0.793" fill="#000000" d="M 265.5,432.5 C 276.669,430.679 282.336,435.345 282.5,446.5C 276.132,446.17 269.798,446.504 263.5,447.5C 264.671,451.172 267.171,453.172 271,453.5C 274.369,451.695 277.869,450.362 281.5,449.5C 279.979,455.013 276.312,458.013 270.5,458.5C 260.887,456.288 257.054,450.288 259,440.5C 260.305,437.039 262.471,434.372 265.5,432.5 Z M 268.5,436.5 C 272.695,436.031 275.695,437.698 277.5,441.5C 272.869,442.662 268.202,442.828 263.5,442C 264.692,439.645 266.359,437.812 268.5,436.5 Z"/></g>
<g><path style="opacity:0.782" fill="#000000" d="M 286.5,432.5 C 288.167,432.5 289.833,432.5 291.5,432.5C 291.351,433.552 291.517,434.552 292,435.5C 297.682,431.207 303.016,431.541 308,436.5C 309.339,443.426 309.839,450.426 309.5,457.5C 307.833,457.5 306.167,457.5 304.5,457.5C 304.666,452.156 304.499,446.823 304,441.5C 301.395,435.77 297.728,435.103 293,439.5C 291.696,445.423 291.196,451.423 291.5,457.5C 289.833,457.5 288.167,457.5 286.5,457.5C 286.5,449.167 286.5,440.833 286.5,432.5 Z"/></g>
<g><path style="opacity:0.804" fill="#010100" d="M 386.5,432.5 C 399.769,430.603 405.602,436.27 404,449.5C 401.886,455.311 397.719,458.311 391.5,458.5C 381.049,456.275 377.216,449.942 380,439.5C 381.694,436.642 383.861,434.309 386.5,432.5 Z M 389.5,436.5 C 396.832,436.474 399.999,440.141 399,447.5C 395.357,454.626 390.691,455.293 385,449.5C 383.379,443.923 384.879,439.589 389.5,436.5 Z"/></g>
<g><path style="opacity:0.796" fill="#010100" d="M 436.5,432.5 C 447.669,430.679 453.336,435.345 453.5,446.5C 447.132,446.17 440.798,446.504 434.5,447.5C 437.781,454.379 442.114,455.212 447.5,450C 449.134,449.506 450.801,449.34 452.5,449.5C 450.979,455.013 447.312,458.013 441.5,458.5C 430.328,455.534 426.828,448.534 431,437.5C 432.73,435.598 434.563,433.931 436.5,432.5 Z M 439.5,436.5 C 443.67,435.993 446.67,437.659 448.5,441.5C 443.833,442.833 439.167,442.833 434.5,441.5C 435.882,439.451 437.548,437.785 439.5,436.5 Z"/></g>
<g><path style="opacity:0.804" fill="#010100" d="M 462.5,432.5 C 468.167,432.5 473.833,432.5 479.5,432.5C 479.5,434.167 479.5,435.833 479.5,437.5C 476.513,437.422 475.847,438.589 477.5,441C 476.885,443.515 475.885,445.848 474.5,448C 470.284,449.204 465.951,449.87 461.5,450C 462.167,450.667 462.833,451.333 463.5,452C 467.951,452.13 472.284,452.796 476.5,454C 478.523,457.183 479.023,460.683 478,464.5C 473.483,468.242 468.316,469.409 462.5,468C 458.438,467.109 456.438,464.609 456.5,460.5C 456.326,458.307 456.993,456.473 458.5,455C 456.107,452.134 456.107,449.134 458.5,446C 456.32,440.304 457.654,435.804 462.5,432.5 Z M 464.5,436.5 C 469.351,435.868 471.851,437.868 472,442.5C 469.294,445.978 466.294,446.311 463,443.5C 462.167,440.829 462.667,438.496 464.5,436.5 Z M 463.5,456.5 C 466.579,456.26 469.579,456.593 472.5,457.5C 474.464,462.222 472.797,464.555 467.5,464.5C 464.21,464.363 461.877,462.863 460.5,460C 461.365,458.641 462.365,457.474 463.5,456.5 Z"/></g>
<g><path style="opacity:0.798" fill="#010101" d="M 488.5,432.5 C 499.964,430.376 505.631,435.042 505.5,446.5C 499.158,446.334 492.825,446.5 486.5,447C 487.442,450.94 489.942,453.107 494,453.5C 497.197,452.769 500.031,451.435 502.5,449.5C 503.5,449.667 504.5,449.833 505.5,450C 503.455,455.528 499.455,458.361 493.5,458.5C 485.813,457.311 481.813,452.811 481.5,445C 481.666,439.491 483.999,435.324 488.5,432.5 Z M 491.5,436.5 C 495.866,435.847 498.866,437.514 500.5,441.5C 496.217,442.492 491.884,442.826 487.5,442.5C 487.657,439.682 488.991,437.682 491.5,436.5 Z"/></g>
<g><path style="opacity:0.815" fill="#020201" d="M 529.5,432.5 C 543.85,431.215 549.35,437.549 546,451.5C 539.279,459.543 531.946,460.209 524,453.5C 519.772,444.737 521.606,437.737 529.5,432.5 Z M 532.5,436.5 C 540.82,437.311 543.653,441.645 541,449.5C 534.171,455.664 529.337,454.331 526.5,445.5C 526.955,441.394 528.955,438.394 532.5,436.5 Z"/></g>
<g><path style="opacity:0.782" fill="#000000" d="M 607.5,432.5 C 609.821,432.229 611.821,432.896 613.5,434.5C 618.548,431.635 623.381,431.968 628,435.5C 629.429,442.719 629.929,450.053 629.5,457.5C 627.833,457.5 626.167,457.5 624.5,457.5C 624.666,451.491 624.499,445.491 624,439.5C 619.657,435.327 615.99,435.994 613,441.5C 612.501,446.823 612.334,452.156 612.5,457.5C 610.833,457.5 609.167,457.5 607.5,457.5C 607.5,449.167 607.5,440.833 607.5,432.5 Z"/></g>
<g><path style="opacity:0.807" fill="#010100" d="M 639.5,432.5 C 645.167,432.5 650.833,432.5 656.5,432.5C 655.558,437.213 654.392,441.88 653,446.5C 652.097,447.701 650.931,448.535 649.5,449C 646.118,449.176 642.785,449.676 639.5,450.5C 639.709,451.086 640.043,451.586 640.5,452C 644.167,452.333 647.833,452.667 651.5,453C 657.729,457.171 658.062,461.837 652.5,467C 646.655,469.248 640.988,468.915 635.5,466C 632.833,462.333 632.833,458.667 635.5,455C 635.516,449.221 635.349,443.388 635,437.5C 636.025,435.313 637.525,433.646 639.5,432.5 Z M 642.5,436.5 C 648.144,436.297 650.144,438.797 648.5,444C 642.141,447.225 639.308,445.392 640,438.5C 640.995,437.934 641.828,437.267 642.5,436.5 Z M 641.5,456.5 C 644.649,456.211 647.649,456.711 650.5,458C 651.445,462.083 649.612,464.25 645,464.5C 638.033,463.885 636.866,461.219 641.5,456.5 Z"/></g>
<g><path style="opacity:0.781" fill="#000000" d="M 660.5,432.5 C 662.167,432.5 663.833,432.5 665.5,432.5C 665.5,440.833 665.5,449.167 665.5,457.5C 663.833,457.5 662.167,457.5 660.5,457.5C 660.5,449.167 660.5,440.833 660.5,432.5 Z"/></g>
<g><path style="opacity:0.842" fill="#060603" d="M 672.5,432.5 C 673.833,432.5 675.167,432.5 676.5,432.5C 676.351,433.552 676.517,434.552 677,435.5C 682.682,431.207 688.016,431.541 693,436.5C 694.384,443.411 694.884,450.411 694.5,457.5C 692.833,457.5 691.167,457.5 689.5,457.5C 689.666,451.824 689.499,446.157 689,440.5C 685.333,435.167 681.667,435.167 678,440.5C 677.501,446.157 677.334,451.824 677.5,457.5C 675.5,457.5 673.5,457.5 671.5,457.5C 671.198,449.082 671.531,440.748 672.5,432.5 Z"/></g>
<g><path style="opacity:0.792" fill="#010100" d="M 705.5,432.5 C 716.669,430.679 722.336,435.345 722.5,446.5C 716.132,446.17 709.798,446.504 703.5,447.5C 704.671,451.172 707.171,453.172 711,453.5C 714.369,451.695 717.869,450.362 721.5,449.5C 719.979,455.013 716.312,458.013 710.5,458.5C 700.887,456.288 697.054,450.288 699,440.5C 700.305,437.039 702.471,434.372 705.5,432.5 Z M 708.5,436.5 C 712.67,435.993 715.67,437.659 717.5,441.5C 712.869,442.662 708.202,442.828 703.5,442C 704.692,439.645 706.359,437.812 708.5,436.5 Z"/></g>
<g><path style="opacity:0.796" fill="#010100" d="M 732.5,432.5 C 743.964,430.376 749.631,435.042 749.5,446.5C 743.158,446.334 736.825,446.5 730.5,447C 731.468,450.969 733.968,453.136 738,453.5C 741.197,452.769 744.031,451.435 746.5,449.5C 747.5,449.667 748.5,449.833 749.5,450C 747.455,455.528 743.455,458.361 737.5,458.5C 729.813,457.311 725.813,452.811 725.5,445C 725.666,439.491 727.999,435.324 732.5,432.5 Z M 735.5,436.5 C 739.866,435.847 742.866,437.514 744.5,441.5C 740.217,442.492 735.884,442.826 731.5,442.5C 731.657,439.682 732.991,437.682 735.5,436.5 Z"/></g>
<g><path style="opacity:0.793" fill="#010100" d="M 754.5,432.5 C 755.833,432.5 757.167,432.5 758.5,432.5C 758.351,433.552 758.517,434.552 759,435.5C 761.642,432.971 764.808,431.971 768.5,432.5C 768.5,434.167 768.5,435.833 768.5,437.5C 764.645,436.845 761.812,438.179 760,441.5C 759.501,446.823 759.334,452.156 759.5,457.5C 757.833,457.5 756.167,457.5 754.5,457.5C 754.5,449.167 754.5,440.833 754.5,432.5 Z"/></g>
<g><path style="opacity:0.784" fill="#000000" d="M 772.5,432.5 C 774.167,432.5 775.833,432.5 777.5,432.5C 777.5,440.833 777.5,449.167 777.5,457.5C 775.833,457.5 774.167,457.5 772.5,457.5C 772.5,449.167 772.5,440.833 772.5,432.5 Z"/></g>
<g><path style="opacity:0.8" fill="#000000" d="M 783.5,432.5 C 784.833,432.5 786.167,432.5 787.5,432.5C 787.351,433.552 787.517,434.552 788,435.5C 793.201,431.53 798.368,431.53 803.5,435.5C 804.098,436.795 804.598,438.128 805,439.5C 805.499,445.491 805.666,451.491 805.5,457.5C 803.833,457.5 802.167,457.5 800.5,457.5C 800.666,451.824 800.499,446.157 800,440.5C 797.828,436.262 794.662,435.428 790.5,438C 789.874,438.75 789.374,439.584 789,440.5C 788.501,446.157 788.334,451.824 788.5,457.5C 786.833,457.5 785.167,457.5 783.5,457.5C 783.5,449.167 783.5,440.833 783.5,432.5 Z"/></g>
<g><path style="opacity:0.809" fill="#000000" d="M 815.5,432.5 C 821.167,432.5 826.833,432.5 832.5,432.5C 832.5,434.167 832.5,435.833 832.5,437.5C 831.5,437.5 830.5,437.5 829.5,437.5C 830.447,442.223 829.114,446.056 825.5,449C 821.789,449.175 818.122,449.675 814.5,450.5C 815.025,451.192 815.692,451.692 816.5,452C 820.951,452.13 825.284,452.796 829.5,454C 833.798,463.226 830.798,468.059 820.5,468.5C 814.107,469.275 810.107,466.608 808.5,460.5C 808.848,458.303 809.848,456.47 811.5,455C 808.887,452.205 808.887,449.371 811.5,446.5C 809.168,440.57 810.502,435.903 815.5,432.5 Z M 817.5,436.5 C 821.497,435.668 824.164,437.168 825.5,441C 821.833,447 818.167,447 814.5,441C 815.386,439.385 816.386,437.885 817.5,436.5 Z M 816.5,456.5 C 820.007,455.994 823.174,456.66 826,458.5C 826.667,459.833 826.667,461.167 826,462.5C 821.161,465.631 816.995,464.964 813.5,460.5C 814.172,458.84 815.172,457.507 816.5,456.5 Z"/></g>
<g><path style="opacity:0.796" fill="#010100" d="M 895.5,432.5 C 898.85,432.335 902.183,432.502 905.5,433C 907.286,433.785 908.786,434.951 910,436.5C 911.043,443.532 912.21,450.532 913.5,457.5C 910.675,457.919 908.509,456.919 907,454.5C 901.881,459.076 896.548,459.409 891,455.5C 888.614,451.206 889.114,447.373 892.5,444C 897.091,442.947 901.758,442.114 906.5,441.5C 902.764,435.066 898.764,434.9 894.5,441C 889.628,442.115 888.461,440.615 891,436.5C 892.397,434.93 893.897,433.596 895.5,432.5 Z M 896.5,446.5 C 899.85,446.335 903.183,446.502 906.5,447C 904.53,453.566 900.697,455.066 895,451.5C 894.387,449.505 894.887,447.838 896.5,446.5 Z"/></g>
<g><path style="opacity:0.804" fill="#010100" d="M 922.5,432.5 C 928.167,432.5 933.833,432.5 939.5,432.5C 939.5,434.167 939.5,435.833 939.5,437.5C 936.513,437.422 935.847,438.589 937.5,441C 937.089,444.496 935.422,447.163 932.5,449C 928.833,449.333 925.167,449.667 921.5,450C 922.167,450.667 922.833,451.333 923.5,452C 927.951,452.13 932.284,452.796 936.5,454C 938.523,457.183 939.023,460.683 938,464.5C 933.483,468.242 928.316,469.409 922.5,468C 918.438,467.109 916.438,464.609 916.5,460.5C 916.326,458.307 916.993,456.473 918.5,455C 916.107,452.134 916.107,449.134 918.5,446C 916.178,440.207 917.511,435.707 922.5,432.5 Z M 924.5,436.5 C 929.351,435.868 931.851,437.868 932,442.5C 929.294,445.978 926.294,446.311 923,443.5C 922.167,440.829 922.667,438.496 924.5,436.5 Z M 923.5,456.5 C 926.579,456.26 929.579,456.593 932.5,457.5C 934.464,462.222 932.797,464.555 927.5,464.5C 924.21,464.363 921.877,462.863 920.5,460C 921.365,458.641 922.365,457.474 923.5,456.5 Z"/></g>
<g><path style="opacity:0.818" fill="#000000" d="M 943.5,432.5 C 944.833,432.5 946.167,432.5 947.5,432.5C 947.351,433.552 947.517,434.552 948,435.5C 952.819,432.135 957.986,431.635 963.5,434C 968.652,439.306 969.819,445.472 967,452.5C 961.716,458.495 955.716,459.495 949,455.5C 948.501,459.821 948.334,464.154 948.5,468.5C 946.833,468.5 945.167,468.5 943.5,468.5C 943.5,456.5 943.5,444.5 943.5,432.5 Z M 953.5,436.5 C 961.642,436.481 964.808,440.481 963,448.5C 958.333,455.167 953.667,455.167 949,448.5C 947.474,443.239 948.974,439.239 953.5,436.5 Z"/></g>
<g><path style="opacity:0.777" fill="#000000" d="M 972.5,432.5 C 974.167,432.5 975.833,432.5 977.5,432.5C 977.334,437.844 977.501,443.177 978,448.5C 978.426,451.761 980.259,453.428 983.5,453.5C 985.912,453.594 987.745,452.594 989,450.5C 990.304,444.577 990.804,438.577 990.5,432.5C 992.167,432.5 993.833,432.5 995.5,432.5C 995.5,440.833 995.5,449.167 995.5,457.5C 993.833,457.5 992.167,457.5 990.5,457.5C 990.557,453.867 989.557,453.7 987.5,457C 983.144,458.711 978.977,458.211 975,455.5C 974.138,453.913 973.471,452.246 973,450.5C 972.501,444.509 972.334,438.509 972.5,432.5 Z"/></g>
<g><path style="opacity:0.763" fill="#000000" d="M 1000.5,432.5 C 1002.17,432.5 1003.83,432.5 1005.5,432.5C 1005.35,433.552 1005.52,434.552 1006,435.5C 1008.3,433.07 1011.14,432.07 1014.5,432.5C 1014.5,434.167 1014.5,435.833 1014.5,437.5C 1011.35,436.959 1008.85,437.959 1007,440.5C 1005.65,446.072 1005.15,451.738 1005.5,457.5C 1003.83,457.5 1002.17,457.5 1000.5,457.5C 1000.5,449.167 1000.5,440.833 1000.5,432.5 Z"/></g>
<g><path style="opacity:0.694" fill="#010101" d="M 835.5,451.5 C 837.167,451.5 838.833,451.5 840.5,451.5C 839.815,456.261 837.815,460.261 834.5,463.5C 833.833,463.167 833.167,462.833 832.5,462.5C 833.659,458.864 834.659,455.198 835.5,451.5 Z"/></g>
</svg>
