<svg width="254" height="55" viewBox="0 0 254 55" fill="none" xmlns="http://www.w3.org/2000/svg">
<path d="M8 18.288C6.4 18.288 5.008 17.92 3.824 17.184C2.656 16.432 1.744 15.408 1.088 14.112C0.448 12.8 0.128 11.304 0.128 9.624C0.128 7.96 0.448 6.472 1.088 5.16C1.728 3.848 2.656 2.816 3.872 2.064C5.088 1.296 6.56 0.912 8.288 0.912C10.176 0.912 11.744 1.368 12.992 2.28C14.256 3.192 15.072 4.448 15.44 6.048H13.112C12.888 5.04 12.352 4.24 11.504 3.648C10.672 3.056 9.6 2.76 8.288 2.76C6.96 2.76 5.84 3.064 4.928 3.672C4.016 4.28 3.328 5.104 2.864 6.144C2.416 7.168 2.192 8.328 2.192 9.624C2.192 10.936 2.424 12.112 2.888 13.152C3.352 14.192 4.024 15.008 4.904 15.6C5.784 16.192 6.84 16.488 8.072 16.488C9.864 16.488 11.216 15.968 12.128 14.928C13.04 13.872 13.56 12.432 13.688 10.608H7.64V9.024H15.752V18H13.904L13.736 15.24C13.128 16.216 12.384 16.968 11.504 17.496C10.624 18.024 9.456 18.288 8 18.288ZM24.3161 18.288C23.2281 18.288 22.2281 18.048 21.3161 17.568C20.4041 17.072 19.6761 16.36 19.1321 15.432C18.5881 14.488 18.3161 13.352 18.3161 12.024C18.3161 10.76 18.5801 9.664 19.1081 8.736C19.6521 7.808 20.3801 7.088 21.2921 6.576C22.2201 6.064 23.2601 5.808 24.4121 5.808C25.5161 5.808 26.5241 6.048 27.4361 6.528C28.3641 7.008 29.1081 7.712 29.6681 8.64C30.2281 9.568 30.5081 10.696 30.5081 12.024C30.5081 13.24 30.2441 14.32 29.7161 15.264C29.1881 16.208 28.4521 16.952 27.5081 17.496C26.5801 18.024 25.5161 18.288 24.3161 18.288ZM24.3161 16.536C25.1001 16.536 25.8041 16.352 26.4281 15.984C27.0521 15.6 27.5481 15.072 27.9161 14.4C28.2841 13.728 28.4681 12.936 28.4681 12.024C28.4681 11.16 28.3081 10.392 27.9881 9.72C27.6681 9.048 27.2041 8.52 26.5961 8.136C25.9881 7.752 25.2521 7.56 24.3881 7.56C23.5081 7.56 22.7641 7.76 22.1561 8.16C21.5641 8.56 21.1161 9.096 20.8121 9.768C20.5081 10.44 20.3561 11.192 20.3561 12.024C20.3561 13.08 20.5481 13.944 20.9321 14.616C21.3161 15.272 21.8121 15.76 22.4201 16.08C23.0281 16.384 23.6601 16.536 24.3161 16.536ZM36.1271 18L31.6151 6.096H33.7271L37.3031 16.056L40.9031 6.096H42.9671L38.4551 18H36.1271ZM49.9533 18.288C48.8493 18.288 47.8493 18.032 46.9533 17.52C46.0733 17.008 45.3773 16.288 44.8653 15.36C44.3533 14.416 44.0973 13.312 44.0973 12.048C44.0973 10.8 44.3373 9.712 44.8173 8.784C45.3133 7.84 46.0013 7.112 46.8813 6.6C47.7773 6.072 48.8173 5.808 50.0013 5.808C51.1213 5.808 52.0973 6.056 52.9293 6.552C53.7613 7.048 54.4093 7.72 54.8733 8.568C55.3533 9.4 55.5933 10.336 55.5933 11.376C55.5933 11.6 55.5933 11.776 55.5933 11.904C55.5933 12.032 55.5853 12.232 55.5693 12.504H46.0893C46.1373 13.288 46.3213 13.992 46.6413 14.616C46.9773 15.224 47.4253 15.704 47.9853 16.056C48.5613 16.408 49.2173 16.584 49.9533 16.584C50.7853 16.584 51.4813 16.392 52.0413 16.008C52.6013 15.624 53.0093 15.104 53.2653 14.448H55.2573C55.0493 15.184 54.7053 15.84 54.2253 16.416C53.7453 16.992 53.1453 17.448 52.4253 17.784C51.7213 18.12 50.8973 18.288 49.9533 18.288ZM46.1133 10.944H53.6013C53.5533 9.872 53.1853 9.032 52.4973 8.424C51.8093 7.816 50.9613 7.512 49.9533 7.512C48.9933 7.512 48.1373 7.808 47.3853 8.4C46.6493 8.976 46.2253 9.824 46.1133 10.944ZM58.2654 18V6.096H60.0894L60.2574 8.376C60.6254 7.592 61.1854 6.968 61.9374 6.504C62.6894 6.04 63.6174 5.808 64.7214 5.808V7.92H64.1694C62.8574 7.92 61.8814 8.272 61.2414 8.976C60.6014 9.68 60.2814 10.688 60.2814 12V18H58.2654ZM66.9841 18V6.096H68.8081L68.9281 8.232C69.3121 7.48 69.8641 6.888 70.5841 6.456C71.3041 6.024 72.1201 5.808 73.0321 5.808C74.4401 5.808 75.5601 6.24 76.3921 7.104C77.2401 7.952 77.6641 9.264 77.6641 11.04V18H75.6481V11.256C75.6481 10.024 75.3921 9.096 74.8801 8.472C74.3681 7.848 73.6001 7.536 72.5761 7.536C71.5521 7.536 70.6961 7.912 70.0081 8.664C69.3361 9.4 69.0001 10.456 69.0001 11.832V18H66.9841ZM80.7419 18V6.096H82.5659L82.7099 7.824C83.0939 7.184 83.6059 6.688 84.2459 6.336C84.8859 5.984 85.6059 5.808 86.4059 5.808C87.3499 5.808 88.1579 6 88.8299 6.384C89.5179 6.768 90.0459 7.352 90.4139 8.136C90.8299 7.416 91.3979 6.848 92.1179 6.432C92.8539 6.016 93.6459 5.808 94.4939 5.808C95.4539 5.808 96.2779 6 96.9659 6.384C97.6699 6.752 98.2139 7.328 98.5979 8.112C98.9819 8.88 99.1739 9.856 99.1739 11.04V18H97.1819V11.256C97.1819 10.024 96.9339 9.096 96.4379 8.472C95.9419 7.848 95.2299 7.536 94.3019 7.536C93.3419 7.536 92.5419 7.912 91.9019 8.664C91.2779 9.4 90.9659 10.456 90.9659 11.832V18H88.9499V11.256C88.9499 10.024 88.7019 9.096 88.2059 8.472C87.7099 7.848 86.9979 7.536 86.0699 7.536C85.1259 7.536 84.3339 7.912 83.6939 8.664C83.0699 9.4 82.7579 10.456 82.7579 11.832V18H80.7419ZM107.563 18.288C106.459 18.288 105.459 18.032 104.563 17.52C103.683 17.008 102.987 16.288 102.475 15.36C101.963 14.416 101.707 13.312 101.707 12.048C101.707 10.8 101.947 9.712 102.427 8.784C102.923 7.84 103.611 7.112 104.491 6.6C105.387 6.072 106.427 5.808 107.611 5.808C108.731 5.808 109.707 6.056 110.539 6.552C111.371 7.048 112.019 7.72 112.483 8.568C112.963 9.4 113.203 10.336 113.203 11.376C113.203 11.6 113.203 11.776 113.203 11.904C113.203 12.032 113.195 12.232 113.179 12.504H103.699C103.747 13.288 103.931 13.992 104.251 14.616C104.587 15.224 105.035 15.704 105.595 16.056C106.171 16.408 106.827 16.584 107.563 16.584C108.395 16.584 109.091 16.392 109.651 16.008C110.211 15.624 110.619 15.104 110.875 14.448H112.867C112.659 15.184 112.315 15.84 111.835 16.416C111.355 16.992 110.755 17.448 110.035 17.784C109.331 18.12 108.507 18.288 107.563 18.288ZM103.723 10.944H111.211C111.163 9.872 110.795 9.032 110.107 8.424C109.419 7.816 108.571 7.512 107.563 7.512C106.603 7.512 105.747 7.808 104.995 8.4C104.259 8.976 103.835 9.824 103.723 10.944ZM115.875 18V6.096H117.699L117.819 8.232C118.203 7.48 118.755 6.888 119.475 6.456C120.195 6.024 121.011 5.808 121.923 5.808C123.331 5.808 124.451 6.24 125.283 7.104C126.131 7.952 126.555 9.264 126.555 11.04V18H124.539V11.256C124.539 10.024 124.283 9.096 123.771 8.472C123.259 7.848 122.491 7.536 121.467 7.536C120.443 7.536 119.587 7.912 118.899 8.664C118.227 9.4 117.891 10.456 117.891 11.832V18H115.875ZM134.337 18C133.249 18 132.393 17.736 131.769 17.208C131.145 16.68 130.833 15.728 130.833 14.352V7.8H128.769V6.096H130.833V3.24H132.849V6.096H136.185V7.8H132.849V14.352C132.849 15.104 133.001 15.616 133.305 15.888C133.609 16.144 134.145 16.272 134.913 16.272H136.185V18H134.337ZM152.753 18.288C151.057 18.288 149.609 17.912 148.409 17.16C147.209 16.392 146.297 15.352 145.673 14.04C145.049 12.728 144.737 11.248 144.737 9.6C144.737 7.968 145.041 6.496 145.649 5.184C146.273 3.872 147.185 2.832 148.385 2.064C149.585 1.296 151.041 0.912 152.753 0.912C154.673 0.912 156.233 1.376 157.433 2.304C158.649 3.216 159.425 4.496 159.761 6.144H157.529C157.273 5.104 156.745 4.272 155.945 3.648C155.161 3.008 154.097 2.688 152.753 2.688C151.425 2.688 150.321 3 149.441 3.624C148.561 4.232 147.897 5.056 147.449 6.096C147.017 7.136 146.801 8.304 146.801 9.6C146.801 10.928 147.025 12.112 147.473 13.152C147.937 14.192 148.609 15.016 149.489 15.624C150.369 16.216 151.457 16.512 152.753 16.512C154.097 16.512 155.161 16.208 155.945 15.6C156.745 14.976 157.273 14.152 157.529 13.128H159.761C159.425 14.744 158.649 16.008 157.433 16.92C156.233 17.832 154.673 18.288 152.753 18.288ZM168.035 18.288C166.947 18.288 165.947 18.048 165.035 17.568C164.123 17.072 163.395 16.36 162.851 15.432C162.307 14.488 162.035 13.352 162.035 12.024C162.035 10.76 162.299 9.664 162.827 8.736C163.371 7.808 164.099 7.088 165.011 6.576C165.939 6.064 166.979 5.808 168.131 5.808C169.235 5.808 170.243 6.048 171.155 6.528C172.083 7.008 172.827 7.712 173.387 8.64C173.947 9.568 174.227 10.696 174.227 12.024C174.227 13.24 173.963 14.32 173.435 15.264C172.907 16.208 172.171 16.952 171.227 17.496C170.299 18.024 169.235 18.288 168.035 18.288ZM168.035 16.536C168.819 16.536 169.523 16.352 170.147 15.984C170.771 15.6 171.267 15.072 171.635 14.4C172.003 13.728 172.187 12.936 172.187 12.024C172.187 11.16 172.027 10.392 171.707 9.72C171.387 9.048 170.923 8.52 170.315 8.136C169.707 7.752 168.971 7.56 168.107 7.56C167.227 7.56 166.483 7.76 165.875 8.16C165.283 8.56 164.835 9.096 164.531 9.768C164.227 10.44 164.075 11.192 164.075 12.024C164.075 13.08 164.267 13.944 164.651 14.616C165.035 15.272 165.531 15.76 166.139 16.08C166.747 16.384 167.379 16.536 168.035 16.536ZM177.023 18V1.2H179.039V18H177.023ZM182.344 18V1.2H184.36V18H182.344ZM193.016 18.288C191.912 18.288 190.912 18.032 190.016 17.52C189.136 17.008 188.44 16.288 187.928 15.36C187.416 14.416 187.16 13.312 187.16 12.048C187.16 10.8 187.4 9.712 187.88 8.784C188.376 7.84 189.064 7.112 189.944 6.6C190.84 6.072 191.88 5.808 193.064 5.808C194.184 5.808 195.16 6.056 195.992 6.552C196.824 7.048 197.472 7.72 197.936 8.568C198.416 9.4 198.656 10.336 198.656 11.376C198.656 11.6 198.656 11.776 198.656 11.904C198.656 12.032 198.648 12.232 198.632 12.504H189.152C189.2 13.288 189.384 13.992 189.704 14.616C190.04 15.224 190.488 15.704 191.048 16.056C191.624 16.408 192.28 16.584 193.016 16.584C193.848 16.584 194.544 16.392 195.104 16.008C195.664 15.624 196.072 15.104 196.328 14.448H198.32C198.112 15.184 197.768 15.84 197.288 16.416C196.808 16.992 196.208 17.448 195.488 17.784C194.784 18.12 193.96 18.288 193.016 18.288ZM189.176 10.944H196.664C196.616 9.872 196.248 9.032 195.56 8.424C194.872 7.816 194.024 7.512 193.016 7.512C192.056 7.512 191.2 7.808 190.448 8.4C189.712 8.976 189.288 9.824 189.176 10.944ZM206.056 23.568C205.112 23.568 204.208 23.448 203.344 23.208C202.48 22.968 201.776 22.56 201.232 21.984C200.704 21.424 200.44 20.672 200.44 19.728C200.44 19.072 200.592 18.528 200.896 18.096C201.2 17.664 201.6 17.336 202.096 17.112C201.712 16.888 201.4 16.608 201.16 16.272C200.92 15.936 200.8 15.552 200.8 15.12C200.8 14.16 201.232 13.384 202.096 12.792C201.776 12.424 201.52 12.016 201.328 11.568C201.152 11.104 201.064 10.592 201.064 10.032C201.064 9.152 201.264 8.4 201.664 7.776C202.08 7.136 202.64 6.648 203.344 6.312C204.064 5.976 204.88 5.808 205.792 5.808C206.464 5.808 207.096 5.904 207.688 6.096H211.744V7.8H209.896C210.104 8.12 210.256 8.472 210.352 8.856C210.464 9.224 210.52 9.616 210.52 10.032C210.52 10.944 210.304 11.712 209.872 12.336C209.456 12.96 208.888 13.44 208.168 13.776C207.464 14.096 206.672 14.256 205.792 14.256C205.344 14.256 204.936 14.208 204.568 14.112C204.2 14.016 203.832 13.88 203.464 13.704C203.048 13.912 202.84 14.232 202.84 14.664C202.84 15.464 203.512 15.864 204.856 15.864H206.848C207.744 15.864 208.536 15.984 209.224 16.224C209.912 16.448 210.448 16.824 210.832 17.352C211.232 17.864 211.432 18.568 211.432 19.464C211.432 20.376 211.176 21.136 210.664 21.744C210.152 22.352 209.488 22.808 208.672 23.112C207.856 23.416 206.984 23.568 206.056 23.568ZM206.008 21.888C206.968 21.888 207.784 21.704 208.456 21.336C209.128 20.984 209.464 20.44 209.464 19.704C209.464 18.328 208.632 17.64 206.968 17.64H204.928C204.144 17.64 203.528 17.808 203.08 18.144C202.632 18.496 202.408 19.016 202.408 19.704C202.408 20.232 202.576 20.656 202.912 20.976C203.248 21.296 203.688 21.528 204.232 21.672C204.776 21.816 205.368 21.888 206.008 21.888ZM205.744 12.576C206.576 12.576 207.256 12.336 207.784 11.856C208.312 11.376 208.576 10.768 208.576 10.032C208.576 9.296 208.312 8.688 207.784 8.208C207.256 7.728 206.576 7.488 205.744 7.488C204.912 7.488 204.24 7.728 203.728 8.208C203.232 8.688 202.984 9.296 202.984 10.032C202.984 10.768 203.224 11.376 203.704 11.856C204.2 12.336 204.88 12.576 205.744 12.576ZM219.196 18.288C218.092 18.288 217.092 18.032 216.196 17.52C215.316 17.008 214.62 16.288 214.108 15.36C213.596 14.416 213.34 13.312 213.34 12.048C213.34 10.8 213.58 9.712 214.06 8.784C214.556 7.84 215.244 7.112 216.124 6.6C217.02 6.072 218.06 5.808 219.243 5.808C220.364 5.808 221.34 6.056 222.172 6.552C223.004 7.048 223.652 7.72 224.116 8.568C224.596 9.4 224.836 10.336 224.836 11.376C224.836 11.6 224.836 11.776 224.836 11.904C224.836 12.032 224.828 12.232 224.812 12.504H215.332C215.38 13.288 215.564 13.992 215.884 14.616C216.22 15.224 216.668 15.704 217.228 16.056C217.804 16.408 218.46 16.584 219.196 16.584C220.028 16.584 220.724 16.392 221.284 16.008C221.844 15.624 222.252 15.104 222.508 14.448H224.5C224.292 15.184 223.948 15.84 223.468 16.416C222.988 16.992 222.388 17.448 221.668 17.784C220.964 18.12 220.14 18.288 219.196 18.288ZM215.355 10.944H222.844C222.796 9.872 222.428 9.032 221.74 8.424C221.052 7.816 220.204 7.512 219.196 7.512C218.236 7.512 217.38 7.808 216.628 8.4C215.892 8.976 215.468 9.824 215.355 10.944ZM239.355 18.288C238.267 18.288 237.267 18.048 236.355 17.568C235.443 17.072 234.715 16.36 234.171 15.432C233.627 14.488 233.355 13.352 233.355 12.024C233.355 10.76 233.619 9.664 234.147 8.736C234.691 7.808 235.419 7.088 236.331 6.576C237.259 6.064 238.299 5.808 239.451 5.808C240.555 5.808 241.563 6.048 242.475 6.528C243.403 7.008 244.147 7.712 244.707 8.64C245.267 9.568 245.547 10.696 245.547 12.024C245.547 13.24 245.283 14.32 244.755 15.264C244.227 16.208 243.491 16.952 242.547 17.496C241.619 18.024 240.555 18.288 239.355 18.288ZM239.355 16.536C240.139 16.536 240.843 16.352 241.467 15.984C242.091 15.6 242.587 15.072 242.955 14.4C243.323 13.728 243.507 12.936 243.507 12.024C243.507 11.16 243.347 10.392 243.027 9.72C242.707 9.048 242.243 8.52 241.635 8.136C241.027 7.752 240.291 7.56 239.427 7.56C238.547 7.56 237.803 7.76 237.195 8.16C236.603 8.56 236.155 9.096 235.851 9.768C235.547 10.44 235.395 11.192 235.395 12.024C235.395 13.08 235.587 13.944 235.971 14.616C236.355 15.272 236.851 15.76 237.459 16.08C238.067 16.384 238.699 16.536 239.355 16.536ZM248.992 18V7.8H247.192V6.096H248.992V4.512C248.992 3.36 249.28 2.52 249.855 1.992C250.432 1.464 251.272 1.2 252.376 1.2H253.576V2.928H252.688C252.08 2.928 251.648 3.056 251.392 3.312C251.136 3.552 251.008 3.968 251.008 4.56V6.096H253.936V7.8H251.008V18H248.992ZM0.776 49V32.2H11.168V33.856H2.792V39.304H10.112V40.936H2.792V47.344H11.168V49H0.776ZM14.2029 49V37.096H16.0269L16.1469 39.232C16.5309 38.48 17.0829 37.888 17.8029 37.456C18.5229 37.024 19.3389 36.808 20.2509 36.808C21.6589 36.808 22.7789 37.24 23.6109 38.104C24.4589 38.952 24.8829 40.264 24.8829 42.04V49H22.8669V42.256C22.8669 41.024 22.6109 40.096 22.0989 39.472C21.5869 38.848 20.8189 38.536 19.7949 38.536C18.7709 38.536 17.9149 38.912 17.2269 39.664C16.5549 40.4 16.2189 41.456 16.2189 42.832V49H14.2029ZM32.6887 54.568C31.7447 54.568 30.8407 54.448 29.9767 54.208C29.1127 53.968 28.4087 53.56 27.8647 52.984C27.3367 52.424 27.0727 51.672 27.0727 50.728C27.0727 50.072 27.2247 49.528 27.5287 49.096C27.8327 48.664 28.2327 48.336 28.7287 48.112C28.3447 47.888 28.0327 47.608 27.7927 47.272C27.5527 46.936 27.4327 46.552 27.4327 46.12C27.4327 45.16 27.8647 44.384 28.7287 43.792C28.4087 43.424 28.1527 43.016 27.9607 42.568C27.7847 42.104 27.6967 41.592 27.6967 41.032C27.6967 40.152 27.8967 39.4 28.2967 38.776C28.7127 38.136 29.2727 37.648 29.9767 37.312C30.6967 36.976 31.5127 36.808 32.4247 36.808C33.0967 36.808 33.7287 36.904 34.3207 37.096H38.3767V38.8H36.5287C36.7367 39.12 36.8887 39.472 36.9847 39.856C37.0967 40.224 37.1527 40.616 37.1527 41.032C37.1527 41.944 36.9367 42.712 36.5047 43.336C36.0887 43.96 35.5207 44.44 34.8007 44.776C34.0967 45.096 33.3047 45.256 32.4247 45.256C31.9767 45.256 31.5687 45.208 31.2007 45.112C30.8327 45.016 30.4647 44.88 30.0967 44.704C29.6807 44.912 29.4727 45.232 29.4727 45.664C29.4727 46.464 30.1447 46.864 31.4887 46.864H33.4807C34.3767 46.864 35.1687 46.984 35.8567 47.224C36.5447 47.448 37.0807 47.824 37.4647 48.352C37.8647 48.864 38.0647 49.568 38.0647 50.464C38.0647 51.376 37.8087 52.136 37.2967 52.744C36.7847 53.352 36.1207 53.808 35.3047 54.112C34.4887 54.416 33.6167 54.568 32.6887 54.568ZM32.6407 52.888C33.6007 52.888 34.4167 52.704 35.0887 52.336C35.7607 51.984 36.0967 51.44 36.0967 50.704C36.0967 49.328 35.2647 48.64 33.6007 48.64H31.5607C30.7767 48.64 30.1607 48.808 29.7127 49.144C29.2647 49.496 29.0407 50.016 29.0407 50.704C29.0407 51.232 29.2087 51.656 29.5447 51.976C29.8807 52.296 30.3207 52.528 30.8647 52.672C31.4087 52.816 32.0007 52.888 32.6407 52.888ZM32.3767 43.576C33.2087 43.576 33.8887 43.336 34.4167 42.856C34.9447 42.376 35.2087 41.768 35.2087 41.032C35.2087 40.296 34.9447 39.688 34.4167 39.208C33.8887 38.728 33.2087 38.488 32.3767 38.488C31.5447 38.488 30.8727 38.728 30.3607 39.208C29.8647 39.688 29.6167 40.296 29.6167 41.032C29.6167 41.768 29.8567 42.376 30.3367 42.856C30.8327 43.336 31.5127 43.576 32.3767 43.576ZM41.8878 34.456C41.4878 34.456 41.1518 34.328 40.8798 34.072C40.6238 33.8 40.4958 33.464 40.4958 33.064C40.4958 32.68 40.6238 32.36 40.8798 32.104C41.1518 31.848 41.4878 31.72 41.8878 31.72C42.2718 31.72 42.5998 31.848 42.8718 32.104C43.1438 32.36 43.2798 32.68 43.2798 33.064C43.2798 33.464 43.1438 33.8 42.8718 34.072C42.5998 34.328 42.2718 34.456 41.8878 34.456ZM40.8798 49V37.096H42.8958V49H40.8798ZM46.406 49V37.096H48.23L48.35 39.232C48.734 38.48 49.286 37.888 50.006 37.456C50.726 37.024 51.542 36.808 52.454 36.808C53.862 36.808 54.982 37.24 55.814 38.104C56.662 38.952 57.086 40.264 57.086 42.04V49H55.07V42.256C55.07 41.024 54.814 40.096 54.302 39.472C53.79 38.848 53.022 38.536 51.998 38.536C50.974 38.536 50.118 38.912 49.43 39.664C48.758 40.4 48.422 41.456 48.422 42.832V49H46.406ZM65.5158 49.288C64.4118 49.288 63.4118 49.032 62.5158 48.52C61.6358 48.008 60.9398 47.288 60.4278 46.36C59.9158 45.416 59.6598 44.312 59.6598 43.048C59.6598 41.8 59.8998 40.712 60.3798 39.784C60.8758 38.84 61.5638 38.112 62.4438 37.6C63.3398 37.072 64.3798 36.808 65.5638 36.808C66.6838 36.808 67.6598 37.056 68.4918 37.552C69.3238 38.048 69.9718 38.72 70.4358 39.568C70.9158 40.4 71.1558 41.336 71.1558 42.376C71.1558 42.6 71.1558 42.776 71.1558 42.904C71.1558 43.032 71.1478 43.232 71.1318 43.504H61.6518C61.6998 44.288 61.8838 44.992 62.2038 45.616C62.5398 46.224 62.9878 46.704 63.5478 47.056C64.1238 47.408 64.7798 47.584 65.5158 47.584C66.3478 47.584 67.0438 47.392 67.6038 47.008C68.1638 46.624 68.5718 46.104 68.8278 45.448H70.8198C70.6118 46.184 70.2678 46.84 69.7878 47.416C69.3078 47.992 68.7078 48.448 67.9878 48.784C67.2838 49.12 66.4598 49.288 65.5158 49.288ZM61.6758 41.944H69.1638C69.1158 40.872 68.7478 40.032 68.0598 39.424C67.3718 38.816 66.5238 38.512 65.5158 38.512C64.5558 38.512 63.6998 38.808 62.9478 39.4C62.2118 39.976 61.7878 40.824 61.6758 41.944ZM79.1799 49.288C78.0759 49.288 77.0759 49.032 76.1799 48.52C75.2999 48.008 74.6039 47.288 74.0919 46.36C73.5799 45.416 73.3239 44.312 73.3239 43.048C73.3239 41.8 73.5639 40.712 74.0439 39.784C74.5399 38.84 75.2279 38.112 76.1079 37.6C77.0039 37.072 78.0439 36.808 79.2279 36.808C80.3479 36.808 81.3239 37.056 82.1559 37.552C82.9879 38.048 83.6359 38.72 84.0999 39.568C84.5799 40.4 84.8199 41.336 84.8199 42.376C84.8199 42.6 84.8199 42.776 84.8199 42.904C84.8199 43.032 84.8119 43.232 84.7959 43.504H75.3159C75.3639 44.288 75.5479 44.992 75.8679 45.616C76.2039 46.224 76.6519 46.704 77.2119 47.056C77.7879 47.408 78.4439 47.584 79.1799 47.584C80.0119 47.584 80.7079 47.392 81.2679 47.008C81.8279 46.624 82.2359 46.104 82.4919 45.448H84.4839C84.2759 46.184 83.9319 46.84 83.4519 47.416C82.9719 47.992 82.3719 48.448 81.6519 48.784C80.9479 49.12 80.1239 49.288 79.1799 49.288ZM75.3399 41.944H82.8279C82.7799 40.872 82.4119 40.032 81.7239 39.424C81.0359 38.816 80.1879 38.512 79.1799 38.512C78.2199 38.512 77.3639 38.808 76.6119 39.4C75.8759 39.976 75.4519 40.824 75.3399 41.944ZM87.4919 49V37.096H89.3159L89.4839 39.376C89.8519 38.592 90.4119 37.968 91.1639 37.504C91.9159 37.04 92.8439 36.808 93.9479 36.808V38.92H93.3959C92.0839 38.92 91.1079 39.272 90.4679 39.976C89.8279 40.68 89.5079 41.688 89.5079 43V49H87.4919ZM97.4347 34.456C97.0347 34.456 96.6987 34.328 96.4267 34.072C96.1707 33.8 96.0427 33.464 96.0427 33.064C96.0427 32.68 96.1707 32.36 96.4267 32.104C96.6987 31.848 97.0347 31.72 97.4347 31.72C97.8187 31.72 98.1467 31.848 98.4187 32.104C98.6907 32.36 98.8267 32.68 98.8267 33.064C98.8267 33.464 98.6907 33.8 98.4187 34.072C98.1467 34.328 97.8187 34.456 97.4347 34.456ZM96.4267 49V37.096H98.4427V49H96.4267ZM101.953 49V37.096H103.777L103.897 39.232C104.281 38.48 104.833 37.888 105.553 37.456C106.273 37.024 107.089 36.808 108.001 36.808C109.409 36.808 110.529 37.24 111.361 38.104C112.209 38.952 112.633 40.264 112.633 42.04V49H110.617V42.256C110.617 41.024 110.361 40.096 109.849 39.472C109.337 38.848 108.569 38.536 107.545 38.536C106.521 38.536 105.665 38.912 104.977 39.664C104.305 40.4 103.969 41.456 103.969 42.832V49H101.953ZM120.439 54.568C119.495 54.568 118.591 54.448 117.727 54.208C116.863 53.968 116.159 53.56 115.615 52.984C115.087 52.424 114.823 51.672 114.823 50.728C114.823 50.072 114.975 49.528 115.279 49.096C115.583 48.664 115.983 48.336 116.479 48.112C116.095 47.888 115.783 47.608 115.543 47.272C115.303 46.936 115.183 46.552 115.183 46.12C115.183 45.16 115.615 44.384 116.479 43.792C116.159 43.424 115.903 43.016 115.711 42.568C115.535 42.104 115.447 41.592 115.447 41.032C115.447 40.152 115.647 39.4 116.047 38.776C116.463 38.136 117.023 37.648 117.727 37.312C118.447 36.976 119.263 36.808 120.175 36.808C120.847 36.808 121.479 36.904 122.071 37.096H126.127V38.8H124.279C124.487 39.12 124.639 39.472 124.735 39.856C124.847 40.224 124.903 40.616 124.903 41.032C124.903 41.944 124.687 42.712 124.255 43.336C123.839 43.96 123.271 44.44 122.551 44.776C121.847 45.096 121.055 45.256 120.175 45.256C119.727 45.256 119.319 45.208 118.951 45.112C118.583 45.016 118.215 44.88 117.847 44.704C117.431 44.912 117.223 45.232 117.223 45.664C117.223 46.464 117.895 46.864 119.239 46.864H121.231C122.127 46.864 122.919 46.984 123.607 47.224C124.295 47.448 124.831 47.824 125.215 48.352C125.615 48.864 125.815 49.568 125.815 50.464C125.815 51.376 125.559 52.136 125.047 52.744C124.535 53.352 123.871 53.808 123.055 54.112C122.239 54.416 121.367 54.568 120.439 54.568ZM120.391 52.888C121.351 52.888 122.167 52.704 122.839 52.336C123.511 51.984 123.847 51.44 123.847 50.704C123.847 49.328 123.015 48.64 121.351 48.64H119.311C118.527 48.64 117.911 48.808 117.463 49.144C117.015 49.496 116.791 50.016 116.791 50.704C116.791 51.232 116.959 51.656 117.295 51.976C117.631 52.296 118.071 52.528 118.615 52.672C119.159 52.816 119.751 52.888 120.391 52.888ZM120.127 43.576C120.959 43.576 121.639 43.336 122.167 42.856C122.695 42.376 122.959 41.768 122.959 41.032C122.959 40.296 122.695 39.688 122.167 39.208C121.639 38.728 120.959 38.488 120.127 38.488C119.295 38.488 118.623 38.728 118.111 39.208C117.615 39.688 117.367 40.296 117.367 41.032C117.367 41.768 117.607 42.376 118.087 42.856C118.583 43.336 119.263 43.576 120.127 43.576ZM126.806 51.856L128.198 46.552H130.286L128.198 51.856H126.806ZM139.151 49V32.2H141.167L150.119 45.664V32.2H152.135V49H150.119L141.167 35.536V49H139.151ZM159.538 49.288C158.722 49.288 157.978 49.152 157.306 48.88C156.634 48.608 156.098 48.2 155.698 47.656C155.314 47.096 155.122 46.416 155.122 45.616C155.122 44.688 155.362 43.952 155.842 43.408C156.322 42.848 156.954 42.448 157.738 42.208C158.538 41.952 159.394 41.824 160.306 41.824H163.522C163.522 40.992 163.378 40.336 163.09 39.856C162.818 39.376 162.458 39.032 162.01 38.824C161.562 38.616 161.066 38.512 160.522 38.512C159.738 38.512 159.058 38.704 158.482 39.088C157.922 39.456 157.57 40.032 157.426 40.816H155.362C155.442 39.952 155.73 39.224 156.226 38.632C156.722 38.04 157.346 37.592 158.098 37.288C158.866 36.968 159.674 36.808 160.522 36.808C161.722 36.808 162.69 37.032 163.426 37.48C164.162 37.912 164.698 38.496 165.034 39.232C165.37 39.968 165.538 40.784 165.538 41.68V45.328C165.538 45.92 165.61 46.368 165.754 46.672C165.898 46.976 166.266 47.16 166.858 47.224V49C166.33 49 165.85 48.936 165.418 48.808C164.986 48.664 164.618 48.44 164.314 48.136C164.026 47.816 163.818 47.4 163.69 46.888C163.29 47.56 162.738 48.128 162.034 48.592C161.346 49.056 160.514 49.288 159.538 49.288ZM159.85 47.584C160.65 47.584 161.322 47.384 161.866 46.984C162.41 46.568 162.818 46.04 163.09 45.4C163.378 44.76 163.522 44.096 163.522 43.408V43.384H160.474C159.914 43.384 159.386 43.448 158.89 43.576C158.394 43.688 157.994 43.904 157.69 44.224C157.386 44.528 157.234 44.96 157.234 45.52C157.234 46.24 157.49 46.768 158.002 47.104C158.514 47.424 159.13 47.584 159.85 47.584ZM174.017 54.568C173.073 54.568 172.169 54.448 171.305 54.208C170.441 53.968 169.737 53.56 169.193 52.984C168.665 52.424 168.401 51.672 168.401 50.728C168.401 50.072 168.553 49.528 168.857 49.096C169.161 48.664 169.561 48.336 170.057 48.112C169.673 47.888 169.361 47.608 169.121 47.272C168.881 46.936 168.761 46.552 168.761 46.12C168.761 45.16 169.193 44.384 170.057 43.792C169.737 43.424 169.481 43.016 169.289 42.568C169.113 42.104 169.025 41.592 169.025 41.032C169.025 40.152 169.225 39.4 169.625 38.776C170.041 38.136 170.601 37.648 171.305 37.312C172.025 36.976 172.841 36.808 173.753 36.808C174.425 36.808 175.057 36.904 175.649 37.096H179.705V38.8H177.857C178.065 39.12 178.217 39.472 178.313 39.856C178.425 40.224 178.481 40.616 178.481 41.032C178.481 41.944 178.265 42.712 177.833 43.336C177.417 43.96 176.849 44.44 176.129 44.776C175.425 45.096 174.633 45.256 173.753 45.256C173.305 45.256 172.897 45.208 172.529 45.112C172.161 45.016 171.793 44.88 171.425 44.704C171.009 44.912 170.801 45.232 170.801 45.664C170.801 46.464 171.473 46.864 172.817 46.864H174.809C175.705 46.864 176.497 46.984 177.185 47.224C177.873 47.448 178.409 47.824 178.793 48.352C179.193 48.864 179.393 49.568 179.393 50.464C179.393 51.376 179.137 52.136 178.625 52.744C178.113 53.352 177.449 53.808 176.633 54.112C175.817 54.416 174.945 54.568 174.017 54.568ZM173.969 52.888C174.929 52.888 175.745 52.704 176.417 52.336C177.089 51.984 177.425 51.44 177.425 50.704C177.425 49.328 176.593 48.64 174.929 48.64H172.889C172.105 48.64 171.489 48.808 171.041 49.144C170.593 49.496 170.369 50.016 170.369 50.704C170.369 51.232 170.537 51.656 170.873 51.976C171.209 52.296 171.649 52.528 172.193 52.672C172.737 52.816 173.329 52.888 173.969 52.888ZM173.705 43.576C174.537 43.576 175.217 43.336 175.745 42.856C176.273 42.376 176.537 41.768 176.537 41.032C176.537 40.296 176.273 39.688 175.745 39.208C175.217 38.728 174.537 38.488 173.705 38.488C172.873 38.488 172.201 38.728 171.689 39.208C171.193 39.688 170.945 40.296 170.945 41.032C170.945 41.768 171.185 42.376 171.665 42.856C172.161 43.336 172.841 43.576 173.705 43.576ZM181.992 54.28V37.096H183.816L184.008 39.064C184.392 38.488 184.936 37.968 185.64 37.504C186.36 37.04 187.272 36.808 188.376 36.808C189.576 36.808 190.616 37.08 191.496 37.624C192.376 38.168 193.056 38.912 193.536 39.856C194.016 40.8 194.256 41.872 194.256 43.072C194.256 44.256 194.016 45.32 193.536 46.264C193.056 47.208 192.368 47.952 191.472 48.496C190.592 49.024 189.552 49.288 188.352 49.288C187.376 49.288 186.504 49.088 185.736 48.688C184.984 48.288 184.408 47.728 184.008 47.008V54.28H181.992ZM188.136 47.536C188.952 47.536 189.664 47.352 190.272 46.984C190.88 46.6 191.352 46.072 191.688 45.4C192.04 44.712 192.216 43.928 192.216 43.048C192.216 42.2 192.048 41.44 191.712 40.768C191.392 40.08 190.928 39.544 190.32 39.16C189.712 38.76 188.984 38.56 188.136 38.56C187.336 38.56 186.624 38.752 186 39.136C185.392 39.504 184.912 40.024 184.56 40.696C184.224 41.368 184.056 42.152 184.056 43.048C184.056 43.88 184.224 44.64 184.56 45.328C184.896 46 185.368 46.536 185.976 46.936C186.584 47.336 187.304 47.536 188.136 47.536ZM201.43 49.288C200.502 49.288 199.686 49.104 198.982 48.736C198.294 48.352 197.758 47.776 197.374 47.008C196.99 46.224 196.798 45.24 196.798 44.056V37.096H198.814V43.84C198.814 45.072 199.07 46 199.582 46.624C200.094 47.248 200.862 47.56 201.886 47.56C202.91 47.56 203.758 47.192 204.43 46.456C205.118 45.704 205.462 44.64 205.462 43.264V37.096H207.478V49H205.654L205.534 46.864C205.15 47.616 204.598 48.208 203.878 48.64C203.158 49.072 202.342 49.288 201.43 49.288ZM210.797 49V37.096H212.621L212.789 39.376C213.157 38.592 213.717 37.968 214.469 37.504C215.221 37.04 216.149 36.808 217.253 36.808V38.92H216.701C215.389 38.92 214.413 39.272 213.773 39.976C213.133 40.68 212.813 41.688 212.813 43V49H210.797Z" fill="black"/>
</svg>
