<svg width="493" height="99" viewBox="0 0 493 99" fill="none" xmlns="http://www.w3.org/2000/svg">
<rect width="493" height="99" rx="49.5" fill="#9747FF"/>
<path d="M37.333 44.1669C37.333 39.7224 38.3219 35.6446 40.2997 31.9335C42.2775 28.2224 44.933 25.1446 48.2663 22.7002L51.3997 26.9669C48.733 28.9224 46.6108 31.3891 45.033 34.3669C43.4552 37.3446 42.6663 40.6113 42.6663 44.1669H37.333ZM85.333 44.1669C85.333 40.6113 84.5441 37.3446 82.9663 34.3669C81.3886 31.3891 79.2663 28.9224 76.5997 26.9669L79.733 22.7002C83.0663 25.1446 85.7219 28.2224 87.6997 31.9335C89.6774 35.6446 90.6663 39.7224 90.6663 44.1669H85.333ZM42.6663 68.1669V62.8335H47.9997V44.1669C47.9997 40.478 49.1108 37.2002 51.333 34.3335C53.5552 31.4669 56.4441 29.5891 59.9997 28.7002V26.8335C59.9997 25.7224 60.3886 24.778 61.1663 24.0002C61.9441 23.2224 62.8886 22.8335 63.9997 22.8335C65.1108 22.8335 66.0552 23.2224 66.833 24.0002C67.6108 24.778 67.9997 25.7224 67.9997 26.8335V28.7002C71.5552 29.5891 74.4441 31.4669 76.6663 34.3335C78.8886 37.2002 79.9997 40.478 79.9997 44.1669V62.8335H85.333V68.1669H42.6663ZM63.9997 76.1669C62.533 76.1669 61.2775 75.6446 60.233 74.6002C59.1886 73.5558 58.6663 72.3002 58.6663 70.8335H69.333C69.333 72.3002 68.8108 73.5558 67.7663 74.6002C66.7219 75.6446 65.4663 76.1669 63.9997 76.1669ZM53.333 62.8335H74.6663V44.1669C74.6663 41.2335 73.6219 38.7224 71.533 36.6335C69.4441 34.5446 66.933 33.5002 63.9997 33.5002C61.0663 33.5002 58.5552 34.5446 56.4663 36.6335C54.3775 38.7224 53.333 41.2335 53.333 44.1669V62.8335Z" fill="white"/>
<path d="M142.848 71.768C138.624 71.768 134.912 70.8293 131.712 68.952C128.555 67.032 126.101 64.3653 124.352 60.952C122.603 57.5387 121.728 53.5493 121.728 48.984C121.728 44.5893 122.581 40.6213 124.288 37.08C126.037 33.5387 128.597 30.7227 131.968 28.632C135.381 26.4987 139.584 25.432 144.576 25.432C149.952 25.432 154.389 26.712 157.888 29.272C161.429 31.832 163.733 35.3947 164.8 39.96H153.664C152.981 38.296 151.893 37.016 150.4 36.12C148.907 35.1813 146.965 34.712 144.576 34.712C142.144 34.712 139.989 35.288 138.112 36.44C136.235 37.5493 134.741 39.1707 133.632 41.304C132.565 43.4373 132.032 46.04 132.032 49.112C132.032 52.0987 132.565 54.616 133.632 56.664C134.699 58.712 136.128 60.248 137.92 61.272C139.755 62.296 141.781 62.808 144 62.808C147.2 62.808 149.696 62.1253 151.488 60.76C153.28 59.352 154.517 57.5387 155.2 55.32H142.208V46.616H165.632V71H156.352L155.584 66.072C154.261 67.9067 152.555 69.3147 150.464 70.296C148.416 71.2773 145.877 71.768 142.848 71.768ZM185.344 71.768C182.4 71.768 179.691 71.1493 177.216 69.912C174.741 68.632 172.757 66.7547 171.264 64.28C169.771 61.8053 169.024 58.7547 169.024 55.128C169.024 51.5013 169.749 48.4507 171.2 45.976C172.651 43.5013 174.613 41.6453 177.088 40.408C179.563 39.128 182.315 38.488 185.344 38.488C188.501 38.488 191.275 39.1493 193.664 40.472C196.096 41.752 197.995 43.608 199.36 46.04C200.768 48.4293 201.472 51.288 201.472 54.616C201.472 55.0427 201.451 55.512 201.408 56.024C201.408 56.4933 201.365 56.984 201.28 57.496H178.88C179.008 59.032 179.371 60.248 179.968 61.144C180.608 62.04 181.376 62.7013 182.272 63.128C183.211 63.512 184.128 63.704 185.024 63.704C186.261 63.704 187.307 63.448 188.16 62.936C189.013 62.424 189.675 61.6347 190.144 60.568H200.704C200.235 62.5733 199.296 64.4293 197.888 66.136C196.48 67.8427 194.709 69.208 192.576 70.232C190.485 71.256 188.075 71.768 185.344 71.768ZM178.88 51.992H191.296C191.296 50.2427 190.72 48.8773 189.568 47.896C188.416 46.9147 186.965 46.424 185.216 46.424C183.509 46.424 182.101 46.936 180.992 47.96C179.883 48.9413 179.179 50.2853 178.88 51.992ZM216.845 71C213.09 71 210.253 70.0827 208.333 68.248C206.456 66.4133 205.517 63.5973 205.517 59.8V47.384H202.189V39.256H205.517V31.384H215.373V39.256H221.837V47.384H215.373V59.928C215.373 60.9947 215.586 61.72 216.013 62.104C216.482 62.4453 217.25 62.616 218.317 62.616H221.837V71H216.845ZM225.033 78.296L228.617 61.144H238.153L231.497 78.296H225.033ZM273.008 71.768C269.851 71.768 266.971 71.256 264.368 70.232C261.808 69.1653 259.739 67.5867 258.16 65.496C256.624 63.3627 255.792 60.6747 255.664 57.432H266.288C266.459 58.9253 267.056 60.2693 268.08 61.464C269.147 62.6587 270.747 63.256 272.88 63.256C274.715 63.256 276.08 62.8507 276.976 62.04C277.915 61.2293 278.384 60.1627 278.384 58.84C278.384 58.2427 278.277 57.688 278.064 57.176C277.893 56.664 277.531 56.1733 276.976 55.704C276.421 55.192 275.568 54.68 274.416 54.168C273.307 53.656 271.813 53.1013 269.936 52.504C266.437 51.3947 263.707 50.0933 261.744 48.6C259.781 47.1067 258.395 45.5067 257.584 43.8C256.816 42.0933 256.432 40.344 256.432 38.552C256.475 35.6507 257.2 33.24 258.608 31.32C260.016 29.3573 261.893 27.8853 264.24 26.904C266.587 25.9227 269.211 25.432 272.112 25.432C275.013 25.432 277.659 25.944 280.048 26.968C282.48 27.9493 284.443 29.4213 285.936 31.384C287.429 33.3467 288.197 35.7787 288.24 38.68H277.36C277.317 37.528 276.827 36.44 275.888 35.416C274.949 34.392 273.563 33.88 271.728 33.88C270.405 33.9227 269.275 34.3067 268.336 35.032C267.44 35.7147 266.992 36.696 266.992 37.976C266.992 39.0853 267.461 40.0453 268.4 40.856C269.339 41.6667 270.661 42.4133 272.368 43.096C274.117 43.7787 276.144 44.504 278.448 45.272C280.197 45.8693 281.733 46.5733 283.056 47.384C284.421 48.152 285.552 49.0693 286.448 50.136C287.344 51.16 288.027 52.3333 288.496 53.656C288.965 54.9787 289.2 56.472 289.2 58.136C289.2 60.8667 288.496 63.256 287.088 65.304C285.723 67.352 283.824 68.952 281.392 70.104C278.96 71.2133 276.165 71.768 273.008 71.768ZM308.219 71.768C305.275 71.768 302.566 71.1493 300.091 69.912C297.616 68.632 295.632 66.7547 294.139 64.28C292.646 61.8053 291.899 58.7547 291.899 55.128C291.899 51.5013 292.624 48.4507 294.075 45.976C295.526 43.5013 297.488 41.6453 299.963 40.408C302.438 39.128 305.19 38.488 308.219 38.488C311.376 38.488 314.15 39.1493 316.539 40.472C318.971 41.752 320.87 43.608 322.235 46.04C323.643 48.4293 324.347 51.288 324.347 54.616C324.347 55.0427 324.326 55.512 324.283 56.024C324.283 56.4933 324.24 56.984 324.155 57.496H301.755C301.883 59.032 302.246 60.248 302.843 61.144C303.483 62.04 304.251 62.7013 305.147 63.128C306.086 63.512 307.003 63.704 307.899 63.704C309.136 63.704 310.182 63.448 311.035 62.936C311.888 62.424 312.55 61.6347 313.019 60.568H323.579C323.11 62.5733 322.171 64.4293 320.763 66.136C319.355 67.8427 317.584 69.208 315.451 70.232C313.36 71.256 310.95 71.768 308.219 71.768ZM301.755 51.992H314.171C314.171 50.2427 313.595 48.8773 312.443 47.896C311.291 46.9147 309.84 46.424 308.091 46.424C306.384 46.424 304.976 46.936 303.867 47.96C302.758 48.9413 302.054 50.2853 301.755 51.992ZM339.72 71C335.965 71 333.128 70.0827 331.208 68.248C329.331 66.4133 328.392 63.5973 328.392 59.8V47.384H325.064V39.256H328.392V31.384H338.248V39.256H344.712V47.384H338.248V59.928C338.248 60.9947 338.461 61.72 338.888 62.104C339.357 62.4453 340.125 62.616 341.192 62.616H344.712V71H339.72ZM347.908 78.296L351.492 61.144H361.028L354.372 78.296H347.908ZM399.723 71.768C395.499 71.768 391.787 70.8293 388.587 68.952C385.43 67.032 382.976 64.3653 381.227 60.952C379.478 57.5387 378.603 53.5493 378.603 48.984C378.603 44.5893 379.456 40.6213 381.163 37.08C382.912 33.5387 385.472 30.7227 388.843 28.632C392.256 26.4987 396.459 25.432 401.451 25.432C406.827 25.432 411.264 26.712 414.763 29.272C418.304 31.832 420.608 35.3947 421.675 39.96H410.539C409.856 38.296 408.768 37.016 407.275 36.12C405.782 35.1813 403.84 34.712 401.451 34.712C399.019 34.712 396.864 35.288 394.987 36.44C393.11 37.5493 391.616 39.1707 390.507 41.304C389.44 43.4373 388.907 46.04 388.907 49.112C388.907 52.0987 389.44 54.616 390.507 56.664C391.574 58.712 393.003 60.248 394.795 61.272C396.63 62.296 398.656 62.808 400.875 62.808C404.075 62.808 406.571 62.1253 408.363 60.76C410.155 59.352 411.392 57.5387 412.075 55.32H399.083V46.616H422.507V71H413.227L412.459 66.072C411.136 67.9067 409.43 69.3147 407.339 70.296C405.291 71.2773 402.752 71.768 399.723 71.768ZM442.667 71.768C439.595 71.768 436.779 71.128 434.219 69.848C431.702 68.5253 429.675 66.6267 428.139 64.152C426.646 61.6773 425.899 58.6693 425.899 55.128C425.899 51.7573 426.624 48.8347 428.075 46.36C429.568 43.8853 431.595 41.9653 434.155 40.6C436.715 39.192 439.595 38.488 442.795 38.488C446.208 38.488 449.174 39.2133 451.691 40.664C454.208 42.072 456.171 44.0347 457.579 46.552C458.987 49.0267 459.691 51.8853 459.691 55.128C459.691 58.4987 458.944 61.4427 457.451 63.96C455.958 66.4347 453.931 68.3547 451.371 69.72C448.811 71.0853 445.91 71.768 442.667 71.768ZM442.731 63.192C444.139 63.192 445.355 62.8507 446.379 62.168C447.403 61.4853 448.192 60.5253 448.747 59.288C449.344 58.0507 449.643 56.6427 449.643 55.064C449.643 53.3147 449.323 51.864 448.683 50.712C448.086 49.5173 447.254 48.6213 446.187 48.024C445.163 47.4267 444.011 47.128 442.731 47.128C441.408 47.128 440.214 47.448 439.147 48.088C438.123 48.728 437.312 49.6453 436.715 50.84C436.118 52.0347 435.819 53.464 435.819 55.128C435.819 56.7067 436.096 58.1147 436.651 59.352C437.248 60.5467 438.059 61.4853 439.083 62.168C440.107 62.8507 441.323 63.192 442.731 63.192Z" fill="white"/>
</svg>
