<svg width="293" height="386" viewBox="0 0 293 386" fill="none" xmlns="http://www.w3.org/2000/svg">
<path d="M2.81525 21.9032C1.12104 18.9108 2.1527 15.0996 5.11951 13.3908L26.9404 0.822291C29.9072 -0.886552 33.6857 0.154016 35.3799 3.14647C37.0741 6.13892 36.0424 9.95007 33.0756 11.6589C33.0756 11.6589 14.2216 22.5186 11.2548 24.2274C8.28795 25.9362 4.50945 24.8957 2.81525 21.9032Z" fill="#EA4335"/>
<path d="M46.6201 34.8535C44.9259 31.8611 45.9576 28.0499 48.9244 26.3411L70.7452 13.7726C73.7121 12.0638 77.4905 13.1043 79.1848 16.0968C80.879 19.0892 79.8473 22.9004 76.8805 24.6092L55.0596 37.1777C52.0928 38.8866 48.3143 37.846 46.6201 34.8535Z" fill="#FBBE0C"/>
<path d="M2.87093 15.6834C4.59589 12.7089 8.38492 11.708 11.334 13.4479L33.024 26.2446C35.9731 27.9844 36.9654 31.8062 35.2404 34.7807C33.5155 37.7552 29.7264 38.7561 26.7774 37.0163L5.08731 24.2196C2.13828 22.4797 1.14597 18.6579 2.87093 15.6834Z" fill="#4285F4"/>
<path d="M46.7312 3.22467C48.4562 0.250147 52.2452 -0.750733 55.1942 0.989135L76.8843 13.7858C79.8334 15.5257 80.8257 19.3475 79.1007 22.322C77.3757 25.2965 73.5867 26.2974 70.6377 24.5575L48.9476 11.7608C45.9986 10.021 45.0062 6.19918 46.7312 3.22467Z" fill="#28A769"/>
<mask id="path-2-outside-1_38_372" maskUnits="userSpaceOnUse" x="0" y="76" width="293" height="146" fill="black">
<rect fill="white" y="76" width="293" height="146"/>
<path d="M23.0293 124.126C18.8107 124.126 15.1247 123.17 11.9714 121.259C8.81802 119.347 6.36779 116.672 4.62068 113.231C2.87356 109.791 2 105.82 2 101.318C2 96.9429 2.85225 92.9929 4.55676 89.4677C6.26126 85.9424 8.77541 83.1605 12.0992 81.1218C15.4656 79.0406 19.5564 78 24.3716 78C29.613 78 33.9595 79.2529 37.4111 81.7588C40.8627 84.2647 43.0999 87.7263 44.1226 92.1435H34.9822C34.3004 90.0623 33.0646 88.4483 31.2749 87.3016C29.4851 86.1123 27.1841 85.5177 24.3716 85.5177C21.3887 85.5177 18.8533 86.1548 16.7653 87.429C14.6773 88.7032 13.0793 90.5295 11.9714 92.908C10.906 95.244 10.3734 98.0684 10.3734 101.381C10.3734 104.652 10.906 107.455 11.9714 109.791C13.0793 112.084 14.6346 113.847 16.6374 115.079C18.6828 116.268 21.0692 116.863 23.7964 116.863C27.6315 116.863 30.5718 115.886 32.6172 113.932C34.6626 111.978 35.9623 109.387 36.5162 106.16H22.2623V99.2789H44.9535V123.361H37.4111L36.7719 117.5C35.3231 119.623 33.512 121.259 31.3388 122.405C29.1655 123.552 26.3957 124.126 23.0293 124.126Z"/>
<path d="M66.5996 124.126C63.4036 124.126 60.5486 123.446 58.0344 122.087C55.5629 120.685 53.624 118.731 52.2178 116.226C50.8116 113.72 50.1085 110.832 50.1085 107.561C50.1085 104.121 50.8542 101.169 52.3456 98.7055C53.8797 96.1996 55.9038 94.2883 58.418 92.9717C60.9747 91.655 63.7871 90.9967 66.8552 90.9967C70.0512 90.9967 72.9062 91.6975 75.4204 93.0991C77.9345 94.4582 79.916 96.3695 81.3648 98.8329C82.8563 101.296 83.602 104.206 83.602 107.561C83.602 110.747 82.8776 113.592 81.4288 116.098C79.9799 118.604 77.9771 120.579 75.4204 122.023C72.9062 123.425 69.966 124.126 66.5996 124.126ZM66.7274 117.054C68.4319 117.054 69.9021 116.629 71.1378 115.78C72.4162 114.888 73.4176 113.72 74.142 112.276C74.8664 110.789 75.2286 109.175 75.2286 107.434C75.2286 105.437 74.8238 103.739 74.0142 102.337C73.2471 100.935 72.2244 99.8735 70.9461 99.1515C69.6677 98.4294 68.2615 98.0684 66.7274 98.0684C65.0655 98.0684 63.5954 98.4719 62.317 99.2789C61.0812 100.086 60.1012 101.211 59.3767 102.655C58.6949 104.057 58.354 105.692 58.354 107.561C58.354 109.43 58.7162 111.086 59.4407 112.53C60.2077 113.975 61.2304 115.1 62.5088 115.907C63.7871 116.672 65.1934 117.054 66.7274 117.054Z"/>
<path d="M103.802 124.126C100.606 124.126 97.7514 123.446 95.2373 122.087C92.7657 120.685 90.8269 118.731 89.4206 116.226C88.0144 113.72 87.3113 110.832 87.3113 107.561C87.3113 104.121 88.057 101.169 89.5485 98.7055C91.0825 96.1996 93.1066 94.2883 95.6208 92.9717C98.1775 91.655 100.99 90.9967 104.058 90.9967C107.254 90.9967 110.109 91.6975 112.623 93.0991C115.137 94.4582 117.119 96.3695 118.568 98.8329C120.059 101.296 120.805 104.206 120.805 107.561C120.805 110.747 120.08 113.592 118.632 116.098C117.183 118.604 115.18 120.579 112.623 122.023C110.109 123.425 107.169 124.126 103.802 124.126ZM103.93 117.054C105.635 117.054 107.105 116.629 108.341 115.78C109.619 114.888 110.62 113.72 111.345 112.276C112.069 110.789 112.431 109.175 112.431 107.434C112.431 105.437 112.027 103.739 111.217 102.337C110.45 100.935 109.427 99.8735 108.149 99.1515C106.871 98.4294 105.464 98.0684 103.93 98.0684C102.268 98.0684 100.798 98.4719 99.5198 99.2789C98.2841 100.086 97.304 101.211 96.5796 102.655C95.8978 104.057 95.5568 105.692 95.5568 107.561C95.5568 109.43 95.9191 111.086 96.6435 112.53C97.4105 113.975 98.4332 115.1 99.7116 115.907C100.99 116.672 102.396 117.054 103.93 117.054Z"/>
<path d="M138.911 138.142C136.013 138.142 133.414 137.823 131.113 137.186C128.812 136.549 126.979 135.508 125.616 134.064C124.295 132.663 123.634 130.815 123.634 128.521C123.634 127.035 123.954 125.739 124.593 124.635C125.232 123.573 126.212 122.639 127.533 121.832C126.425 121.195 125.594 120.388 125.04 119.411C124.486 118.434 124.21 117.309 124.21 116.034C124.21 113.231 125.531 111.065 128.172 109.536C127.235 108.559 126.511 107.455 125.999 106.223C125.488 104.949 125.232 103.632 125.232 102.273C125.232 99.9797 125.786 98.0047 126.894 96.3483C128.002 94.6494 129.536 93.3327 131.496 92.3983C133.456 91.4639 135.694 90.9967 138.208 90.9967C140.04 90.9967 141.723 91.2515 143.257 91.7612H154.635V97.8773H150.225C150.48 98.5993 150.693 99.3214 150.864 100.043C151.077 100.765 151.183 101.509 151.183 102.273C151.183 104.482 150.608 106.436 149.457 108.134C148.307 109.833 146.752 111.171 144.791 112.148C142.874 113.083 140.679 113.55 138.208 113.55C137.142 113.55 136.162 113.465 135.268 113.295C134.373 113.083 133.499 112.764 132.647 112.339C131.709 112.807 131.241 113.55 131.241 114.569C131.241 116.438 132.796 117.372 135.907 117.372H141.723C144.28 117.372 146.453 117.733 148.243 118.455C150.075 119.135 151.46 120.218 152.398 121.705C153.335 123.191 153.804 125.081 153.804 127.375C153.804 129.583 153.143 131.495 151.822 133.109C150.501 134.722 148.712 135.954 146.453 136.804C144.195 137.696 141.681 138.142 138.911 138.142ZM138.911 131.771C140.956 131.771 142.682 131.431 144.088 130.751C145.537 130.114 146.262 129.137 146.262 127.821C146.262 125.315 144.514 124.062 141.02 124.062H136.418C134.714 124.062 133.393 124.38 132.455 125.017C131.56 125.655 131.113 126.589 131.113 127.821C131.113 128.798 131.475 129.562 132.199 130.114C132.924 130.709 133.883 131.134 135.076 131.388C136.269 131.643 137.547 131.771 138.911 131.771ZM138.144 107.179C139.763 107.179 141.084 106.733 142.107 105.841C143.172 104.907 143.705 103.717 143.705 102.273C143.705 100.872 143.172 99.7036 142.107 98.7692C141.084 97.8348 139.763 97.3676 138.144 97.3676C136.525 97.3676 135.204 97.8348 134.181 98.7692C133.201 99.7036 132.711 100.872 132.711 102.273C132.711 103.717 133.179 104.907 134.117 105.841C135.097 106.733 136.439 107.179 138.144 107.179Z"/>
<path d="M158.62 123.361V78.7645H166.801V123.361H158.62Z"/>
<path d="M187.439 124.126C184.115 124.126 181.239 123.403 178.81 121.959C176.423 120.515 174.57 118.54 173.249 116.034C171.928 113.529 171.267 110.704 171.267 107.561C171.267 104.206 171.949 101.296 173.313 98.8329C174.676 96.3695 176.573 94.4582 179.002 93.0991C181.43 91.6975 184.243 90.9967 187.439 90.9967C190.592 90.9967 193.341 91.6763 195.684 93.0354C198.071 94.3945 199.924 96.2633 201.245 98.6418C202.609 101.02 203.291 103.76 203.291 106.86C203.291 107.412 203.269 107.965 203.227 108.517C203.184 109.026 203.12 109.515 203.035 109.982H179.513C179.641 111.469 180.024 112.785 180.663 113.932C181.345 115.036 182.24 115.907 183.348 116.544C184.499 117.139 185.798 117.436 187.247 117.436C188.739 117.436 190.017 117.117 191.082 116.48C192.19 115.843 193.064 114.866 193.703 113.55H202.46C201.863 115.419 200.904 117.16 199.583 118.774C198.262 120.388 196.579 121.683 194.534 122.66C192.531 123.637 190.166 124.126 187.439 124.126ZM179.577 104.567H194.853C194.811 102.443 194.022 100.765 192.488 99.5337C190.997 98.302 189.229 97.6862 187.183 97.6862C185.436 97.6862 183.817 98.2383 182.325 99.3426C180.834 100.404 179.918 102.146 179.577 104.567Z"/>
<path d="M3.47014 205.984V161.387H18.7468C24.0733 161.387 28.4198 162.322 31.7862 164.191C35.1952 166.059 37.6881 168.672 39.2647 172.027C40.884 175.382 41.6937 179.269 41.6937 183.686C41.6937 188.443 40.7988 192.499 39.0091 195.854C37.2619 199.167 34.6839 201.694 31.2749 203.436C27.8659 205.135 23.6898 205.984 18.7468 205.984H3.47014ZM11.6518 198.976H18.3632C22.1558 198.976 25.1387 198.36 27.3119 197.128C29.4851 195.897 31.0192 194.134 31.9141 191.841C32.8515 189.547 33.3203 186.829 33.3203 183.686C33.3203 178.377 32.0845 174.49 29.613 172.027C27.1841 169.563 23.4342 168.332 18.3632 168.332H11.6518V198.976Z"/>
<path d="M62.3475 206.748C59.0237 206.748 56.1473 206.026 53.7184 204.582C51.3321 203.138 49.4785 201.163 48.1575 198.657C46.8365 196.152 46.176 193.327 46.176 190.184C46.176 186.829 46.8578 183.919 48.2214 181.456C49.585 178.992 51.4813 177.081 53.9102 175.722C56.3391 174.32 59.1515 173.62 62.3475 173.62C65.5008 173.62 68.2493 174.299 70.593 175.658C72.9793 177.017 74.833 178.886 76.154 181.265C77.5176 183.643 78.1994 186.383 78.1994 189.483C78.1994 190.035 78.1781 190.588 78.1354 191.14C78.0928 191.649 78.0289 192.138 77.9437 192.605H54.4215C54.5494 194.092 54.9329 195.408 55.5721 196.555C56.2539 197.659 57.1487 198.53 58.2567 199.167C59.4072 199.762 60.7069 200.059 62.1557 200.059C63.6472 200.059 64.9255 199.74 65.9908 199.103C67.0988 198.466 67.9723 197.489 68.6115 196.173H77.3684C76.7718 198.042 75.8131 199.783 74.4921 201.397C73.1711 203.011 71.4879 204.306 69.4425 205.283C67.4397 206.26 65.0747 206.748 62.3475 206.748ZM54.4854 187.19H69.7621C69.7195 185.066 68.9311 183.388 67.3971 182.157C65.9056 180.925 64.1372 180.309 62.0918 180.309C60.3447 180.309 58.7254 180.861 57.234 181.966C55.7425 183.027 54.8263 184.769 54.4854 187.19Z"/>
<path d="M90.2291 205.984L78.3402 174.384H87.0332L95.2148 198.657L103.332 174.384H111.962L100.073 205.984H90.2291Z"/>
<path d="M128.389 206.748C125.065 206.748 122.189 206.026 119.76 204.582C117.373 203.138 115.52 201.163 114.199 198.657C112.878 196.152 112.217 193.327 112.217 190.184C112.217 186.829 112.899 183.919 114.263 181.456C115.626 178.992 117.522 177.081 119.951 175.722C122.38 174.32 125.193 173.62 128.389 173.62C131.542 173.62 134.291 174.299 136.634 175.658C139.021 177.017 140.874 178.886 142.195 181.265C143.559 183.643 144.241 186.383 144.241 189.483C144.241 190.035 144.219 190.588 144.177 191.14C144.134 191.649 144.07 192.138 143.985 192.605H120.463C120.591 194.092 120.974 195.408 121.613 196.555C122.295 197.659 123.19 198.53 124.298 199.167C125.448 199.762 126.748 200.059 128.197 200.059C129.688 200.059 130.967 199.74 132.032 199.103C133.14 198.466 134.014 197.489 134.653 196.173H143.41C142.813 198.042 141.854 199.783 140.533 201.397C139.212 203.011 137.529 204.306 135.484 205.283C133.481 206.26 131.116 206.748 128.389 206.748ZM120.527 187.19H135.803C135.761 185.066 134.972 183.388 133.438 182.157C131.947 180.925 130.178 180.309 128.133 180.309C126.386 180.309 124.767 180.861 123.275 181.966C121.784 183.027 120.868 184.769 120.527 187.19Z"/>
<path d="M148.57 205.984V161.387H156.752V205.984H148.57Z"/>
<path d="M177.709 206.748C174.513 206.748 171.658 206.069 169.144 204.71C166.672 203.308 164.733 201.354 163.327 198.849C161.921 196.343 161.218 193.454 161.218 190.184C161.218 186.744 161.963 183.792 163.455 181.328C164.989 178.823 167.013 176.911 169.527 175.595C172.084 174.278 174.896 173.62 177.964 173.62C181.16 173.62 184.015 174.32 186.529 175.722C189.044 177.081 191.025 178.992 192.474 181.456C193.965 183.919 194.711 186.829 194.711 190.184C194.711 193.37 193.987 196.215 192.538 198.721C191.089 201.227 189.086 203.202 186.529 204.646C184.015 206.048 181.075 206.748 177.709 206.748ZM177.837 199.677C179.541 199.677 181.011 199.252 182.247 198.403C183.525 197.511 184.527 196.343 185.251 194.899C185.976 193.412 186.338 191.798 186.338 190.057C186.338 188.06 185.933 186.362 185.123 184.96C184.356 183.558 183.334 182.496 182.055 181.774C180.777 181.052 179.371 180.691 177.837 180.691C176.175 180.691 174.704 181.095 173.426 181.902C172.19 182.709 171.21 183.834 170.486 185.278C169.804 186.68 169.463 188.315 169.463 190.184C169.463 192.053 169.825 193.709 170.55 195.153C171.317 196.597 172.339 197.723 173.618 198.53C174.896 199.294 176.302 199.677 177.837 199.677Z"/>
<path d="M199.443 220V174.384H207.561V178.78C208.797 177.081 210.331 175.807 212.163 174.958C214.038 174.066 216.062 173.62 218.235 173.62C221.303 173.62 223.924 174.363 226.097 175.849C228.313 177.336 229.996 179.332 231.147 181.838C232.34 184.302 232.937 187.041 232.937 190.057C232.937 193.072 232.34 195.854 231.147 198.403C229.954 200.951 228.249 202.99 226.033 204.519C223.86 206.005 221.261 206.748 218.235 206.748C215.551 206.748 213.314 206.196 211.524 205.092C209.777 203.988 208.477 202.841 207.625 201.652V220H199.443ZM216.062 199.613C217.767 199.613 219.258 199.188 220.536 198.339C221.815 197.447 222.816 196.279 223.541 194.835C224.265 193.391 224.627 191.798 224.627 190.057C224.627 188.06 224.222 186.383 223.413 185.024C222.646 183.622 221.602 182.56 220.281 181.838C219.002 181.116 217.596 180.755 216.062 180.755C214.443 180.755 212.994 181.159 211.716 181.966C210.437 182.773 209.414 183.898 208.647 185.342C207.923 186.744 207.561 188.358 207.561 190.184C207.561 191.925 207.923 193.518 208.647 194.962C209.372 196.406 210.373 197.553 211.652 198.403C212.93 199.21 214.4 199.613 216.062 199.613Z"/>
<path d="M252.793 206.748C249.47 206.748 246.593 206.026 244.164 204.582C241.778 203.138 239.924 201.163 238.603 198.657C237.282 196.152 236.622 193.327 236.622 190.184C236.622 186.829 237.304 183.919 238.667 181.456C240.031 178.992 241.927 177.081 244.356 175.722C246.785 174.32 249.597 173.62 252.793 173.62C255.947 173.62 258.695 174.299 261.039 175.658C263.425 177.017 265.279 178.886 266.6 181.265C267.964 183.643 268.645 186.383 268.645 189.483C268.645 190.035 268.624 190.588 268.581 191.14C268.539 191.649 268.475 192.138 268.39 192.605H244.868C244.995 194.092 245.379 195.408 246.018 196.555C246.7 197.659 247.595 198.53 248.703 199.167C249.853 199.762 251.153 200.059 252.602 200.059C254.093 200.059 255.372 199.74 256.437 199.103C257.545 198.466 258.418 197.489 259.058 196.173H267.814C267.218 198.042 266.259 199.783 264.938 201.397C263.617 203.011 261.934 204.306 259.888 205.283C257.886 206.26 255.521 206.748 252.793 206.748ZM244.931 187.19H260.208C260.165 185.066 259.377 183.388 257.843 182.157C256.352 180.925 254.583 180.309 252.538 180.309C250.791 180.309 249.171 180.861 247.68 181.966C246.188 183.027 245.272 184.769 244.931 187.19Z"/>
<path d="M272.975 205.984V174.384H281.093V179.099C282.2 177.315 283.607 175.956 285.311 175.021C287.016 174.087 288.912 173.62 291 173.62V182.157H288.827C286.227 182.157 284.288 182.773 283.01 184.004C281.732 185.236 281.093 187.296 281.093 190.184V205.984H272.975Z"/>
</mask>
<path d="M23.0293 124.126C18.8107 124.126 15.1247 123.17 11.9714 121.259C8.81802 119.347 6.36779 116.672 4.62068 113.231C2.87356 109.791 2 105.82 2 101.318C2 96.9429 2.85225 92.9929 4.55676 89.4677C6.26126 85.9424 8.77541 83.1605 12.0992 81.1218C15.4656 79.0406 19.5564 78 24.3716 78C29.613 78 33.9595 79.2529 37.4111 81.7588C40.8627 84.2647 43.0999 87.7263 44.1226 92.1435H34.9822C34.3004 90.0623 33.0646 88.4483 31.2749 87.3016C29.4851 86.1123 27.1841 85.5177 24.3716 85.5177C21.3887 85.5177 18.8533 86.1548 16.7653 87.429C14.6773 88.7032 13.0793 90.5295 11.9714 92.908C10.906 95.244 10.3734 98.0684 10.3734 101.381C10.3734 104.652 10.906 107.455 11.9714 109.791C13.0793 112.084 14.6346 113.847 16.6374 115.079C18.6828 116.268 21.0692 116.863 23.7964 116.863C27.6315 116.863 30.5718 115.886 32.6172 113.932C34.6626 111.978 35.9623 109.387 36.5162 106.16H22.2623V99.2789H44.9535V123.361H37.4111L36.7719 117.5C35.3231 119.623 33.512 121.259 31.3388 122.405C29.1655 123.552 26.3957 124.126 23.0293 124.126Z" stroke="#28A769" stroke-width="4" mask="url(#path-2-outside-1_38_372)"/>
<path d="M66.5996 124.126C63.4036 124.126 60.5486 123.446 58.0344 122.087C55.5629 120.685 53.624 118.731 52.2178 116.226C50.8116 113.72 50.1085 110.832 50.1085 107.561C50.1085 104.121 50.8542 101.169 52.3456 98.7055C53.8797 96.1996 55.9038 94.2883 58.418 92.9717C60.9747 91.655 63.7871 90.9967 66.8552 90.9967C70.0512 90.9967 72.9062 91.6975 75.4204 93.0991C77.9345 94.4582 79.916 96.3695 81.3648 98.8329C82.8563 101.296 83.602 104.206 83.602 107.561C83.602 110.747 82.8776 113.592 81.4288 116.098C79.9799 118.604 77.9771 120.579 75.4204 122.023C72.9062 123.425 69.966 124.126 66.5996 124.126ZM66.7274 117.054C68.4319 117.054 69.9021 116.629 71.1378 115.78C72.4162 114.888 73.4176 113.72 74.142 112.276C74.8664 110.789 75.2286 109.175 75.2286 107.434C75.2286 105.437 74.8238 103.739 74.0142 102.337C73.2471 100.935 72.2244 99.8735 70.9461 99.1515C69.6677 98.4294 68.2615 98.0684 66.7274 98.0684C65.0655 98.0684 63.5954 98.4719 62.317 99.2789C61.0812 100.086 60.1012 101.211 59.3767 102.655C58.6949 104.057 58.354 105.692 58.354 107.561C58.354 109.43 58.7162 111.086 59.4407 112.53C60.2077 113.975 61.2304 115.1 62.5088 115.907C63.7871 116.672 65.1934 117.054 66.7274 117.054Z" stroke="#28A769" stroke-width="4" mask="url(#path-2-outside-1_38_372)"/>
<path d="M103.802 124.126C100.606 124.126 97.7514 123.446 95.2373 122.087C92.7657 120.685 90.8269 118.731 89.4206 116.226C88.0144 113.72 87.3113 110.832 87.3113 107.561C87.3113 104.121 88.057 101.169 89.5485 98.7055C91.0825 96.1996 93.1066 94.2883 95.6208 92.9717C98.1775 91.655 100.99 90.9967 104.058 90.9967C107.254 90.9967 110.109 91.6975 112.623 93.0991C115.137 94.4582 117.119 96.3695 118.568 98.8329C120.059 101.296 120.805 104.206 120.805 107.561C120.805 110.747 120.08 113.592 118.632 116.098C117.183 118.604 115.18 120.579 112.623 122.023C110.109 123.425 107.169 124.126 103.802 124.126ZM103.93 117.054C105.635 117.054 107.105 116.629 108.341 115.78C109.619 114.888 110.62 113.72 111.345 112.276C112.069 110.789 112.431 109.175 112.431 107.434C112.431 105.437 112.027 103.739 111.217 102.337C110.45 100.935 109.427 99.8735 108.149 99.1515C106.871 98.4294 105.464 98.0684 103.93 98.0684C102.268 98.0684 100.798 98.4719 99.5198 99.2789C98.2841 100.086 97.304 101.211 96.5796 102.655C95.8978 104.057 95.5568 105.692 95.5568 107.561C95.5568 109.43 95.9191 111.086 96.6435 112.53C97.4105 113.975 98.4332 115.1 99.7116 115.907C100.99 116.672 102.396 117.054 103.93 117.054Z" stroke="#28A769" stroke-width="4" mask="url(#path-2-outside-1_38_372)"/>
<path d="M138.911 138.142C136.013 138.142 133.414 137.823 131.113 137.186C128.812 136.549 126.979 135.508 125.616 134.064C124.295 132.663 123.634 130.815 123.634 128.521C123.634 127.035 123.954 125.739 124.593 124.635C125.232 123.573 126.212 122.639 127.533 121.832C126.425 121.195 125.594 120.388 125.04 119.411C124.486 118.434 124.21 117.309 124.21 116.034C124.21 113.231 125.531 111.065 128.172 109.536C127.235 108.559 126.511 107.455 125.999 106.223C125.488 104.949 125.232 103.632 125.232 102.273C125.232 99.9797 125.786 98.0047 126.894 96.3483C128.002 94.6494 129.536 93.3327 131.496 92.3983C133.456 91.4639 135.694 90.9967 138.208 90.9967C140.04 90.9967 141.723 91.2515 143.257 91.7612H154.635V97.8773H150.225C150.48 98.5993 150.693 99.3214 150.864 100.043C151.077 100.765 151.183 101.509 151.183 102.273C151.183 104.482 150.608 106.436 149.457 108.134C148.307 109.833 146.752 111.171 144.791 112.148C142.874 113.083 140.679 113.55 138.208 113.55C137.142 113.55 136.162 113.465 135.268 113.295C134.373 113.083 133.499 112.764 132.647 112.339C131.709 112.807 131.241 113.55 131.241 114.569C131.241 116.438 132.796 117.372 135.907 117.372H141.723C144.28 117.372 146.453 117.733 148.243 118.455C150.075 119.135 151.46 120.218 152.398 121.705C153.335 123.191 153.804 125.081 153.804 127.375C153.804 129.583 153.143 131.495 151.822 133.109C150.501 134.722 148.712 135.954 146.453 136.804C144.195 137.696 141.681 138.142 138.911 138.142ZM138.911 131.771C140.956 131.771 142.682 131.431 144.088 130.751C145.537 130.114 146.262 129.137 146.262 127.821C146.262 125.315 144.514 124.062 141.02 124.062H136.418C134.714 124.062 133.393 124.38 132.455 125.017C131.56 125.655 131.113 126.589 131.113 127.821C131.113 128.798 131.475 129.562 132.199 130.114C132.924 130.709 133.883 131.134 135.076 131.388C136.269 131.643 137.547 131.771 138.911 131.771ZM138.144 107.179C139.763 107.179 141.084 106.733 142.107 105.841C143.172 104.907 143.705 103.717 143.705 102.273C143.705 100.872 143.172 99.7036 142.107 98.7692C141.084 97.8348 139.763 97.3676 138.144 97.3676C136.525 97.3676 135.204 97.8348 134.181 98.7692C133.201 99.7036 132.711 100.872 132.711 102.273C132.711 103.717 133.179 104.907 134.117 105.841C135.097 106.733 136.439 107.179 138.144 107.179Z" stroke="#28A769" stroke-width="4" mask="url(#path-2-outside-1_38_372)"/>
<path d="M158.62 123.361V78.7645H166.801V123.361H158.62Z" stroke="#28A769" stroke-width="4" mask="url(#path-2-outside-1_38_372)"/>
<path d="M187.439 124.126C184.115 124.126 181.239 123.403 178.81 121.959C176.423 120.515 174.57 118.54 173.249 116.034C171.928 113.529 171.267 110.704 171.267 107.561C171.267 104.206 171.949 101.296 173.313 98.8329C174.676 96.3695 176.573 94.4582 179.002 93.0991C181.43 91.6975 184.243 90.9967 187.439 90.9967C190.592 90.9967 193.341 91.6763 195.684 93.0354C198.071 94.3945 199.924 96.2633 201.245 98.6418C202.609 101.02 203.291 103.76 203.291 106.86C203.291 107.412 203.269 107.965 203.227 108.517C203.184 109.026 203.12 109.515 203.035 109.982H179.513C179.641 111.469 180.024 112.785 180.663 113.932C181.345 115.036 182.24 115.907 183.348 116.544C184.499 117.139 185.798 117.436 187.247 117.436C188.739 117.436 190.017 117.117 191.082 116.48C192.19 115.843 193.064 114.866 193.703 113.55H202.46C201.863 115.419 200.904 117.16 199.583 118.774C198.262 120.388 196.579 121.683 194.534 122.66C192.531 123.637 190.166 124.126 187.439 124.126ZM179.577 104.567H194.853C194.811 102.443 194.022 100.765 192.488 99.5337C190.997 98.302 189.229 97.6862 187.183 97.6862C185.436 97.6862 183.817 98.2383 182.325 99.3426C180.834 100.404 179.918 102.146 179.577 104.567Z" stroke="#28A769" stroke-width="4" mask="url(#path-2-outside-1_38_372)"/>
<path d="M3.47014 205.984V161.387H18.7468C24.0733 161.387 28.4198 162.322 31.7862 164.191C35.1952 166.059 37.6881 168.672 39.2647 172.027C40.884 175.382 41.6937 179.269 41.6937 183.686C41.6937 188.443 40.7988 192.499 39.0091 195.854C37.2619 199.167 34.6839 201.694 31.2749 203.436C27.8659 205.135 23.6898 205.984 18.7468 205.984H3.47014ZM11.6518 198.976H18.3632C22.1558 198.976 25.1387 198.36 27.3119 197.128C29.4851 195.897 31.0192 194.134 31.9141 191.841C32.8515 189.547 33.3203 186.829 33.3203 183.686C33.3203 178.377 32.0845 174.49 29.613 172.027C27.1841 169.563 23.4342 168.332 18.3632 168.332H11.6518V198.976Z" stroke="#28A769" stroke-width="4" mask="url(#path-2-outside-1_38_372)"/>
<path d="M62.3475 206.748C59.0237 206.748 56.1473 206.026 53.7184 204.582C51.3321 203.138 49.4785 201.163 48.1575 198.657C46.8365 196.152 46.176 193.327 46.176 190.184C46.176 186.829 46.8578 183.919 48.2214 181.456C49.585 178.992 51.4813 177.081 53.9102 175.722C56.3391 174.32 59.1515 173.62 62.3475 173.62C65.5008 173.62 68.2493 174.299 70.593 175.658C72.9793 177.017 74.833 178.886 76.154 181.265C77.5176 183.643 78.1994 186.383 78.1994 189.483C78.1994 190.035 78.1781 190.588 78.1354 191.14C78.0928 191.649 78.0289 192.138 77.9437 192.605H54.4215C54.5494 194.092 54.9329 195.408 55.5721 196.555C56.2539 197.659 57.1487 198.53 58.2567 199.167C59.4072 199.762 60.7069 200.059 62.1557 200.059C63.6472 200.059 64.9255 199.74 65.9908 199.103C67.0988 198.466 67.9723 197.489 68.6115 196.173H77.3684C76.7718 198.042 75.8131 199.783 74.4921 201.397C73.1711 203.011 71.4879 204.306 69.4425 205.283C67.4397 206.26 65.0747 206.748 62.3475 206.748ZM54.4854 187.19H69.7621C69.7195 185.066 68.9311 183.388 67.3971 182.157C65.9056 180.925 64.1372 180.309 62.0918 180.309C60.3447 180.309 58.7254 180.861 57.234 181.966C55.7425 183.027 54.8263 184.769 54.4854 187.19Z" stroke="#28A769" stroke-width="4" mask="url(#path-2-outside-1_38_372)"/>
<path d="M90.2291 205.984L78.3402 174.384H87.0332L95.2148 198.657L103.332 174.384H111.962L100.073 205.984H90.2291Z" stroke="#28A769" stroke-width="4" mask="url(#path-2-outside-1_38_372)"/>
<path d="M128.389 206.748C125.065 206.748 122.189 206.026 119.76 204.582C117.373 203.138 115.52 201.163 114.199 198.657C112.878 196.152 112.217 193.327 112.217 190.184C112.217 186.829 112.899 183.919 114.263 181.456C115.626 178.992 117.522 177.081 119.951 175.722C122.38 174.32 125.193 173.62 128.389 173.62C131.542 173.62 134.291 174.299 136.634 175.658C139.021 177.017 140.874 178.886 142.195 181.265C143.559 183.643 144.241 186.383 144.241 189.483C144.241 190.035 144.219 190.588 144.177 191.14C144.134 191.649 144.07 192.138 143.985 192.605H120.463C120.591 194.092 120.974 195.408 121.613 196.555C122.295 197.659 123.19 198.53 124.298 199.167C125.448 199.762 126.748 200.059 128.197 200.059C129.688 200.059 130.967 199.74 132.032 199.103C133.14 198.466 134.014 197.489 134.653 196.173H143.41C142.813 198.042 141.854 199.783 140.533 201.397C139.212 203.011 137.529 204.306 135.484 205.283C133.481 206.26 131.116 206.748 128.389 206.748ZM120.527 187.19H135.803C135.761 185.066 134.972 183.388 133.438 182.157C131.947 180.925 130.178 180.309 128.133 180.309C126.386 180.309 124.767 180.861 123.275 181.966C121.784 183.027 120.868 184.769 120.527 187.19Z" stroke="#28A769" stroke-width="4" mask="url(#path-2-outside-1_38_372)"/>
<path d="M148.57 205.984V161.387H156.752V205.984H148.57Z" stroke="#28A769" stroke-width="4" mask="url(#path-2-outside-1_38_372)"/>
<path d="M177.709 206.748C174.513 206.748 171.658 206.069 169.144 204.71C166.672 203.308 164.733 201.354 163.327 198.849C161.921 196.343 161.218 193.454 161.218 190.184C161.218 186.744 161.963 183.792 163.455 181.328C164.989 178.823 167.013 176.911 169.527 175.595C172.084 174.278 174.896 173.62 177.964 173.62C181.16 173.62 184.015 174.32 186.529 175.722C189.044 177.081 191.025 178.992 192.474 181.456C193.965 183.919 194.711 186.829 194.711 190.184C194.711 193.37 193.987 196.215 192.538 198.721C191.089 201.227 189.086 203.202 186.529 204.646C184.015 206.048 181.075 206.748 177.709 206.748ZM177.837 199.677C179.541 199.677 181.011 199.252 182.247 198.403C183.525 197.511 184.527 196.343 185.251 194.899C185.976 193.412 186.338 191.798 186.338 190.057C186.338 188.06 185.933 186.362 185.123 184.96C184.356 183.558 183.334 182.496 182.055 181.774C180.777 181.052 179.371 180.691 177.837 180.691C176.175 180.691 174.704 181.095 173.426 181.902C172.19 182.709 171.21 183.834 170.486 185.278C169.804 186.68 169.463 188.315 169.463 190.184C169.463 192.053 169.825 193.709 170.55 195.153C171.317 196.597 172.339 197.723 173.618 198.53C174.896 199.294 176.302 199.677 177.837 199.677Z" stroke="#28A769" stroke-width="4" mask="url(#path-2-outside-1_38_372)"/>
<path d="M199.443 220V174.384H207.561V178.78C208.797 177.081 210.331 175.807 212.163 174.958C214.038 174.066 216.062 173.62 218.235 173.62C221.303 173.62 223.924 174.363 226.097 175.849C228.313 177.336 229.996 179.332 231.147 181.838C232.34 184.302 232.937 187.041 232.937 190.057C232.937 193.072 232.34 195.854 231.147 198.403C229.954 200.951 228.249 202.99 226.033 204.519C223.86 206.005 221.261 206.748 218.235 206.748C215.551 206.748 213.314 206.196 211.524 205.092C209.777 203.988 208.477 202.841 207.625 201.652V220H199.443ZM216.062 199.613C217.767 199.613 219.258 199.188 220.536 198.339C221.815 197.447 222.816 196.279 223.541 194.835C224.265 193.391 224.627 191.798 224.627 190.057C224.627 188.06 224.222 186.383 223.413 185.024C222.646 183.622 221.602 182.56 220.281 181.838C219.002 181.116 217.596 180.755 216.062 180.755C214.443 180.755 212.994 181.159 211.716 181.966C210.437 182.773 209.414 183.898 208.647 185.342C207.923 186.744 207.561 188.358 207.561 190.184C207.561 191.925 207.923 193.518 208.647 194.962C209.372 196.406 210.373 197.553 211.652 198.403C212.93 199.21 214.4 199.613 216.062 199.613Z" stroke="#28A769" stroke-width="4" mask="url(#path-2-outside-1_38_372)"/>
<path d="M252.793 206.748C249.47 206.748 246.593 206.026 244.164 204.582C241.778 203.138 239.924 201.163 238.603 198.657C237.282 196.152 236.622 193.327 236.622 190.184C236.622 186.829 237.304 183.919 238.667 181.456C240.031 178.992 241.927 177.081 244.356 175.722C246.785 174.32 249.597 173.62 252.793 173.62C255.947 173.62 258.695 174.299 261.039 175.658C263.425 177.017 265.279 178.886 266.6 181.265C267.964 183.643 268.645 186.383 268.645 189.483C268.645 190.035 268.624 190.588 268.581 191.14C268.539 191.649 268.475 192.138 268.39 192.605H244.868C244.995 194.092 245.379 195.408 246.018 196.555C246.7 197.659 247.595 198.53 248.703 199.167C249.853 199.762 251.153 200.059 252.602 200.059C254.093 200.059 255.372 199.74 256.437 199.103C257.545 198.466 258.418 197.489 259.058 196.173H267.814C267.218 198.042 266.259 199.783 264.938 201.397C263.617 203.011 261.934 204.306 259.888 205.283C257.886 206.26 255.521 206.748 252.793 206.748ZM244.931 187.19H260.208C260.165 185.066 259.377 183.388 257.843 182.157C256.352 180.925 254.583 180.309 252.538 180.309C250.791 180.309 249.171 180.861 247.68 181.966C246.188 183.027 245.272 184.769 244.931 187.19Z" stroke="#28A769" stroke-width="4" mask="url(#path-2-outside-1_38_372)"/>
<path d="M272.975 205.984V174.384H281.093V179.099C282.2 177.315 283.607 175.956 285.311 175.021C287.016 174.087 288.912 173.62 291 173.62V182.157H288.827C286.227 182.157 284.288 182.773 283.01 184.004C281.732 185.236 281.093 187.296 281.093 190.184V205.984H272.975Z" stroke="#28A769" stroke-width="4" mask="url(#path-2-outside-1_38_372)"/>
<path d="M25.68 283.768C21.456 283.768 17.7653 282.808 14.608 280.888C11.4507 278.968 8.99733 276.28 7.248 272.824C5.49867 269.368 4.624 265.379 4.624 260.856C4.624 256.461 5.47733 252.493 7.184 248.952C8.89067 245.411 11.408 242.616 14.736 240.568C18.1067 238.477 22.2027 237.432 27.024 237.432C32.272 237.432 36.624 238.691 40.08 241.208C43.536 243.725 45.776 247.203 46.8 251.64H37.648C36.9653 249.549 35.728 247.928 33.936 246.776C32.144 245.581 29.84 244.984 27.024 244.984C24.0373 244.984 21.4987 245.624 19.408 246.904C17.3173 248.184 15.7173 250.019 14.608 252.408C13.5413 254.755 13.008 257.592 13.008 260.92C13.008 264.205 13.5413 267.021 14.608 269.368C15.7173 271.672 17.2747 273.443 19.28 274.68C21.328 275.875 23.7173 276.472 26.448 276.472C30.288 276.472 33.232 275.491 35.28 273.528C37.328 271.565 38.6293 268.963 39.184 265.72H24.912V258.808H47.632V283H40.08L39.44 277.112C37.9893 279.245 36.176 280.888 34 282.04C31.824 283.192 29.0507 283.768 25.68 283.768ZM53.8175 283V251.256H61.9455V255.992C63.0548 254.2 64.4628 252.835 66.1695 251.896C67.8762 250.957 69.7748 250.488 71.8655 250.488V259.064H69.6895C67.0868 259.064 65.1455 259.683 63.8655 260.92C62.5855 262.157 61.9455 264.227 61.9455 267.128V283H53.8175ZM90.5555 283.768C87.3555 283.768 84.4968 283.085 81.9795 281.72C79.5048 280.312 77.5635 278.349 76.1555 275.832C74.7475 273.315 74.0435 270.413 74.0435 267.128C74.0435 263.672 74.7902 260.707 76.2835 258.232C77.8195 255.715 79.8462 253.795 82.3635 252.472C84.9235 251.149 87.7395 250.488 90.8115 250.488C94.0115 250.488 96.8702 251.192 99.3875 252.6C101.905 253.965 103.889 255.885 105.34 258.36C106.833 260.835 107.58 263.757 107.58 267.128C107.58 270.328 106.854 273.187 105.404 275.704C103.953 278.221 101.948 280.205 99.3875 281.656C96.8702 283.064 93.9262 283.768 90.5555 283.768ZM90.6835 276.664C92.3902 276.664 93.8622 276.237 95.0995 275.384C96.3795 274.488 97.3822 273.315 98.1075 271.864C98.8328 270.371 99.1955 268.749 99.1955 267C99.1955 264.995 98.7902 263.288 97.9795 261.88C97.2115 260.472 96.1875 259.405 94.9075 258.68C93.6275 257.955 92.2195 257.592 90.6835 257.592C89.0195 257.592 87.5475 257.997 86.2675 258.808C85.0302 259.619 84.0488 260.749 83.3235 262.2C82.6408 263.608 82.2995 265.251 82.2995 267.128C82.2995 269.005 82.6622 270.669 83.3875 272.12C84.1555 273.571 85.1795 274.701 86.4595 275.512C87.7395 276.28 89.1475 276.664 90.6835 276.664ZM124.734 283.768C122.003 283.768 119.678 283.192 117.758 282.04C115.838 280.845 114.366 279.224 113.342 277.176C112.318 275.085 111.806 272.717 111.806 270.072V251.256H119.934V268.856C119.934 271.203 120.531 273.123 121.726 274.616C122.963 276.109 124.755 276.856 127.102 276.856C129.534 276.856 131.347 276.131 132.542 274.68C133.736 273.229 134.334 271.288 134.334 268.856V251.256H142.526V283H134.334V279.288C133.267 280.739 131.859 281.848 130.11 282.616C128.403 283.384 126.611 283.768 124.734 283.768ZM148.255 297.08V251.256H156.383V255.672C157.62 253.965 159.156 252.685 160.991 251.832C162.868 250.936 164.895 250.488 167.071 250.488C170.143 250.488 172.767 251.235 174.943 252.728C177.162 254.221 178.847 256.227 179.999 258.744C181.194 261.219 181.791 263.971 181.791 267C181.791 270.029 181.194 272.824 179.999 275.384C178.804 277.944 177.098 279.992 174.879 281.528C172.703 283.021 170.1 283.768 167.071 283.768C164.383 283.768 162.143 283.213 160.351 282.104C158.602 280.995 157.3 279.843 156.447 278.648V297.08H148.255ZM164.895 276.6C166.602 276.6 168.095 276.173 169.375 275.32C170.655 274.424 171.658 273.251 172.383 271.8C173.108 270.349 173.471 268.749 173.471 267C173.471 264.995 173.066 263.309 172.255 261.944C171.487 260.536 170.442 259.469 169.119 258.744C167.839 258.019 166.431 257.656 164.895 257.656C163.274 257.656 161.823 258.061 160.543 258.872C159.263 259.683 158.239 260.813 157.471 262.264C156.746 263.672 156.383 265.293 156.383 267.128C156.383 268.877 156.746 270.477 157.471 271.928C158.196 273.379 159.199 274.531 160.479 275.384C161.759 276.195 163.231 276.6 164.895 276.6ZM216.743 283.768C213.543 283.768 210.684 283.085 208.167 281.72C205.692 280.312 203.751 278.349 202.343 275.832C200.935 273.315 200.231 270.413 200.231 267.128C200.231 263.672 200.978 260.707 202.471 258.232C204.007 255.715 206.034 253.795 208.551 252.472C211.111 251.149 213.927 250.488 216.999 250.488C220.199 250.488 223.058 251.192 225.575 252.6C228.092 253.965 230.076 255.885 231.527 258.36C233.02 260.835 233.767 263.757 233.767 267.128C233.767 270.328 233.042 273.187 231.591 275.704C230.14 278.221 228.135 280.205 225.575 281.656C223.058 283.064 220.114 283.768 216.743 283.768ZM216.871 276.664C218.578 276.664 220.05 276.237 221.287 275.384C222.567 274.488 223.57 273.315 224.295 271.864C225.02 270.371 225.383 268.749 225.383 267C225.383 264.995 224.978 263.288 224.167 261.88C223.399 260.472 222.375 259.405 221.095 258.68C219.815 257.955 218.407 257.592 216.871 257.592C215.207 257.592 213.735 257.997 212.455 258.808C211.218 259.619 210.236 260.749 209.511 262.2C208.828 263.608 208.487 265.251 208.487 267.128C208.487 269.005 208.85 270.669 209.575 272.12C210.343 273.571 211.367 274.701 212.647 275.512C213.927 276.28 215.335 276.664 216.871 276.664ZM238.505 283V251.256H246.633V254.968C247.742 253.475 249.214 252.365 251.049 251.64C252.926 250.872 254.804 250.488 256.681 250.488C260.35 250.488 263.358 251.683 265.705 254.072C268.052 256.419 269.225 259.832 269.225 264.312V283H261.097V265.4C261.097 263.011 260.478 261.091 259.241 259.64C258.046 258.147 256.276 257.4 253.929 257.4C251.582 257.4 249.769 258.147 248.489 259.64C247.252 261.091 246.633 263.011 246.633 265.4V283H238.505ZM26.384 366.768C21.776 366.768 17.8507 365.765 14.608 363.76C11.3653 361.755 8.89067 359.024 7.184 355.568C5.47733 352.069 4.624 348.101 4.624 343.664C4.624 339.227 5.456 335.259 7.12 331.76C8.784 328.261 11.2373 325.509 14.48 323.504C17.7227 321.456 21.6907 320.432 26.384 320.432C31.76 320.432 36.1547 321.776 39.568 324.464C43.024 327.109 45.1787 330.843 46.032 335.664H37.008C36.4533 333.232 35.2587 331.333 33.424 329.968C31.632 328.56 29.2427 327.856 26.256 327.856C23.5253 327.856 21.1573 328.496 19.152 329.776C17.1893 331.056 15.6747 332.869 14.608 335.216C13.5413 337.563 13.008 340.379 13.008 343.664C13.008 346.907 13.5413 349.723 14.608 352.112C15.6747 354.459 17.1893 356.272 19.152 357.552C21.1573 358.789 23.5253 359.408 26.256 359.408C29.2427 359.408 31.632 358.768 33.424 357.488C35.2587 356.165 36.4533 354.352 37.008 352.048H46.032C45.1787 356.656 43.024 360.261 39.568 362.864C36.1547 365.467 31.76 366.768 26.384 366.768ZM60.2955 366.768C58.4182 366.768 56.6688 366.384 55.0475 365.616C53.4262 364.848 52.1035 363.76 51.0795 362.352C50.0982 360.901 49.6075 359.195 49.6075 357.232C49.6075 354.885 50.1835 352.965 51.3355 351.472C52.4875 349.979 54.0662 348.869 56.0715 348.144C58.1195 347.419 60.4022 347.056 62.9195 347.056H70.4715C70.4715 345.605 70.2368 344.389 69.7675 343.408C69.3408 342.427 68.6795 341.68 67.7835 341.168C66.9302 340.613 65.8635 340.336 64.5835 340.336C63.0902 340.336 61.7462 340.677 60.5515 341.36C59.3995 342 58.6955 343.088 58.4395 344.624H50.2475C50.4608 342.32 51.2502 340.336 52.6155 338.672C53.9808 337.008 55.7302 335.728 57.8635 334.832C59.9968 333.936 62.2795 333.488 64.7115 333.488C67.6982 333.488 70.2155 334.043 72.2635 335.152C74.3542 336.261 75.9542 337.84 77.0635 339.888C78.1728 341.893 78.7275 344.283 78.7275 347.056V356.72C78.8128 357.659 79.1542 358.299 79.7515 358.64C80.3488 358.981 81.1382 359.152 82.1195 359.152V366C80.1142 366 78.4288 365.808 77.0635 365.424C75.7408 365.04 74.6528 364.485 73.7995 363.76C72.9462 362.992 72.2208 362.032 71.6235 360.88C70.6422 362.544 69.1062 363.952 67.0155 365.104C64.9675 366.213 62.7275 366.768 60.2955 366.768ZM62.6635 360.176C64.0715 360.176 65.3515 359.856 66.5035 359.216C67.6982 358.576 68.6582 357.68 69.3835 356.528C70.1088 355.376 70.4715 354.053 70.4715 352.56V352.304H63.4315C62.4928 352.304 61.5968 352.453 60.7435 352.752C59.8902 353.008 59.2075 353.435 58.6955 354.032C58.1835 354.587 57.9275 355.355 57.9275 356.336C57.9275 357.659 58.3755 358.64 59.2715 359.28C60.2102 359.877 61.3408 360.176 62.6635 360.176ZM86.0675 366V334.256H94.1955V337.904C95.2622 336.411 96.6275 335.301 98.2915 334.576C99.9555 333.851 101.705 333.488 103.54 333.488C105.929 333.488 108.148 334 110.196 335.024C112.286 336.005 113.908 337.563 115.06 339.696C116.126 337.733 117.598 336.219 119.476 335.152C121.396 334.043 123.486 333.488 125.748 333.488C128.18 333.488 130.377 334 132.34 335.024C134.345 336.005 135.924 337.52 137.076 339.568C138.228 341.616 138.804 344.176 138.804 347.248V366H130.676V348.4C130.676 346.011 130.1 344.112 128.948 342.704C127.796 341.296 126.025 340.592 123.636 340.592C121.289 340.592 119.518 341.296 118.324 342.704C117.129 344.112 116.532 346.011 116.532 348.4V366H108.404V348.4C108.404 345.968 107.785 344.069 106.548 342.704C105.353 341.296 103.625 340.592 101.364 340.592C99.4435 340.592 97.7582 341.211 96.3075 342.448C94.8995 343.643 94.1955 345.627 94.1955 348.4V366H86.0675ZM144.068 380.08V334.256H152.196V338.672C153.433 336.965 154.969 335.685 156.804 334.832C158.681 333.936 160.708 333.488 162.884 333.488C165.956 333.488 168.58 334.235 170.756 335.728C172.974 337.221 174.66 339.227 175.812 341.744C177.006 344.219 177.604 346.971 177.604 350C177.604 353.029 177.006 355.824 175.812 358.384C174.617 360.944 172.91 362.992 170.692 364.528C168.516 366.021 165.913 366.768 162.884 366.768C160.196 366.768 157.956 366.213 156.164 365.104C154.414 363.995 153.113 362.843 152.26 361.648V380.08H144.068ZM160.708 359.6C162.414 359.6 163.908 359.173 165.188 358.32C166.468 357.424 167.47 356.251 168.196 354.8C168.921 353.349 169.284 351.749 169.284 350C169.284 347.995 168.878 346.309 168.068 344.944C167.3 343.536 166.254 342.469 164.932 341.744C163.652 341.019 162.244 340.656 160.708 340.656C159.086 340.656 157.636 341.061 156.356 341.872C155.076 342.683 154.052 343.813 153.284 345.264C152.558 346.672 152.196 348.293 152.196 350.128C152.196 351.877 152.558 353.477 153.284 354.928C154.009 356.379 155.012 357.531 156.292 358.384C157.572 359.195 159.044 359.6 160.708 359.6ZM194.734 366.768C192.003 366.768 189.678 366.192 187.758 365.04C185.838 363.845 184.366 362.224 183.342 360.176C182.318 358.085 181.806 355.717 181.806 353.072V334.256H189.934V351.856C189.934 354.203 190.531 356.123 191.726 357.616C192.963 359.109 194.755 359.856 197.102 359.856C199.534 359.856 201.347 359.131 202.542 357.68C203.736 356.229 204.334 354.288 204.334 351.856V334.256H212.526V366H204.334V362.288C203.267 363.739 201.859 364.848 200.11 365.616C198.403 366.384 196.611 366.768 194.734 366.768ZM231.247 366.768C228.858 366.768 226.618 366.341 224.527 365.488C222.436 364.592 220.708 363.333 219.343 361.712C218.02 360.091 217.295 358.192 217.167 356.016H225.359C225.572 357.381 226.234 358.448 227.343 359.216C228.495 359.984 229.775 360.368 231.183 360.368C232.378 360.368 233.487 360.112 234.511 359.6C235.578 359.045 236.111 358.192 236.111 357.04C236.111 356.144 235.727 355.44 234.959 354.928C234.191 354.416 233.295 354.011 232.271 353.712C231.247 353.413 230.308 353.157 229.455 352.944C227.322 352.432 225.38 351.835 223.631 351.152C221.882 350.427 220.495 349.445 219.471 348.208C218.447 346.928 217.935 345.243 217.935 343.152C217.935 341.104 218.511 339.355 219.663 337.904C220.858 336.453 222.415 335.365 224.335 334.64C226.298 333.872 228.41 333.488 230.671 333.488C234.212 333.488 237.199 334.384 239.631 336.176C242.063 337.968 243.386 340.613 243.599 344.112H235.855C235.727 342.747 235.151 341.723 234.127 341.04C233.146 340.315 231.908 339.952 230.415 339.952C229.22 339.952 228.154 340.165 227.215 340.592C226.276 341.019 225.807 341.829 225.807 343.024C225.807 343.877 226.191 344.581 226.959 345.136C227.727 345.648 228.644 346.075 229.711 346.416C230.778 346.715 231.716 346.971 232.527 347.184C234.746 347.739 236.687 348.379 238.351 349.104C240.058 349.829 241.402 350.811 242.383 352.048C243.364 353.285 243.876 354.949 243.919 357.04C243.919 359.131 243.322 360.901 242.127 362.352C240.975 363.803 239.439 364.912 237.519 365.68C235.599 366.405 233.508 366.768 231.247 366.768Z" fill="black"/>
</svg>
