<svg xmlns="http://www.w3.org/2000/svg" width="1582" height="54" viewBox="0 0 1582 54" fill="none">
  <path d="M16 9V0H43V9H16ZM16 45V36H7V9H16V36H34V27H25V18H43V45H16Z" fill="#00FBEE"/>
  <path d="M61 9V0H79V9H61ZM61 36H52V9H61V36ZM88 36H79V9H88V36ZM79 36V45H61V36H79Z" fill="#00FBEE"/>
  <path d="M106 9V0H124V9H106ZM106 36H97V9H106V36ZM133 36H124V9H133V36ZM124 36V45H106V36H124Z" fill="#00FBEE"/>
  <path d="M151 9V0H178V9H151ZM151 45V36H142V9H151V36H169V27H160V18H178V45H151Z" fill="#00FBEE"/>
  <path d="M214 36V45H187V0H196V36H214Z" fill="#00FBEE"/>
  <path d="M259 36V45H223V0H259V9H232V18H250V27H232V36H259Z" fill="#00FBEE"/>
  <path d="M295 36H313V45H286V0H313V9H295V36ZM322 36H313V9H322V36Z" fill="#00FBEE"/>
  <path d="M367 36V45H331V0H367V9H340V18H358V27H340V36H367Z" fill="#00FBEE"/>
  <path d="M385 27H376V0H385V27ZM394 27V0H403V27H394ZM394 45H385V27H394V45Z" fill="#00FBEE"/>
  <path d="M448 36V45H412V0H448V9H421V18H439V27H421V36H448Z" fill="#00FBEE"/>
  <path d="M484 36V45H457V0H466V36H484Z" fill="#00FBEE"/>
  <path d="M502 9V0H520V9H502ZM502 36H493V9H502V36ZM529 36H520V9H529V36ZM520 36V45H502V36H520Z" fill="#00FBEE"/>
  <path d="M547 45H538V0H565V9H547V18H565V27H547V45ZM565 18V9H574V18H565Z" fill="#00FBEE"/>
  <path d="M619 36V45H583V0H619V9H592V18H610V27H592V36H619Z" fill="#00FBEE"/>
  <path d="M637 45H628V0H655V9H637V18H655V27H637V45ZM664 18H655V9H664V18ZM664 45H655V27H664V45Z" fill="#00FBEE"/>
  <path d="M700 9V0H727V9H700ZM700 45V36H691V9H700V36H718V27H709V18H727V45H700Z" fill="#00FBEE"/>
  <path d="M745 45H736V0H763V9H745V18H763V27H745V45ZM772 18H763V9H772V18ZM772 45H763V27H772V45Z" fill="#00FBEE"/>
  <path d="M790 9V0H808V9H790ZM790 36H781V9H790V36ZM817 36H808V9H817V36ZM808 36V45H790V36H808Z" fill="#00FBEE"/>
  <path d="M835 36H826V0H835V36ZM862 36H853V0H862V36ZM853 36V45H835V36H853Z" fill="#00FBEE"/>
  <path d="M880 45H871V0H898V9H880V18H898V27H880V45ZM898 18V9H907V18H898Z" fill="#00FBEE"/>
  <path d="M943 9V0H961V9H943ZM943 36H934V9H943V36ZM970 36H961V9H970V36ZM961 36V45H943V36H961Z" fill="#00FBEE"/>
  <path d="M988 45H979V0H988V9H997V18H988V45ZM1015 45H1006V27H997V18H1006V0H1015V45Z" fill="#00FBEE"/>
  <path d="M1051 9V0H1069V9H1051ZM1051 36H1042V9H1051V36ZM1069 18V9H1078V18H1069ZM1078 36H1069V27H1078V36ZM1069 36V45H1051V36H1069Z" fill="#00FBEE"/>
  <path d="M1096 9V0H1114V9H1096ZM1096 45H1087V9H1096V18H1114V9H1123V45H1114V27H1096V45Z" fill="#00FBEE"/>
  <path d="M1141 45H1132V0H1141V9H1150V18H1141V45ZM1177 45H1168V18H1159V9H1168V0H1177V45ZM1150 27V18H1159V27H1150Z" fill="#00FBEE"/>
  <path d="M1195 45H1186V0H1213V9H1195V18H1213V27H1195V45ZM1213 18V9H1222V18H1213Z" fill="#00FBEE"/>
  <path d="M1240 36H1231V0H1240V36ZM1267 36H1258V0H1267V36ZM1258 36V45H1240V36H1258Z" fill="#00FBEE"/>
  <path d="M1285 9V0H1312V9H1285ZM1276 18V9H1285V18H1276ZM1285 18H1303V27H1285V18ZM1312 36H1303V27H1312V36ZM1303 36V45H1276V36H1303Z" fill="#00FBEE"/>
  <path d="M1330 45V36H1339V45H1330ZM1321 54V45H1330V54H1321Z" fill="#00FBEE"/>
  <path d="M1375 9V0H1402V9H1375ZM1375 45V36H1366V9H1375V36H1393V27H1384V18H1402V45H1375Z" fill="#00FBEE"/>
  <path d="M1420 9V0H1438V9H1420ZM1420 36H1411V9H1420V36ZM1438 18V9H1447V18H1438ZM1447 36H1438V27H1447V36ZM1438 36V45H1420V36H1438Z" fill="#00FBEE"/>
  <path d="M1465 9V0H1483V9H1465ZM1465 36H1456V9H1465V36ZM1492 36H1483V9H1492V36ZM1483 36V45H1465V36H1483Z" fill="#00FBEE"/>
  <path d="M1537 36V45H1501V0H1537V9H1510V18H1528V27H1510V36H1537Z" fill="#00FBEE"/>
  <path d="M1555 45H1546V0H1555V9H1564V18H1555V45ZM1582 45H1573V27H1564V18H1573V0H1582V45Z" fill="#00FBEE"/>
  <path d="M9 9V0H36V9H9ZM9 45V36H0V9H9V36H27V27H18V18H36V45H9Z" fill="#FF00F7"/>
  <path d="M54 9V0H72V9H54ZM54 36H45V9H54V36ZM81 36H72V9H81V36ZM72 36V45H54V36H72Z" fill="#FF00F7"/>
  <path d="M99 9V0H117V9H99ZM99 36H90V9H99V36ZM126 36H117V9H126V36ZM117 36V45H99V36H117Z" fill="#FF00F7"/>
  <path d="M144 9V0H171V9H144ZM144 45V36H135V9H144V36H162V27H153V18H171V45H144Z" fill="#FF00F7"/>
  <path d="M207 36V45H180V0H189V36H207Z" fill="#FF00F7"/>
  <path d="M252 36V45H216V0H252V9H225V18H243V27H225V36H252Z" fill="#FF00F7"/>
  <path d="M288 36H306V45H279V0H306V9H288V36ZM315 36H306V9H315V36Z" fill="#FF00F7"/>
  <path d="M360 36V45H324V0H360V9H333V18H351V27H333V36H360Z" fill="#FF00F7"/>
  <path d="M378 27H369V0H378V27ZM387 27V0H396V27H387ZM387 45H378V27H387V45Z" fill="#FF00F7"/>
  <path d="M441 36V45H405V0H441V9H414V18H432V27H414V36H441Z" fill="#FF00F7"/>
  <path d="M477 36V45H450V0H459V36H477Z" fill="#FF00F7"/>
  <path d="M495 9V0H513V9H495ZM495 36H486V9H495V36ZM522 36H513V9H522V36ZM513 36V45H495V36H513Z" fill="#FF00F7"/>
  <path d="M540 45H531V0H558V9H540V18H558V27H540V45ZM558 18V9H567V18H558Z" fill="#FF00F7"/>
  <path d="M612 36V45H576V0H612V9H585V18H603V27H585V36H612Z" fill="#FF00F7"/>
  <path d="M630 45H621V0H648V9H630V18H648V27H630V45ZM657 18H648V9H657V18ZM657 45H648V27H657V45Z" fill="#FF00F7"/>
  <path d="M693 9V0H720V9H693ZM693 45V36H684V9H693V36H711V27H702V18H720V45H693Z" fill="#FF00F7"/>
  <path d="M738 45H729V0H756V9H738V18H756V27H738V45ZM765 18H756V9H765V18ZM765 45H756V27H765V45Z" fill="#FF00F7"/>
  <path d="M783 9V0H801V9H783ZM783 36H774V9H783V36ZM810 36H801V9H810V36ZM801 36V45H783V36H801Z" fill="#FF00F7"/>
  <path d="M828 36H819V0H828V36ZM855 36H846V0H855V36ZM846 36V45H828V36H846Z" fill="#FF00F7"/>
  <path d="M873 45H864V0H891V9H873V18H891V27H873V45ZM891 18V9H900V18H891Z" fill="#FF00F7"/>
  <path d="M936 9V0H954V9H936ZM936 36H927V9H936V36ZM963 36H954V9H963V36ZM954 36V45H936V36H954Z" fill="#FF00F7"/>
  <path d="M981 45H972V0H981V9H990V18H981V45ZM1008 45H999V27H990V18H999V0H1008V45Z" fill="#FF00F7"/>
  <path d="M1044 9V0H1062V9H1044ZM1044 36H1035V9H1044V36ZM1062 18V9H1071V18H1062ZM1071 36H1062V27H1071V36ZM1062 36V45H1044V36H1062Z" fill="#FF00F7"/>
  <path d="M1089 9V0H1107V9H1089ZM1089 45H1080V9H1089V18H1107V9H1116V45H1107V27H1089V45Z" fill="#FF00F7"/>
  <path d="M1134 45H1125V0H1134V9H1143V18H1134V45ZM1170 45H1161V18H1152V9H1161V0H1170V45ZM1143 27V18H1152V27H1143Z" fill="#FF00F7"/>
  <path d="M1188 45H1179V0H1206V9H1188V18H1206V27H1188V45ZM1206 18V9H1215V18H1206Z" fill="#FF00F7"/>
  <path d="M1233 36H1224V0H1233V36ZM1260 36H1251V0H1260V36ZM1251 36V45H1233V36H1251Z" fill="#FF00F7"/>
  <path d="M1278 9V0H1305V9H1278ZM1269 18V9H1278V18H1269ZM1278 18H1296V27H1278V18ZM1305 36H1296V27H1305V36ZM1296 36V45H1269V36H1296Z" fill="#FF00F7"/>
  <path d="M1323 45V36H1332V45H1323ZM1314 54V45H1323V54H1314Z" fill="#FF00F7"/>
  <path d="M1368 9V0H1395V9H1368ZM1368 45V36H1359V9H1368V36H1386V27H1377V18H1395V45H1368Z" fill="#FF00F7"/>
  <path d="M1413 9V0H1431V9H1413ZM1413 36H1404V9H1413V36ZM1431 18V9H1440V18H1431ZM1440 36H1431V27H1440V36ZM1431 36V45H1413V36H1431Z" fill="#FF00F7"/>
  <path d="M1458 9V0H1476V9H1458ZM1458 36H1449V9H1458V36ZM1485 36H1476V9H1485V36ZM1476 36V45H1458V36H1476Z" fill="#FF00F7"/>
  <path d="M1530 36V45H1494V0H1530V9H1503V18H1521V27H1503V36H1530Z" fill="#FF00F7"/>
  <path d="M1548 45H1539V0H1548V9H1557V18H1548V45ZM1575 45H1566V27H1557V18H1566V0H1575V45Z" fill="#FF00F7"/>
  <path d="M12 9V0H39V9H12ZM12 45V36H3V9H12V36H30V27H21V18H39V45H12Z" fill="white"/>
  <path d="M57 9V0H75V9H57ZM57 36H48V9H57V36ZM84 36H75V9H84V36ZM75 36V45H57V36H75Z" fill="white"/>
  <path d="M102 9V0H120V9H102ZM102 36H93V9H102V36ZM129 36H120V9H129V36ZM120 36V45H102V36H120Z" fill="white"/>
  <path d="M147 9V0H174V9H147ZM147 45V36H138V9H147V36H165V27H156V18H174V45H147Z" fill="white"/>
  <path d="M210 36V45H183V0H192V36H210Z" fill="white"/>
  <path d="M255 36V45H219V0H255V9H228V18H246V27H228V36H255Z" fill="white"/>
  <path d="M291 36H309V45H282V0H309V9H291V36ZM318 36H309V9H318V36Z" fill="white"/>
  <path d="M363 36V45H327V0H363V9H336V18H354V27H336V36H363Z" fill="white"/>
  <path d="M381 27H372V0H381V27ZM390 27V0H399V27H390ZM390 45H381V27H390V45Z" fill="white"/>
  <path d="M444 36V45H408V0H444V9H417V18H435V27H417V36H444Z" fill="white"/>
  <path d="M480 36V45H453V0H462V36H480Z" fill="white"/>
  <path d="M498 9V0H516V9H498ZM498 36H489V9H498V36ZM525 36H516V9H525V36ZM516 36V45H498V36H516Z" fill="white"/>
  <path d="M543 45H534V0H561V9H543V18H561V27H543V45ZM561 18V9H570V18H561Z" fill="white"/>
  <path d="M615 36V45H579V0H615V9H588V18H606V27H588V36H615Z" fill="white"/>
  <path d="M633 45H624V0H651V9H633V18H651V27H633V45ZM660 18H651V9H660V18ZM660 45H651V27H660V45Z" fill="white"/>
  <path d="M696 9V0H723V9H696ZM696 45V36H687V9H696V36H714V27H705V18H723V45H696Z" fill="white"/>
  <path d="M741 45H732V0H759V9H741V18H759V27H741V45ZM768 18H759V9H768V18ZM768 45H759V27H768V45Z" fill="white"/>
  <path d="M786 9V0H804V9H786ZM786 36H777V9H786V36ZM813 36H804V9H813V36ZM804 36V45H786V36H804Z" fill="white"/>
  <path d="M831 36H822V0H831V36ZM858 36H849V0H858V36ZM849 36V45H831V36H849Z" fill="white"/>
  <path d="M876 45H867V0H894V9H876V18H894V27H876V45ZM894 18V9H903V18H894Z" fill="white"/>
  <path d="M939 9V0H957V9H939ZM939 36H930V9H939V36ZM966 36H957V9H966V36ZM957 36V45H939V36H957Z" fill="white"/>
  <path d="M984 45H975V0H984V9H993V18H984V45ZM1011 45H1002V27H993V18H1002V0H1011V45Z" fill="white"/>
  <path d="M1047 9V0H1065V9H1047ZM1047 36H1038V9H1047V36ZM1065 18V9H1074V18H1065ZM1074 36H1065V27H1074V36ZM1065 36V45H1047V36H1065Z" fill="white"/>
  <path d="M1092 9V0H1110V9H1092ZM1092 45H1083V9H1092V18H1110V9H1119V45H1110V27H1092V45Z" fill="white"/>
  <path d="M1137 45H1128V0H1137V9H1146V18H1137V45ZM1173 45H1164V18H1155V9H1164V0H1173V45ZM1146 27V18H1155V27H1146Z" fill="white"/>
  <path d="M1191 45H1182V0H1209V9H1191V18H1209V27H1191V45ZM1209 18V9H1218V18H1209Z" fill="white"/>
  <path d="M1236 36H1227V0H1236V36ZM1263 36H1254V0H1263V36ZM1254 36V45H1236V36H1254Z" fill="white"/>
  <path d="M1281 9V0H1308V9H1281ZM1272 18V9H1281V18H1272ZM1281 18H1299V27H1281V18ZM1308 36H1299V27H1308V36ZM1299 36V45H1272V36H1299Z" fill="white"/>
  <path d="M1326 45V36H1335V45H1326ZM1317 54V45H1326V54H1317Z" fill="white"/>
  <path d="M1371 9V0H1398V9H1371ZM1371 45V36H1362V9H1371V36H1389V27H1380V18H1398V45H1371Z" fill="white"/>
  <path d="M1416 9V0H1434V9H1416ZM1416 36H1407V9H1416V36ZM1434 18V9H1443V18H1434ZM1443 36H1434V27H1443V36ZM1434 36V45H1416V36H1434Z" fill="white"/>
  <path d="M1461 9V0H1479V9H1461ZM1461 36H1452V9H1461V36ZM1488 36H1479V9H1488V36ZM1479 36V45H1461V36H1479Z" fill="white"/>
  <path d="M1533 36V45H1497V0H1533V9H1506V18H1524V27H1506V36H1533Z" fill="white"/>
  <path d="M1551 45H1542V0H1551V9H1560V18H1551V45ZM1578 45H1569V27H1560V18H1569V0H1578V45Z" fill="white"/>
</svg>