<svg width="340" height="47" viewBox="0 0 340 47" fill="none" xmlns="http://www.w3.org/2000/svg">
<path d="M0.857053 24.2088C-0.924033 20.9014 0.160529 16.6891 3.27949 14.8003L26.2194 0.908847C29.3383 -0.979873 33.3106 0.170228 35.0917 3.47767C36.8728 6.78512 35.7882 10.9974 32.6692 12.8862L9.72937 26.7777C6.61041 28.6664 2.63814 27.5163 0.857053 24.2088Z" fill="#EA4335"/>
<path d="M46.9083 38.5223C45.1272 35.2149 46.2118 31.0026 49.3308 29.1138L72.2706 15.2223C75.3896 13.3336 79.3619 14.4837 81.1429 17.7912C82.924 21.0986 81.8395 25.3109 78.7205 27.1997L55.7807 41.0911C52.6617 42.9799 48.6894 41.8298 46.9083 38.5223Z" fill="#FBBE0C"/>
<path d="M0.915592 17.3343C2.72901 14.0467 6.71235 12.9404 9.81262 14.8635L32.615 29.0072C35.7153 30.9302 36.7585 35.1542 34.9451 38.4419C33.1316 41.7295 29.1483 42.8357 26.048 40.9127L3.24564 26.769C0.145366 24.846 -0.897831 20.6219 0.915592 17.3343Z" fill="#4285F4"/>
<path d="M47.0251 3.5641C48.8385 0.276479 52.8219 -0.829758 55.9221 1.09325L78.7246 15.237C81.8248 17.16 82.868 21.384 81.0546 24.6717C79.2412 27.9593 75.2578 29.0655 72.1576 27.1425L49.3552 12.9988C46.2549 11.0758 45.2117 6.85173 47.0251 3.5641Z" fill="#28A769"/>
<path d="M111.5 36.432C109.1 36.432 107.012 35.88 105.236 34.776C103.484 33.648 102.116 32.112 101.132 30.168C100.172 28.2 99.692 25.956 99.692 23.436C99.692 20.94 100.172 18.708 101.132 16.74C102.092 14.772 103.484 13.224 105.308 12.096C107.132 10.944 109.34 10.368 111.932 10.368C114.764 10.368 117.116 11.052 118.988 12.42C120.884 13.788 122.108 15.672 122.66 18.072H119.168C118.832 16.56 118.028 15.36 116.756 14.472C115.508 13.584 113.9 13.14 111.932 13.14C109.94 13.14 108.26 13.596 106.892 14.508C105.524 15.42 104.492 16.656 103.796 18.216C103.124 19.752 102.788 21.492 102.788 23.436C102.788 25.404 103.136 27.168 103.832 28.728C104.528 30.288 105.536 31.512 106.856 32.4C108.176 33.288 109.76 33.732 111.608 33.732C114.296 33.732 116.324 32.952 117.692 31.392C119.06 29.808 119.84 27.648 120.032 24.912H110.96V22.536H123.128V36H120.356L120.104 31.86C119.192 33.324 118.076 34.452 116.756 35.244C115.436 36.036 113.684 36.432 111.5 36.432ZM126.83 36V10.8H134.57C137.546 10.8 139.982 11.316 141.878 12.348C143.798 13.356 145.214 14.808 146.126 16.704C147.062 18.576 147.53 20.832 147.53 23.472C147.53 26.064 147.062 28.296 146.126 30.168C145.214 32.04 143.798 33.48 141.878 34.488C139.982 35.496 137.546 36 134.57 36H126.83ZM129.854 33.48H134.498C136.898 33.48 138.818 33.096 140.258 32.328C141.722 31.536 142.778 30.396 143.426 28.908C144.074 27.396 144.398 25.584 144.398 23.472C144.398 20.04 143.606 17.496 142.022 15.84C140.438 14.16 137.93 13.32 134.498 13.32H129.854V33.48ZM161.653 36.432C159.253 36.432 157.165 35.88 155.389 34.776C153.637 33.648 152.269 32.112 151.285 30.168C150.325 28.2 149.845 25.956 149.845 23.436C149.845 20.94 150.325 18.708 151.285 16.74C152.245 14.772 153.637 13.224 155.461 12.096C157.285 10.944 159.493 10.368 162.085 10.368C164.917 10.368 167.269 11.052 169.141 12.42C171.037 13.788 172.261 15.672 172.813 18.072H169.321C168.985 16.56 168.181 15.36 166.909 14.472C165.661 13.584 164.053 13.14 162.085 13.14C160.093 13.14 158.413 13.596 157.045 14.508C155.677 15.42 154.645 16.656 153.949 18.216C153.277 19.752 152.941 21.492 152.941 23.436C152.941 25.404 153.289 27.168 153.985 28.728C154.681 30.288 155.689 31.512 157.009 32.4C158.329 33.288 159.913 33.732 161.761 33.732C164.449 33.732 166.477 32.952 167.845 31.392C169.213 29.808 169.993 27.648 170.185 24.912H161.113V22.536H173.281V36H170.509L170.257 31.86C169.345 33.324 168.229 34.452 166.909 35.244C165.589 36.036 163.837 36.432 161.653 36.432ZM188.035 36.432C185.491 36.432 183.319 35.868 181.519 34.74C179.719 33.588 178.351 32.028 177.415 30.06C176.479 28.092 176.011 25.872 176.011 23.4C176.011 20.952 176.467 18.744 177.379 16.776C178.315 14.808 179.683 13.248 181.483 12.096C183.283 10.944 185.467 10.368 188.035 10.368C190.915 10.368 193.255 11.064 195.055 12.456C196.879 13.824 198.043 15.744 198.547 18.216H195.199C194.815 16.656 194.023 15.408 192.823 14.472C191.647 13.512 190.051 13.032 188.035 13.032C186.043 13.032 184.387 13.5 183.067 14.436C181.747 15.348 180.751 16.584 180.079 18.144C179.431 19.704 179.107 21.456 179.107 23.4C179.107 25.392 179.443 27.168 180.115 28.728C180.811 30.288 181.819 31.524 183.139 32.436C184.459 33.324 186.091 33.768 188.035 33.768C190.051 33.768 191.647 33.312 192.823 32.4C194.023 31.464 194.815 30.228 195.199 28.692H198.547C198.043 31.116 196.879 33.012 195.055 34.38C193.255 35.748 190.915 36.432 188.035 36.432Z" fill="#F0F0F0"/>
<path d="M230.5 36.432C228.1 36.432 226.012 35.88 224.236 34.776C222.484 33.648 221.116 32.112 220.132 30.168C219.172 28.2 218.692 25.956 218.692 23.436C218.692 20.94 219.172 18.708 220.132 16.74C221.092 14.772 222.484 13.224 224.308 12.096C226.132 10.944 228.34 10.368 230.932 10.368C233.764 10.368 236.116 11.052 237.988 12.42C239.884 13.788 241.108 15.672 241.66 18.072H238.168C237.832 16.56 237.028 15.36 235.756 14.472C234.508 13.584 232.9 13.14 230.932 13.14C228.94 13.14 227.26 13.596 225.892 14.508C224.524 15.42 223.492 16.656 222.796 18.216C222.124 19.752 221.788 21.492 221.788 23.436C221.788 25.404 222.136 27.168 222.832 28.728C223.528 30.288 224.536 31.512 225.856 32.4C227.176 33.288 228.76 33.732 230.608 33.732C233.296 33.732 235.324 32.952 236.692 31.392C238.06 29.808 238.84 27.648 239.032 24.912H229.96V22.536H242.128V36H239.356L239.104 31.86C238.192 33.324 237.076 34.452 235.756 35.244C234.436 36.036 232.684 36.432 230.5 36.432ZM256.882 36.432C254.338 36.432 252.166 35.868 250.366 34.74C248.566 33.588 247.198 32.028 246.262 30.06C245.326 28.092 244.858 25.872 244.858 23.4C244.858 20.952 245.314 18.744 246.226 16.776C247.162 14.808 248.53 13.248 250.33 12.096C252.13 10.944 254.314 10.368 256.882 10.368C259.762 10.368 262.102 11.064 263.902 12.456C265.726 13.824 266.89 15.744 267.394 18.216H264.046C263.662 16.656 262.87 15.408 261.67 14.472C260.494 13.512 258.898 13.032 256.882 13.032C254.89 13.032 253.234 13.5 251.914 14.436C250.594 15.348 249.598 16.584 248.926 18.144C248.278 19.704 247.954 21.456 247.954 23.4C247.954 25.392 248.29 27.168 248.962 28.728C249.658 30.288 250.666 31.524 251.986 32.436C253.306 33.324 254.938 33.768 256.882 33.768C258.898 33.768 260.494 33.312 261.67 32.4C262.87 31.464 263.662 30.228 264.046 28.692H267.394C266.89 31.116 265.726 33.012 263.902 34.38C262.102 35.748 259.762 36.432 256.882 36.432ZM282.108 36.432C280.188 36.432 278.46 36.108 276.924 35.46C275.388 34.788 274.08 33.864 273 32.688C271.92 31.512 271.092 30.132 270.516 28.548C269.964 26.964 269.688 25.248 269.688 23.4C269.688 21.552 269.964 19.836 270.516 18.252C271.092 16.668 271.92 15.288 273 14.112C274.08 12.936 275.376 12.024 276.888 11.376C278.424 10.704 280.164 10.368 282.108 10.368C284.028 10.368 285.744 10.692 287.256 11.34C288.792 11.964 290.1 12.864 291.18 14.04C292.26 15.192 293.088 16.572 293.664 18.18C294.24 19.764 294.528 21.504 294.528 23.4C294.528 25.296 294.24 27.048 293.664 28.656C293.088 30.24 292.26 31.62 291.18 32.796C290.1 33.948 288.792 34.848 287.256 35.496C285.744 36.12 284.028 36.432 282.108 36.432ZM282.108 33.768C284.076 33.768 285.756 33.324 287.148 32.436C288.54 31.548 289.596 30.324 290.316 28.764C291.06 27.204 291.432 25.416 291.432 23.4C291.432 21.336 291.06 19.536 290.316 18C289.596 16.44 288.54 15.228 287.148 14.364C285.756 13.5 284.076 13.068 282.108 13.068C280.164 13.068 278.496 13.512 277.104 14.4C275.712 15.288 274.644 16.512 273.9 18.072C273.156 19.608 272.784 21.384 272.784 23.4C272.784 25.392 273.156 27.18 273.9 28.764C274.644 30.324 275.712 31.548 277.104 32.436C278.496 33.324 280.164 33.768 282.108 33.768ZM297.811 36V10.8H313.399V13.284H300.835V21.456H311.815V23.904H300.835V33.516H313.399V36H297.811ZM317.051 36V10.8H320.075L333.503 30.996V10.8H336.527V36H333.503L320.075 15.804V36H317.051Z" fill="#F0F0F0"/>
</svg>
