<svg width="82" height="42" viewBox="0 0 82 42" fill="none" xmlns="http://www.w3.org/2000/svg">
<g id="Vector">
<path d="M0.857053 24.2088C-0.924033 20.9014 0.160529 16.6891 3.27949 14.8003L26.2194 0.908847C29.3383 -0.979873 33.3106 0.170228 35.0917 3.47767C36.8728 6.78512 35.7882 10.9974 32.6692 12.8862L9.72937 26.7777C6.61041 28.6664 2.63814 27.5163 0.857053 24.2088Z" fill="#EA4335"/>
<path d="M46.9083 38.5223C45.1272 35.2149 46.2118 31.0026 49.3308 29.1138L72.2706 15.2223C75.3896 13.3336 79.3619 14.4837 81.1429 17.7912C82.924 21.0986 81.8395 25.3109 78.7205 27.1997L55.7807 41.0911C52.6617 42.9799 48.6894 41.8298 46.9083 38.5223Z" fill="#FBBE0C"/>
<path d="M0.915592 17.3343C2.72901 14.0467 6.71235 12.9404 9.81262 14.8635L32.615 29.0072C35.7153 30.9302 36.7585 35.1542 34.9451 38.4419C33.1316 41.7295 29.1483 42.8357 26.048 40.9127L3.24564 26.769C0.145366 24.846 -0.897831 20.6219 0.915592 17.3343Z" fill="#4285F4"/>
<path d="M47.0251 3.5641C48.8385 0.276479 52.8219 -0.829758 55.9221 1.09325L78.7246 15.237C81.8248 17.16 82.868 21.384 81.0546 24.6717C79.2412 27.9593 75.2578 29.0655 72.1576 27.1425L49.3552 12.9988C46.2549 11.0758 45.2117 6.85173 47.0251 3.5641Z" fill="#28A769"/>
</g>
</svg>
