<svg width="78" height="99" viewBox="0 0 78 99" fill="none" xmlns="http://www.w3.org/2000/svg">
<path d="M75.4275 39.047C74.7386 34.1024 73.2458 29.624 70.9496 25.6182C66.9881 18.6987 60.2862 15.2234 53.4419 11.8057C46.9349 8.5602 40.0105 4.90986 32.8474 3.40689C28.4834 3.47542 -2.61674 82.9399 -2.61674 82.9399C-2.61674 82.9399 5.35005 86.5329 11.0945 88.7937C15.1838 90.405 18.5145 92.0039 22.381 93.8243C26.5113 95.7688 30.2391 97.1474 34.6031 97.0794C38.9671 97.0109 43.272 95.9577 47.5088 93.9238C51.7487 91.8864 55.7831 88.9316 59.6227 85.0609C63.4631 81.1867 66.7451 76.5711 69.4738 71.208C72.2025 65.8449 74.0485 60.38 75.0112 54.8135C75.9746 49.247 76.1136 43.9882 75.424 39.0469L75.4275 39.047Z" fill="url(#paint0_linear_533_127)" stroke="#282828" stroke-width="1.8" stroke-miterlimit="10"/>
<path d="M62.7542 32.7213C62.0594 27.7754 60.5556 23.2955 58.2425 19.2883C55.9329 15.2812 52.8695 12.1561 49.0591 9.91638C45.2458 7.6766 32.9296 2.62056 28.5323 2.68475C24.1385 2.75234 -10.3588 70.1505 -8.04574 74.1578C-5.73261 78.1646 -2.73163 82.1655 1.08225 84.4049C4.78266 86.3784 6.18926 86.6516 10.0826 88.4735C14.2421 90.4189 17.2706 90.8286 21.6644 90.761C26.0589 90.6934 30.393 89.6412 34.6584 87.6077C38.9269 85.5707 42.9889 82.6168 46.8543 78.7458C50.7197 74.8718 54.0234 70.2558 56.7697 64.8921C59.516 59.528 61.3737 54.0622 62.3418 48.4947C63.3104 42.9271 63.449 37.6671 62.7513 32.7212L62.7542 32.7213Z" stroke="#282828" stroke-width="1.8" stroke-miterlimit="10"/>
<path d="M48.8838 27.4683C48.1906 22.5109 46.6889 18.0207 44.3825 14.0045C42.0726 9.98814 39.0164 6.85615 35.2074 4.61155C31.4019 2.36706 27.3009 1.28211 22.9117 1.35036C18.5231 1.41863 14.1966 2.47056 9.93274 4.50947C5.66874 6.55167 1.6077 9.51307 -2.2533 13.3935C-6.11137 17.274 -9.41265 21.9044 -12.1563 27.2779C-14.8995 32.6548 -16.7553 38.1335 -17.7238 43.7143C-18.6953 49.2949 -18.8307 54.5674 -18.1376 59.5283C-17.4438 64.4855 -15.942 68.9756 -13.6322 72.9921C-11.3229 77.0081 -8.26668 80.1406 -4.45765 82.3851C-0.651545 84.6296 3.44582 85.7173 7.835 85.6496C12.2236 85.5812 16.5536 84.5295 20.8141 82.487C25.0781 80.4446 29.1356 77.4835 32.9972 73.603C36.8583 69.7189 40.1595 65.0923 42.9027 59.7152C45.6464 54.3384 47.5023 48.8596 48.4708 43.2789C49.4387 37.6981 49.5776 32.4258 48.8809 27.4682L48.8838 27.4683Z" fill="#F0F0F0" stroke="#282828" stroke-width="1.8" stroke-miterlimit="10"/>
<path d="M36.3211 35.0679C34.9758 40.2932 33.0727 45.6442 30.6084 51.1338C28.1448 56.6202 25.4473 61.5054 22.4629 65.916C19.4784 70.3296 16.4767 73.9759 13.4544 76.8514C10.435 79.727 7.51421 81.7309 4.69802 82.8593C1.8819 83.9853 -0.611974 83.9382 -2.75785 82.8409C-4.88489 81.7578 -6.41188 79.7535 -7.36396 76.7038C-8.31601 73.6536 -8.68464 69.9707 -8.4753 65.6616C-8.26654 61.3518 -7.48505 56.5734 -6.13198 51.3254C-4.77903 46.0806 -2.87976 40.7394 -0.433979 35.2951C2.01181 29.8507 4.7488 24.8716 7.7262 20.4773C10.7035 16.0862 13.7012 12.4529 16.7207 9.57412C19.7432 6.69542 22.6638 4.69499 25.4898 3.573C28.3151 2.45099 30.792 2.42843 32.9217 3.51846C35.0683 4.61233 36.6094 6.68568 37.5518 9.72562C38.4941 12.7721 38.8629 16.4485 38.6535 20.7611C38.4447 25.0704 37.6669 29.8426 36.3248 35.0615L36.3184 35.0612L36.3211 35.0679Z" stroke="#282828" stroke-width="1.8" stroke-miterlimit="10"/>
<path d="M-5.10059 16.7764L48.4891 41.9667" stroke="#282828" stroke-width="1.8" stroke-miterlimit="10"/>
<path d="M-17.666 42.6943L36.4695 69.0732" stroke="#282828" stroke-width="1.8" stroke-miterlimit="10"/>
<path d="M32.7995 3.4053L-2.61843 82.9907" stroke="#282828" stroke-width="1.8" stroke-miterlimit="10"/>
<path d="M48.4697 42.5513L74.9917 54.5521" stroke="#282828" stroke-width="1.8" stroke-miterlimit="10"/>
<path d="M45.8369 16.1284L72.3395 28.7139" stroke="#282828" stroke-width="1.8" stroke-miterlimit="10"/>
<path d="M17.8418 83.6704L44.3638 95.6713" stroke="#282828" stroke-width="1.8" stroke-miterlimit="10"/>
<path d="M36.4688 69.0732L62.9713 81.6587" stroke="#282828" stroke-width="1.8" stroke-miterlimit="10"/>
<defs>
<linearGradient id="paint0_linear_533_127" x1="18.4725" y1="85.8026" x2="61.6566" y2="22.3441" gradientUnits="userSpaceOnUse">
<stop stop-color="#4285F4"/>
<stop offset="0.27" stop-color="#4285F4"/>
<stop offset="0.75" stop-color="#34A853"/>
<stop offset="1" stop-color="#34A853"/>
</linearGradient>
</defs>
</svg>
