<svg width="1728" height="277" viewBox="0 0 1728 277" fill="none" xmlns="http://www.w3.org/2000/svg">
<g clip-path="url(#clip0_164_142)">
<rect width="1899.98" height="111.69" transform="translate(-87 165.594) rotate(-5)" fill="#4285F4"/>
<path d="M-46.9611 209.335L-47.4945 203.239L-29.2044 201.639L-28.671 207.735L-46.9611 209.335ZM-52.5244 215.966L-53.0578 209.869L-46.9611 209.335L-46.4277 215.432L-52.5244 215.966ZM-46.4277 215.432L-34.2343 214.365L-33.7009 220.462L-45.8943 221.529L-46.4277 215.432ZM-27.0708 226.025L-33.1675 226.559L-33.7009 220.462L-27.6042 219.929L-27.0708 226.025ZM-33.1675 226.559L-32.6341 232.655L-50.9242 234.256L-51.4576 228.159L-33.1675 226.559ZM-14.7249 224.945L-20.8217 225.479L-21.8884 213.285L-15.7917 212.752L-16.3251 206.655L-10.2284 206.122L-9.69502 212.218L-3.59831 211.685L-3.06491 217.782L-15.2583 218.849L-14.7249 224.945ZM-14.1916 231.042L-14.7249 224.945L-2.53152 223.878L-1.99813 229.975L-14.1916 231.042ZM9.81432 222.798L3.71761 223.332L2.65082 211.138L8.74753 210.605L8.21414 204.508L14.3109 203.975L14.8442 210.072L20.941 209.538L21.4743 215.635L9.28093 216.702L9.81432 222.798ZM10.3477 228.895L9.81432 222.798L22.0077 221.732L22.5411 227.828L10.3477 228.895ZM46.6994 219.571L40.6027 220.105L39.0025 201.815L45.0992 201.281L46.6994 219.571ZM58.8928 218.505L52.7961 219.038L51.196 200.748L57.2927 200.214L58.8928 218.505ZM52.7961 219.038L53.3295 225.135L47.2328 225.668L46.6994 219.571L52.7961 219.038ZM41.6695 232.298L41.1361 226.201L47.2328 225.668L47.7662 231.765L41.6695 232.298ZM70.1719 205.231L69.6385 199.134L75.7352 198.601L76.2686 204.698L70.1719 205.231ZM71.2387 217.424L65.142 217.958L64.0752 205.764L70.1719 205.231L71.2387 217.424ZM83.4321 216.358L77.3354 216.891L76.2686 204.698L82.3653 204.164L83.4321 216.358ZM77.3354 216.891L77.8688 222.988L71.7721 223.521L71.2387 217.424L77.3354 216.891ZM96.3113 221.374L95.778 215.277L89.6812 215.811L88.0811 197.521L94.1778 196.987L95.778 215.277L101.875 214.744L100.274 196.454L106.371 195.921L108.505 220.307L96.3113 221.374ZM133.196 218.147L132.663 212.05L126.566 212.584L125.5 200.39L131.596 199.857L132.663 212.05L138.76 211.517L137.693 199.324L131.596 199.857L131.063 193.76L143.256 192.694L145.39 217.08L133.196 218.147ZM157.202 209.904L151.106 210.437L148.972 186.05L155.069 185.517L155.602 191.613L161.699 191.08L162.232 197.177L156.136 197.71L157.202 209.904ZM157.736 216L157.202 209.904L163.299 209.37L163.832 215.467L157.736 216ZM188.524 213.307L182.427 213.84L179.76 183.356L185.857 182.823L186.924 195.017L199.117 193.95L198.051 181.756L204.147 181.223L206.814 211.706L200.718 212.24L199.651 200.046L187.457 201.113L188.524 213.307ZM219.16 210.626L218.627 204.53L212.53 205.063L211.463 192.87L217.56 192.336L218.627 204.53L224.723 203.996L223.657 191.803L217.56 192.336L217.027 186.239L229.22 185.173L231.354 209.56L219.16 210.626ZM242.099 190.189L241.566 184.093L253.759 183.026L254.293 189.123L242.099 190.189ZM243.166 202.383L237.069 202.916L236.002 190.723L242.099 190.189L243.166 202.383ZM243.699 208.479L243.166 202.383L255.359 201.316L255.893 207.413L243.699 208.479ZM268.239 206.333L262.142 206.866L259.475 176.382L265.572 175.849L266.638 188.042L272.735 187.509L273.269 193.606L267.172 194.139L268.239 206.333ZM272.735 187.509L272.202 181.412L278.298 180.879L278.832 186.976L272.735 187.509ZM280.432 205.266L274.335 205.799L273.269 193.606L279.365 193.072L280.432 205.266ZM285.614 192.526L285.081 186.429L303.371 184.829L303.905 190.925L285.614 192.526ZM315.184 177.652L314.65 171.555L326.844 170.488L327.377 176.585L315.184 177.652ZM316.784 195.942L310.687 196.475L309.087 178.185L315.184 177.652L316.784 195.942ZM335.074 194.342L328.977 194.875L327.377 176.585L333.474 176.052L335.074 194.342ZM328.977 194.875L329.511 200.972L317.317 202.039L316.784 195.942L328.977 194.875ZM347.953 199.358L341.856 199.892L339.723 175.505L351.916 174.438L352.45 180.535L346.353 181.068L347.953 199.358ZM360.147 198.292L354.05 198.825L352.45 180.535L358.546 180.001L360.147 198.292Z" fill="white"/>
<circle cx="390.922" cy="180.04" r="7.65" transform="rotate(-5 390.922 180.04)" fill="white"/>
<path d="M429.126 167.683L428.592 161.587L446.883 159.986L447.416 166.083L429.126 167.683ZM423.562 174.313L423.029 168.217L429.126 167.683L429.659 173.78L423.562 174.313ZM429.659 173.78L441.853 172.713L442.386 178.81L430.193 179.877L429.659 173.78ZM449.016 184.373L442.919 184.907L442.386 178.81L448.483 178.277L449.016 184.373ZM442.919 184.907L443.453 191.003L425.163 192.604L424.629 186.507L442.919 184.907ZM461.362 183.293L455.265 183.827L454.198 171.633L460.295 171.1L459.762 165.003L465.859 164.47L466.392 170.566L472.489 170.033L473.022 176.13L460.829 177.196L461.362 183.293ZM461.895 189.39L461.362 183.293L473.555 182.226L474.089 188.323L461.895 189.39ZM485.901 181.146L479.805 181.68L478.738 169.486L484.834 168.953L484.301 162.856L490.398 162.323L490.931 168.419L497.028 167.886L497.561 173.983L485.368 175.05L485.901 181.146ZM486.435 187.243L485.901 181.146L498.095 180.079L498.628 186.176L486.435 187.243ZM522.786 177.919L516.69 178.453L515.089 160.162L521.186 159.629L522.786 177.919ZM534.98 176.852L528.883 177.386L527.283 159.096L533.38 158.562L534.98 176.852ZM528.883 177.386L529.416 183.483L523.32 184.016L522.786 177.919L528.883 177.386ZM517.756 190.646L517.223 184.549L523.32 184.016L523.853 190.113L517.756 190.646ZM546.259 163.579L545.725 157.482L551.822 156.949L552.356 163.045L546.259 163.579ZM547.326 175.772L541.229 176.306L540.162 164.112L546.259 163.579L547.326 175.772ZM559.519 174.706L553.422 175.239L552.356 163.045L558.452 162.512L559.519 174.706ZM553.422 175.239L553.956 181.336L547.859 181.869L547.326 175.772L553.422 175.239ZM572.398 179.722L571.865 173.625L565.768 174.159L564.168 155.869L570.265 155.335L571.865 173.625L577.962 173.092L576.361 154.802L582.458 154.268L584.592 178.655L572.398 179.722ZM609.283 176.495L608.75 170.398L602.653 170.932L601.586 158.738L607.683 158.205L608.75 170.398L614.847 169.865L613.78 157.672L607.683 158.205L607.15 152.108L619.343 151.041L621.477 175.428L609.283 176.495ZM633.289 168.251L627.193 168.785L625.059 144.398L631.156 143.865L631.689 149.961L637.786 149.428L638.319 155.525L632.222 156.058L633.289 168.251ZM633.823 174.348L633.289 168.251L639.386 167.718L639.919 173.815L633.823 174.348ZM664.611 171.655L658.514 172.188L655.847 141.704L661.944 141.171L663.011 153.364L675.204 152.298L674.137 140.104L680.234 139.571L682.901 170.054L676.804 170.588L675.738 158.394L663.544 159.461L664.611 171.655ZM695.247 168.974L694.714 162.878L688.617 163.411L687.55 151.217L693.647 150.684L694.714 162.878L700.81 162.344L699.744 150.151L693.647 150.684L693.113 144.587L705.307 143.521L707.44 167.907L695.247 168.974ZM718.186 148.537L717.653 142.44L729.846 141.374L730.38 147.47L718.186 148.537ZM719.253 160.731L713.156 161.264L712.089 149.071L718.186 148.537L719.253 160.731ZM719.786 166.827L719.253 160.731L731.446 159.664L731.98 165.761L719.786 166.827ZM744.326 164.68L738.229 165.214L735.562 134.73L741.659 134.197L742.725 146.39L748.822 145.857L749.355 151.954L743.259 152.487L744.326 164.68ZM748.822 145.857L748.289 139.76L754.385 139.227L754.919 145.324L748.822 145.857ZM756.519 163.614L750.422 164.147L749.355 151.954L755.452 151.42L756.519 163.614ZM761.701 150.873L761.168 144.777L779.458 143.177L779.991 149.273L761.701 150.873ZM791.27 136L790.737 129.903L802.931 128.836L803.464 134.933L791.27 136ZM792.871 154.29L786.774 154.823L785.174 136.533L791.27 136L792.871 154.29ZM811.161 152.69L805.064 153.223L803.464 134.933L809.561 134.4L811.161 152.69ZM805.064 153.223L805.597 159.32L793.404 160.387L792.871 154.29L805.064 153.223ZM824.04 157.706L817.943 158.24L815.81 133.853L828.003 132.786L828.537 138.883L822.44 139.416L824.04 157.706ZM836.233 156.64L830.137 157.173L828.537 138.883L834.633 138.349L836.233 156.64Z" fill="white"/>
<circle cx="867.009" cy="138.388" r="7.65" transform="rotate(-5 867.009 138.388)" fill="white"/>
<path d="M905.212 126.031L904.678 119.934L922.968 118.334L923.502 124.431L905.212 126.031ZM899.648 132.661L899.115 126.564L905.212 126.031L905.745 132.128L899.648 132.661ZM905.745 132.128L917.939 131.061L918.472 137.158L906.279 138.224L905.745 132.128ZM925.102 142.721L919.005 143.254L918.472 137.158L924.569 136.624L925.102 142.721ZM919.005 143.254L919.539 149.351L901.249 150.951L900.715 144.854L919.005 143.254ZM937.448 141.641L931.351 142.174L930.284 129.981L936.381 129.447L935.848 123.351L941.944 122.817L942.478 128.914L948.575 128.381L949.108 134.477L936.915 135.544L937.448 141.641ZM937.981 147.738L937.448 141.641L949.641 140.574L950.175 146.671L937.981 147.738ZM961.987 139.494L955.89 140.027L954.824 127.834L960.92 127.3L960.387 121.204L966.484 120.67L967.017 126.767L973.114 126.234L973.647 132.33L961.454 133.397L961.987 139.494ZM962.521 145.591L961.987 139.494L974.181 138.427L974.714 144.524L962.521 145.591ZM998.872 136.267L992.776 136.8L991.175 118.51L997.272 117.977L998.872 136.267ZM1011.07 135.2L1004.97 135.733L1003.37 117.443L1009.47 116.91L1011.07 135.2ZM1004.97 135.733L1005.5 141.83L999.406 142.364L998.872 136.267L1004.97 135.733ZM993.842 148.994L993.309 142.897L999.406 142.364L999.939 148.46L993.842 148.994ZM1022.34 121.927L1021.81 115.83L1027.91 115.296L1028.44 121.393L1022.34 121.927ZM1023.41 134.12L1017.31 134.653L1016.25 122.46L1022.34 121.927L1023.41 134.12ZM1035.6 133.053L1029.51 133.587L1028.44 121.393L1034.54 120.86L1035.6 133.053ZM1029.51 133.587L1030.04 139.683L1023.94 140.217L1023.41 134.12L1029.51 133.587ZM1048.48 138.07L1047.95 131.973L1041.85 132.506L1040.25 114.216L1046.35 113.683L1047.95 131.973L1054.05 131.44L1052.45 113.15L1058.54 112.616L1060.68 137.003L1048.48 138.07ZM1085.37 134.843L1084.84 128.746L1078.74 129.279L1077.67 117.086L1083.77 116.553L1084.84 128.746L1090.93 128.213L1089.87 116.019L1083.77 116.553L1083.24 110.456L1095.43 109.389L1097.56 133.776L1085.37 134.843ZM1109.38 126.599L1103.28 127.133L1101.14 102.746L1107.24 102.212L1107.77 108.309L1113.87 107.776L1114.41 113.872L1108.31 114.406L1109.38 126.599ZM1109.91 132.696L1109.38 126.599L1115.47 126.066L1116.01 132.162L1109.91 132.696ZM1140.7 130.002L1134.6 130.536L1131.93 100.052L1138.03 99.5186L1139.1 111.712L1151.29 110.645L1150.22 98.4519L1156.32 97.9185L1158.99 128.402L1152.89 128.935L1151.82 116.742L1139.63 117.809L1140.7 130.002ZM1171.33 127.322L1170.8 121.225L1164.7 121.759L1163.64 109.565L1169.73 109.032L1170.8 121.225L1176.9 120.692L1175.83 108.498L1169.73 109.032L1169.2 102.935L1181.39 101.868L1183.53 126.255L1171.33 127.322ZM1194.27 106.885L1193.74 100.788L1205.93 99.7214L1206.47 105.818L1194.27 106.885ZM1195.34 119.078L1189.24 119.612L1188.18 107.418L1194.27 106.885L1195.34 119.078ZM1195.87 125.175L1195.34 119.078L1207.53 118.011L1208.07 124.108L1195.87 125.175ZM1220.41 123.028L1214.31 123.561L1211.65 93.0779L1217.74 92.5445L1218.81 104.738L1224.91 104.205L1225.44 110.301L1219.34 110.835L1220.41 123.028ZM1224.91 104.205L1224.37 98.1078L1230.47 97.5744L1231 103.671L1224.91 104.205ZM1232.6 121.961L1226.51 122.495L1225.44 110.301L1231.54 109.768L1232.6 121.961ZM1237.79 109.221L1237.25 103.124L1255.54 101.524L1256.08 107.621L1237.79 109.221ZM1267.36 94.3474L1266.82 88.2507L1279.02 87.1839L1279.55 93.2806L1267.36 94.3474ZM1268.96 112.638L1262.86 113.171L1261.26 94.8808L1267.36 94.3474L1268.96 112.638ZM1287.25 111.037L1281.15 111.571L1279.55 93.2806L1285.65 92.7472L1287.25 111.037ZM1281.15 111.571L1281.68 117.667L1269.49 118.734L1268.96 112.638L1281.15 111.571ZM1300.13 116.054L1294.03 116.587L1291.9 92.2005L1304.09 91.1337L1304.62 97.2304L1298.53 97.7638L1300.13 116.054ZM1312.32 114.987L1306.22 115.521L1304.62 97.2304L1310.72 96.697L1312.32 114.987Z" fill="white"/>
<circle cx="1343.1" cy="96.7354" r="7.65" transform="rotate(-5 1343.1 96.7354)" fill="white"/>
<path d="M1381.3 84.3789L1380.77 78.2822L1399.06 76.682L1399.59 82.7787L1381.3 84.3789ZM1375.74 91.009L1375.2 84.9123L1381.3 84.3789L1381.83 90.4756L1375.74 91.009ZM1381.83 90.4756L1394.03 89.4088L1394.56 95.5055L1382.37 96.5723L1381.83 90.4756ZM1401.19 101.069L1395.09 101.602L1394.56 95.5055L1400.66 94.9721L1401.19 101.069ZM1395.09 101.602L1395.63 107.699L1377.34 109.299L1376.8 103.202L1395.09 101.602ZM1413.53 99.9887L1407.44 100.522L1406.37 88.3287L1412.47 87.7953L1411.93 81.6986L1418.03 81.1652L1418.56 87.2619L1424.66 86.7285L1425.19 92.8252L1413 93.892L1413.53 99.9887ZM1414.07 106.085L1413.53 99.9887L1425.73 98.9219L1426.26 105.019L1414.07 106.085ZM1438.07 97.8418L1431.98 98.3752L1430.91 86.1818L1437.01 85.6484L1436.47 79.5517L1442.57 79.0183L1443.1 85.115L1449.2 84.5816L1449.73 90.6783L1437.54 91.7451L1438.07 97.8418ZM1438.61 103.939L1438.07 97.8418L1450.27 96.775L1450.8 102.872L1438.61 103.939ZM1474.96 94.6148L1468.86 95.1482L1467.26 76.858L1473.36 76.3246L1474.96 94.6148ZM1487.15 93.548L1481.06 94.0814L1479.46 75.7912L1485.55 75.2578L1487.15 93.548ZM1481.06 94.0814L1481.59 100.178L1475.49 100.711L1474.96 94.6148L1481.06 94.0814ZM1469.93 107.342L1469.4 101.245L1475.49 100.711L1476.03 106.808L1469.93 107.342ZM1498.43 80.2744L1497.9 74.1777L1503.99 73.6443L1504.53 79.741L1498.43 80.2744ZM1499.5 92.4679L1493.4 93.0013L1492.33 80.8078L1498.43 80.2744L1499.5 92.4679ZM1511.69 91.4011L1505.6 91.9345L1504.53 79.741L1510.63 79.2077L1511.69 91.4011ZM1505.6 91.9345L1506.13 98.0312L1500.03 98.5646L1499.5 92.4679L1505.6 91.9345ZM1524.57 96.4177L1524.04 90.321L1517.94 90.8543L1516.34 72.5642L1522.44 72.0308L1524.04 90.321L1530.13 89.7876L1528.53 71.4974L1534.63 70.964L1536.76 95.3509L1524.57 96.4177ZM1561.46 93.1906L1560.92 87.0939L1554.83 87.6273L1553.76 75.4339L1559.86 74.9005L1560.92 87.0939L1567.02 86.5605L1565.95 74.3671L1559.86 74.9005L1559.32 68.8038L1571.52 67.737L1573.65 92.1239L1561.46 93.1906ZM1585.46 84.947L1579.37 85.4804L1577.23 61.0936L1583.33 60.5602L1583.86 66.6569L1589.96 66.1235L1590.49 72.2202L1584.4 72.7536L1585.46 84.947ZM1586 91.0437L1585.46 84.947L1591.56 84.4136L1592.09 90.5103L1586 91.0437ZM1616.78 88.3501L1610.69 88.8835L1608.02 58.3999L1614.12 57.8665L1615.18 70.06L1627.38 68.9932L1626.31 56.7998L1632.41 56.2664L1635.07 86.7499L1628.98 87.2833L1627.91 75.0899L1615.72 76.1567L1616.78 88.3501ZM1647.42 85.6698L1646.89 79.5731L1640.79 80.1065L1639.72 67.9131L1645.82 67.3797L1646.89 79.5731L1652.98 79.0397L1651.92 66.8463L1645.82 67.3797L1645.29 61.2829L1657.48 60.2162L1659.61 84.603L1647.42 85.6698ZM1670.36 65.2328L1669.83 59.136L1682.02 58.0693L1682.55 64.166L1670.36 65.2328ZM1671.43 77.4262L1665.33 77.9596L1664.26 65.7661L1670.36 65.2328L1671.43 77.4262ZM1671.96 83.5229L1671.43 77.4262L1683.62 76.3594L1684.15 82.4561L1671.96 83.5229ZM1696.5 81.376L1690.4 81.9094L1687.73 51.4258L1693.83 50.8924L1694.9 63.0858L1700.99 62.5525L1701.53 68.6492L1695.43 69.1826L1696.5 81.376ZM1700.99 62.5525L1700.46 56.4557L1706.56 55.9223L1707.09 62.0191L1700.99 62.5525ZM1708.69 80.3092L1702.6 80.8426L1701.53 68.6492L1707.63 68.1158L1708.69 80.3092ZM1713.87 67.569L1713.34 61.4723L1731.63 59.8722L1732.16 65.9689L1713.87 67.569ZM1743.44 52.6953L1742.91 46.5986L1755.1 45.5318L1755.64 51.6285L1743.44 52.6953ZM1745.04 70.9855L1738.95 71.5188L1737.35 53.2287L1743.44 52.6953L1745.04 70.9855ZM1763.33 69.3853L1757.24 69.9187L1755.64 51.6285L1761.73 51.0951L1763.33 69.3853ZM1757.24 69.9187L1757.77 76.0154L1745.58 77.0822L1745.04 70.9855L1757.24 69.9187ZM1776.21 74.4019L1770.12 74.9353L1767.98 50.5484L1780.18 49.4816L1780.71 55.5783L1774.61 56.1117L1776.21 74.4019ZM1788.41 73.3351L1782.31 73.8685L1780.71 55.5783L1786.81 55.0449L1788.41 73.3351Z" fill="white"/>
<path d="M-342.164 206.749L-342.697 200.653L-324.407 199.052L-323.874 205.149L-342.164 206.749ZM-317.625 204.602L-318.158 198.506L-299.868 196.906L-299.335 203.002L-317.625 204.602ZM-293.085 202.456L-293.619 196.359L-275.329 194.759L-274.795 200.855L-293.085 202.456ZM-268.546 200.309L-269.08 194.212L-250.789 192.612L-250.256 198.708L-268.546 200.309ZM-244.007 198.162L-244.54 192.065L-226.25 190.465L-225.717 196.562L-244.007 198.162ZM-219.468 196.015L-220.001 189.918L-201.711 188.318L-201.178 194.415L-219.468 196.015ZM-194.928 193.868L-195.462 187.771L-177.172 186.171L-176.638 192.268L-194.928 193.868ZM-170.389 191.721L-170.923 185.624L-152.632 184.024L-152.099 190.121L-170.389 191.721ZM-145.85 189.574L-146.383 183.477L-128.093 181.877L-127.56 187.974L-145.85 189.574ZM-121.311 187.427L-121.844 181.33L-103.554 179.73L-103.021 185.827L-121.311 187.427ZM-96.7714 185.28L-97.3048 179.184L-79.0146 177.583L-78.4812 183.68L-96.7714 185.28ZM-72.2321 183.133L-72.7655 177.037L-54.4754 175.436L-53.942 181.533L-72.2321 183.133ZM-47.6928 180.986L-48.2262 174.89L-29.9361 173.29L-29.4027 179.386L-47.6928 180.986ZM-23.1536 178.84L-23.687 172.743L-5.39683 171.143L-4.86344 177.239L-23.1536 178.84ZM1.38569 176.693L0.852297 170.596L19.1424 168.996L19.6758 175.092L1.38569 176.693ZM25.925 174.546L25.3916 168.449L43.6817 166.849L44.2151 172.946L25.925 174.546ZM50.4642 172.399L49.9308 166.302L68.221 164.702L68.7543 170.799L50.4642 172.399ZM75.0035 170.252L74.4701 164.155L92.7602 162.555L93.2936 168.652L75.0035 170.252ZM99.5427 168.105L99.0093 162.008L117.299 160.408L117.833 166.505L99.5427 168.105ZM124.082 165.958L123.549 159.861L141.839 158.261L142.372 164.358L124.082 165.958ZM148.621 163.811L148.088 157.714L166.378 156.114L166.911 162.211L148.621 163.811ZM173.161 161.664L172.627 155.568L190.917 153.967L191.451 160.064L173.161 161.664ZM197.7 159.517L197.166 153.421L215.457 151.82L215.99 157.917L197.7 159.517ZM222.239 157.37L221.706 151.274L239.996 149.674L240.529 155.77L222.239 157.37ZM246.778 155.224L246.245 149.127L264.535 147.527L265.068 153.623L246.778 155.224ZM271.318 153.077L270.784 146.98L289.074 145.38L289.608 151.476L271.318 153.077ZM295.857 150.93L295.323 144.833L313.614 143.233L314.147 149.33L295.857 150.93ZM320.396 148.783L319.863 142.686L338.153 141.086L338.686 147.183L320.396 148.783ZM344.935 146.636L344.402 140.539L362.692 138.939L363.226 145.036L344.935 146.636ZM369.475 144.489L368.941 138.392L387.231 136.792L387.765 142.889L369.475 144.489ZM394.014 142.342L393.481 136.245L411.771 134.645L412.304 140.742L394.014 142.342ZM418.553 140.195L418.02 134.098L436.31 132.498L436.843 138.595L418.553 140.195ZM443.092 138.048L442.559 131.952L460.849 130.351L461.383 136.448L443.092 138.048ZM467.632 135.901L467.098 129.805L485.388 128.205L485.922 134.301L467.632 135.901ZM492.171 133.754L491.638 127.658L509.928 126.058L510.461 132.154L492.171 133.754ZM516.71 131.608L516.177 125.511L534.467 123.911L535 130.007L516.71 131.608ZM541.249 129.461L540.716 123.364L559.006 121.764L559.54 127.86L541.249 129.461ZM565.789 127.314L565.255 121.217L583.545 119.617L584.079 125.714L565.789 127.314ZM590.328 125.167L589.795 119.07L608.085 117.47L608.618 123.567L590.328 125.167ZM614.867 123.02L614.334 116.923L632.624 115.323L633.157 121.42L614.867 123.02ZM639.407 120.873L638.873 114.776L657.163 113.176L657.697 119.273L639.407 120.873ZM663.946 118.726L663.412 112.629L681.703 111.029L682.236 117.126L663.946 118.726ZM688.485 116.579L687.952 110.483L706.242 108.882L706.775 114.979L688.485 116.579ZM713.024 114.432L712.491 108.336L730.781 106.735L731.314 112.832L713.024 114.432ZM737.564 112.285L737.03 106.189L755.32 104.589L755.854 110.685L737.564 112.285ZM762.103 110.139L761.569 104.042L779.86 102.442L780.393 108.538L762.103 110.139ZM786.642 107.992L786.109 101.895L804.399 100.295L804.932 106.391L786.642 107.992ZM811.181 105.845L810.648 99.748L828.938 98.1478L829.472 104.245L811.181 105.845ZM835.721 103.698L835.187 97.6011L853.477 96.0009L854.011 102.098L835.721 103.698ZM860.26 101.551L859.727 95.4542L878.017 93.854L878.55 99.9507L860.26 101.551ZM884.799 99.404L884.266 93.3073L902.556 91.7071L903.089 97.8038L884.799 99.404ZM909.338 97.2571L908.805 91.1604L927.095 89.5602L927.629 95.6569L909.338 97.2571ZM933.878 95.1102L933.344 89.0134L951.635 87.4133L952.168 93.51L933.878 95.1102ZM958.417 92.9632L957.884 86.8665L976.174 85.2664L976.707 91.3631L958.417 92.9632ZM982.956 90.8163L982.423 84.7196L1000.71 83.1194L1001.25 89.2162L982.956 90.8163ZM1007.5 88.6694L1006.96 82.5727L1025.25 80.9725L1025.79 87.0693L1007.5 88.6694ZM1032.03 86.5225L1031.5 80.4258L1049.79 78.8256L1050.32 84.9223L1032.03 86.5225ZM1056.57 84.3756L1056.04 78.2789L1074.33 76.6787L1074.86 82.7754L1056.57 84.3756ZM1081.11 82.2287L1080.58 76.132L1098.87 74.5318L1099.4 80.6285L1081.11 82.2287ZM1105.65 80.0818L1105.12 73.9851L1123.41 72.3849L1123.94 78.4816L1105.65 80.0818ZM1130.19 77.9349L1129.66 71.8382L1147.95 70.238L1148.48 76.3347L1130.19 77.9349ZM1154.73 75.788L1154.2 69.6913L1172.49 68.0911L1173.02 74.1878L1154.73 75.788ZM1179.27 73.6411L1178.74 67.5444L1197.03 65.9442L1197.56 72.0409L1179.27 73.6411ZM1203.81 71.4942L1203.28 65.3975L1221.57 63.7973L1222.1 69.894L1203.81 71.4942ZM1228.35 69.3473L1227.82 63.2506L1246.11 61.6504L1246.64 67.7471L1228.35 69.3473ZM1252.89 67.2004L1252.35 61.1036L1270.64 59.5035L1271.18 65.6002L1252.89 67.2004ZM1277.43 65.0535L1276.89 58.9567L1295.18 57.3566L1295.72 63.4533L1277.43 65.0535ZM1301.97 62.9065L1301.43 56.8098L1319.72 55.2096L1320.26 61.3064L1301.97 62.9065ZM1326.51 60.7596L1325.97 54.6629L1344.26 53.0627L1344.8 59.1595L1326.51 60.7596ZM1351.05 58.6127L1350.51 52.516L1368.8 50.9158L1369.34 57.0125L1351.05 58.6127ZM1375.58 56.4658L1375.05 50.3691L1393.34 48.7689L1393.87 54.8656L1375.58 56.4658ZM1400.12 54.3189L1399.59 48.2222L1417.88 46.622L1418.41 52.7187L1400.12 54.3189ZM1424.66 52.172L1424.13 46.0753L1442.42 44.4751L1442.95 50.5718L1424.66 52.172ZM1449.2 50.0251L1448.67 43.9284L1466.96 42.3282L1467.49 48.4249L1449.2 50.0251ZM1473.74 47.8782L1473.21 41.7815L1491.5 40.1813L1492.03 46.278L1473.74 47.8782ZM1498.28 45.7313L1497.75 39.6346L1516.04 38.0344L1516.57 44.1311L1498.28 45.7313ZM1522.82 43.5844L1522.29 37.4877L1540.58 35.8875L1541.11 41.9842L1522.82 43.5844ZM1547.36 41.4375L1546.83 35.3408L1565.12 33.7406L1565.65 39.8373L1547.36 41.4375ZM1571.9 39.2906L1571.37 33.1938L1589.66 31.5937L1590.19 37.6904L1571.9 39.2906ZM1596.44 37.1437L1595.9 31.0469L1614.19 29.4468L1614.73 35.5435L1596.44 37.1437ZM1620.98 34.9967L1620.44 28.9L1638.73 27.2999L1639.27 33.3966L1620.98 34.9967ZM1645.52 32.8498L1644.98 26.7531L1663.27 25.1529L1663.81 31.2497L1645.52 32.8498ZM1670.06 30.7029L1669.52 24.6062L1687.81 23.006L1688.35 29.1027L1670.06 30.7029ZM1694.59 28.556L1694.06 22.4593L1712.35 20.8591L1712.89 26.9558L1694.59 28.556ZM1719.13 26.4091L1718.6 20.3124L1736.89 18.7122L1737.42 24.8089L1719.13 26.4091ZM1743.67 24.2622L1743.14 18.1655L1761.43 16.5653L1761.96 22.662L1743.67 24.2622ZM1768.21 22.1153L1767.68 16.0186L1785.97 14.4184L1786.5 20.5151L1768.21 22.1153ZM1792.75 19.9684L1792.22 13.8717L1810.51 12.2715L1811.04 18.3682L1792.75 19.9684ZM1817.29 17.8215L1816.76 11.7248L1835.05 10.1246L1835.58 16.2213L1817.29 17.8215ZM1841.83 15.6746L1841.3 9.57787L1859.59 7.97769L1860.12 14.0744L1841.83 15.6746ZM1866.37 13.5277L1865.84 7.43096L1884.13 5.83078L1884.66 11.9275L1866.37 13.5277ZM1890.91 11.3808L1890.38 5.28405L1908.67 3.68387L1909.2 9.78058L1890.91 11.3808ZM1915.45 9.23387L1914.91 3.13716L1933.2 1.53698L1933.74 7.63369L1915.45 9.23387ZM1939.99 7.08696L1939.45 0.990244L1957.74 -0.609936L1958.28 5.48678L1939.99 7.08696ZM1964.53 4.94004L1963.99 -1.15667L1982.28 -2.75685L1982.82 3.33986L1964.53 4.94004ZM1989.07 2.79313L1988.53 -3.30358L2006.82 -4.90376L2007.36 1.19295L1989.07 2.79313ZM2013.61 0.646218L2013.07 -5.45049L2031.36 -7.05067L2031.9 -0.953961L2013.61 0.646218ZM2038.14 -1.50067L2037.61 -7.59738L2055.9 -9.19756L2056.43 -3.10085L2038.14 -1.50067Z" fill="white"/>
<path d="M-199.633 275.679L-200.166 269.582L-181.876 267.982L-181.343 274.079L-199.633 275.679ZM-175.093 273.532L-175.627 267.436L-157.337 265.835L-156.803 271.932L-175.093 273.532ZM-150.554 271.385L-151.088 265.289L-132.797 263.688L-132.264 269.785L-150.554 271.385ZM-126.015 269.238L-126.548 263.142L-108.258 261.542L-107.725 267.638L-126.015 269.238ZM-101.476 267.092L-102.009 260.995L-83.7189 259.395L-83.1855 265.491L-101.476 267.092ZM-76.9364 264.945L-77.4698 258.848L-59.1796 257.248L-58.6462 263.344L-76.9364 264.945ZM-52.3971 262.798L-52.9305 256.701L-34.6404 255.101L-34.107 261.198L-52.3971 262.798ZM-27.8578 260.651L-28.3912 254.554L-10.1011 252.954L-9.56771 259.051L-27.8578 260.651ZM-3.31858 258.504L-3.85197 252.407L14.4382 250.807L14.9716 256.904L-3.31858 258.504ZM21.2207 256.357L20.6873 250.26L38.9774 248.66L39.5108 254.757L21.2207 256.357ZM45.76 254.21L45.2266 248.113L63.5167 246.513L64.0501 252.61L45.76 254.21ZM70.2992 252.063L69.7658 245.966L88.0559 244.366L88.5893 250.463L70.2992 252.063ZM94.8385 249.916L94.3051 243.82L112.595 242.219L113.129 248.316L94.8385 249.916ZM119.378 247.769L118.844 241.673L137.134 240.072L137.668 246.169L119.378 247.769ZM143.917 245.622L143.384 239.526L161.674 237.926L162.207 244.022L143.917 245.622ZM168.456 243.476L167.923 237.379L186.213 235.779L186.746 241.875L168.456 243.476ZM192.996 241.329L192.462 235.232L210.752 233.632L211.286 239.728L192.996 241.329ZM217.535 239.182L217.001 233.085L235.292 231.485L235.825 237.582L217.535 239.182ZM242.074 237.035L241.541 230.938L259.831 229.338L260.364 235.435L242.074 237.035ZM266.613 234.888L266.08 228.791L284.37 227.191L284.903 233.288L266.613 234.888ZM291.153 232.741L290.619 226.644L308.909 225.044L309.443 231.141L291.153 232.741ZM315.692 230.594L315.158 224.497L333.449 222.897L333.982 228.994L315.692 230.594ZM340.231 228.447L339.698 222.351L357.988 220.75L358.521 226.847L340.231 228.447ZM364.77 226.3L364.237 220.204L382.527 218.603L383.06 224.7L364.77 226.3ZM389.31 224.153L388.776 218.057L407.066 216.457L407.6 222.553L389.31 224.153ZM413.849 222.006L413.316 215.91L431.606 214.31L432.139 220.406L413.849 222.006ZM438.388 219.86L437.855 213.763L456.145 212.163L456.678 218.259L438.388 219.86ZM462.927 217.713L462.394 211.616L480.684 210.016L481.218 216.112L462.927 217.713ZM487.467 215.566L486.933 209.469L505.223 207.869L505.757 213.966L487.467 215.566ZM512.006 213.419L511.473 207.322L529.763 205.722L530.296 211.819L512.006 213.419ZM536.545 211.272L536.012 205.175L554.302 203.575L554.835 209.672L536.545 211.272ZM561.084 209.125L560.551 203.028L578.841 201.428L579.375 207.525L561.084 209.125ZM585.624 206.978L585.09 200.881L603.38 199.281L603.914 205.378L585.624 206.978ZM610.163 204.831L609.63 198.735L627.92 197.134L628.453 203.231L610.163 204.831ZM634.702 202.684L634.169 196.588L652.459 194.987L652.992 201.084L634.702 202.684ZM659.242 200.537L658.708 194.441L676.998 192.841L677.532 198.937L659.242 200.537ZM683.781 198.391L683.247 192.294L701.538 190.694L702.071 196.79L683.781 198.391ZM708.32 196.244L707.787 190.147L726.077 188.547L726.61 194.643L708.32 196.244ZM732.859 194.097L732.326 188L750.616 186.4L751.149 192.497L732.859 194.097ZM757.399 191.95L756.865 185.853L775.155 184.253L775.689 190.35L757.399 191.95ZM781.938 189.803L781.405 183.706L799.695 182.106L800.228 188.203L781.938 189.803ZM806.477 187.656L805.944 181.559L824.234 179.959L824.767 186.056L806.477 187.656ZM831.016 185.509L830.483 179.412L848.773 177.812L849.306 183.909L831.016 185.509ZM855.556 183.362L855.022 177.265L873.312 175.665L873.846 181.762L855.556 183.362ZM880.095 181.215L879.561 175.119L897.852 173.518L898.385 179.615L880.095 181.215ZM904.634 179.068L904.101 172.972L922.391 171.371L922.924 177.468L904.634 179.068ZM929.173 176.921L928.64 170.825L946.93 169.225L947.464 175.321L929.173 176.921ZM953.713 174.775L953.179 168.678L971.469 167.078L972.003 173.174L953.713 174.775ZM978.252 172.628L977.719 166.531L996.009 164.931L996.542 171.027L978.252 172.628ZM1002.79 170.481L1002.26 164.384L1020.55 162.784L1021.08 168.881L1002.79 170.481ZM1027.33 168.334L1026.8 162.237L1045.09 160.637L1045.62 166.734L1027.33 168.334ZM1051.87 166.187L1051.34 160.09L1069.63 158.49L1070.16 164.587L1051.87 166.187ZM1076.41 164.04L1075.88 157.943L1094.17 156.343L1094.7 162.44L1076.41 164.04ZM1100.95 161.893L1100.41 155.796L1118.71 154.196L1119.24 160.293L1100.95 161.893ZM1125.49 159.746L1124.95 153.649L1143.24 152.049L1143.78 158.146L1125.49 159.746ZM1150.03 157.599L1149.49 151.503L1167.78 149.902L1168.32 155.999L1150.03 157.599ZM1174.57 155.452L1174.03 149.356L1192.32 147.755L1192.86 153.852L1174.57 155.452ZM1199.11 153.305L1198.57 147.209L1216.86 145.609L1217.4 151.705L1199.11 153.305ZM1223.64 151.159L1223.11 145.062L1241.4 143.462L1241.93 149.558L1223.64 151.159ZM1248.18 149.012L1247.65 142.915L1265.94 141.315L1266.47 147.411L1248.18 149.012ZM1272.72 146.865L1272.19 140.768L1290.48 139.168L1291.01 145.265L1272.72 146.865ZM1297.26 144.718L1296.73 138.621L1315.02 137.021L1315.55 143.118L1297.26 144.718ZM1321.8 142.571L1321.27 136.474L1339.56 134.874L1340.09 140.971L1321.8 142.571ZM1346.34 140.424L1345.81 134.327L1364.1 132.727L1364.63 138.824L1346.34 140.424ZM1370.88 138.277L1370.35 132.18L1388.64 130.58L1389.17 136.677L1370.88 138.277ZM1395.42 136.13L1394.89 130.033L1413.18 128.433L1413.71 134.53L1395.42 136.13ZM1419.96 133.983L1419.43 127.887L1437.72 126.286L1438.25 132.383L1419.96 133.983ZM1444.5 131.836L1443.96 125.74L1462.25 124.139L1462.79 130.236L1444.5 131.836ZM1469.04 129.689L1468.5 123.593L1486.79 121.993L1487.33 128.089L1469.04 129.689ZM1493.58 127.543L1493.04 121.446L1511.33 119.846L1511.87 125.942L1493.58 127.543ZM1518.12 125.396L1517.58 119.299L1535.87 117.699L1536.41 123.795L1518.12 125.396ZM1542.66 123.249L1542.12 117.152L1560.41 115.552L1560.95 121.649L1542.66 123.249ZM1567.19 121.102L1566.66 115.005L1584.95 113.405L1585.48 119.502L1567.19 121.102ZM1591.73 118.955L1591.2 112.858L1609.49 111.258L1610.02 117.355L1591.73 118.955ZM1616.27 116.808L1615.74 110.711L1634.03 109.111L1634.56 115.208L1616.27 116.808ZM1640.81 114.661L1640.28 108.564L1658.57 106.964L1659.1 113.061L1640.81 114.661ZM1665.35 112.514L1664.82 106.418L1683.11 104.817L1683.64 110.914L1665.35 112.514ZM1689.89 110.367L1689.36 104.271L1707.65 102.67L1708.18 108.767L1689.89 110.367ZM1714.43 108.22L1713.9 102.124L1732.19 100.524L1732.72 106.62L1714.43 108.22ZM1738.97 106.073L1738.44 99.9768L1756.73 98.3766L1757.26 104.473L1738.97 106.073ZM1763.51 103.927L1762.98 97.8299L1781.27 96.2297L1781.8 102.326L1763.51 103.927ZM1788.05 101.78L1787.51 95.683L1805.8 94.0828L1806.34 100.18L1788.05 101.78ZM1812.59 99.6328L1812.05 93.5361L1830.34 91.9359L1830.88 98.0326L1812.59 99.6328ZM1837.13 97.4859L1836.59 91.3892L1854.88 89.789L1855.42 95.8857L1837.13 97.4859ZM1861.67 95.339L1861.13 89.2423L1879.42 87.6421L1879.96 93.7388L1861.67 95.339ZM1886.2 93.1921L1885.67 87.0953L1903.96 85.4952L1904.49 91.5919L1886.2 93.1921ZM1910.74 91.0451L1910.21 84.9484L1928.5 83.3482L1929.03 89.445L1910.74 91.0451Z" fill="white"/>
</g>
<defs>
<clipPath id="clip0_164_142">
<rect width="1899.98" height="111.69" fill="white" transform="translate(-87 165.594) rotate(-5)"/>
</clipPath>
</defs>
</svg>
