<svg width="1728" height="887" viewBox="0 0 1728 887" fill="none" xmlns="http://www.w3.org/2000/svg">
<path d="M-93.5032 429.671C-93.5032 429.671 466.619 349.099 818.612 266.724C1180.16 182.112 1729.89 0.171875 1729.89 0.171875L1746.95 177.335C1746.95 177.335 1189.21 302.411 827.798 362.12C471.86 420.925 -88.5067 481.562 -88.5067 481.562L-93.5032 429.671Z" fill="#468EF5"/>
<path d="M1764.01 354.499L-83.5101 533.453L-88.5067 481.562C-88.5067 481.562 471.86 420.925 827.798 362.12C1189.21 302.411 1746.95 177.335 1746.95 177.335L1764.01 354.499Z" fill="#38A852"/>
<path d="M1798.13 708.826C1798.13 708.826 1211.3 636.12 832.352 623.013C479.064 610.794 -73.517 637.235 -73.517 637.235L-78.5136 585.344C-78.5136 585.344 483.795 546.672 844.554 536.138C1210.25 525.461 1781.07 531.662 1781.07 531.662L1798.13 708.826Z" fill="#FFBA03"/>
<path d="M-83.5101 533.453L1764.01 354.499L1781.07 531.662C1781.07 531.662 1210.25 525.461 844.554 536.138C483.795 546.672 -78.5136 585.344 -78.5136 585.344L-83.5101 533.453Z" fill="#FF554E"/>
<path d="M-86.7801 482.38L-87.4166 482.449L-82.6106 532.361L1762.92 353.6L1746.06 178.559L1745.56 178.672C1744.49 178.91 1742.9 179.265 1740.82 179.731C1736.64 180.661 1730.48 182.034 1722.5 183.803C1706.54 187.339 1683.34 192.459 1654.37 198.788C1596.43 211.448 1515.42 228.948 1423.11 248.315C1238.5 287.048 1008.69 333.248 827.961 363.107C649.97 392.512 420.876 422.375 236.29 444.885C143.995 456.141 62.823 465.558 4.72499 472.162C-24.324 475.464 -47.6046 478.062 -63.6233 479.835C-71.6325 480.722 -77.8263 481.402 -82.0179 481.86C-84.1136 482.09 -85.7089 482.264 -86.7801 482.38ZM-87.6083 480.458L-86.9965 480.392C-85.9256 480.275 -84.3308 480.102 -82.2353 479.872C-78.0446 479.414 -71.8517 478.734 -63.8432 477.847C-47.8264 476.075 -24.5477 473.476 4.49918 470.175C62.593 463.571 143.759 454.154 236.048 442.9C420.629 420.39 649.688 390.532 827.635 361.133C1008.32 331.282 1238.09 285.09 1422.7 246.358C1515 226.992 1596.01 209.493 1653.94 196.834C1682.91 190.505 1706.11 185.386 1722.06 181.85C1730.04 180.082 1736.21 178.709 1740.38 177.779C1742.47 177.313 1744.06 176.958 1745.12 176.72L1745.87 176.552L1729.02 1.51425C1728.89 1.55505 1728.76 1.59898 1728.62 1.64602C1727.57 1.99295 1726 2.50904 1723.94 3.18575C1719.83 4.53919 1713.75 6.53515 1705.88 9.10547C1690.14 14.2461 1667.25 21.6842 1638.65 30.8742C1581.46 49.2542 1501.45 74.6422 1410.13 102.675C1227.5 158.737 999.651 225.384 818.84 267.698C642.81 308.893 414.754 349.634 230.72 380.075C138.7 395.295 57.6811 407.942 -0.333567 416.783C-29.3409 421.203 -52.5971 424.673 -68.6018 427.037C-76.6042 428.219 -82.7937 429.125 -86.9826 429.735C-89.0772 430.04 -90.6716 430.272 -91.7425 430.427L-92.4164 430.524L-87.6083 480.458ZM1763.11 355.591L-82.4189 534.352L-77.6114 584.28L-76.9577 584.235C-75.8826 584.161 -74.2817 584.052 -72.1783 583.909C-67.9715 583.623 -61.7547 583.203 -53.7141 582.664C-37.6333 581.586 -14.2583 580.034 14.9191 578.139C73.2738 574.349 154.838 569.185 247.676 563.693C433.35 552.708 664.129 540.406 844.525 535.139C1027.39 529.8 1261.53 528.681 1449.95 528.896C1544.16 529.004 1626.94 529.446 1686.17 529.86C1715.79 530.067 1739.51 530.268 1755.84 530.417C1764 530.491 1770.31 530.552 1774.58 530.595C1776.71 530.617 1778.34 530.633 1779.43 530.645L1779.97 530.65L1763.11 355.591ZM-76.8213 586.23L-77.4197 586.271L-72.6129 636.191L-71.9681 636.161L-70.6205 636.097C-69.7093 636.055 -68.5908 636.003 -67.2711 635.942C-63.1371 635.751 -57.028 635.473 -49.1275 635.124C-33.3265 634.424 -10.3598 633.439 18.3041 632.295C75.6318 630.007 155.749 627.084 246.907 624.542C429.217 619.459 655.71 615.903 832.386 622.014C1021.89 628.568 1263.37 650.024 1457.45 669.84C1554.49 679.748 1639.69 689.246 1700.63 696.267C1731.1 699.778 1755.5 702.669 1772.29 704.683C1780.69 705.69 1787.18 706.478 1791.57 707.013C1793.76 707.281 1795.43 707.486 1796.56 707.624C1796.72 707.644 1796.87 707.663 1797.01 707.681L1780.16 532.653L1779.41 532.645C1778.32 532.633 1776.69 532.617 1774.56 532.595C1770.29 532.552 1763.98 532.491 1755.82 532.417C1739.5 532.268 1715.77 532.067 1686.16 531.86C1626.93 531.446 1544.15 531.004 1449.95 530.896C1261.53 530.681 1027.42 531.8 844.583 537.138C664.219 542.404 433.465 554.705 247.794 565.689C154.961 571.182 73.4005 576.345 15.0487 580.135C-14.1271 582.03 -37.5008 583.581 -53.5804 584.659C-61.6202 585.198 -67.8365 585.619 -72.0427 585.905C-74.1459 586.048 -75.7465 586.157 -76.8213 586.23Z" stroke="black" stroke-width="2"/>
<mask id="path-3-inside-1_352_62" fill="white">
<path d="M144.45 647.879C143.345 647.894 142.438 647.01 142.424 645.906L138.204 326.655C138.189 325.55 139.073 324.643 140.177 324.628L199.443 323.845C200.548 323.83 201.455 324.714 201.47 325.818L203.016 442.807C203.031 443.911 203.938 444.795 205.042 444.78L313.56 443.346C314.664 443.331 315.548 442.424 315.533 441.32L313.987 324.331C313.972 323.227 314.856 322.32 315.96 322.305L374.826 321.527C375.93 321.512 376.838 322.396 376.852 323.5L381.072 642.752C381.086 643.856 380.203 644.763 379.099 644.778L320.233 645.556C319.128 645.57 318.221 644.687 318.207 643.582L316.416 508.122C316.401 507.018 315.494 506.134 314.39 506.149L205.872 507.583C204.768 507.598 203.884 508.505 203.899 509.61L205.689 645.07C205.704 646.174 204.821 647.081 203.716 647.096L144.45 647.879Z"/>
<path d="M464.418 649.192C452.939 649.344 442.227 646.869 432.28 641.766C422.33 636.355 414.218 628.61 407.944 618.532C401.933 608.142 398.83 595.559 398.635 580.782C398.411 563.85 402.1 550.099 409.703 539.529C417.302 528.652 427.476 520.666 440.224 515.571C453.239 510.472 467.488 507.82 482.971 507.616L525.818 507.049C526.922 507.035 527.809 506.127 527.766 505.023C527.486 497.837 526.208 491.439 523.933 485.828C521.449 479.703 517.783 474.979 512.933 471.656C508.079 468.025 502.048 466.257 494.841 466.353C487.366 466.451 480.584 468.389 474.493 472.164C468.782 475.704 465.096 481.518 463.436 489.606C463.241 490.554 462.426 491.26 461.458 491.273L405.599 492.011C404.445 492.026 403.516 491.063 403.596 489.912C404.72 473.873 409.424 460.048 417.711 448.436C426.357 436.005 437.442 426.313 450.967 419.36C464.759 412.404 479.529 408.822 495.279 408.613C513.698 408.37 529.901 412.159 543.888 419.979C558.138 427.489 569.231 438.581 577.168 453.256C585.1 467.623 589.203 485.12 589.476 505.746L590.251 564.393C590.34 571.166 591.21 576.389 592.861 580.062C594.601 583.393 598.631 585.171 604.949 585.397C606.053 585.437 606.961 586.314 606.975 587.418L607.667 639.756C607.682 640.861 606.797 641.769 605.692 641.775C593.763 641.841 583.74 641.052 575.624 639.409C567.057 637.675 559.805 634.384 553.867 629.535C548.575 624.944 543.683 618.515 539.19 610.25C538.447 608.884 536.489 608.79 535.622 610.08C527.402 622.301 517.77 631.765 506.727 638.472C494.804 645.404 480.701 648.977 464.418 649.192ZM485.32 594.416C493.061 594.313 500.111 592.373 506.469 588.594C513.089 584.504 518.355 578.892 522.266 571.758C526.176 564.624 528.072 556.593 527.954 547.666L527.944 546.895C527.93 545.79 527.022 544.907 525.918 544.921L489.878 545.398C484.539 545.468 479.613 546.457 475.099 548.364C470.582 549.963 467.013 552.628 464.392 556.357C461.767 559.779 460.496 564.569 460.577 570.726C460.695 579.654 463.314 585.931 468.435 589.558C473.552 592.878 479.18 594.497 485.32 594.416Z"/>
<path d="M717.869 645.842C697.848 646.107 680.164 641.414 664.818 631.764C649.472 622.114 637.277 608.419 628.232 590.679C619.449 572.629 614.897 551.443 614.576 527.122C614.267 503.725 618.132 483.044 626.171 465.079C634.206 446.806 645.765 432.489 660.846 422.129C675.924 411.46 693.873 405.988 714.695 405.713C738.186 405.403 758.834 412.212 776.64 426.14C793.972 439.402 805.967 460.615 812.626 489.779C812.907 491.01 811.976 492.182 810.713 492.199L748.576 493.02C747.692 493.032 746.909 492.46 746.624 491.623C743.84 483.447 739.769 477.355 734.412 473.347C729.012 468.8 722.308 466.579 714.299 466.685C705.49 466.801 698.319 469.667 692.787 475.283C687.521 480.895 683.612 488.183 681.061 497.146C678.776 506.105 677.703 515.819 677.842 526.286C677.976 536.445 679.305 546.127 681.83 555.331C684.617 564.224 688.717 571.405 694.129 576.876C699.808 582.343 707.053 585.019 715.862 584.902C723.87 584.797 730.513 582.399 735.791 577.711C741.031 573.277 744.936 567.073 747.506 559.1C747.775 558.265 748.539 557.682 749.416 557.671L811.573 556.849C812.834 556.832 813.796 557.975 813.549 559.212C809.987 577.001 803.944 592.142 795.419 604.635C786.514 617.685 775.434 627.839 762.181 635.096C749.19 642.041 734.419 645.624 717.869 645.842Z"/>
<path d="M835.625 638.744C834.521 638.758 833.613 637.875 833.599 636.77L829.379 317.519C829.365 316.415 830.248 315.507 831.353 315.493L889.017 314.731C890.122 314.716 891.029 315.599 891.043 316.704L893.381 493.542C893.407 495.537 896.018 496.267 897.076 494.575L950.545 409.056C950.905 408.479 951.534 408.125 952.214 408.116L1023.3 407.177C1024.93 407.155 1025.9 408.987 1024.97 410.323L947.85 520.615C947.354 521.325 947.371 522.272 947.891 522.964L1030.66 632.984C1031.65 634.293 1030.73 636.165 1029.09 636.186L957.658 637.131C956.97 637.14 956.326 636.795 955.953 636.218L897.772 546.342C896.682 544.658 894.067 545.449 894.093 547.456L895.263 635.955C895.278 637.06 894.394 637.967 893.29 637.981L835.625 638.744Z"/>
<path d="M1270.76 638.535C1251.54 638.789 1233.07 635.184 1215.35 627.72C1197.9 620.253 1182.13 609.377 1168.06 595.091C1154.26 580.801 1143.21 563.396 1134.93 542.876C1126.92 522.352 1122.74 499.16 1122.4 473.299C1122.06 447.439 1125.62 424.145 1133.09 403.416C1140.82 382.684 1151.4 364.993 1164.83 350.344C1178.52 335.691 1193.99 324.402 1211.24 316.476C1228.75 308.547 1247.12 304.455 1266.34 304.201C1285.56 303.947 1304.03 307.552 1321.75 315.015C1339.47 322.479 1355.23 333.355 1369.04 347.645C1383.11 361.93 1394.29 379.334 1402.57 399.854C1410.85 420.375 1415.16 443.565 1415.5 469.425C1415.84 495.285 1412.15 518.582 1404.41 539.314C1396.68 560.046 1385.96 577.739 1372.27 592.392C1358.85 607.041 1343.38 618.33 1325.86 626.26C1308.35 634.189 1289.98 638.281 1270.76 638.535ZM1269.89 572.499C1282.97 572.326 1295.73 568.463 1308.18 560.908C1320.63 553.354 1330.76 542.135 1338.57 527.252C1346.65 512.057 1350.54 493.07 1350.23 470.288C1349.93 447.199 1345.54 428.32 1337.07 413.652C1328.6 398.677 1318.04 387.731 1305.4 380.816C1292.76 373.594 1280.03 370.067 1267.21 370.236C1254.4 370.406 1241.77 374.268 1229.32 381.822C1217.13 389.065 1207 400.284 1198.93 415.478C1191.11 430.361 1187.36 449.347 1187.67 472.437C1187.97 495.218 1192.22 514.099 1200.43 529.078C1208.63 543.749 1218.92 554.698 1231.3 561.924C1243.94 569.147 1256.81 572.672 1269.89 572.499Z"/>
<path d="M1442.12 630.727C1441.01 630.742 1440.1 629.858 1440.09 628.754L1437.11 403.707C1437.1 402.603 1437.98 401.696 1439.09 401.681L1496.75 400.919C1497.86 400.904 1498.76 401.788 1498.78 402.892L1499.03 421.541C1499.05 423.557 1501.8 424.327 1502.96 422.68C1509.18 413.89 1516.33 407.284 1524.41 402.863C1534.22 397.498 1545.26 394.735 1557.54 394.573C1582.37 394.245 1601.31 403.232 1614.37 421.534C1627.42 439.528 1634.14 463.149 1634.53 492.395L1636.29 626.161C1636.31 627.265 1635.42 628.172 1634.32 628.187L1577.06 628.944C1575.95 628.958 1575.04 628.075 1575.03 626.97L1573.38 501.979C1573.19 487.509 1569.96 476.005 1563.71 467.466C1557.45 458.62 1548.18 454.278 1535.9 454.44C1523.89 454.599 1514.88 459.336 1508.86 468.653C1502.84 477.662 1499.92 489.094 1500.1 502.947L1501.75 627.939C1501.77 629.043 1500.88 629.951 1499.78 629.965L1442.12 630.727Z"/>
<path d="M992.241 396.028C989.93 337.868 988.651 336.441 938.179 335.32C988.603 332.876 989.837 331.406 990.617 273.205C992.928 331.365 994.207 332.793 1044.68 333.913C994.255 336.367 993.021 337.81 992.241 396.028Z"/>
</mask>
<path d="M144.45 647.879C143.345 647.894 142.438 647.01 142.424 645.906L138.204 326.655C138.189 325.55 139.073 324.643 140.177 324.628L199.443 323.845C200.548 323.83 201.455 324.714 201.47 325.818L203.016 442.807C203.031 443.911 203.938 444.795 205.042 444.78L313.56 443.346C314.664 443.331 315.548 442.424 315.533 441.32L313.987 324.331C313.972 323.227 314.856 322.32 315.96 322.305L374.826 321.527C375.93 321.512 376.838 322.396 376.852 323.5L381.072 642.752C381.086 643.856 380.203 644.763 379.099 644.778L320.233 645.556C319.128 645.57 318.221 644.687 318.207 643.582L316.416 508.122C316.401 507.018 315.494 506.134 314.39 506.149L205.872 507.583C204.768 507.598 203.884 508.505 203.899 509.61L205.689 645.07C205.704 646.174 204.821 647.081 203.716 647.096L144.45 647.879Z" fill="#F0F0F0"/>
<path d="M464.418 649.192C452.939 649.344 442.227 646.869 432.28 641.766C422.33 636.355 414.218 628.61 407.944 618.532C401.933 608.142 398.83 595.559 398.635 580.782C398.411 563.85 402.1 550.099 409.703 539.529C417.302 528.652 427.476 520.666 440.224 515.571C453.239 510.472 467.488 507.82 482.971 507.616L525.818 507.049C526.922 507.035 527.809 506.127 527.766 505.023C527.486 497.837 526.208 491.439 523.933 485.828C521.449 479.703 517.783 474.979 512.933 471.656C508.079 468.025 502.048 466.257 494.841 466.353C487.366 466.451 480.584 468.389 474.493 472.164C468.782 475.704 465.096 481.518 463.436 489.606C463.241 490.554 462.426 491.26 461.458 491.273L405.599 492.011C404.445 492.026 403.516 491.063 403.596 489.912C404.72 473.873 409.424 460.048 417.711 448.436C426.357 436.005 437.442 426.313 450.967 419.36C464.759 412.404 479.529 408.822 495.279 408.613C513.698 408.37 529.901 412.159 543.888 419.979C558.138 427.489 569.231 438.581 577.168 453.256C585.1 467.623 589.203 485.12 589.476 505.746L590.251 564.393C590.34 571.166 591.21 576.389 592.861 580.062C594.601 583.393 598.631 585.171 604.949 585.397C606.053 585.437 606.961 586.314 606.975 587.418L607.667 639.756C607.682 640.861 606.797 641.769 605.692 641.775C593.763 641.841 583.74 641.052 575.624 639.409C567.057 637.675 559.805 634.384 553.867 629.535C548.575 624.944 543.683 618.515 539.19 610.25C538.447 608.884 536.489 608.79 535.622 610.08C527.402 622.301 517.77 631.765 506.727 638.472C494.804 645.404 480.701 648.977 464.418 649.192ZM485.32 594.416C493.061 594.313 500.111 592.373 506.469 588.594C513.089 584.504 518.355 578.892 522.266 571.758C526.176 564.624 528.072 556.593 527.954 547.666L527.944 546.895C527.93 545.79 527.022 544.907 525.918 544.921L489.878 545.398C484.539 545.468 479.613 546.457 475.099 548.364C470.582 549.963 467.013 552.628 464.392 556.357C461.767 559.779 460.496 564.569 460.577 570.726C460.695 579.654 463.314 585.931 468.435 589.558C473.552 592.878 479.18 594.497 485.32 594.416Z" fill="#F0F0F0"/>
<path d="M717.869 645.842C697.848 646.107 680.164 641.414 664.818 631.764C649.472 622.114 637.277 608.419 628.232 590.679C619.449 572.629 614.897 551.443 614.576 527.122C614.267 503.725 618.132 483.044 626.171 465.079C634.206 446.806 645.765 432.489 660.846 422.129C675.924 411.46 693.873 405.988 714.695 405.713C738.186 405.403 758.834 412.212 776.64 426.14C793.972 439.402 805.967 460.615 812.626 489.779C812.907 491.01 811.976 492.182 810.713 492.199L748.576 493.02C747.692 493.032 746.909 492.46 746.624 491.623C743.84 483.447 739.769 477.355 734.412 473.347C729.012 468.8 722.308 466.579 714.299 466.685C705.49 466.801 698.319 469.667 692.787 475.283C687.521 480.895 683.612 488.183 681.061 497.146C678.776 506.105 677.703 515.819 677.842 526.286C677.976 536.445 679.305 546.127 681.83 555.331C684.617 564.224 688.717 571.405 694.129 576.876C699.808 582.343 707.053 585.019 715.862 584.902C723.87 584.797 730.513 582.399 735.791 577.711C741.031 573.277 744.936 567.073 747.506 559.1C747.775 558.265 748.539 557.682 749.416 557.671L811.573 556.849C812.834 556.832 813.796 557.975 813.549 559.212C809.987 577.001 803.944 592.142 795.419 604.635C786.514 617.685 775.434 627.839 762.181 635.096C749.19 642.041 734.419 645.624 717.869 645.842Z" fill="#F0F0F0"/>
<path d="M835.625 638.744C834.521 638.758 833.613 637.875 833.599 636.77L829.379 317.519C829.365 316.415 830.248 315.507 831.353 315.493L889.017 314.731C890.122 314.716 891.029 315.599 891.043 316.704L893.381 493.542C893.407 495.537 896.018 496.267 897.076 494.575L950.545 409.056C950.905 408.479 951.534 408.125 952.214 408.116L1023.3 407.177C1024.93 407.155 1025.9 408.987 1024.97 410.323L947.85 520.615C947.354 521.325 947.371 522.272 947.891 522.964L1030.66 632.984C1031.65 634.293 1030.73 636.165 1029.09 636.186L957.658 637.131C956.97 637.14 956.326 636.795 955.953 636.218L897.772 546.342C896.682 544.658 894.067 545.449 894.093 547.456L895.263 635.955C895.278 637.06 894.394 637.967 893.29 637.981L835.625 638.744Z" fill="#F0F0F0"/>
<path d="M1270.76 638.535C1251.54 638.789 1233.07 635.184 1215.35 627.72C1197.9 620.253 1182.13 609.377 1168.06 595.091C1154.26 580.801 1143.21 563.396 1134.93 542.876C1126.92 522.352 1122.74 499.16 1122.4 473.299C1122.06 447.439 1125.62 424.145 1133.09 403.416C1140.82 382.684 1151.4 364.993 1164.83 350.344C1178.52 335.691 1193.99 324.402 1211.24 316.476C1228.75 308.547 1247.12 304.455 1266.34 304.201C1285.56 303.947 1304.03 307.552 1321.75 315.015C1339.47 322.479 1355.23 333.355 1369.04 347.645C1383.11 361.93 1394.29 379.334 1402.57 399.854C1410.85 420.375 1415.16 443.565 1415.5 469.425C1415.84 495.285 1412.15 518.582 1404.41 539.314C1396.68 560.046 1385.96 577.739 1372.27 592.392C1358.85 607.041 1343.38 618.33 1325.86 626.26C1308.35 634.189 1289.98 638.281 1270.76 638.535ZM1269.89 572.499C1282.97 572.326 1295.73 568.463 1308.18 560.908C1320.63 553.354 1330.76 542.135 1338.57 527.252C1346.65 512.057 1350.54 493.07 1350.23 470.288C1349.93 447.199 1345.54 428.32 1337.07 413.652C1328.6 398.677 1318.04 387.731 1305.4 380.816C1292.76 373.594 1280.03 370.067 1267.21 370.236C1254.4 370.406 1241.77 374.268 1229.32 381.822C1217.13 389.065 1207 400.284 1198.93 415.478C1191.11 430.361 1187.36 449.347 1187.67 472.437C1187.97 495.218 1192.22 514.099 1200.43 529.078C1208.63 543.749 1218.92 554.698 1231.3 561.924C1243.94 569.147 1256.81 572.672 1269.89 572.499Z" fill="#F0F0F0"/>
<path d="M1442.12 630.727C1441.01 630.742 1440.1 629.858 1440.09 628.754L1437.11 403.707C1437.1 402.603 1437.98 401.696 1439.09 401.681L1496.75 400.919C1497.86 400.904 1498.76 401.788 1498.78 402.892L1499.03 421.541C1499.05 423.557 1501.8 424.327 1502.96 422.68C1509.18 413.89 1516.33 407.284 1524.41 402.863C1534.22 397.498 1545.26 394.735 1557.54 394.573C1582.37 394.245 1601.31 403.232 1614.37 421.534C1627.42 439.528 1634.14 463.149 1634.53 492.395L1636.29 626.161C1636.31 627.265 1635.42 628.172 1634.32 628.187L1577.06 628.944C1575.95 628.958 1575.04 628.075 1575.03 626.97L1573.38 501.979C1573.19 487.509 1569.96 476.005 1563.71 467.466C1557.45 458.62 1548.18 454.278 1535.9 454.44C1523.89 454.599 1514.88 459.336 1508.86 468.653C1502.84 477.662 1499.92 489.094 1500.1 502.947L1501.75 627.939C1501.77 629.043 1500.88 629.951 1499.78 629.965L1442.12 630.727Z" fill="#F0F0F0"/>
<path d="M992.241 396.028C989.93 337.868 988.651 336.441 938.179 335.32C988.603 332.876 989.837 331.406 990.617 273.205C992.928 331.365 994.207 332.793 1044.68 333.913C994.255 336.367 993.021 337.81 992.241 396.028Z" fill="#F0F0F0"/>
<path d="M144.45 647.879C143.345 647.894 142.438 647.01 142.424 645.906L138.204 326.655C138.189 325.55 139.073 324.643 140.177 324.628L199.443 323.845C200.548 323.83 201.455 324.714 201.47 325.818L203.016 442.807C203.031 443.911 203.938 444.795 205.042 444.78L313.56 443.346C314.664 443.331 315.548 442.424 315.533 441.32L313.987 324.331C313.972 323.227 314.856 322.32 315.96 322.305L374.826 321.527C375.93 321.512 376.838 322.396 376.852 323.5L381.072 642.752C381.086 643.856 380.203 644.763 379.099 644.778L320.233 645.556C319.128 645.57 318.221 644.687 318.207 643.582L316.416 508.122C316.401 507.018 315.494 506.134 314.39 506.149L205.872 507.583C204.768 507.598 203.884 508.505 203.899 509.61L205.689 645.07C205.704 646.174 204.821 647.081 203.716 647.096L144.45 647.879Z" stroke="black" stroke-width="4" mask="url(#path-3-inside-1_352_62)"/>
<path d="M464.418 649.192C452.939 649.344 442.227 646.869 432.28 641.766C422.33 636.355 414.218 628.61 407.944 618.532C401.933 608.142 398.83 595.559 398.635 580.782C398.411 563.85 402.1 550.099 409.703 539.529C417.302 528.652 427.476 520.666 440.224 515.571C453.239 510.472 467.488 507.82 482.971 507.616L525.818 507.049C526.922 507.035 527.809 506.127 527.766 505.023C527.486 497.837 526.208 491.439 523.933 485.828C521.449 479.703 517.783 474.979 512.933 471.656C508.079 468.025 502.048 466.257 494.841 466.353C487.366 466.451 480.584 468.389 474.493 472.164C468.782 475.704 465.096 481.518 463.436 489.606C463.241 490.554 462.426 491.26 461.458 491.273L405.599 492.011C404.445 492.026 403.516 491.063 403.596 489.912C404.72 473.873 409.424 460.048 417.711 448.436C426.357 436.005 437.442 426.313 450.967 419.36C464.759 412.404 479.529 408.822 495.279 408.613C513.698 408.37 529.901 412.159 543.888 419.979C558.138 427.489 569.231 438.581 577.168 453.256C585.1 467.623 589.203 485.12 589.476 505.746L590.251 564.393C590.34 571.166 591.21 576.389 592.861 580.062C594.601 583.393 598.631 585.171 604.949 585.397C606.053 585.437 606.961 586.314 606.975 587.418L607.667 639.756C607.682 640.861 606.797 641.769 605.692 641.775C593.763 641.841 583.74 641.052 575.624 639.409C567.057 637.675 559.805 634.384 553.867 629.535C548.575 624.944 543.683 618.515 539.19 610.25C538.447 608.884 536.489 608.79 535.622 610.08C527.402 622.301 517.77 631.765 506.727 638.472C494.804 645.404 480.701 648.977 464.418 649.192ZM485.32 594.416C493.061 594.313 500.111 592.373 506.469 588.594C513.089 584.504 518.355 578.892 522.266 571.758C526.176 564.624 528.072 556.593 527.954 547.666L527.944 546.895C527.93 545.79 527.022 544.907 525.918 544.921L489.878 545.398C484.539 545.468 479.613 546.457 475.099 548.364C470.582 549.963 467.013 552.628 464.392 556.357C461.767 559.779 460.496 564.569 460.577 570.726C460.695 579.654 463.314 585.931 468.435 589.558C473.552 592.878 479.18 594.497 485.32 594.416Z" stroke="black" stroke-width="4" mask="url(#path-3-inside-1_352_62)"/>
<path d="M717.869 645.842C697.848 646.107 680.164 641.414 664.818 631.764C649.472 622.114 637.277 608.419 628.232 590.679C619.449 572.629 614.897 551.443 614.576 527.122C614.267 503.725 618.132 483.044 626.171 465.079C634.206 446.806 645.765 432.489 660.846 422.129C675.924 411.46 693.873 405.988 714.695 405.713C738.186 405.403 758.834 412.212 776.64 426.14C793.972 439.402 805.967 460.615 812.626 489.779C812.907 491.01 811.976 492.182 810.713 492.199L748.576 493.02C747.692 493.032 746.909 492.46 746.624 491.623C743.84 483.447 739.769 477.355 734.412 473.347C729.012 468.8 722.308 466.579 714.299 466.685C705.49 466.801 698.319 469.667 692.787 475.283C687.521 480.895 683.612 488.183 681.061 497.146C678.776 506.105 677.703 515.819 677.842 526.286C677.976 536.445 679.305 546.127 681.83 555.331C684.617 564.224 688.717 571.405 694.129 576.876C699.808 582.343 707.053 585.019 715.862 584.902C723.87 584.797 730.513 582.399 735.791 577.711C741.031 573.277 744.936 567.073 747.506 559.1C747.775 558.265 748.539 557.682 749.416 557.671L811.573 556.849C812.834 556.832 813.796 557.975 813.549 559.212C809.987 577.001 803.944 592.142 795.419 604.635C786.514 617.685 775.434 627.839 762.181 635.096C749.19 642.041 734.419 645.624 717.869 645.842Z" stroke="black" stroke-width="4" mask="url(#path-3-inside-1_352_62)"/>
<path d="M835.625 638.744C834.521 638.758 833.613 637.875 833.599 636.77L829.379 317.519C829.365 316.415 830.248 315.507 831.353 315.493L889.017 314.731C890.122 314.716 891.029 315.599 891.043 316.704L893.381 493.542C893.407 495.537 896.018 496.267 897.076 494.575L950.545 409.056C950.905 408.479 951.534 408.125 952.214 408.116L1023.3 407.177C1024.93 407.155 1025.9 408.987 1024.97 410.323L947.85 520.615C947.354 521.325 947.371 522.272 947.891 522.964L1030.66 632.984C1031.65 634.293 1030.73 636.165 1029.09 636.186L957.658 637.131C956.97 637.14 956.326 636.795 955.953 636.218L897.772 546.342C896.682 544.658 894.067 545.449 894.093 547.456L895.263 635.955C895.278 637.06 894.394 637.967 893.29 637.981L835.625 638.744Z" stroke="black" stroke-width="4" mask="url(#path-3-inside-1_352_62)"/>
<path d="M1270.76 638.535C1251.54 638.789 1233.07 635.184 1215.35 627.72C1197.9 620.253 1182.13 609.377 1168.06 595.091C1154.26 580.801 1143.21 563.396 1134.93 542.876C1126.92 522.352 1122.74 499.16 1122.4 473.299C1122.06 447.439 1125.62 424.145 1133.09 403.416C1140.82 382.684 1151.4 364.993 1164.83 350.344C1178.52 335.691 1193.99 324.402 1211.24 316.476C1228.75 308.547 1247.12 304.455 1266.34 304.201C1285.56 303.947 1304.03 307.552 1321.75 315.015C1339.47 322.479 1355.23 333.355 1369.04 347.645C1383.11 361.93 1394.29 379.334 1402.57 399.854C1410.85 420.375 1415.16 443.565 1415.5 469.425C1415.84 495.285 1412.15 518.582 1404.41 539.314C1396.68 560.046 1385.96 577.739 1372.27 592.392C1358.85 607.041 1343.38 618.33 1325.86 626.26C1308.35 634.189 1289.98 638.281 1270.76 638.535ZM1269.89 572.499C1282.97 572.326 1295.73 568.463 1308.18 560.908C1320.63 553.354 1330.76 542.135 1338.57 527.252C1346.65 512.057 1350.54 493.07 1350.23 470.288C1349.93 447.199 1345.54 428.32 1337.07 413.652C1328.6 398.677 1318.04 387.731 1305.4 380.816C1292.76 373.594 1280.03 370.067 1267.21 370.236C1254.4 370.406 1241.77 374.268 1229.32 381.822C1217.13 389.065 1207 400.284 1198.93 415.478C1191.11 430.361 1187.36 449.347 1187.67 472.437C1187.97 495.218 1192.22 514.099 1200.43 529.078C1208.63 543.749 1218.92 554.698 1231.3 561.924C1243.94 569.147 1256.81 572.672 1269.89 572.499Z" stroke="black" stroke-width="4" mask="url(#path-3-inside-1_352_62)"/>
<path d="M1442.12 630.727C1441.01 630.742 1440.1 629.858 1440.09 628.754L1437.11 403.707C1437.1 402.603 1437.98 401.696 1439.09 401.681L1496.75 400.919C1497.86 400.904 1498.76 401.788 1498.78 402.892L1499.03 421.541C1499.05 423.557 1501.8 424.327 1502.96 422.68C1509.18 413.89 1516.33 407.284 1524.41 402.863C1534.22 397.498 1545.26 394.735 1557.54 394.573C1582.37 394.245 1601.31 403.232 1614.37 421.534C1627.42 439.528 1634.14 463.149 1634.53 492.395L1636.29 626.161C1636.31 627.265 1635.42 628.172 1634.32 628.187L1577.06 628.944C1575.95 628.958 1575.04 628.075 1575.03 626.97L1573.38 501.979C1573.19 487.509 1569.96 476.005 1563.71 467.466C1557.45 458.62 1548.18 454.278 1535.9 454.44C1523.89 454.599 1514.88 459.336 1508.86 468.653C1502.84 477.662 1499.92 489.094 1500.1 502.947L1501.75 627.939C1501.77 629.043 1500.88 629.951 1499.78 629.965L1442.12 630.727Z" stroke="black" stroke-width="4" mask="url(#path-3-inside-1_352_62)"/>
<path d="M992.241 396.028C989.93 337.868 988.651 336.441 938.179 335.32C988.603 332.876 989.837 331.406 990.617 273.205C992.928 331.365 994.207 332.793 1044.68 333.913C994.255 336.367 993.021 337.81 992.241 396.028Z" stroke="black" stroke-width="4" mask="url(#path-3-inside-1_352_62)"/>
<path d="M163.65 593.136C162.472 584.683 159.92 577.026 155.995 570.177C149.222 558.347 137.764 552.406 126.062 546.563C114.937 541.014 103.099 534.773 90.8528 532.204C83.3918 532.321 30.2212 668.178 30.2212 668.178C30.2212 668.178 43.8417 674.321 53.6627 678.186C60.6541 680.941 66.3484 683.674 72.9587 686.787C80.0202 690.111 86.3934 692.468 93.8544 692.352C101.315 692.234 108.675 690.434 115.919 686.957C123.167 683.473 130.065 678.422 136.629 671.804C143.195 665.18 148.806 657.289 153.471 648.12C158.136 638.951 161.293 629.608 162.939 620.091C164.586 610.575 164.823 601.584 163.644 593.136L163.65 593.136Z" fill="url(#paint0_linear_352_62)" stroke="#282828" stroke-width="1.8" stroke-miterlimit="10"/>
<path d="M141.984 582.322C140.796 573.866 138.225 566.207 134.27 559.356C130.322 552.505 125.084 547.162 118.57 543.333C112.05 539.504 90.9938 530.86 83.476 530.97C75.964 531.085 16.9853 646.313 20.94 653.164C24.8946 660.015 30.0253 666.855 36.5457 670.683C42.8721 674.057 45.2769 674.524 51.9332 677.639C59.0446 680.965 64.2222 681.666 71.7342 681.55C79.2472 681.435 86.657 679.636 93.9495 676.159C101.247 672.676 108.192 667.626 114.8 661.008C121.409 654.385 127.057 646.493 131.752 637.323C136.447 628.152 139.624 618.808 141.279 609.289C142.935 599.771 143.171 590.778 141.979 582.322L141.984 582.322Z" stroke="#282828" stroke-width="1.8" stroke-miterlimit="10"/>
<path d="M118.27 573.341C117.085 564.865 114.518 557.189 110.575 550.322C106.625 543.456 101.4 538.101 94.8883 534.264C88.3822 530.426 81.3709 528.571 73.8669 528.688C66.3639 528.805 58.9671 530.603 51.6773 534.089C44.3873 537.581 37.4443 542.644 30.8433 549.278C24.2473 555.912 18.6033 563.828 13.9126 573.015C9.22265 582.208 6.04981 591.575 4.394 601.116C2.73319 610.657 2.50167 619.671 3.68662 628.152C4.87279 636.628 7.44024 644.304 11.3893 651.171C15.3375 658.037 20.5625 663.392 27.0746 667.23C33.5818 671.067 40.5869 672.927 48.0909 672.811C55.5939 672.694 62.9967 670.896 70.2807 667.404C77.5707 663.912 84.5076 658.85 91.1096 652.215C97.7108 645.575 103.355 637.665 108.045 628.472C112.735 619.279 115.908 609.913 117.564 600.372C119.219 590.83 119.456 581.816 118.265 573.341L118.27 573.341Z" fill="#F0F0F0" stroke="#282828" stroke-width="1.8" stroke-miterlimit="10"/>
<path d="M96.7931 586.333C94.4931 595.267 91.2395 604.415 87.0264 613.8C82.8146 623.18 78.2026 631.532 73.1004 639.073C67.9979 646.619 62.866 652.853 57.6989 657.769C52.5368 662.685 47.5432 666.111 42.7285 668.04C37.9139 669.965 33.6502 669.885 29.9815 668.009C26.345 666.157 23.7344 662.73 22.1066 657.517C20.4789 652.302 19.8487 646.005 20.2066 638.638C20.5635 631.27 21.8996 623.1 24.2129 614.128C26.526 605.161 29.7731 596.03 33.9545 586.722C38.136 577.414 42.8153 568.901 47.9056 561.388C52.9958 553.881 58.1209 547.669 63.2833 542.748C68.4506 537.826 73.4439 534.406 78.2753 532.488C83.1057 530.57 87.3403 530.531 90.9814 532.395C94.6513 534.265 97.286 537.809 98.8973 543.007C100.508 548.215 101.139 554.5 100.781 561.873C100.424 569.241 99.0941 577.4 96.7995 586.322L96.7885 586.322L96.7931 586.333Z" stroke="#282828" stroke-width="1.8" stroke-miterlimit="10"/>
<path d="M25.9756 555.061L117.596 598.128" stroke="#282828" stroke-width="1.8" stroke-miterlimit="10"/>
<path d="M4.49219 599.372L97.0454 644.471" stroke="#282828" stroke-width="1.8" stroke-miterlimit="10"/>
<path d="M90.7709 532.201L30.2183 668.265" stroke="#282828" stroke-width="1.8" stroke-miterlimit="10"/>
<path d="M117.562 599.128L162.906 619.645" stroke="#282828" stroke-width="1.8" stroke-miterlimit="10"/>
<path d="M113.061 553.953L158.371 575.47" stroke="#282828" stroke-width="1.8" stroke-miterlimit="10"/>
<path d="M65.1982 669.427L110.542 689.945" stroke="#282828" stroke-width="1.8" stroke-miterlimit="10"/>
<path d="M97.0449 644.471L142.355 665.988" stroke="#282828" stroke-width="1.8" stroke-miterlimit="10"/>
<path d="M1572.49 613.305L1572.49 613.305C1575.37 615.854 1579.29 616.863 1583.04 616.014L1593.93 613.55C1598.52 612.51 1603.21 614.838 1605.16 619.123C1605.16 619.123 1605.16 619.124 1605.16 619.124L1609.84 629.392L1609.84 629.392C1611.42 632.88 1614.59 635.393 1618.34 636.149L1629.34 638.359C1633.94 639.284 1637.26 643.303 1637.31 647.996L1637.42 659.367C1637.46 663.184 1639.33 666.752 1642.43 668.966L1651.65 675.526C1655.46 678.241 1656.86 683.247 1655 687.544L1655.92 687.94L1655 687.544L1650.49 698.017C1650.49 698.017 1650.49 698.017 1650.49 698.017C1648.99 701.514 1649.24 705.52 1651.17 708.799L1651.17 708.8L1656.96 718.607C1656.96 718.607 1656.96 718.607 1656.96 718.607C1659.34 722.635 1658.58 727.773 1655.15 730.947L1655.83 731.681L1655.15 730.947L1646.81 738.653C1644.01 741.24 1642.61 745.007 1643.05 748.793L1644.37 760.114C1644.91 764.767 1642.13 769.166 1637.69 770.668C1637.69 770.668 1637.69 770.668 1637.69 770.668L1627.02 774.275L1627.02 774.275C1623.4 775.501 1620.58 778.388 1619.45 782.04L1620.41 782.337L1619.45 782.041L1616.09 792.862L1617.05 793.158L1616.09 792.862C1614.7 797.352 1610.35 800.25 1605.67 799.805L1605.57 800.801L1605.67 799.805L1594.54 798.748C1590.72 798.385 1586.95 799.882 1584.43 802.771L1584.43 802.771L1577.03 811.226C1573.93 814.775 1568.76 815.654 1564.66 813.329L1554.94 807.824L1554.94 807.824C1551.6 805.929 1547.54 805.762 1544.05 807.374L1544.05 807.374L1533.92 812.059L1534.34 812.967L1533.92 812.059C1529.64 814.037 1524.56 812.735 1521.76 808.942L1515.09 799.906L1514.28 800.5L1515.09 799.906C1512.81 796.818 1509.18 795.015 1505.34 795.062L1494.16 795.197L1494.18 796.197L1494.16 795.198C1489.46 795.255 1485.36 792.008 1484.35 787.418L1483.37 787.634L1484.35 787.418L1481.89 776.356C1481.06 772.623 1478.49 769.513 1474.98 767.993L1474.98 767.993L1464.65 763.518C1464.65 763.518 1464.65 763.518 1464.65 763.518C1460.35 761.654 1457.94 757.041 1458.86 752.449L1461.11 741.274L1460.13 741.077L1461.11 741.274C1461.86 737.538 1460.78 733.668 1458.21 730.86L1450.53 722.492C1450.53 722.492 1450.53 722.492 1450.53 722.492C1447.37 719.045 1447.04 713.862 1449.74 710.045L1456.32 700.748C1458.52 697.639 1459.1 693.667 1457.89 690.058L1456.94 690.377L1457.89 690.058L1454.25 679.249C1452.76 674.814 1454.57 669.94 1458.59 667.549L1468.31 661.771C1471.6 659.821 1473.75 656.419 1474.1 652.618L1475.15 641.295C1475.58 636.622 1479.23 632.891 1483.89 632.348L1495.03 631.053C1498.84 630.61 1502.2 628.367 1504.07 625.022L1509.57 615.173C1511.87 611.063 1516.74 609.13 1521.23 610.546L1531.87 613.9C1535.54 615.055 1539.54 614.374 1542.61 612.07L1551.57 605.362C1555.35 602.535 1560.59 602.751 1564.12 605.88L1564.78 605.132L1564.12 605.88L1572.49 613.305Z" fill="#468EF5" stroke="#282828" stroke-width="2"/>
<path d="M1489.43 686.498L1490.35 664.389L1504.35 664.968L1504.23 668L1493.82 667.57L1493.57 673.476L1502.56 673.847L1502.44 676.848L1493.45 676.476L1493.15 683.615L1503.56 684.045L1503.44 687.077L1489.43 686.498Z" fill="#F0F0F0"/>
<path d="M1511.46 687.788C1510.49 687.748 1509.59 687.531 1508.76 687.139C1507.96 686.726 1507.32 686.151 1506.85 685.414C1506.39 684.678 1506.18 683.816 1506.23 682.826C1506.27 681.647 1506.61 680.701 1507.23 679.988C1507.85 679.276 1508.67 678.772 1509.69 678.476C1510.72 678.16 1511.84 678.027 1513.06 678.078L1516.97 678.239C1517 677.397 1516.89 676.707 1516.64 676.169C1516.39 675.611 1516.03 675.195 1515.56 674.922C1515.09 674.628 1514.52 674.468 1513.87 674.441C1513.03 674.406 1512.29 674.565 1511.64 674.918C1510.99 675.271 1510.58 675.876 1510.4 676.734L1506.8 676.585C1506.95 675.452 1507.37 674.499 1508.05 673.726C1508.76 672.933 1509.64 672.347 1510.69 671.968C1511.74 671.569 1512.85 671.393 1514.03 671.442C1515.54 671.504 1516.78 671.84 1517.74 672.45C1518.73 673.039 1519.46 673.839 1519.92 674.849C1520.41 675.861 1520.62 677.019 1520.57 678.325L1520.37 683.094C1520.37 683.663 1520.49 684.08 1520.73 684.343C1520.99 684.607 1521.41 684.761 1521.97 684.805L1521.85 687.838C1520.97 687.801 1520.21 687.675 1519.59 687.459C1518.97 687.244 1518.45 686.938 1518.05 686.542C1517.66 686.146 1517.36 685.638 1517.13 685.017C1516.59 685.838 1515.82 686.523 1514.8 687.072C1513.81 687.6 1512.7 687.839 1511.46 687.788ZM1512.49 684.92C1513.31 684.954 1514.03 684.794 1514.66 684.44C1515.31 684.066 1515.82 683.56 1516.21 682.922C1516.61 682.264 1516.83 681.535 1516.87 680.734L1516.87 680.64L1513.21 680.488C1512.66 680.466 1512.13 680.518 1511.62 680.644C1511.11 680.771 1510.7 680.997 1510.4 681.321C1510.09 681.625 1509.92 682.061 1509.9 682.63C1509.87 683.388 1510.11 683.957 1510.62 684.336C1511.13 684.695 1511.75 684.889 1512.49 684.92Z" fill="#F0F0F0"/>
<path d="M1524.2 687.935L1524.85 672.269L1528.32 672.412L1528.28 674.973C1528.84 674.068 1529.57 673.382 1530.48 672.913C1531.4 672.424 1532.46 672.203 1533.63 672.252L1533.48 676.011L1532.5 675.97C1531.07 675.911 1529.99 676.225 1529.27 676.913C1528.55 677.6 1528.15 678.701 1528.09 680.217L1527.77 688.082L1524.2 687.935Z" fill="#F0F0F0"/>
<path d="M1535.2 688.389L1536.11 666.28L1539.68 666.427L1538.76 688.537L1535.2 688.389Z" fill="#F0F0F0"/>
<path d="M1543.39 695.688L1547.14 688.187L1541.29 672.948L1545.27 673.113L1549.22 684.476L1554.26 673.484L1558.01 673.639L1547.14 695.843L1543.39 695.688Z" fill="#F0F0F0"/>
<path d="M1567.31 689.716L1568.22 667.607L1576.33 667.942C1578.56 668.034 1580.25 668.61 1581.41 669.67C1582.58 670.731 1583.14 672.083 1583.07 673.725C1583.02 674.947 1582.67 675.945 1582.03 676.72C1581.39 677.495 1580.61 678.032 1579.69 678.332C1580.48 678.659 1581.17 679.11 1581.78 679.684C1582.39 680.257 1582.86 680.92 1583.19 681.671C1583.53 682.424 1583.69 683.243 1583.65 684.127C1583.6 685.306 1583.29 686.358 1582.7 687.283C1582.11 688.208 1581.27 688.922 1580.18 689.425C1579.11 689.929 1577.78 690.149 1576.2 690.084L1567.31 689.716ZM1571.03 686.832L1575.82 687.031C1577.15 687.085 1578.17 686.832 1578.89 686.271C1579.61 685.71 1579.99 684.84 1580.04 683.661C1580.09 682.482 1579.76 681.582 1579.04 680.962C1578.33 680.343 1577.33 680.006 1576.05 679.953L1571.32 679.757L1571.03 686.832ZM1571.44 676.757L1575.67 676.932C1576.89 676.982 1577.81 676.767 1578.42 676.286C1579.03 675.784 1579.35 675.048 1579.39 674.08C1579.43 673.132 1579.17 672.393 1578.6 671.864C1578.03 671.313 1577.12 671.012 1575.86 670.959L1571.69 670.787L1571.44 676.757Z" fill="#F0F0F0"/>
<path d="M1589.04 672.422C1588.39 672.395 1587.84 672.14 1587.4 671.658C1586.95 671.176 1586.75 670.608 1586.77 669.955C1586.8 669.302 1587.05 668.765 1587.53 668.341C1588.02 667.897 1588.58 667.689 1589.24 667.716C1589.89 667.743 1590.43 667.997 1590.88 668.48C1591.32 668.941 1591.53 669.498 1591.5 670.151C1591.48 670.803 1591.22 671.352 1590.74 671.796C1590.26 672.24 1589.69 672.449 1589.04 672.422ZM1586.49 690.509L1587.14 674.843L1590.74 674.991L1590.09 690.657L1586.49 690.509Z" fill="#F0F0F0"/>
<path d="M1593.6 690.803L1594.25 675.137L1597.72 675.28L1597.68 677.841C1598.24 676.936 1598.98 676.249 1599.88 675.781C1600.81 675.291 1601.86 675.071 1603.04 675.12L1602.88 678.879L1601.9 678.838C1600.47 678.779 1599.4 679.093 1598.67 679.78C1597.95 680.468 1597.56 681.569 1597.49 683.085L1597.17 690.95L1593.6 690.803Z" fill="#F0F0F0"/>
<path d="M1611.06 691.904C1609.51 691.839 1608.19 691.416 1607.1 690.633C1606.04 689.829 1605.23 688.794 1604.67 687.527C1604.13 686.26 1603.9 684.858 1603.96 683.321C1604.02 681.805 1604.37 680.448 1605.01 679.251C1605.67 678.034 1606.58 677.091 1607.72 676.421C1608.86 675.73 1610.2 675.416 1611.74 675.48C1612.83 675.525 1613.84 675.799 1614.77 676.301C1615.7 676.782 1616.44 677.467 1616.99 678.354L1617.35 669.637L1620.95 669.786L1620.04 691.895L1616.53 691.75L1616.54 689.377C1616 690.199 1615.24 690.843 1614.28 691.309C1613.31 691.754 1612.24 691.952 1611.06 691.904ZM1611.98 688.809C1612.93 688.848 1613.74 688.661 1614.44 688.246C1615.13 687.832 1615.68 687.254 1616.09 686.511C1616.5 685.748 1616.72 684.882 1616.76 683.913C1616.81 682.797 1616.63 681.851 1616.22 681.075C1615.83 680.299 1615.28 679.707 1614.58 679.299C1613.91 678.891 1613.17 678.671 1612.37 678.638C1611.48 678.601 1610.69 678.79 1609.97 679.203C1609.28 679.597 1608.72 680.164 1608.29 680.906C1607.88 681.627 1607.66 682.493 1607.62 683.504C1607.58 684.493 1607.74 685.386 1608.11 686.182C1608.47 686.956 1608.99 687.578 1609.64 688.048C1610.32 688.519 1611.1 688.773 1611.98 688.809Z" fill="#F0F0F0"/>
<path d="M1506.35 728.608C1504.84 728.546 1503.47 728.226 1502.25 727.648C1501.03 727.049 1500.08 726.219 1499.38 725.157C1498.71 724.074 1498.4 722.764 1498.44 721.226L1502.19 721.381C1502.17 722.561 1502.54 723.547 1503.3 724.338C1504.07 725.108 1505.12 725.52 1506.44 725.575C1507.62 725.623 1508.58 725.389 1509.32 724.871C1510.05 724.353 1510.44 723.599 1510.48 722.61C1510.51 722.041 1510.43 721.563 1510.26 721.176C1510.09 720.769 1509.79 720.408 1509.36 720.095C1508.93 719.761 1508.35 719.442 1507.63 719.138C1506.9 718.813 1505.98 718.437 1504.86 718.011C1503.55 717.514 1502.49 716.964 1501.67 716.361C1500.86 715.736 1500.26 715.037 1499.9 714.262C1499.55 713.468 1499.4 712.596 1499.44 711.649C1499.49 710.301 1499.85 709.177 1500.52 708.277C1501.21 707.377 1502.11 706.719 1503.23 706.3C1504.36 705.862 1505.6 705.671 1506.95 705.727C1508.31 705.783 1509.53 706.076 1510.61 706.605C1511.68 707.135 1512.54 707.887 1513.17 708.863C1513.8 709.817 1514.1 710.968 1514.07 712.317L1510.25 712.159C1510.29 711.254 1509.99 710.471 1509.34 709.812C1508.69 709.152 1507.81 708.8 1506.7 708.753C1505.75 708.693 1504.93 708.902 1504.24 709.38C1503.56 709.858 1503.21 710.581 1503.17 711.55C1503.14 712.224 1503.33 712.791 1503.73 713.25C1504.15 713.711 1504.76 714.126 1505.54 714.496C1506.33 714.866 1507.28 715.274 1508.4 715.721C1509.08 715.981 1509.78 716.284 1510.48 716.63C1511.2 716.976 1511.85 717.414 1512.41 717.944C1513 718.453 1513.47 719.084 1513.82 719.837C1514.17 720.568 1514.32 721.471 1514.28 722.545C1514.22 723.871 1513.83 725.005 1513.1 725.945C1512.38 726.864 1511.44 727.553 1510.26 728.011C1509.08 728.468 1507.78 728.667 1506.35 728.608Z" fill="#F0F0F0"/>
<path d="M1523.15 728.923C1521.55 728.857 1520.34 728.417 1519.53 727.603C1518.73 726.789 1518.36 725.529 1518.43 723.824L1518.75 716.054L1516.51 715.961L1516.63 712.961L1518.87 713.053L1519.03 709.263L1522.62 709.412L1522.47 713.202L1526.28 713.36L1526.16 716.36L1522.34 716.202L1522.02 724.004C1521.99 724.72 1522.14 725.222 1522.46 725.509C1522.79 725.776 1523.29 725.923 1523.96 725.951L1525.76 726.025L1525.64 729.026L1523.15 728.923Z" fill="#F0F0F0"/>
<path d="M1533.36 729.724C1532.39 729.684 1531.49 729.468 1530.67 729.075C1529.86 728.662 1529.22 728.088 1528.75 727.351C1528.29 726.615 1528.09 725.752 1528.13 724.762C1528.18 723.583 1528.51 722.637 1529.13 721.925C1529.75 721.212 1530.57 720.708 1531.6 720.413C1532.62 720.097 1533.74 719.964 1534.96 720.014L1538.87 720.176C1538.91 719.334 1538.8 718.644 1538.55 718.106C1538.3 717.547 1537.93 717.131 1537.46 716.859C1536.99 716.565 1536.43 716.405 1535.77 716.378C1534.93 716.343 1534.19 716.502 1533.54 716.855C1532.9 717.208 1532.48 717.813 1532.3 718.67L1528.7 718.522C1528.86 717.389 1529.27 716.436 1529.96 715.663C1530.67 714.869 1531.54 714.283 1532.59 713.905C1533.64 713.505 1534.75 713.33 1535.93 713.378C1537.44 713.441 1538.68 713.777 1539.65 714.386C1540.64 714.976 1541.36 715.775 1541.82 716.786C1542.31 717.797 1542.52 718.956 1542.47 720.261L1542.27 725.031C1542.27 725.6 1542.39 726.016 1542.63 726.279C1542.9 726.543 1543.31 726.697 1543.88 726.742L1543.75 729.774C1542.87 729.738 1542.12 729.612 1541.49 729.396C1540.87 729.18 1540.36 728.874 1539.95 728.478C1539.57 728.083 1539.26 727.574 1539.03 726.953C1538.5 727.775 1537.72 728.46 1536.71 729.008C1535.72 729.537 1534.6 729.776 1533.36 729.724ZM1534.39 726.856C1535.21 726.89 1535.94 726.73 1536.56 726.376C1537.21 726.002 1537.73 725.496 1538.11 724.858C1538.52 724.2 1538.74 723.471 1538.77 722.671L1538.77 722.576L1535.11 722.425C1534.57 722.402 1534.04 722.454 1533.53 722.581C1533.02 722.707 1532.61 722.933 1532.3 723.258C1531.99 723.562 1531.83 723.998 1531.8 724.566C1531.77 725.324 1532.01 725.893 1532.52 726.273C1533.03 726.631 1533.66 726.826 1534.39 726.856Z" fill="#F0F0F0"/>
<path d="M1546.1 729.871L1546.75 714.205L1550.22 714.349L1550.18 716.91C1550.74 716.005 1551.48 715.318 1552.38 714.849C1553.31 714.36 1554.36 714.14 1555.54 714.189L1555.38 717.947L1554.4 717.907C1552.97 717.848 1551.9 718.162 1551.17 718.849C1550.45 719.536 1550.06 720.638 1549.99 722.154L1549.67 730.019L1546.1 729.871Z" fill="#F0F0F0"/>
<path d="M1563.47 730.589C1561.87 730.523 1560.67 730.083 1559.86 729.269C1559.05 728.455 1558.68 727.195 1558.75 725.49L1559.07 717.72L1556.83 717.627L1556.96 714.627L1559.2 714.719L1559.35 710.929L1562.95 711.078L1562.79 714.868L1566.61 715.026L1566.48 718.026L1562.67 717.869L1562.34 725.67C1562.32 726.386 1562.46 726.888 1562.79 727.175C1563.11 727.442 1563.61 727.589 1564.29 727.617L1566.08 727.691L1565.96 730.692L1563.47 730.589Z" fill="#F0F0F0"/>
<path d="M1571.51 712.729C1570.86 712.702 1570.32 712.447 1569.87 711.965C1569.43 711.483 1569.22 710.915 1569.25 710.262C1569.27 709.61 1569.53 709.072 1570.01 708.649C1570.49 708.205 1571.06 707.996 1571.71 708.023C1572.36 708.05 1572.91 708.305 1573.35 708.787C1573.8 709.248 1574.01 709.805 1573.98 710.458C1573.95 711.111 1573.7 711.659 1573.22 712.103C1572.73 712.547 1572.17 712.756 1571.51 712.729ZM1568.97 730.816L1569.61 715.15L1573.21 715.299L1572.56 730.965L1568.97 730.816Z" fill="#F0F0F0"/>
<path d="M1576.08 731.11L1576.72 715.444L1580.19 715.587L1580.17 717.738C1580.73 716.938 1581.48 716.347 1582.42 715.964C1583.37 715.56 1584.34 715.379 1585.35 715.421C1587.18 715.496 1588.64 716.137 1589.73 717.342C1590.82 718.547 1591.31 720.276 1591.22 722.529L1590.84 731.72L1587.31 731.574L1587.67 722.825C1587.72 721.498 1587.45 720.443 1586.85 719.659C1586.25 718.875 1585.34 718.458 1584.12 718.407C1582.9 718.357 1581.92 718.727 1581.17 719.519C1580.44 720.291 1580.05 721.371 1579.99 722.761L1579.64 731.257L1576.08 731.11Z" fill="#F0F0F0"/>
<path d="M1600.17 739.446C1598.81 739.389 1597.56 739.18 1596.44 738.817C1595.32 738.454 1594.42 737.9 1593.76 737.156C1593.12 736.412 1592.82 735.451 1592.87 734.272C1592.9 733.492 1593.1 732.836 1593.46 732.303C1593.84 731.77 1594.36 731.338 1595.03 731.007C1594.51 730.669 1594.12 730.263 1593.84 729.787C1593.57 729.291 1593.44 728.737 1593.47 728.127C1593.53 726.779 1594.2 725.752 1595.49 725.047C1595.05 724.543 1594.72 723.981 1594.49 723.36C1594.28 722.74 1594.19 722.082 1594.22 721.387C1594.27 720.229 1594.57 719.25 1595.13 718.451C1595.72 717.631 1596.49 717.02 1597.45 716.617C1598.44 716.193 1599.55 716.007 1600.79 716.059C1601.68 716.095 1602.5 716.256 1603.27 716.541L1608.79 716.769L1608.68 719.548L1606.4 719.454C1606.56 719.84 1606.68 720.236 1606.77 720.64C1606.88 721.045 1606.92 721.469 1606.9 721.911C1606.86 723.027 1606.53 723.995 1605.93 724.813C1605.33 725.632 1604.54 726.254 1603.58 726.678C1602.61 727.081 1601.53 727.258 1600.33 727.208C1599.79 727.186 1599.28 727.112 1598.83 726.988C1598.37 726.863 1597.92 726.687 1597.49 726.458C1596.99 726.691 1596.74 727.07 1596.71 727.596C1596.67 728.565 1597.46 729.083 1599.08 729.15L1601.86 729.264C1603.1 729.316 1604.16 729.528 1605.02 729.901C1605.92 730.255 1606.59 730.81 1607.04 731.567C1607.5 732.303 1607.7 733.239 1607.65 734.376C1607.6 735.513 1607.23 736.468 1606.52 737.24C1605.84 738.013 1604.93 738.588 1603.8 738.963C1602.69 739.339 1601.48 739.5 1600.17 739.446ZM1600.26 736.602C1601.35 736.647 1602.29 736.496 1603.06 736.148C1603.85 735.801 1604.27 735.249 1604.3 734.491C1604.36 733.059 1603.44 732.304 1601.55 732.226L1599.15 732.127C1598.25 732.089 1597.53 732.239 1597.01 732.576C1596.52 732.935 1596.25 733.462 1596.22 734.157C1596.2 734.726 1596.37 735.176 1596.74 735.507C1597.1 735.86 1597.59 736.123 1598.22 736.296C1598.84 736.47 1599.52 736.571 1600.26 736.602ZM1600.39 724.363C1601.29 724.4 1602.04 724.178 1602.63 723.696C1603.24 723.215 1603.56 722.575 1603.59 721.774C1603.62 720.974 1603.36 720.309 1602.79 719.78C1602.24 719.23 1601.52 718.936 1600.61 718.899C1599.73 718.862 1598.99 719.095 1598.4 719.598C1597.84 720.081 1597.54 720.723 1597.5 721.523C1597.47 722.323 1597.71 722.987 1598.21 723.514C1598.74 724.042 1599.46 724.325 1600.39 724.363Z" fill="#F0F0F0"/>
<path d="M1519.67 770.19C1518.16 770.128 1516.79 769.808 1515.57 769.23C1514.36 768.631 1513.4 767.801 1512.71 766.739C1512.04 765.656 1511.72 764.346 1511.76 762.808L1515.52 762.963C1515.49 764.143 1515.86 765.129 1516.63 765.92C1517.4 766.69 1518.44 767.102 1519.77 767.157C1520.95 767.206 1521.9 766.971 1522.64 766.453C1523.38 765.935 1523.77 765.181 1523.81 764.192C1523.83 763.623 1523.76 763.145 1523.58 762.759C1523.41 762.351 1523.11 761.99 1522.68 761.677C1522.25 761.343 1521.68 761.024 1520.95 760.72C1520.23 760.395 1519.3 760.019 1518.18 759.593C1516.88 759.096 1515.82 758.546 1515 757.943C1514.18 757.318 1513.59 756.619 1513.22 755.844C1512.87 755.05 1512.72 754.179 1512.76 753.231C1512.82 751.883 1513.18 750.759 1513.85 749.859C1514.54 748.959 1515.44 748.301 1516.55 747.883C1517.69 747.444 1518.93 747.253 1520.27 747.309C1521.64 747.365 1522.86 747.658 1523.93 748.188C1525.01 748.717 1525.86 749.469 1526.49 750.445C1527.13 751.399 1527.43 752.55 1527.39 753.899L1523.58 753.741C1523.61 752.836 1523.31 752.053 1522.66 751.394C1522.02 750.734 1521.14 750.382 1520.02 750.336C1519.08 750.275 1518.26 750.484 1517.56 750.962C1516.89 751.44 1516.53 752.164 1516.49 753.132C1516.46 753.806 1516.65 754.373 1517.05 754.832C1517.48 755.293 1518.08 755.708 1518.87 756.078C1519.65 756.448 1520.6 756.856 1521.72 757.303C1522.41 757.563 1523.1 757.866 1523.8 758.212C1524.53 758.558 1525.17 758.996 1525.74 759.526C1526.33 760.035 1526.8 760.666 1527.15 761.419C1527.5 762.15 1527.65 763.053 1527.6 764.127C1527.55 765.453 1527.15 766.587 1526.42 767.527C1525.71 768.446 1524.76 769.135 1523.59 769.593C1522.41 770.05 1521.1 770.249 1519.67 770.19Z" fill="#F0F0F0"/>
<path d="M1537.6 770.931C1536.06 770.867 1534.7 770.474 1533.5 769.749C1532.31 769.025 1531.38 768.038 1530.72 766.787C1530.08 765.516 1529.79 764.049 1529.86 762.385C1529.93 760.68 1530.36 759.231 1531.14 758.04C1531.93 756.85 1532.96 755.953 1534.23 755.352C1535.49 754.729 1536.89 754.449 1538.4 754.512C1539.94 754.575 1541.3 754.969 1542.49 755.693C1543.7 756.397 1544.64 757.375 1545.31 758.626C1545.99 759.877 1546.3 761.356 1546.23 763.062C1546.17 764.641 1545.75 766.037 1544.98 767.25C1544.24 768.463 1543.22 769.402 1541.93 770.066C1540.66 770.709 1539.21 770.998 1537.6 770.931ZM1537.75 767.837C1538.66 767.874 1539.46 767.686 1540.15 767.271C1540.86 766.837 1541.43 766.238 1541.87 765.476C1542.3 764.713 1542.53 763.837 1542.57 762.847C1542.62 761.815 1542.45 760.912 1542.09 760.138C1541.72 759.363 1541.19 758.762 1540.52 758.333C1539.86 757.884 1539.09 757.641 1538.21 757.605C1537.28 757.566 1536.46 757.754 1535.75 758.168C1535.06 758.582 1534.52 759.171 1534.13 759.936C1533.74 760.679 1533.53 761.545 1533.49 762.535C1533.44 763.609 1533.6 764.544 1533.97 765.339C1534.36 766.115 1534.88 766.716 1535.54 767.144C1536.22 767.573 1536.96 767.804 1537.75 767.837Z" fill="#F0F0F0"/>
<path d="M1556.17 771.698C1554.64 771.635 1553.27 771.241 1552.08 770.517C1550.89 769.793 1549.96 768.805 1549.3 767.554C1548.65 766.283 1548.37 764.816 1548.43 763.153C1548.5 761.447 1548.93 759.999 1549.72 758.808C1550.51 757.617 1551.53 756.721 1552.8 756.119C1554.07 755.497 1555.46 755.217 1556.98 755.28C1558.51 755.343 1559.87 755.737 1561.07 756.461C1562.28 757.165 1563.22 758.142 1563.88 759.393C1564.57 760.645 1564.88 762.124 1564.81 763.829C1564.74 765.408 1564.32 766.804 1563.56 768.017C1562.81 769.231 1561.79 770.17 1560.5 770.833C1559.23 771.477 1557.79 771.765 1556.17 771.698ZM1556.33 768.604C1557.23 768.642 1558.03 768.453 1558.72 768.039C1559.44 767.604 1560.01 767.006 1560.44 766.243C1560.87 765.481 1561.11 764.604 1561.15 763.615C1561.19 762.583 1561.03 761.68 1560.66 760.905C1560.29 760.131 1559.77 759.529 1559.09 759.1C1558.44 758.651 1557.67 758.409 1556.78 758.372C1555.86 758.334 1555.04 758.522 1554.33 758.935C1553.64 759.35 1553.1 759.939 1552.71 760.703C1552.32 761.446 1552.1 762.313 1552.06 763.303C1552.02 764.376 1552.18 765.311 1552.55 766.107C1552.94 766.882 1553.46 767.484 1554.11 767.912C1554.79 768.34 1555.53 768.571 1556.33 768.604Z" fill="#F0F0F0"/>
<path d="M1567.25 771.777L1567.9 756.111L1571.37 756.254L1571.35 758.404C1571.9 757.605 1572.66 757.014 1573.6 756.631C1574.54 756.227 1575.52 756.046 1576.53 756.087C1578.36 756.163 1579.82 756.803 1580.9 758.008C1581.99 759.213 1582.49 760.942 1582.4 763.196L1582.02 772.387L1578.48 772.241L1578.84 763.492C1578.9 762.165 1578.63 761.11 1578.03 760.326C1577.43 759.542 1576.52 759.124 1575.3 759.074C1574.08 759.024 1573.09 759.394 1572.35 760.186C1571.62 760.957 1571.23 762.038 1571.17 763.428L1570.82 771.924L1567.25 771.777Z" fill="#F0F0F0"/>
<path d="M1586.47 765.863L1586.7 750.433L1590.54 750.592L1589.5 765.988L1586.47 765.863ZM1587.76 772.94C1587.08 772.913 1586.53 772.657 1586.08 772.175C1585.66 771.694 1585.46 771.126 1585.49 770.474C1585.52 769.821 1585.76 769.283 1586.22 768.859C1586.7 768.415 1587.28 768.206 1587.95 768.234C1588.6 768.261 1589.14 768.515 1589.56 768.997C1590.01 769.458 1590.22 770.015 1590.19 770.668C1590.16 771.321 1589.91 771.869 1589.43 772.313C1588.97 772.758 1588.41 772.967 1587.76 772.94Z" fill="#F0F0F0"/>
<path d="M1561 268.334C1597.34 241.928 1624.48 173.963 1618.98 125.119C1617.59 112.807 1613.49 92.6977 1607.37 78.622L1655.75 45.8779L1763.42 290.615L1715.05 323.358C1708.81 309.366 1697.4 294.202 1689.79 286.09C1659.65 253.909 1598.86 245.36 1561.27 268.941" fill="url(#paint1_linear_352_62)"/>
<path d="M1561 268.334C1597.34 241.928 1624.48 173.963 1618.98 125.119C1617.59 112.807 1613.49 92.6977 1607.37 78.622L1655.75 45.8779L1763.42 290.615L1715.05 323.358C1708.81 309.366 1697.4 294.202 1689.79 286.09C1659.65 253.909 1598.86 245.36 1561.27 268.941" stroke="#282828" stroke-width="1.8" stroke-miterlimit="10"/>
<path d="M1587.34 251.091C1624.71 225.767 1681.5 237.731 1712.24 270.543C1719.84 278.654 1731.26 293.819 1737.49 307.811L1762.86 290.764L1655.36 46.4338L1629.81 63.0819C1635.93 77.1574 1640.03 97.2665 1641.42 109.578C1647.02 159.38 1624.75 225.863 1587.34 251.091Z" stroke="#282828" stroke-width="1.8" stroke-miterlimit="10"/>
<path d="M1787.04 116.814L1789.09 115.39C1751.65 140.415 1706.95 121.214 1678.71 85.3818C1669.66 73.89 1662.17 60.6576 1655.97 46.5796C1675.82 92.1321 1681.18 154.337 1653.9 197.474C1647.3 207.918 1638.84 216.238 1629.47 222.581C1667.03 197.467 1711.94 216.438 1740.34 252.451C1749.39 263.928 1756.58 276.491 1762.76 290.563C1743.25 245.785 1737.97 185.91 1763.59 142.654C1769.85 132.088 1777.92 123.398 1787.05 116.82L1787.04 116.814Z" fill="#F0F0F0" stroke="#282828" stroke-width="1.8" stroke-miterlimit="10"/>
<path d="M1667.33 84.6804L1618.29 117.839" stroke="#282828" stroke-width="1.8" stroke-miterlimit="10"/>
<path d="M1671.72 124.838L1617.92 161.201" stroke="#282828" stroke-width="1.8" stroke-miterlimit="10"/>
<path d="M1666.63 166.834L1604.37 208.914" stroke="#282828" stroke-width="1.8" stroke-miterlimit="10"/>
<path d="M1743.46 257.684L1694.4 290.843" stroke="#282828" stroke-width="1.8" stroke-miterlimit="10"/>
<path d="M1718.59 231.367L1664.79 267.729" stroke="#282828" stroke-width="1.8" stroke-miterlimit="10"/>
<path d="M1687.35 213.94L1625.1 256.02" stroke="#282828" stroke-width="1.8" stroke-miterlimit="10"/>
<path d="M1632.97 220.206L1562.47 267.858" stroke="#282828" stroke-width="1.8" stroke-miterlimit="10"/>
<defs>
<linearGradient id="paint0_linear_352_62" x1="66.2765" y1="673.072" x2="140.107" y2="564.58" gradientUnits="userSpaceOnUse">
<stop stop-color="#4285F4"/>
<stop offset="0.27" stop-color="#4285F4"/>
<stop offset="0.75" stop-color="#34A853"/>
<stop offset="1" stop-color="#34A853"/>
</linearGradient>
<linearGradient id="paint1_linear_352_62" x1="1633.58" y1="108.159" x2="1756.58" y2="249.661" gradientUnits="userSpaceOnUse">
<stop stop-color="#FFCB32"/>
<stop offset="0.24" stop-color="#FFCB32"/>
<stop offset="0.76" stop-color="#34A853"/>
<stop offset="1" stop-color="#34A853"/>
</linearGradient>
</defs>
</svg>
