<svg width="372" height="94" viewBox="0 0 372 94" fill="none" xmlns="http://www.w3.org/2000/svg">
<path d="M3.18932 92.9669C2.08484 92.9815 1.17766 92.0979 1.16306 90.9935L0.157927 14.9483C0.143328 13.8438 1.02685 12.9366 2.13132 12.922L13.7978 12.7678C14.9023 12.7532 15.8095 13.6367 15.8241 14.7412L16.1672 40.7012C16.1818 41.8057 17.089 42.6892 18.1935 42.6746L42.0558 42.3592C43.1603 42.3446 44.0438 41.4374 44.0292 40.3329L43.6861 14.3729C43.6715 13.2684 44.555 12.3613 45.6595 12.3467L57.2268 12.1938C58.3313 12.1792 59.2385 13.0627 59.2531 14.1672L60.2582 90.2124C60.2728 91.3168 59.3893 92.224 58.2848 92.2386L46.7175 92.3915C45.613 92.4061 44.7058 91.5226 44.6912 90.4181L44.2876 59.8841C44.273 58.7797 43.3658 57.8961 42.2614 57.9107L18.399 58.2261C17.2946 58.2407 16.411 59.1479 16.4256 60.2524L16.8292 90.7864C16.8438 91.8909 15.9603 92.7981 14.8558 92.8127L3.18932 92.9669Z" fill="#468EF5"/>
<path d="M80.9165 93.3119C78.0742 93.3495 75.4215 92.7365 72.9586 91.4728C70.4947 90.133 68.4859 88.2152 66.9323 85.7196C65.4438 83.1469 64.6754 80.031 64.627 76.3718C64.5716 72.1789 65.4853 68.7739 67.368 66.1566C69.2497 63.4631 71.7689 61.4855 74.9257 60.2239C78.1485 58.9613 81.6769 58.3047 85.5108 58.2541L94.6161 58.1337C95.7206 58.1191 96.6202 57.2085 96.4804 56.1129C96.3295 54.9299 96.054 53.8452 95.6541 52.859C95.039 51.3422 94.131 50.1724 92.9301 49.3495C91.7282 48.4504 90.2348 48.0127 88.4501 48.0363C86.5992 48.0608 84.9197 48.5404 83.4114 49.4753C82.3011 50.1636 81.4999 51.1989 81.0079 52.5815C80.6832 53.4937 79.8932 54.211 78.925 54.2238L67.9541 54.3688C66.8001 54.384 65.8634 53.4196 66.0189 52.2761C66.468 48.9752 67.5786 46.083 69.3507 43.5996C71.4918 40.5214 74.2368 38.1215 77.5859 36.3998C81.001 34.6772 84.6586 33.7902 88.5586 33.7386C93.1196 33.6784 97.1319 34.6165 100.595 36.5532C104.124 38.4127 106.871 41.1594 108.836 44.7932C110.801 48.3508 111.817 52.6835 111.884 57.7911L112.076 72.3135C112.098 73.9906 112.314 75.284 112.722 76.1936C112.996 76.7175 113.498 77.0863 114.23 77.3C115.29 77.6099 116.223 78.4152 116.237 79.5197L116.369 89.4707C116.383 90.5752 115.5 91.4872 114.395 91.4644C112.093 91.4168 110.113 91.2251 108.454 90.8893C106.333 90.4599 104.537 89.6449 103.066 88.4444C102.286 87.7668 101.54 86.9278 100.829 85.9273C99.929 84.6599 97.9514 84.5583 96.964 85.7589C95.3044 87.7769 93.4476 89.4097 91.3935 90.6573C88.4411 92.3738 84.9488 93.2586 80.9165 93.3119ZM86.0925 79.7479C88.0094 79.7225 89.7551 79.242 91.3294 78.3062C92.9689 77.2933 94.2728 75.9037 95.2411 74.1372C96.2095 72.3707 96.6791 70.3821 96.6498 68.1714C96.6448 67.7924 96.3336 67.4893 95.9547 67.4943L87.2212 67.6098C85.8992 67.6272 84.6793 67.8721 83.5616 68.3444C82.4429 68.7404 81.5591 69.4002 80.9102 70.3237C80.2603 71.171 79.9454 72.357 79.9655 73.8816C79.9948 76.0924 80.6434 77.6469 81.9114 78.5451C83.1784 79.367 84.5721 79.768 86.0925 79.7479Z" fill="#468EF5"/>
<path d="M143.677 92.4824C138.72 92.5479 134.341 91.3858 130.541 88.9962C126.741 86.6065 123.721 83.2153 121.481 78.8227C119.306 74.3529 118.179 69.1067 118.099 63.0843C118.023 57.2906 118.98 52.1694 120.971 47.7208C122.96 43.196 125.823 39.6508 129.557 37.0853C133.291 34.4436 137.735 33.0886 142.891 33.0205C148.708 32.9436 153.821 34.6297 158.23 38.0788C162.161 41.0859 164.983 45.7441 166.697 52.0534C167.028 53.2724 166.093 54.4441 164.83 54.4608L152.402 54.625C151.518 54.6367 150.748 54.0588 150.394 53.249C149.735 51.742 148.861 50.5818 147.774 49.7683C146.437 48.6423 144.776 48.0924 142.793 48.1186C140.612 48.1474 138.836 48.8571 137.466 50.2477C136.162 51.6373 135.195 53.4419 134.563 55.6614C133.997 57.88 133.731 60.2853 133.766 62.8773C133.799 65.3929 134.128 67.7904 134.753 70.0695C135.443 72.2715 136.459 74.0499 137.799 75.4046C139.205 76.7585 140.999 77.421 143.18 77.3921C145.163 77.3659 146.808 76.7723 148.115 75.6114C149.175 74.7145 150.015 73.5252 150.633 72.0434C150.971 71.2345 151.722 70.6458 152.598 70.6342L165.047 70.4697C166.308 70.453 167.274 71.5957 166.969 72.8196C166.063 76.4595 164.7 79.6124 162.881 82.2784C160.675 85.5099 157.932 88.0242 154.65 89.8212C151.433 91.5412 147.776 92.4282 143.677 92.4824Z" fill="#468EF5"/>
<path d="M174.341 90.7047C173.237 90.7192 172.33 89.8357 172.315 88.7313L171.31 12.686C171.295 11.5816 172.179 10.6744 173.283 10.6598L184.553 10.5108C185.658 10.4962 186.565 11.3797 186.579 12.4842L187.071 49.652C187.097 51.6473 189.709 52.3778 190.766 50.6858L200.858 34.5442C201.219 33.9676 201.848 33.6137 202.528 33.6047L216.375 33.4217C218.004 33.4001 218.974 35.232 218.04 36.5675L201.252 60.5785C200.756 61.2877 200.772 62.2354 201.293 62.9269L219.35 86.9283C220.334 88.2367 219.415 90.1089 217.778 90.1305L203.886 90.3141C203.199 90.3232 202.555 89.9784 202.181 89.4012L191.063 72.2259C189.972 70.5415 187.357 71.3328 187.384 73.3392L187.585 88.5294C187.599 89.6339 186.716 90.5411 185.611 90.5557L174.341 90.7047Z" fill="#468EF5"/>
<path d="M280.587 90.6728C275.827 90.7357 271.254 89.8431 266.866 87.9949C262.544 86.1459 258.641 83.4526 255.156 79.915C251.737 76.3766 249.003 72.0667 246.952 66.9853C244.968 61.903 243.933 56.1601 243.849 49.7565C243.764 43.3529 244.646 37.5846 246.496 32.4517C248.411 27.3178 251.031 22.9372 254.355 19.3097C257.745 15.6813 261.576 12.8857 265.847 10.9231C270.185 8.95963 274.733 7.94644 279.492 7.88353C284.252 7.82062 288.825 8.71325 293.213 10.5614C297.601 12.4096 301.504 15.1029 304.923 18.6413C308.408 22.1788 311.175 26.4883 313.226 31.5697C315.276 36.6511 316.344 42.3936 316.429 48.7972C316.513 55.2008 315.598 60.9695 313.682 66.1033C311.767 71.2371 309.114 75.6183 305.724 79.2467C302.4 82.8742 298.569 85.6697 294.232 87.6332C289.894 89.5967 285.346 90.6099 280.587 90.6728ZM280.37 74.3208C283.609 74.2779 286.77 73.3212 289.853 71.4505C292.935 69.5799 295.444 66.8019 297.379 63.1164C299.379 59.3539 300.341 54.652 300.267 49.0108C300.191 43.2933 299.105 38.6185 297.007 34.9864C294.908 31.2781 292.294 28.5677 289.164 26.8554C286.033 25.0669 282.881 24.1936 279.708 24.2356C276.536 24.2775 273.408 25.2338 270.325 27.1044C267.308 28.898 264.799 31.676 262.799 35.4385C260.865 39.124 259.935 43.8254 260.011 49.5429C260.085 55.1841 261.139 59.8594 263.171 63.5686C265.202 67.2016 267.751 69.9128 270.816 71.7022C273.947 73.4907 277.131 74.3636 280.37 74.3208Z" fill="#468EF5"/>
<path d="M324.523 88.7196C323.419 88.7342 322.512 87.8507 322.497 86.7462L321.8 34.0284C321.786 32.9239 322.669 32.0167 323.773 32.0021L335.528 31.8467C336.365 31.8357 337.052 32.5049 337.063 33.3414C337.083 34.8683 339.317 35.5454 340.426 34.4954C341.352 33.6183 342.342 32.8914 343.397 32.3146C345.825 30.9863 348.56 30.3021 351.601 30.2619C357.748 30.1806 362.438 32.406 365.672 36.9381C368.904 41.3939 370.568 47.2429 370.664 54.485L371.082 86.104C371.096 87.2085 370.213 88.1157 369.108 88.1303L357.938 88.278C356.833 88.2926 355.926 87.409 355.911 86.3046L355.522 56.8582C355.475 53.2752 354.677 50.4265 353.128 48.3121C351.579 46.1214 349.284 45.0462 346.243 45.0864C343.268 45.1257 341.036 46.2989 339.546 48.606C338.055 50.8368 337.332 53.6675 337.377 57.098L337.766 86.5444C337.781 87.6489 336.898 88.5561 335.793 88.5707L324.523 88.7196Z" fill="#468EF5"/>
<path d="M211.619 30.6222C211.046 16.2205 210.73 15.8669 198.231 15.5895C210.718 14.9841 211.023 14.6201 211.217 0.208234C211.789 14.61 212.106 14.9636 224.604 15.2409C212.117 15.8486 211.812 16.2059 211.619 30.6222Z" fill="#468EF5"/>
</svg>
