<svg width="40" height="40" viewBox="0 0 40 40" fill="none" xmlns="http://www.w3.org/2000/svg">
<g id="Symbol" clip-path="url(#clip0_118_370)">
<path id="Vector" d="M11.7167 0.140119C9.58871 0.240519 8.13551 0.580119 6.86511 1.07932C5.55031 1.59172 4.43591 2.27932 3.32711 3.39212C2.21831 4.50492 1.53551 5.62012 1.02671 6.93692C0.53431 8.21012 0.20071 9.66452 0.10671 11.7937C0.0127104 13.9229 -0.00808964 14.6073 0.00231036 20.0385C0.0127104 25.4697 0.0367104 26.1505 0.13991 28.2841C0.24151 30.4117 0.57991 31.8645 1.07911 33.1353C1.59231 34.4501 2.27911 35.5641 3.39231 36.6733C4.50551 37.7825 5.61991 38.4637 6.93991 38.9733C8.21191 39.4649 9.66671 39.8001 11.7955 39.8933C13.9243 39.9865 14.6095 40.0081 20.0391 39.9977C25.4687 39.9873 26.1523 39.9633 28.2855 39.8621C30.4187 39.7609 31.8639 39.4201 33.1351 38.9233C34.4499 38.4089 35.5647 37.7233 36.6731 36.6097C37.7815 35.4961 38.4639 34.3801 38.9723 33.0625C39.4651 31.7905 39.7999 30.3357 39.8923 28.2085C39.9855 26.0737 40.0075 25.3921 39.9971 19.9617C39.9867 14.5313 39.9623 13.8505 39.8611 11.7177C39.7599 9.58492 39.4211 8.13652 38.9223 6.86492C38.4083 5.55012 37.7223 4.43692 36.6095 3.32692C35.4967 2.21692 34.3799 1.53492 33.0627 1.02772C31.7899 0.535319 30.3359 0.199719 28.2071 0.107719C26.0783 0.0157194 25.3931 -0.00788064 19.9615 0.00251936C14.5299 0.0129194 13.8499 0.0361194 11.7167 0.140119ZM11.9503 36.2953C10.0003 36.2105 8.94151 35.8865 8.23591 35.6153C7.30151 35.2553 6.63591 34.8201 5.93271 34.1237C5.22951 33.4273 4.79751 32.7593 4.43271 31.8269C4.15871 31.1213 3.82871 30.0637 3.73751 28.1137C3.63831 26.0061 3.61751 25.3733 3.60591 20.0337C3.59431 14.6941 3.61471 14.0621 3.70711 11.9537C3.79031 10.0053 4.11631 8.94532 4.38711 8.24012C4.74711 7.30452 5.18071 6.64012 5.87871 5.93732C6.57671 5.23452 7.24271 4.80172 8.17591 4.43692C8.88071 4.16172 9.93831 3.83452 11.8875 3.74172C13.9967 3.64172 14.6287 3.62172 19.9675 3.61012C25.3063 3.59852 25.9399 3.61852 28.0499 3.71132C29.9983 3.79612 31.0587 4.11892 31.7631 4.39132C32.6979 4.75132 33.3631 5.18372 34.0659 5.88292C34.7687 6.58212 35.2019 7.24572 35.5667 8.18092C35.8423 8.88372 36.1695 9.94092 36.2615 11.8913C36.3619 14.0005 36.3847 14.6329 36.3943 19.9713C36.4039 25.3097 36.3851 25.9437 36.2927 28.0513C36.2075 30.0013 35.8843 31.0605 35.6127 31.7669C35.2527 32.7009 34.8187 33.3669 34.1203 34.0693C33.4219 34.7717 32.7567 35.2045 31.8231 35.5693C31.1191 35.8441 30.0603 36.1721 28.1127 36.2649C26.0035 36.3641 25.3715 36.3849 20.0307 36.3965C14.6899 36.4081 14.0599 36.3865 11.9507 36.2953M28.2547 9.31092C28.2555 9.78563 28.3971 10.2494 28.6615 10.6437C28.9259 11.0379 29.3013 11.3449 29.7402 11.5258C30.179 11.7067 30.6617 11.7534 31.1271 11.66C31.5926 11.5665 32.0198 11.3371 32.3549 11.0009C32.6899 10.6646 32.9177 10.2365 33.0095 9.77072C33.1012 9.30496 33.0528 8.82245 32.8703 8.38423C32.6878 7.946 32.3794 7.57174 31.9842 7.30878C31.5889 7.04582 31.1246 6.90597 30.6499 6.90692C30.0135 6.90819 29.4037 7.16216 28.9545 7.61297C28.5054 8.06379 28.2536 8.67454 28.2547 9.31092ZM9.73071 20.0201C9.74191 25.6921 14.3483 30.2797 20.0191 30.2689C25.6899 30.2581 30.2807 25.6521 30.2699 19.9801C30.2591 14.3081 25.6515 9.71932 19.9799 9.73052C14.3083 9.74172 9.71991 14.3489 9.73071 20.0201ZM13.3331 20.0129C13.3305 18.6944 13.719 17.4046 14.4493 16.3068C15.1797 15.209 16.2192 14.3525 17.4364 13.8455C18.6536 13.3385 19.9938 13.2038 21.2876 13.4585C22.5813 13.7132 23.7705 14.3457 24.7047 15.2763C25.6389 16.2068 26.2762 17.3934 26.536 18.6862C26.7958 19.9789 26.6664 21.3196 26.1643 22.5388C25.6621 23.758 24.8096 24.8009 23.7147 25.5356C22.6199 26.2704 21.3317 26.6639 20.0131 26.6665C19.1376 26.6684 18.2703 26.4977 17.4607 26.1643C16.6511 25.8309 15.9152 25.3413 15.2949 24.7234C14.6746 24.1056 14.182 23.3716 13.8454 22.5633C13.5088 21.7551 13.3347 20.8884 13.3331 20.0129Z" fill="white"/>
</g>
<defs>
<clipPath id="clip0_118_370">
<rect width="40" height="40" fill="white"/>
</clipPath>
</defs>
</svg>
