<svg width="40" height="36" viewBox="0 0 40 36" fill="none" xmlns="http://www.w3.org/2000/svg">
<g id="18841257_5993090" clip-path="url(#clip0_118_378)">
<path id="Path 2525" d="M38.0371 32.8497C38.1229 32.8505 38.208 32.8337 38.2871 32.8003C38.3662 32.7669 38.4375 32.7177 38.4968 32.6555C38.556 32.5934 38.6018 32.5198 38.6314 32.4392C38.661 32.3587 38.6737 32.2729 38.6687 32.1872C38.6687 31.7174 38.3853 31.4929 37.8038 31.4929H36.8641V33.9527H37.2176V32.8805H37.6518L37.6618 32.8935L38.3357 33.9527H38.7137L37.9886 32.8564L38.0371 32.8497ZM37.6284 32.6033H37.2186V31.7717H37.738C38.0063 31.7717 38.3122 31.8155 38.3122 32.1668C38.3122 32.5709 38.0027 32.6033 37.6263 32.6033" fill="white"/>
<path id="Path 2520" d="M28.8181 29.7671H23.8067V21.9189C23.8067 20.0474 23.7733 17.6382 21.2002 17.6382C18.59 17.6382 18.1907 19.6773 18.1907 21.7826V29.7666H13.1792V13.6275H17.9902V15.8331H18.0576C18.539 15.0098 19.2348 14.3326 20.0707 13.8735C20.9066 13.4144 21.8514 13.1907 22.8044 13.226C27.8837 13.226 28.8202 16.567 28.8202 20.9134L28.8181 29.7671ZM7.52456 11.4214C6.94936 11.4215 6.38704 11.251 5.90873 10.9316C5.43042 10.6121 5.05761 10.1579 4.8374 9.62657C4.61719 9.0952 4.55947 8.51046 4.67159 7.9463C4.7837 7.38214 5.0606 6.8639 5.46725 6.4571C5.8739 6.0503 6.39205 5.77323 6.95617 5.66091C7.52029 5.5486 8.10503 5.60608 8.63648 5.82611C9.16793 6.04613 9.6222 6.4188 9.94184 6.897C10.2615 7.3752 10.4322 7.93744 10.4323 8.51264C10.4323 8.89455 10.3572 9.27274 10.2111 9.6256C10.065 9.97847 9.85085 10.2991 9.58085 10.5692C9.31084 10.8393 8.99026 11.0536 8.63744 11.1998C8.28462 11.346 7.90647 11.4213 7.52456 11.4214ZM10.0303 29.7671H5.0136V13.6275H10.0303V29.7671ZM31.3166 0.951035H2.49534C1.84118 0.943653 1.21082 1.19628 0.742824 1.65341C0.274832 2.11053 0.00749539 2.73476 -0.000488281 3.38891V32.3297C0.00722215 32.9842 0.274402 33.6088 0.742378 34.0664C1.21035 34.524 1.84085 34.7772 2.49534 34.7702H31.3166C31.9724 34.7784 32.6046 34.526 33.0744 34.0684C33.5443 33.6109 33.8132 32.9855 33.8223 32.3297V3.38683C33.813 2.73137 33.5438 2.10644 33.074 1.64932C32.6041 1.19221 31.972 0.940301 31.3166 0.948946" fill="white"/>
<path id="Path 2526" d="M37.6712 30.3972C37.0615 30.403 36.4789 30.6501 36.0509 31.0844C35.6228 31.5186 35.3842 32.1047 35.3871 32.7145C35.39 33.3242 35.6343 33.908 36.0665 34.3381C36.4987 34.7682 37.0837 35.0097 37.6934 35.0097C38.3032 35.0097 38.8881 34.7682 39.3203 34.3381C39.7525 33.908 39.9968 33.3242 39.9997 32.7145C40.0027 32.1047 39.764 31.5186 39.336 31.0844C38.9079 30.6501 38.3253 30.403 37.7156 30.3972H37.6712ZM37.6712 34.7457C37.2713 34.7523 36.8784 34.6402 36.5422 34.4236C36.206 34.2069 35.9415 33.8954 35.7823 33.5285C35.6231 33.1616 35.5763 32.7557 35.6478 32.3621C35.7193 31.9686 35.9059 31.6051 36.184 31.3176C36.4621 31.0301 36.8191 30.8315 37.2101 30.747C37.601 30.6624 38.0083 30.6957 38.3803 30.8426C38.7523 30.9895 39.0724 31.2434 39.3002 31.5722C39.5279 31.901 39.653 32.29 39.6596 32.6899C39.6596 32.7014 39.6596 32.7124 39.6596 32.7238C39.6708 33.2485 39.4732 33.7561 39.1102 34.135C38.7472 34.514 38.2486 34.7333 37.7239 34.7446H37.6718" fill="white"/>
</g>
<defs>
<clipPath id="clip0_118_378">
<rect width="40" height="34.1021" fill="white" transform="translate(0 0.948944)"/>
</clipPath>
</defs>
</svg>
