<svg width="96" height="96" viewBox="0 0 96 96" fill="none" xmlns="http://www.w3.org/2000/svg">
<rect x="0.5" y="0.5" width="95" height="95" rx="9.5" stroke="#F0F0F0"/>
<path d="M70.531 70.5316H61.0482V55.6811C61.0482 52.1399 60.985 47.5812 56.1162 47.5812C51.1773 47.5812 50.4216 51.4395 50.4216 55.4233V70.5306H40.9387V39.992H50.0422V44.1654H50.1697C51.0807 42.6077 52.3972 41.3263 53.9789 40.4576C55.5606 39.5889 57.3484 39.1655 59.1517 39.2324C68.7629 39.2324 70.535 45.5543 70.535 53.7786L70.531 70.5316ZM30.239 35.8176C29.1506 35.8178 28.0866 35.4953 27.1815 34.8907C26.2764 34.2862 25.571 33.4269 25.1543 32.4214C24.7376 31.416 24.6284 30.3095 24.8406 29.242C25.0527 28.1745 25.5767 27.1939 26.3461 26.4241C27.1156 25.6544 28.0961 25.1301 29.1635 24.9176C30.2309 24.705 31.3374 24.8138 32.343 25.2301C33.3486 25.6465 34.2082 26.3516 34.813 27.2565C35.4179 28.1613 35.7408 29.2252 35.741 30.3136C35.7411 31.0363 35.5989 31.7519 35.3225 32.4196C35.046 33.0873 34.6409 33.694 34.1299 34.2051C33.619 34.7162 33.0124 35.1217 32.3448 35.3983C31.6772 35.675 30.9617 35.8175 30.239 35.8176ZM34.9804 70.5316H25.4877V39.992H34.9804V70.5316ZM75.2586 16.0055H20.7226C19.4848 15.9915 18.292 16.4695 17.4065 17.3345C16.521 18.1995 16.0151 19.3806 16 20.6184V75.3807C16.0146 76.6191 16.5202 77.801 17.4057 78.6669C18.2912 79.5328 19.4842 80.0118 20.7226 79.9986H75.2586C76.4995 80.0142 77.6959 79.5366 78.5849 78.6707C79.4739 77.8048 79.9828 76.6215 80 75.3807V20.6145C79.9823 19.3742 79.473 18.1917 78.584 17.3268C77.6949 16.4618 76.4989 15.9851 75.2586 16.0015" fill="#0A66C2"/>
</svg>
