<svg width="96" height="96" viewBox="0 0 96 96" fill="none" xmlns="http://www.w3.org/2000/svg">
<path d="M0.5 10C0.5 4.7533 4.7533 0.5 10 0.5H85.6929C90.9396 0.5 95.1929 4.75329 95.1929 10V86C95.1929 91.2467 90.9396 95.5 85.6929 95.5H10C4.75329 95.5 0.5 91.2467 0.5 86V10Z" stroke="#F0F0F0"/>
<path fill-rule="evenodd" clip-rule="evenodd" d="M70.4125 25.3001C64.4259 19.3058 56.4637 16.003 47.9802 16C30.4991 16 16.2722 30.2254 16.2661 47.7111C16.2631 53.3008 17.7244 58.7568 20.4995 63.5651L16 80L32.812 75.5902C37.4438 78.1175 42.6595 79.448 47.9666 79.4496H47.9802C65.4582 79.4496 79.6868 65.2225 79.6929 47.7369C79.6959 39.2626 76.4006 31.296 70.4125 25.3017V25.3001ZM47.9802 74.0939H47.9696C43.2404 74.0925 38.6011 72.8211 34.5532 70.4201L33.5906 69.8484L23.6138 72.4653L26.2764 62.7378L25.6499 61.7403C23.0116 57.5435 21.6172 52.6926 21.6202 47.7127C21.6263 33.18 33.4507 21.3556 47.991 21.3556C55.0313 21.3587 61.6492 24.1034 66.6261 29.0865C71.6032 34.0681 74.3418 40.692 74.3388 47.7339C74.3326 62.2681 62.5084 74.0925 47.9802 74.0925V74.0939ZM62.4383 54.3532C61.646 53.9563 57.7503 52.0403 57.0233 51.7757C56.2965 51.5111 55.7689 51.3789 55.2412 52.1726C54.7136 52.9664 53.1945 54.7516 52.7322 55.2792C52.2699 55.8084 51.8076 55.8739 51.0153 55.4768C50.2232 55.08 47.67 54.2437 44.6425 51.5445C42.2871 49.443 40.6964 46.8489 40.2343 46.0551C39.7719 45.2614 40.1856 44.8325 40.5808 44.4387C40.9366 44.0829 41.3731 43.5127 41.77 43.0504C42.167 42.5881 42.2977 42.2567 42.5622 41.7289C42.8269 41.1997 42.6946 40.7376 42.4969 40.3406C42.2991 39.9437 40.7148 36.0433 40.0533 34.4573C39.41 32.9124 38.7562 33.1222 38.2711 33.0964C37.8088 33.0736 37.2812 33.069 36.752 33.069C36.2228 33.069 35.3651 33.2667 34.6383 34.0605C33.9115 34.8541 31.8647 36.7717 31.8647 40.6705C31.8647 44.5694 34.7038 48.3392 35.1006 48.8683C35.4974 49.3975 40.6888 57.4005 48.6371 60.8341C50.5274 61.6506 52.0038 62.1388 53.1549 62.5037C55.0527 63.1074 56.7801 63.0223 58.1456 62.8185C59.6678 62.5904 62.8337 60.901 63.4936 59.0504C64.1536 57.1997 64.1536 55.6122 63.9559 55.2822C63.7583 54.9523 63.2291 54.753 62.4369 54.3562L62.4383 54.3532Z" fill="#25D366"/>
</svg>
