<svg width="97" height="96" viewBox="0 0 97 96" fill="none" xmlns="http://www.w3.org/2000/svg">
<path d="M1.19336 10C1.19336 4.7533 5.44665 0.5 10.6934 0.5H86.6934C91.9401 0.5 96.1934 4.75329 96.1934 10V86C96.1934 91.2467 91.9401 95.5 86.6934 95.5H10.6934C5.44666 95.5 1.19336 91.2467 1.19336 86V10Z" stroke="#F0F0F0"/>
<g clip-path="url(#clip0_164_139)">
<path d="M67.0709 19.0844H76.8379L55.5046 43.6305L80.6934 76.9157H60.9022L45.4805 56.739L27.7456 76.9157H17.9785L40.854 50.6988L16.6934 19.0844H36.9986L51.0066 37.5904L67.0709 19.0844ZM63.601 71.004H68.9986L34.0428 24.6105H28.1311L63.601 71.004Z" fill="black"/>
</g>
<defs>
<clipPath id="clip0_164_139">
<rect width="64" height="57.8313" fill="white" transform="translate(16.6934 19.0844)"/>
</clipPath>
</defs>
</svg>
