<svg width="97" height="96" viewBox="0 0 97 96" fill="none" xmlns="http://www.w3.org/2000/svg">
<rect x="1.19336" y="0.5" width="95" height="95" rx="9.5" stroke="#F0F0F0"/>
<g clip-path="url(#clip0_164_137)">
<mask id="mask0_164_137" style="mask-type:luminance" maskUnits="userSpaceOnUse" x="16" y="20" width="65" height="56">
<path d="M80.6934 20H16.6934V76H80.6934V20Z" fill="white"/>
</mask>
<g mask="url(#mask0_164_137)">
<path d="M70.8721 24.9869C66.7929 22.8727 62.4187 21.3151 57.8451 20.423C57.7618 20.4058 57.6786 20.4488 57.6357 20.5349C57.0731 21.6651 56.45 23.1395 56.0136 24.2984C51.0944 23.4665 46.2005 23.4665 41.3822 24.2984C40.9458 23.1137 40.3 21.6651 39.7349 20.5349C39.692 20.4517 39.6088 20.4086 39.5255 20.423C34.9545 21.3123 30.5802 22.8699 26.4985 24.9869C26.4632 25.0041 26.4329 25.0328 26.4128 25.0701C18.1157 39.0715 15.8428 52.7288 16.9578 66.2167C16.9629 66.2827 16.9957 66.3458 17.0411 66.3859C22.5152 70.9268 27.8179 73.6836 33.0221 75.5108C33.1054 75.5395 33.1936 75.5051 33.2466 75.4276C34.4777 73.5287 35.5751 71.5264 36.516 69.4208C36.5715 69.2975 36.5185 69.1512 36.405 69.1025C34.6644 68.3566 33.007 67.4473 31.4126 66.4147C31.2865 66.3315 31.2764 66.1277 31.3924 66.0302C31.728 65.7462 32.0635 65.4507 32.3839 65.1524C32.4419 65.0979 32.5226 65.0864 32.5908 65.1209C43.0648 70.5224 54.4041 70.5224 64.7546 65.1209C64.8227 65.0836 64.9035 65.0951 64.964 65.1496C65.2844 65.4479 65.6199 65.7462 65.9579 66.0302C66.074 66.1277 66.0664 66.3315 65.9403 66.4147C64.346 67.4674 62.6885 68.3566 60.9454 69.0996C60.8319 69.1484 60.7814 69.2975 60.837 69.4208C61.798 71.5235 62.8954 73.5257 64.1037 75.4248C64.1542 75.5051 64.245 75.5395 64.3283 75.5108C69.5577 73.6836 74.8603 70.9268 80.3345 66.3859C80.3825 66.3458 80.4127 66.2856 80.4178 66.2196C81.7522 50.626 78.1827 37.0807 70.9553 25.0729C70.9376 25.0328 70.9074 25.0041 70.8721 24.9869ZM38.0801 58.004C34.9267 58.004 32.3284 54.7339 32.3284 50.7179C32.3284 46.7018 34.8763 43.4317 38.0801 43.4317C41.309 43.4317 43.8822 46.7306 43.8317 50.7179C43.8317 54.7339 41.2838 58.004 38.0801 58.004ZM59.346 58.004C56.1927 58.004 53.5944 54.7339 53.5944 50.7179C53.5944 46.7018 56.1422 43.4317 59.346 43.4317C62.575 43.4317 65.1481 46.7306 65.0977 50.7179C65.0977 54.7339 62.575 58.004 59.346 58.004Z" fill="#5865F2"/>
</g>
</g>
<defs>
<clipPath id="clip0_164_137">
<rect width="64" height="56" fill="white" transform="translate(16.6934 20)"/>
</clipPath>
</defs>
</svg>
