<svg width="1728" height="278" viewBox="0 0 1728 278" fill="none" xmlns="http://www.w3.org/2000/svg">
<g clip-path="url(#clip0_54_96)">
<rect width="1899.98" height="111.69" transform="translate(-154.62 166.066) rotate(-5)" fill="#4285F4"/>
<path d="M-113.529 222.003L-119.625 222.536L-120.692 210.343L-114.596 209.809L-113.529 222.003ZM-107.432 221.469L-108.499 209.276L-102.402 208.743L-101.335 220.936L-107.432 221.469ZM-106.365 233.663L-112.462 234.196L-113.529 222.003L-107.432 221.469L-106.365 233.663ZM-89.5229 213.759L-90.0563 207.662L-77.8629 206.596L-77.3295 212.692L-83.4262 213.226L-82.8928 219.323L-95.0862 220.389L-95.6196 214.293L-89.5229 213.759ZM-76.2627 224.886L-82.3594 225.419L-82.8928 219.323L-76.7961 218.789L-76.2627 224.886ZM-82.3594 225.419L-81.826 231.516L-94.0194 232.583L-94.5528 226.486L-82.3594 225.419ZM-64.9836 211.612L-65.517 205.516L-53.3236 204.449L-52.7902 210.545L-64.9836 211.612ZM-63.9168 223.806L-70.0136 224.339L-71.0803 212.146L-64.9836 211.612L-63.9168 223.806ZM-63.3835 229.902L-63.9168 223.806L-51.7234 222.739L-51.19 228.836L-63.3835 229.902ZM-40.4444 209.465L-40.9778 203.369L-34.881 202.835L-34.3477 208.932L-40.4444 209.465ZM-39.3776 221.659L-45.4743 222.192L-46.5411 209.999L-40.4444 209.465L-39.3776 221.659ZM-27.1842 220.592L-33.2809 221.125L-34.3477 208.932L-28.2509 208.399L-27.1842 220.592ZM-33.2809 221.125L-32.7475 227.222L-38.8442 227.756L-39.3776 221.659L-33.2809 221.125ZM-14.3049 225.609L-14.8383 219.512L-20.935 220.045L-22.0018 207.852L-15.9051 207.318L-14.8383 219.512L-8.74161 218.978L-9.80839 206.785L-15.9051 207.318L-16.4385 201.222L-10.3418 200.688L-10.8752 194.592L-4.77847 194.058L-2.1115 224.542L-14.3049 225.609ZM9.70095 217.365L3.60424 217.898L2.53745 205.705L8.63416 205.172L8.10077 199.075L14.1975 198.541L14.7309 204.638L20.8276 204.105L21.361 210.201L9.16756 211.268L9.70095 217.365ZM10.2343 223.462L9.70095 217.365L21.8944 216.298L22.4278 222.395L10.2343 223.462ZM34.7736 221.315L28.6769 221.848L26.5433 197.461L38.7367 196.395L39.2701 202.491L33.1734 203.025L34.7736 221.315ZM51.616 201.411L51.0826 195.314L63.276 194.248L63.8094 200.344L57.7127 200.878L58.2461 206.974L46.0527 208.041L45.5193 201.945L51.616 201.411ZM64.8762 212.538L58.7795 213.071L58.2461 206.974L64.3428 206.441L64.8762 212.538ZM58.7795 213.071L59.3129 219.168L47.1194 220.235L46.5861 214.138L58.7795 213.071Z" fill="white"/>
<circle cx="96.1705" cy="200.384" r="7.65" transform="rotate(-5 96.1705 200.384)" fill="white"/>
<path d="M136.734 212.394L130.637 212.928L127.97 182.444L134.067 181.911L136.734 212.394ZM146.946 186.927L146.413 180.831L152.51 180.297L153.043 186.394L146.946 186.927ZM149.08 211.314L142.983 211.848L140.85 187.461L146.946 186.927L147.48 193.024L153.577 192.491L154.11 198.587L148.013 199.121L149.08 211.314ZM171.105 178.67L170.571 172.574L176.668 172.04L177.201 178.137L171.105 178.67ZM179.868 208.621L173.772 209.154L171.638 184.767L177.735 184.234L179.868 208.621ZM191.681 201.444L185.584 201.977L183.451 177.59L189.547 177.057L190.081 183.154L196.177 182.62L196.711 188.717L190.614 189.25L191.681 201.444ZM192.214 207.54L191.681 201.444L197.778 200.91L198.311 207.007L192.214 207.54ZM223.003 204.847L216.906 205.38L214.772 180.993L226.966 179.927L227.499 186.023L221.402 186.557L223.003 204.847ZM241.445 203.233L240.912 197.137L234.815 197.67L233.215 179.38L239.312 178.846L240.912 197.137L247.008 196.603L245.408 178.313L251.505 177.78L253.639 202.166L241.445 203.233ZM265.984 201.086L259.888 201.62L257.754 177.233L269.948 176.166L270.481 182.263L264.384 182.796L265.984 201.086ZM278.178 200.02L272.081 200.553L270.481 182.263L276.578 181.729L278.178 200.02ZM288.924 180.649L288.39 174.553L300.584 173.486L301.117 179.583L295.02 180.116L295.554 186.213L283.36 187.279L282.827 181.183L288.924 180.649ZM302.184 191.776L296.087 192.309L295.554 186.213L301.65 185.679L302.184 191.776ZM296.087 192.309L296.62 198.406L284.427 199.473L283.894 193.376L296.087 192.309ZM315.063 196.793L314.53 190.696L320.626 190.162L321.16 196.259L315.063 196.793ZM309.5 203.423L308.966 197.326L315.063 196.793L315.596 202.889L309.5 203.423ZM345.851 194.099L345.318 188.002L339.221 188.536L338.154 176.342L344.251 175.809L345.318 188.002L351.415 187.469L350.348 175.275L344.251 175.809L343.718 169.712L349.814 169.179L349.281 163.082L355.378 162.549L358.045 193.032L345.851 194.099ZM368.79 173.662L368.257 167.565L374.354 167.032L374.887 173.128L368.79 173.662ZM369.857 185.855L363.761 186.389L362.694 174.195L368.79 173.662L369.857 185.855ZM382.051 184.788L375.954 185.322L374.887 173.128L380.984 172.595L382.051 184.788ZM375.954 185.322L376.487 191.419L370.391 191.952L369.857 185.855L375.954 185.322ZM394.93 189.805L388.833 190.338L386.7 165.952L398.893 164.885L399.426 170.982L393.33 171.515L394.93 189.805ZM407.123 188.738L401.027 189.272L399.426 170.982L405.523 170.448L407.123 188.738ZM417.336 163.271L411.239 163.805L410.172 151.611L416.269 151.078L417.336 163.271ZM431.282 180.481L425.185 181.015L423.051 156.628L429.148 156.094L429.681 162.191L435.778 161.658L436.312 167.755L430.215 168.288L431.282 180.481ZM431.815 186.578L431.282 180.481L437.378 179.948L437.912 186.045L431.815 186.578ZM462.07 177.788L455.973 178.321L453.84 153.934L459.936 153.401L460.47 159.498L466.567 158.964L467.1 165.061L461.003 165.594L462.07 177.788ZM462.603 183.884L462.07 177.788L468.167 177.254L468.7 183.351L462.603 183.884ZM479.446 163.981L478.912 157.884L485.009 157.351L485.542 163.447L479.446 163.981ZM480.513 176.174L474.416 176.708L473.349 164.514L479.446 163.981L480.513 176.174ZM492.706 175.107L486.609 175.641L485.542 163.447L491.639 162.914L492.706 175.107ZM486.609 175.641L487.143 181.738L481.046 182.271L480.513 176.174L486.609 175.641ZM505.585 180.124L505.052 174.027L498.955 174.561L497.355 156.271L503.452 155.737L505.052 174.027L511.149 173.494L509.548 155.204L515.645 154.67L517.779 179.057L505.585 180.124ZM528.524 159.687L527.991 153.59L540.184 152.523L540.718 158.62L528.524 159.687ZM529.591 171.88L523.494 172.414L522.428 160.22L528.524 159.687L529.591 171.88ZM530.124 177.977L529.591 171.88L541.784 170.814L542.318 176.91L530.124 177.977ZM554.664 175.83L548.567 176.364L545.9 145.88L551.997 145.347L552.53 151.443L558.627 150.91L559.16 157.007L553.064 157.54L554.664 175.83ZM566.857 174.763L560.76 175.297L559.16 157.007L565.257 156.473L566.857 174.763ZM582.785 142.653L582.252 136.556L588.348 136.023L588.882 142.12L582.785 142.653ZM591.549 172.603L585.452 173.137L583.319 148.75L589.415 148.216L591.549 172.603ZM603.361 165.426L597.265 165.96L595.131 141.573L601.228 141.039L601.761 147.136L607.858 146.603L608.391 152.7L602.294 153.233L603.361 165.426ZM603.895 171.523L603.361 165.426L609.458 164.893L609.991 170.99L603.895 171.523Z" fill="white"/>
<circle cx="640.994" cy="152.718" r="7.65" transform="rotate(-5 640.994 152.718)" fill="white"/>
<path d="M679.8 146.452L679.266 140.355L691.46 139.289L691.993 145.385L685.897 145.919L686.43 152.016L674.237 153.082L673.703 146.986L679.8 146.452ZM693.06 157.579L686.963 158.112L686.43 152.016L692.527 151.482L693.06 157.579ZM686.963 158.112L687.497 164.209L675.303 165.276L674.77 159.179L686.963 158.112ZM705.939 162.595L705.406 156.499L699.309 157.032L697.709 138.742L703.806 138.209L705.406 156.499L711.503 155.965L709.902 137.675L715.999 137.142L718.133 161.529L705.939 162.595ZM730.479 160.449L729.945 154.352L723.848 154.885L722.782 142.692L728.878 142.158L729.945 154.352L736.042 153.818L734.975 141.625L728.878 142.158L728.345 136.062L734.442 135.528L733.908 129.432L740.005 128.898L742.672 159.382L730.479 160.449ZM753.418 140.011L752.884 133.915L758.981 133.381L759.514 139.478L753.418 140.011ZM754.484 152.205L748.388 152.738L747.321 140.545L753.418 140.011L754.484 152.205ZM766.678 151.138L760.581 151.672L759.514 139.478L765.611 138.945L766.678 151.138ZM760.581 151.672L761.115 157.768L755.018 158.302L754.484 152.205L760.581 151.672ZM791.37 148.978L785.273 149.511L784.206 137.318L790.303 136.784L789.769 130.688L795.866 130.154L796.399 136.251L802.496 135.718L803.03 141.814L790.836 142.881L791.37 148.978ZM791.903 155.075L791.37 148.978L803.563 147.911L804.096 154.008L791.903 155.075ZM815.375 140.734L809.279 141.268L808.212 129.074L814.309 128.541L815.375 140.734ZM821.472 140.201L820.405 128.007L826.502 127.474L827.569 139.667L821.472 140.201ZM822.539 152.394L816.442 152.928L815.375 140.734L821.472 140.201L822.539 152.394ZM840.448 144.684L834.351 145.217L833.285 133.024L839.381 132.491L838.848 126.394L844.945 125.861L845.478 131.957L851.575 131.424L852.108 137.521L839.915 138.587L840.448 144.684ZM840.981 150.781L840.448 144.684L852.641 143.617L853.175 149.714L840.981 150.781ZM865.521 148.634L859.424 149.167L857.29 124.78L869.484 123.714L870.017 129.81L863.921 130.344L865.521 148.634ZM883.43 140.924L877.333 141.457L875.733 123.167L881.83 122.633L883.43 140.924ZM895.623 139.857L889.527 140.39L887.926 122.1L894.023 121.567L895.623 139.857ZM889.527 140.39L890.06 146.487L883.963 147.02L883.43 140.924L889.527 140.39ZM878.4 153.65L877.867 147.554L883.963 147.02L884.497 153.117L878.4 153.65ZM907.969 138.777L901.872 139.31L899.739 114.923L905.836 114.39L906.369 120.487L912.466 119.953L912.999 126.05L906.902 126.583L907.969 138.777ZM908.503 144.873L907.969 138.777L914.066 138.243L914.599 144.34L908.503 144.873ZM926.945 143.26L920.848 143.793L918.181 113.31L924.278 112.776L924.812 118.873L930.908 118.34L931.442 124.436L925.345 124.97L926.945 143.26ZM939.139 142.193L933.042 142.727L931.442 124.436L937.538 123.903L939.139 142.193ZM942.721 111.163L942.187 105.066L948.284 104.533L948.817 110.629L942.721 111.163ZM951.484 141.113L945.388 141.646L943.254 117.26L949.351 116.726L951.484 141.113ZM963.83 140.033L957.733 140.566L955.6 116.179L967.793 115.113L968.327 121.209L962.23 121.743L963.83 140.033ZM976.024 138.966L969.927 139.499L968.327 121.209L974.423 120.676L976.024 138.966ZM982.273 138.419L988.369 137.886L987.836 131.789L981.739 132.323L980.673 120.129L986.769 119.596L987.836 131.789L993.933 131.256L992.866 119.062L986.769 119.596L986.236 113.499L998.429 112.432L1000.56 136.819L994.466 137.353L995 143.449L982.806 144.516L982.273 138.419Z" fill="white"/>
<circle cx="1031.41" cy="118.561" r="7.65" transform="rotate(-5 1031.41 118.561)" fill="white"/>
<path d="M1071.46 124.473L1083.66 123.406L1084.19 129.503L1065.9 131.103L1063.23 100.619L1081.52 99.0193L1082.06 105.116L1069.86 106.183L1071.46 124.473ZM1089.75 122.873L1083.66 123.406L1082.06 105.116L1088.15 104.583L1089.75 122.873ZM1102.1 121.793L1096 122.326L1094.94 110.133L1101.03 109.599L1100.5 103.502L1106.6 102.969L1107.13 109.066L1113.23 108.532L1113.76 114.629L1101.57 115.696L1102.1 121.793ZM1102.63 127.889L1102.1 121.793L1114.29 120.726L1114.83 126.823L1102.63 127.889ZM1125.57 107.452L1125.04 101.356L1137.23 100.289L1137.77 106.385L1131.67 106.919L1132.2 113.016L1120.01 114.082L1119.47 107.986L1125.57 107.452ZM1138.83 118.579L1132.74 119.112L1132.2 113.016L1138.3 112.482L1138.83 118.579ZM1132.74 119.112L1133.27 125.209L1121.08 126.276L1120.54 120.179L1132.74 119.112ZM1142.95 93.6453L1142.41 87.5486L1148.51 87.0152L1149.04 93.1119L1142.95 93.6453ZM1151.71 123.595L1145.61 124.129L1143.48 99.742L1149.58 99.2086L1151.71 123.595ZM1157.96 123.049L1164.06 122.515L1163.52 116.419L1157.43 116.952L1156.36 104.759L1162.46 104.225L1163.52 116.419L1169.62 115.885L1168.55 103.692L1162.46 104.225L1161.92 98.1285L1174.12 97.0617L1176.25 121.449L1170.15 121.982L1170.69 128.079L1158.49 129.145L1157.96 123.049ZM1188.6 120.368L1182.5 120.902L1180.37 96.515L1192.56 95.4482L1193.09 101.545L1187 102.078L1188.6 120.368ZM1200.79 119.302L1194.69 119.835L1193.09 101.545L1199.19 101.012L1200.79 119.302ZM1225.48 117.141L1224.95 111.045L1218.85 111.578L1217.78 99.3847L1223.88 98.8513L1224.95 111.045L1231.04 110.511L1229.98 98.3179L1223.88 98.8513L1223.35 92.7546L1235.54 91.6878L1237.67 116.075L1225.48 117.141ZM1261.3 101.721L1255.2 102.254L1254.14 90.0609L1260.23 89.5275L1261.3 101.721ZM1267.4 101.188L1266.33 88.9942L1272.43 88.4608L1273.49 100.654L1267.4 101.188ZM1279.59 100.121L1278.52 87.9274L1284.62 87.394L1285.69 99.5874L1279.59 100.121ZM1268.46 113.381L1262.37 113.914L1261.3 101.721L1267.4 101.188L1268.46 113.381ZM1280.66 112.314L1274.56 112.848L1273.49 100.654L1279.59 100.121L1280.66 112.314ZM1298.57 104.604L1292.47 105.137L1291.4 92.944L1297.5 92.4106L1296.97 86.3139L1303.06 85.7805L1303.6 91.8772L1309.69 91.3438L1310.23 97.4405L1298.03 98.5073L1298.57 104.604ZM1299.1 110.701L1298.57 104.604L1310.76 103.537L1311.29 109.634L1299.1 110.701ZM1323.1 102.457L1329.2 101.924L1329.74 108.02L1317.54 109.087L1314.87 78.6036L1320.97 78.0702L1321.5 84.1669L1327.6 83.6336L1328.13 89.7303L1322.04 90.2637L1323.1 102.457ZM1329.2 101.924L1328.13 89.7303L1334.23 89.1969L1335.3 101.39L1329.2 101.924ZM1346.58 88.1168L1346.04 82.02L1358.24 80.9533L1358.77 87.05L1352.67 87.5834L1353.21 93.6801L1341.01 94.7469L1340.48 88.6501L1346.58 88.1168ZM1359.84 99.2434L1353.74 99.7768L1353.21 93.6801L1359.3 93.1467L1359.84 99.2434ZM1353.74 99.7768L1354.27 105.873L1342.08 106.94L1341.55 100.844L1353.74 99.7768ZM1363.95 74.3098L1363.42 68.2131L1369.52 67.6797L1370.05 73.7764L1363.95 74.3098ZM1372.72 104.26L1366.62 104.793L1364.49 80.4065L1370.58 79.8731L1372.72 104.26ZM1384.53 97.0831L1378.43 97.6165L1376.3 73.2297L1382.4 72.6963L1382.93 78.793L1389.03 78.2596L1389.56 84.3563L1383.46 84.8897L1384.53 97.0831ZM1385.06 103.18L1384.53 97.0831L1390.63 96.5498L1391.16 102.646L1385.06 103.18ZM1402.97 95.4696L1396.88 96.003L1395.81 83.8096L1401.91 83.2762L1401.37 77.1795L1407.47 76.6461L1408 82.7428L1414.1 82.2094L1414.63 88.3061L1402.44 89.3729L1402.97 95.4696ZM1403.51 101.566L1402.97 95.4696L1415.17 94.4028L1415.7 100.5L1403.51 101.566Z" fill="white"/>
<circle cx="1446.73" cy="82.2259" r="7.65" transform="rotate(-5 1446.73 82.2259)" fill="white"/>
<path d="M1486.78 88.1372L1498.98 87.0704L1499.51 93.1671L1481.22 94.7673L1478.55 64.2837L1496.84 62.6836L1497.37 68.7803L1485.18 69.8471L1486.78 88.1372ZM1505.07 86.537L1498.98 87.0704L1497.37 68.7803L1503.47 68.2469L1505.07 86.537ZM1517.42 85.4569L1511.32 85.9903L1510.25 73.7969L1516.35 73.2635L1515.82 67.1668L1521.91 66.6334L1522.45 72.7301L1528.54 72.1967L1529.08 78.2934L1516.88 79.3602L1517.42 85.4569ZM1517.95 91.5536L1517.42 85.4569L1529.61 84.3901L1530.14 90.4868L1517.95 91.5536ZM1540.89 71.1166L1540.36 65.0198L1552.55 63.9531L1553.08 70.0498L1546.99 70.5832L1547.52 76.6799L1535.33 77.7467L1534.79 71.65L1540.89 71.1166ZM1554.15 82.2432L1548.05 82.7766L1547.52 76.6799L1553.62 76.1465L1554.15 82.2432ZM1548.05 82.7766L1548.59 88.8733L1536.39 89.9401L1535.86 83.8434L1548.05 82.7766ZM1558.27 57.3096L1557.73 51.2129L1563.83 50.6795L1564.36 56.7762L1558.27 57.3096ZM1567.03 87.2598L1560.93 87.7932L1558.8 63.4063L1564.9 62.8729L1567.03 87.2598ZM1573.28 86.7131L1579.38 86.1797L1578.84 80.083L1572.75 80.6163L1571.68 68.4229L1577.78 67.8895L1578.84 80.083L1584.94 79.5496L1583.87 67.3561L1577.78 67.8895L1577.24 61.7928L1589.44 60.726L1591.57 85.1129L1585.47 85.6463L1586.01 91.743L1573.81 92.8098L1573.28 86.7131ZM1603.91 84.0328L1597.82 84.5662L1595.68 60.1793L1607.88 59.1125L1608.41 65.2092L1602.31 65.7426L1603.91 84.0328ZM1616.11 82.966L1610.01 83.4994L1608.41 65.2092L1614.51 64.6758L1616.11 82.966ZM1640.8 80.8057L1640.27 74.709L1634.17 75.2424L1633.1 63.049L1639.2 62.5156L1640.27 74.709L1646.36 74.1756L1645.3 61.9822L1639.2 62.5156L1638.67 56.4189L1650.86 55.3521L1652.99 79.7389L1640.8 80.8057ZM1676.62 65.3853L1670.52 65.9187L1669.45 53.7252L1675.55 53.1919L1676.62 65.3853ZM1682.71 64.8519L1681.65 52.6585L1687.74 52.1251L1688.81 64.3185L1682.71 64.8519ZM1694.91 63.7851L1693.84 51.5917L1699.94 51.0583L1701.01 63.2517L1694.91 63.7851ZM1683.78 77.0453L1677.68 77.5787L1676.62 65.3853L1682.71 64.8519L1683.78 77.0453ZM1695.98 75.9785L1689.88 76.5119L1688.81 64.3185L1694.91 63.7851L1695.98 75.9785ZM1713.88 68.2683L1707.79 68.8017L1706.72 56.6083L1712.82 56.0749L1712.28 49.9782L1718.38 49.4448L1718.91 55.5415L1725.01 55.0081L1725.54 61.1048L1713.35 62.1716L1713.88 68.2683ZM1714.42 74.365L1713.88 68.2683L1726.08 67.2015L1726.61 73.2982L1714.42 74.365ZM1738.42 66.1214L1744.52 65.588L1745.05 71.6847L1732.86 72.7515L1730.19 42.2679L1736.29 41.7345L1736.82 47.8313L1742.92 47.2979L1743.45 53.3946L1737.36 53.928L1738.42 66.1214ZM1744.52 65.588L1743.45 53.3946L1749.55 52.8612L1750.62 65.0546L1744.52 65.588ZM1761.9 51.7811L1761.36 45.6843L1773.56 44.6176L1774.09 50.7143L1767.99 51.2477L1768.53 57.3444L1756.33 58.4112L1755.8 52.3145L1761.9 51.7811ZM1775.16 62.9077L1769.06 63.4411L1768.53 57.3444L1774.62 56.811L1775.16 62.9077ZM1769.06 63.4411L1769.59 69.5378L1757.4 70.6046L1756.87 64.5079L1769.06 63.4411ZM1779.27 37.9741L1778.74 31.8774L1784.84 31.344L1785.37 37.4407L1779.27 37.9741ZM1788.04 67.9243L1781.94 68.4577L1779.81 44.0708L1785.9 43.5374L1788.04 67.9243ZM1799.85 60.7475L1793.75 61.2808L1791.62 36.894L1797.71 36.3606L1798.25 42.4573L1804.34 41.9239L1804.88 48.0206L1798.78 48.554L1799.85 60.7475ZM1800.38 66.8442L1799.85 60.7475L1805.94 60.2141L1806.48 66.3108L1800.38 66.8442ZM1818.29 59.1339L1812.19 59.6673L1811.13 47.4739L1817.22 46.9405L1816.69 40.8438L1822.79 40.3104L1823.32 46.4071L1829.42 45.8737L1829.95 51.9704L1817.76 53.0372L1818.29 59.1339ZM1818.82 65.2307L1818.29 59.1339L1830.48 58.0672L1831.02 64.1639L1818.82 65.2307Z" fill="white"/>
<path d="M-409.784 207.222L-410.318 201.125L-392.028 199.525L-391.494 205.622L-409.784 207.222ZM-385.245 205.075L-385.778 198.978L-367.488 197.378L-366.955 203.475L-385.245 205.075ZM-360.706 202.928L-361.239 196.831L-342.949 195.231L-342.416 201.328L-360.706 202.928ZM-336.166 200.781L-336.7 194.685L-318.41 193.084L-317.876 199.181L-336.166 200.781ZM-311.627 198.634L-312.161 192.538L-293.87 190.937L-293.337 197.034L-311.627 198.634ZM-287.088 196.487L-287.621 190.391L-269.331 188.791L-268.798 194.887L-287.088 196.487ZM-262.549 194.341L-263.082 188.244L-244.792 186.644L-244.259 192.74L-262.549 194.341ZM-238.009 192.194L-238.543 186.097L-220.253 184.497L-219.719 190.593L-238.009 192.194ZM-213.47 190.047L-214.004 183.95L-195.713 182.35L-195.18 188.447L-213.47 190.047ZM-188.931 187.9L-189.464 181.803L-171.174 180.203L-170.641 186.3L-188.931 187.9ZM-164.392 185.753L-164.925 179.656L-146.635 178.056L-146.101 184.153L-164.392 185.753ZM-139.852 183.606L-140.386 177.509L-122.096 175.909L-121.562 182.006L-139.852 183.606ZM-115.313 181.459L-115.846 175.362L-97.5563 173.762L-97.0229 179.859L-115.313 181.459ZM-90.7738 179.312L-91.3072 173.215L-73.0171 171.615L-72.4837 177.712L-90.7738 179.312ZM-66.2345 177.165L-66.7679 171.069L-48.4778 169.468L-47.9444 175.565L-66.2345 177.165ZM-41.6953 175.018L-42.2287 168.922L-23.9385 167.321L-23.4052 173.418L-41.6953 175.018ZM-17.156 172.871L-17.6894 166.775L0.600713 165.175L1.13411 171.271L-17.156 172.871ZM7.38323 170.725L6.84984 164.628L25.14 163.028L25.6734 169.124L7.38323 170.725ZM31.9225 168.578L31.3891 162.481L49.6792 160.881L50.2126 166.977L31.9225 168.578ZM56.4618 166.431L55.9284 160.334L74.2185 158.734L74.7519 164.831L56.4618 166.431ZM81.001 164.284L80.4676 158.187L98.7578 156.587L99.2912 162.684L81.001 164.284ZM105.54 162.137L105.007 156.04L123.297 154.44L123.83 160.537L105.54 162.137ZM130.08 159.99L129.546 153.893L147.836 152.293L148.37 158.39L130.08 159.99ZM154.619 157.843L154.085 151.746L172.376 150.146L172.909 156.243L154.619 157.843ZM179.158 155.696L178.625 149.6L196.915 147.999L197.448 154.096L179.158 155.696ZM203.697 153.549L203.164 147.453L221.454 145.852L221.988 151.949L203.697 153.549ZM228.237 151.402L227.703 145.306L245.993 143.706L246.527 149.802L228.237 151.402ZM252.776 149.255L252.243 143.159L270.533 141.559L271.066 147.655L252.776 149.255ZM277.315 147.109L276.782 141.012L295.072 139.412L295.605 145.508L277.315 147.109ZM301.854 144.962L301.321 138.865L319.611 137.265L320.145 143.362L301.854 144.962ZM326.394 142.815L325.86 136.718L344.15 135.118L344.684 141.215L326.394 142.815ZM350.933 140.668L350.4 134.571L368.69 132.971L369.223 139.068L350.933 140.668ZM375.472 138.521L374.939 132.424L393.229 130.824L393.762 136.921L375.472 138.521ZM400.011 136.374L399.478 130.277L417.768 128.677L418.302 134.774L400.011 136.374ZM424.551 134.227L424.017 128.13L442.307 126.53L442.841 132.627L424.551 134.227ZM449.09 132.08L448.557 125.984L466.847 124.383L467.38 130.48L449.09 132.08ZM473.629 129.933L473.096 123.837L491.386 122.236L491.919 128.333L473.629 129.933ZM498.168 127.786L497.635 121.69L515.925 120.09L516.459 126.186L498.168 127.786ZM522.708 125.64L522.174 119.543L540.464 117.943L540.998 124.039L522.708 125.64ZM547.247 123.493L546.714 117.396L565.004 115.796L565.537 121.892L547.247 123.493ZM571.786 121.346L571.253 115.249L589.543 113.649L590.076 119.746L571.786 121.346ZM596.326 119.199L595.792 113.102L614.082 111.502L614.616 117.599L596.326 119.199ZM620.865 117.052L620.331 110.955L638.622 109.355L639.155 115.452L620.865 117.052ZM645.404 114.905L644.871 108.808L663.161 107.208L663.694 113.305L645.404 114.905ZM669.943 112.758L669.41 106.661L687.7 105.061L688.233 111.158L669.943 112.758ZM694.483 110.611L693.949 104.514L712.239 102.914L712.773 109.011L694.483 110.611ZM719.022 108.464L718.488 102.368L736.779 100.767L737.312 106.864L719.022 108.464ZM743.561 106.317L743.028 100.221L761.318 98.6205L761.851 104.717L743.561 106.317ZM768.1 104.17L767.567 98.0737L785.857 96.4735L786.391 102.57L768.1 104.17ZM792.64 102.024L792.106 95.9268L810.396 94.3266L810.93 100.423L792.64 102.024ZM817.179 99.8766L816.646 93.7799L834.936 92.1797L835.469 98.2764L817.179 99.8766ZM841.718 97.7297L841.185 91.633L859.475 90.0328L860.008 96.1295L841.718 97.7297ZM866.258 95.5828L865.724 89.4861L884.014 87.8859L884.548 93.9826L866.258 95.5828ZM890.797 93.4359L890.263 87.3392L908.553 85.739L909.087 91.8357L890.797 93.4359ZM915.336 91.289L914.803 85.1923L933.093 83.5921L933.626 89.6888L915.336 91.289ZM939.875 89.1421L939.342 83.0454L957.632 81.4452L958.165 87.5419L939.875 89.1421ZM964.415 86.9952L963.881 80.8985L982.171 79.2983L982.705 85.395L964.415 86.9952ZM988.954 84.8483L988.42 78.7516L1006.71 77.1514L1007.24 83.2481L988.954 84.8483ZM1013.49 82.7014L1012.96 76.6047L1031.25 75.0045L1031.78 81.1012L1013.49 82.7014ZM1038.03 80.5545L1037.5 74.4578L1055.79 72.8576L1056.32 78.9543L1038.03 80.5545ZM1062.57 78.4076L1062.04 72.3108L1080.33 70.7107L1080.86 76.8074L1062.57 78.4076ZM1087.11 76.2606L1086.58 70.1639L1104.87 68.5638L1105.4 74.6605L1087.11 76.2606ZM1111.65 74.1137L1111.12 68.017L1129.41 66.4168L1129.94 72.5136L1111.65 74.1137ZM1136.19 71.9668L1135.66 65.8701L1153.95 64.2699L1154.48 70.3666L1136.19 71.9668ZM1160.73 69.8199L1160.2 63.7232L1178.49 62.123L1179.02 68.2197L1160.73 69.8199ZM1185.27 67.673L1184.73 61.5763L1203.02 59.9761L1203.56 66.0728L1185.27 67.673ZM1209.81 65.5261L1209.27 59.4294L1227.56 57.8292L1228.1 63.9259L1209.81 65.5261ZM1234.35 63.3792L1233.81 57.2825L1252.1 55.6823L1252.64 61.779L1234.35 63.3792ZM1258.89 61.2323L1258.35 55.1356L1276.64 53.5354L1277.18 59.6321L1258.89 61.2323ZM1283.43 59.0854L1282.89 52.9887L1301.18 51.3885L1301.72 57.4852L1283.43 59.0854ZM1307.96 56.9385L1307.43 50.8418L1325.72 49.2416L1326.25 55.3383L1307.96 56.9385ZM1332.5 54.7916L1331.97 48.6949L1350.26 47.0947L1350.79 53.1914L1332.5 54.7916ZM1357.04 52.6447L1356.51 46.548L1374.8 44.9478L1375.33 51.0445L1357.04 52.6447ZM1381.58 50.4978L1381.05 44.401L1399.34 42.8009L1399.87 48.8976L1381.58 50.4978ZM1406.12 48.3509L1405.59 42.2541L1423.88 40.654L1424.41 46.7507L1406.12 48.3509ZM1430.66 46.2039L1430.13 40.1072L1448.42 38.507L1448.95 44.6038L1430.66 46.2039ZM1455.2 44.057L1454.67 37.9603L1472.96 36.3601L1473.49 42.4569L1455.2 44.057ZM1479.74 41.9101L1479.21 35.8134L1497.5 34.2132L1498.03 40.3099L1479.74 41.9101ZM1504.28 39.7632L1503.75 33.6665L1522.04 32.0663L1522.57 38.163L1504.28 39.7632ZM1528.82 37.6163L1528.28 31.5196L1546.57 29.9194L1547.11 36.0161L1528.82 37.6163ZM1553.36 35.4694L1552.82 29.3727L1571.11 27.7725L1571.65 33.8692L1553.36 35.4694ZM1577.9 33.3225L1577.36 27.2258L1595.65 25.6256L1596.19 31.7223L1577.9 33.3225ZM1602.44 31.1756L1601.9 25.0789L1620.19 23.4787L1620.73 29.5754L1602.44 31.1756ZM1626.97 29.0287L1626.44 22.932L1644.73 21.3318L1645.26 27.4285L1626.97 29.0287ZM1651.51 26.8818L1650.98 20.7851L1669.27 19.1849L1669.8 25.2816L1651.51 26.8818ZM1676.05 24.7349L1675.52 18.6382L1693.81 17.038L1694.34 23.1347L1676.05 24.7349ZM1700.59 22.588L1700.06 16.4912L1718.35 14.8911L1718.88 20.9878L1700.59 22.588ZM1725.13 20.441L1724.6 14.3443L1742.89 12.7442L1743.42 18.8409L1725.13 20.441ZM1749.67 18.2942L1749.14 12.1974L1767.43 10.5973L1767.96 16.694L1749.67 18.2942ZM1774.21 16.1472L1773.68 10.0505L1791.97 8.45035L1792.5 14.5471L1774.21 16.1472ZM1798.75 14.0003L1798.22 7.90362L1816.51 6.30344L1817.04 12.4001L1798.75 14.0003ZM1823.29 11.8534L1822.76 5.7567L1841.05 4.15652L1841.58 10.2532L1823.29 11.8534ZM1847.83 9.70652L1847.29 3.60981L1865.58 2.00963L1866.12 8.10634L1847.83 9.70652ZM1872.37 7.55961L1871.83 1.4629L1890.12 -0.13728L1890.66 5.95943L1872.37 7.55961ZM1896.91 5.4127L1896.37 -0.684013L1914.66 -2.28419L1915.2 3.81252L1896.91 5.4127ZM1921.45 3.26579L1920.91 -2.83092L1939.2 -4.4311L1939.74 1.66561L1921.45 3.26579ZM1945.99 1.11887L1945.45 -4.97784L1963.74 -6.57802L1964.28 -0.481305L1945.99 1.11887ZM1970.52 -1.02802L1969.99 -7.12473L1988.28 -8.72491L1988.81 -2.6282L1970.52 -1.02802Z" fill="white"/>
<path d="M-267.253 276.152L-267.786 270.055L-249.496 268.455L-248.963 274.552L-267.253 276.152ZM-242.714 274.005L-243.247 267.908L-224.957 266.308L-224.423 272.405L-242.714 274.005ZM-218.174 271.858L-218.708 265.761L-200.418 264.161L-199.884 270.258L-218.174 271.858ZM-193.635 269.711L-194.168 263.614L-175.878 262.014L-175.345 268.111L-193.635 269.711ZM-169.096 267.564L-169.629 261.467L-151.339 259.867L-150.806 265.964L-169.096 267.564ZM-144.556 265.417L-145.09 259.321L-126.8 257.72L-126.266 263.817L-144.556 265.417ZM-120.017 263.27L-120.551 257.174L-102.26 255.573L-101.727 261.67L-120.017 263.27ZM-95.478 261.123L-96.0114 255.027L-77.7212 253.427L-77.1878 259.523L-95.478 261.123ZM-70.9387 258.977L-71.4721 252.88L-53.182 251.28L-52.6486 257.376L-70.9387 258.977ZM-46.3994 256.83L-46.9328 250.733L-28.6427 249.133L-28.1093 255.229L-46.3994 256.83ZM-21.8602 254.683L-22.3936 248.586L-4.10342 246.986L-3.57003 253.083L-21.8602 254.683ZM2.67908 252.536L2.14569 246.439L20.4358 244.839L20.9692 250.936L2.67908 252.536ZM27.2184 250.389L26.685 244.292L44.9751 242.692L45.5085 248.789L27.2184 250.389ZM51.7576 248.242L51.2242 242.145L69.5144 240.545L70.0478 246.642L51.7576 248.242ZM76.2969 246.095L75.7635 239.998L94.0536 238.398L94.587 244.495L76.2969 246.095ZM100.836 243.948L100.303 237.852L118.593 236.251L119.126 242.348L100.836 243.948ZM125.375 241.801L124.842 235.705L143.132 234.104L143.666 240.201L125.375 241.801ZM149.915 239.654L149.381 233.558L167.671 231.958L168.205 238.054L149.915 239.654ZM174.454 237.508L173.921 231.411L192.211 229.811L192.744 235.907L174.454 237.508ZM198.993 235.361L198.46 229.264L216.75 227.664L217.283 233.76L198.993 235.361ZM223.532 233.214L222.999 227.117L241.289 225.517L241.823 231.614L223.532 233.214ZM248.072 231.067L247.538 224.97L265.828 223.37L266.362 229.467L248.072 231.067ZM272.611 228.92L272.078 222.823L290.368 221.223L290.901 227.32L272.611 228.92ZM297.15 226.773L296.617 220.676L314.907 219.076L315.44 225.173L297.15 226.773ZM321.69 224.626L321.156 218.529L339.446 216.929L339.98 223.026L321.69 224.626ZM346.229 222.479L345.695 216.382L363.986 214.782L364.519 220.879L346.229 222.479ZM370.768 220.332L370.235 214.236L388.525 212.635L389.058 218.732L370.768 220.332ZM395.307 218.185L394.774 212.089L413.064 210.488L413.597 216.585L395.307 218.185ZM419.847 216.038L419.313 209.942L437.603 208.342L438.137 214.438L419.847 216.038ZM444.386 213.892L443.852 207.795L462.143 206.195L462.676 212.291L444.386 213.892ZM468.925 211.745L468.392 205.648L486.682 204.048L487.215 210.144L468.925 211.745ZM493.464 209.598L492.931 203.501L511.221 201.901L511.755 207.998L493.464 209.598ZM518.004 207.451L517.47 201.354L535.76 199.754L536.294 205.851L518.004 207.451ZM542.543 205.304L542.01 199.207L560.3 197.607L560.833 203.704L542.543 205.304ZM567.082 203.157L566.549 197.06L584.839 195.46L585.372 201.557L567.082 203.157ZM591.621 201.01L591.088 194.913L609.378 193.313L609.912 199.41L591.621 201.01ZM616.161 198.863L615.627 192.766L633.917 191.166L634.451 197.263L616.161 198.863ZM640.7 196.716L640.167 190.62L658.457 189.019L658.99 195.116L640.7 196.716ZM665.239 194.569L664.706 188.473L682.996 186.872L683.529 192.969L665.239 194.569ZM689.779 192.422L689.245 186.326L707.535 184.726L708.069 190.822L689.779 192.422ZM714.318 190.276L713.784 184.179L732.075 182.579L732.608 188.675L714.318 190.276ZM738.857 188.129L738.324 182.032L756.614 180.432L757.147 186.528L738.857 188.129ZM763.396 185.982L762.863 179.885L781.153 178.285L781.686 184.382L763.396 185.982ZM787.936 183.835L787.402 177.738L805.692 176.138L806.226 182.235L787.936 183.835ZM812.475 181.688L811.941 175.591L830.232 173.991L830.765 180.088L812.475 181.688ZM837.014 179.541L836.481 173.444L854.771 171.844L855.304 177.941L837.014 179.541ZM861.553 177.394L861.02 171.297L879.31 169.697L879.843 175.794L861.553 177.394ZM886.093 175.247L885.559 169.15L903.849 167.55L904.383 173.647L886.093 175.247ZM910.632 173.1L910.099 167.004L928.389 165.403L928.922 171.5L910.632 173.1ZM935.171 170.953L934.638 164.857L952.928 163.256L953.461 169.353L935.171 170.953ZM959.71 168.806L959.177 162.71L977.467 161.11L978.001 167.206L959.71 168.806ZM984.25 166.66L983.716 160.563L1002.01 158.963L1002.54 165.059L984.25 166.66ZM1008.79 164.513L1008.26 158.416L1026.55 156.816L1027.08 162.912L1008.79 164.513ZM1033.33 162.366L1032.79 156.269L1051.08 154.669L1051.62 160.766L1033.33 162.366ZM1057.87 160.219L1057.33 154.122L1075.62 152.522L1076.16 158.619L1057.87 160.219ZM1082.41 158.072L1081.87 151.975L1100.16 150.375L1100.7 156.472L1082.41 158.072ZM1106.95 155.925L1106.41 149.828L1124.7 148.228L1125.24 154.325L1106.95 155.925ZM1131.49 153.778L1130.95 147.681L1149.24 146.081L1149.78 152.178L1131.49 153.778ZM1156.02 151.631L1155.49 145.534L1173.78 143.934L1174.31 150.031L1156.02 151.631ZM1180.56 149.484L1180.03 143.388L1198.32 141.787L1198.85 147.884L1180.56 149.484ZM1205.1 147.337L1204.57 141.241L1222.86 139.64L1223.39 145.737L1205.1 147.337ZM1229.64 145.19L1229.11 139.094L1247.4 137.494L1247.93 143.59L1229.64 145.19ZM1254.18 143.044L1253.65 136.947L1271.94 135.347L1272.47 141.443L1254.18 143.044ZM1278.72 140.897L1278.19 134.8L1296.48 133.2L1297.01 139.296L1278.72 140.897ZM1303.26 138.75L1302.73 132.653L1321.02 131.053L1321.55 137.15L1303.26 138.75ZM1327.8 136.603L1327.27 130.506L1345.56 128.906L1346.09 135.003L1327.8 136.603ZM1352.34 134.456L1351.81 128.359L1370.1 126.759L1370.63 132.856L1352.34 134.456ZM1376.88 132.309L1376.34 126.212L1394.63 124.612L1395.17 130.709L1376.88 132.309ZM1401.42 130.162L1400.88 124.065L1419.17 122.465L1419.71 128.562L1401.42 130.162ZM1425.96 128.015L1425.42 121.919L1443.71 120.318L1444.25 126.415L1425.96 128.015ZM1450.5 125.868L1449.96 119.772L1468.25 118.171L1468.79 124.268L1450.5 125.868ZM1475.03 123.721L1474.5 117.625L1492.79 116.025L1493.33 122.121L1475.03 123.721ZM1499.57 121.575L1499.04 115.478L1517.33 113.878L1517.86 119.974L1499.57 121.575ZM1524.11 119.428L1523.58 113.331L1541.87 111.731L1542.4 117.827L1524.11 119.428ZM1548.65 117.281L1548.12 111.184L1566.41 109.584L1566.94 115.681L1548.65 117.281ZM1573.19 115.134L1572.66 109.037L1590.95 107.437L1591.48 113.534L1573.19 115.134ZM1597.73 112.987L1597.2 106.89L1615.49 105.29L1616.02 111.387L1597.73 112.987ZM1622.27 110.84L1621.74 104.743L1640.03 103.143L1640.56 109.24L1622.27 110.84ZM1646.81 108.693L1646.28 102.596L1664.57 100.996L1665.1 107.093L1646.81 108.693ZM1671.35 106.546L1670.82 100.449L1689.11 98.8493L1689.64 104.946L1671.35 106.546ZM1695.89 104.399L1695.35 98.3025L1713.65 96.7023L1714.18 102.799L1695.89 104.399ZM1720.43 102.252L1719.89 96.1556L1738.18 94.5554L1738.72 100.652L1720.43 102.252ZM1744.97 100.105L1744.43 94.0087L1762.72 92.4085L1763.26 98.5052L1744.97 100.105ZM1769.51 97.9585L1768.97 91.8618L1787.26 90.2616L1787.8 96.3583L1769.51 97.9585ZM1794.05 95.8116L1793.51 89.7149L1811.8 88.1147L1812.34 94.2114L1794.05 95.8116ZM1818.58 93.6647L1818.05 87.568L1836.34 85.9678L1836.87 92.0645L1818.58 93.6647ZM1843.12 91.5178L1842.59 85.4211L1860.88 83.8209L1861.41 89.9176L1843.12 91.5178Z" fill="white"/>
</g>
<defs>
<clipPath id="clip0_54_96">
<rect width="1899.98" height="111.69" fill="white" transform="translate(-154.62 166.066) rotate(-5)"/>
</clipPath>
</defs>
</svg>
