<svg width="1728" height="277" viewBox="0 0 1728 277" fill="none" xmlns="http://www.w3.org/2000/svg">
<g clip-path="url(#clip0_38_121)">
<rect width="1899.98" height="111.69" transform="translate(-31.2656) rotate(5)" fill="#9747FF"/>
<path d="M-0.512048 62.2221L-6.60876 61.6887L-5.54197 49.4953L0.554738 50.0287L-0.512048 62.2221ZM5.58466 62.7555L6.65145 50.5621L12.7482 51.0954L11.6814 63.2889L5.58466 62.7555ZM4.51788 74.9489L-1.57883 74.4155L-0.512048 62.2221L5.58466 62.7555L4.51788 74.9489ZM24.5606 58.2723L25.094 52.1756L37.2874 53.2424L36.754 59.3391L30.6573 58.8057L30.1239 64.9024L17.9305 63.8356L18.4639 57.7389L24.5606 58.2723ZM35.6872 71.5325L29.5905 70.9991L30.1239 64.9024L36.2206 65.4358L35.6872 71.5325ZM29.5905 70.9991L29.0571 77.0958L16.8637 76.029L17.3971 69.9323L29.5905 70.9991ZM49.0999 60.4192L49.6333 54.3225L61.8267 55.3893L61.2933 61.486L49.0999 60.4192ZM48.0331 72.6126L41.9364 72.0792L43.0032 59.8858L49.0999 60.4192L48.0331 72.6126ZM47.4997 78.7093L48.0331 72.6126L60.2265 73.6794L59.6931 79.7761L47.4997 78.7093ZM73.6391 62.5661L74.1725 56.4694L80.2692 57.0028L79.7359 63.0995L73.6391 62.5661ZM72.5724 74.7595L66.4756 74.2261L67.5424 62.0327L73.6391 62.5661L72.5724 74.7595ZM84.7658 75.8263L78.6691 75.2929L79.7359 63.0995L85.8326 63.6329L84.7658 75.8263ZM78.6691 75.2929L78.1357 81.3896L72.039 80.8562L72.5724 74.7595L78.6691 75.2929ZM96.5782 83.0031L97.1116 76.9064L91.0149 76.373L92.0817 64.1796L98.1784 64.713L97.1116 76.9064L103.208 77.4398L104.275 65.2464L98.1784 64.713L98.7118 58.6163L104.809 59.1497L105.342 53.053L111.439 53.5864L108.772 84.0699L96.5782 83.0031ZM121.651 79.0533L115.554 78.5199L116.621 66.3265L122.718 66.8599L123.251 60.7632L129.348 61.2966L128.814 67.3933L134.911 67.9267L134.378 74.0234L122.184 72.9566L121.651 79.0533ZM121.117 85.15L121.651 79.0533L133.844 80.1201L133.311 86.2168L121.117 85.15ZM145.657 87.2969L139.56 86.7636L141.694 62.3767L153.887 63.4435L153.354 69.5402L147.257 69.0068L145.657 87.2969ZM165.699 70.6203L166.233 64.5236L178.426 65.5904L177.893 71.6871L171.796 71.1537L171.263 77.2504L159.069 76.1836L159.603 70.0869L165.699 70.6203ZM176.826 83.8805L170.729 83.3471L171.263 77.2504L177.36 77.7838L176.826 83.8805ZM170.729 83.3471L170.196 89.4439L158.003 88.3771L158.536 82.2804L170.729 83.3471Z" fill="white"/>
<circle cx="209.755" cy="77.3457" r="7.65" transform="rotate(5 209.755 77.3457)" fill="white"/>
<path d="M247.681 96.2229L241.584 95.6895L244.251 65.2059L250.348 65.7393L249.281 77.9328L261.475 78.9996L262.541 66.8061L268.638 67.3395L265.971 97.8231L259.874 97.2897L260.941 85.0963L248.748 84.0295L247.681 96.2229ZM278.317 98.9032L278.85 92.8065L272.754 92.2731L273.82 80.0797L279.917 80.6131L278.85 92.8065L284.947 93.3399L286.014 81.1465L279.917 80.6131L280.451 74.5164L292.644 75.5831L290.51 99.97L278.317 98.9032ZM304.456 82.76L304.99 76.6633L317.183 77.73L316.65 83.8268L304.456 82.76ZM303.39 94.9534L297.293 94.42L298.36 82.2266L304.456 82.76L303.39 94.9534ZM302.856 101.05L303.39 94.9534L315.583 96.0202L315.05 102.117L302.856 101.05ZM327.396 103.197L321.299 102.664L323.966 72.1801L330.063 72.7135L328.996 84.9069L335.092 85.4403L334.559 91.537L328.462 91.0036L327.396 103.197ZM335.092 85.4403L335.626 79.3436L341.723 79.877L341.189 85.9737L335.092 85.4403ZM339.589 104.264L333.492 103.73L334.559 91.537L340.656 92.0704L339.589 104.264ZM351.935 105.344L352.468 99.2472L346.371 98.7138L347.438 86.5204L353.535 87.0538L352.468 99.2472L358.565 99.7806L359.632 87.5872L353.535 87.0538L354.068 80.9571L366.262 82.0239L364.128 106.411L351.935 105.344ZM377.007 101.394L370.911 100.861L373.044 76.4739L379.141 77.0073L378.608 83.104L384.704 83.6374L384.171 89.7341L378.074 89.2007L377.007 101.394ZM376.474 107.491L377.007 101.394L383.104 101.928L382.571 108.024L376.474 107.491ZM394.917 109.104L388.82 108.571L391.487 78.0874L397.584 78.6208L397.05 84.7175L403.147 85.2509L402.614 91.3476L396.517 90.8142L394.917 109.104ZM407.11 110.171L401.013 109.638L402.614 91.3476L408.71 91.881L407.11 110.171ZM421.056 92.9611L421.589 86.8644L427.686 87.3978L427.153 93.4945L421.056 92.9611ZM419.989 105.155L413.893 104.621L414.959 92.4277L421.056 92.9611L419.989 105.155ZM432.183 106.221L426.086 105.688L427.153 93.4945L433.249 94.0279L432.183 106.221ZM426.086 105.688L425.553 111.785L419.456 111.251L419.989 105.155L426.086 105.688ZM443.995 113.398L437.898 112.865L440.032 88.4779L452.225 89.5447L451.692 95.6414L445.595 95.108L443.995 113.398ZM456.189 114.465L450.092 113.932L451.692 95.6414L457.789 96.1748L456.189 114.465ZM470.135 97.2549L470.668 91.1582L482.861 92.225L482.328 98.3217L476.231 97.7883L475.698 103.885L463.504 102.818L464.038 96.7215L470.135 97.2549ZM481.261 110.515L475.165 109.982L475.698 103.885L481.795 104.418L481.261 110.515ZM475.165 109.982L474.631 116.078L462.438 115.012L462.971 108.915L475.165 109.982Z" fill="white"/>
<circle cx="514.496" cy="104.007" r="7.65" transform="rotate(5 514.496 104.007)" fill="white"/>
<path d="M553.246 110.67L547.149 110.136L548.75 91.8461L554.846 92.3795L553.246 110.67ZM559.343 111.203L560.943 92.9129L567.04 93.4463L565.44 111.736L559.343 111.203ZM571.536 112.27L573.137 93.9797L579.233 94.5131L577.633 112.803L571.536 112.27ZM558.276 123.396L552.179 122.863L553.246 110.67L559.343 111.203L558.276 123.396ZM570.47 124.463L564.373 123.93L565.44 111.736L571.536 112.27L570.47 124.463ZM590.512 107.787L591.046 101.69L597.142 102.223L596.609 108.32L590.512 107.787ZM589.445 119.98L583.349 119.447L584.416 107.253L590.512 107.787L589.445 119.98ZM601.639 121.047L595.542 120.513L596.609 108.32L602.706 108.853L601.639 121.047ZM595.542 120.513L595.009 126.61L588.912 126.077L589.445 119.98L595.542 120.513ZM613.451 128.224L607.355 127.69L609.488 103.303L621.682 104.37L621.148 110.467L615.052 109.934L613.451 128.224ZM631.894 129.837L625.797 129.304L628.464 98.8202L634.561 99.3536L633.494 111.547L639.591 112.08L639.057 118.177L632.961 117.644L631.894 129.837ZM639.591 112.08L640.124 105.984L646.221 106.517L645.688 112.614L639.591 112.08ZM644.087 130.904L637.991 130.371L639.057 118.177L645.154 118.711L644.087 130.904ZM658.033 113.694L658.567 107.597L670.76 108.664L670.227 114.761L664.13 114.227L663.597 120.324L651.403 119.257L651.937 113.161L658.033 113.694ZM669.16 126.954L663.063 126.421L663.597 120.324L669.693 120.857L669.16 126.954ZM663.063 126.421L662.53 132.517L650.336 131.451L650.87 125.354L663.063 126.421ZM680.972 134.131L674.876 133.598L677.543 103.114L683.639 103.647L683.106 109.744L689.203 110.278L688.669 116.374L682.573 115.841L680.972 134.131ZM693.166 135.198L687.069 134.664L688.669 116.374L694.766 116.908L693.166 135.198ZM707.112 117.988L707.645 111.891L713.742 112.424L713.209 118.521L707.112 117.988ZM706.045 130.181L699.948 129.648L701.015 117.454L707.112 117.988L706.045 130.181ZM718.239 131.248L712.142 130.715L713.209 118.521L719.305 119.055L718.239 131.248ZM712.142 130.715L711.608 136.811L705.512 136.278L706.045 130.181L712.142 130.715ZM736.681 132.861L736.148 138.958L730.051 138.425L729.518 144.522L723.421 143.988L726.088 113.505L738.281 114.571L737.748 120.668L731.651 120.135L730.584 132.328L736.681 132.861ZM742.778 133.395L736.681 132.861L737.748 120.668L743.845 121.201L742.778 133.395ZM756.19 122.282L756.724 116.185L768.917 117.252L768.384 123.348L762.287 122.815L761.754 128.912L749.56 127.845L750.094 121.748L756.19 122.282ZM767.317 135.542L761.22 135.008L761.754 128.912L767.85 129.445L767.317 135.542ZM761.22 135.008L760.687 141.105L748.494 140.038L749.027 133.942L761.22 135.008Z" fill="white"/>
<circle cx="800.31" cy="129.012" r="7.65" transform="rotate(5 800.31 129.012)" fill="white"/>
<path d="M838.2 147.887L832.103 147.353L834.77 116.87L840.867 117.403L839.8 129.596L851.993 130.663L853.06 118.47L859.157 119.003L856.49 149.487L850.393 148.953L851.46 136.76L839.267 135.693L838.2 147.887ZM868.836 150.567L869.369 144.47L863.272 143.937L864.339 131.743L870.436 132.277L869.369 144.47L875.466 145.004L876.533 132.81L870.436 132.277L870.969 126.18L883.163 127.247L881.029 151.634L868.836 150.567ZM893.375 152.714L887.278 152.18L889.412 127.794L901.605 128.86L901.072 134.957L894.975 134.424L893.375 152.714ZM905.569 153.781L899.472 153.247L901.072 134.957L907.169 135.49L905.569 153.781ZM917.914 154.861L918.448 148.764L912.351 148.231L913.418 136.037L919.515 136.571L918.448 148.764L924.544 149.297L925.611 137.104L919.515 136.571L920.048 130.474L926.145 131.007L926.678 124.911L932.775 125.444L930.108 155.928L917.914 154.861ZM944.054 138.718L944.587 132.621L956.781 133.688L956.247 139.784L950.151 139.251L949.617 145.348L937.424 144.281L937.957 138.184L944.054 138.718ZM955.18 151.978L949.084 151.444L949.617 145.348L955.714 145.881L955.18 151.978ZM949.084 151.444L948.55 157.541L936.357 156.474L936.89 150.378L949.084 151.444ZM961.963 146.428L962.496 140.331L980.786 141.931L980.253 148.028L961.963 146.428ZM993.132 143.011L993.666 136.915L999.762 137.448L999.229 143.545L993.132 143.011ZM992.066 155.205L985.969 154.671L987.036 142.478L993.132 143.011L992.066 155.205ZM1004.26 156.272L998.162 155.738L999.229 143.545L1005.33 144.078L1004.26 156.272ZM998.162 155.738L997.629 161.835L991.532 161.301L992.066 155.205L998.162 155.738ZM1016.07 163.448L1009.97 162.915L1012.11 138.528L1024.3 139.595L1023.77 145.692L1017.67 145.158L1016.07 163.448ZM1028.26 164.515L1022.17 163.982L1023.77 145.692L1029.87 146.225L1028.26 164.515ZM1054.56 148.385L1055.09 142.289L1067.28 143.355L1066.75 149.452L1060.65 148.919L1060.12 155.015L1047.93 153.949L1048.46 147.852L1054.56 148.385ZM1065.68 161.645L1059.59 161.112L1060.12 155.015L1066.22 155.549L1065.68 161.645ZM1059.59 161.112L1059.05 167.209L1046.86 166.142L1047.39 160.045L1059.59 161.112ZM1078.03 162.726L1071.93 162.192L1073 149.999L1079.1 150.532L1079.63 144.435L1085.73 144.969L1085.19 151.066L1091.29 151.599L1090.76 157.696L1078.56 156.629L1078.03 162.726ZM1077.5 168.822L1078.03 162.726L1090.22 163.792L1089.69 169.889L1077.5 168.822ZM1103.64 152.679L1104.17 146.582L1116.36 147.649L1115.83 153.746L1109.73 153.212L1109.2 159.309L1097.01 158.242L1097.54 152.146L1103.64 152.679ZM1114.76 165.939L1108.67 165.406L1109.2 159.309L1115.3 159.843L1114.76 165.939ZM1108.67 165.406L1108.13 171.503L1095.94 170.436L1096.47 164.339L1108.67 165.406ZM1128.17 154.826L1128.71 148.729L1140.9 149.796L1140.37 155.893L1134.27 155.359L1133.74 161.456L1121.54 160.389L1122.08 154.293L1128.17 154.826ZM1139.3 168.086L1133.2 167.553L1133.74 161.456L1139.83 161.989L1139.3 168.086ZM1133.2 167.553L1132.67 173.65L1120.48 172.583L1121.01 166.486L1133.2 167.553ZM1147.68 144.246L1148.22 138.149L1154.31 138.683L1153.78 144.779L1147.68 144.246ZM1151.11 175.263L1145.02 174.73L1147.15 150.343L1153.25 150.876L1151.11 175.263ZM1165.06 158.053L1165.59 151.956L1171.69 152.49L1171.16 158.586L1165.06 158.053ZM1163.99 170.246L1157.9 169.713L1158.96 157.52L1165.06 158.053L1163.99 170.246ZM1176.19 171.313L1170.09 170.78L1171.16 158.586L1177.25 159.12L1176.19 171.313ZM1170.09 170.78L1169.56 176.877L1163.46 176.343L1163.99 170.246L1170.09 170.78ZM1188 178.49L1181.9 177.957L1184.04 153.57L1196.23 154.637L1195.7 160.733L1189.6 160.2L1188 178.49ZM1200.19 179.557L1194.1 179.023L1195.7 160.733L1201.79 161.267L1200.19 179.557ZM1214.14 162.347L1214.67 156.25L1226.86 157.317L1226.33 163.414L1220.23 162.88L1219.7 168.977L1207.51 167.91L1208.04 161.813L1214.14 162.347ZM1225.26 175.607L1219.17 175.074L1219.7 168.977L1225.8 169.51L1225.26 175.607ZM1219.17 175.074L1218.63 181.17L1206.44 180.104L1206.97 174.007L1219.17 175.074Z" fill="white"/>
<circle cx="1258.46" cy="169.096" r="7.65" transform="rotate(5 1258.46 169.096)" fill="white"/>
<path d="M1296.37 187.972L1290.28 187.438L1292.94 156.955L1299.04 157.488L1296.37 187.972ZM1310.32 170.762L1310.85 164.665L1316.95 165.198L1316.41 171.295L1310.32 170.762ZM1309.25 182.955L1303.15 182.422L1304.22 170.228L1310.32 170.762L1309.25 182.955ZM1321.44 184.022L1315.35 183.488L1316.41 171.295L1322.51 171.828L1321.44 184.022ZM1315.35 183.488L1314.81 189.585L1308.72 189.052L1309.25 182.955L1315.35 183.488ZM1333.79 185.102L1327.69 184.568L1329.83 160.182L1335.92 160.715L1335.39 166.812L1341.49 167.345L1340.95 173.442L1334.86 172.908L1333.79 185.102ZM1333.26 191.199L1333.79 185.102L1339.89 185.635L1339.35 191.732L1333.26 191.199ZM1353.83 168.425L1347.74 167.892L1348.8 155.698L1354.9 156.232L1353.83 168.425ZM1365.65 175.602L1366.18 169.505L1378.37 170.572L1377.84 176.669L1371.74 176.135L1371.21 182.232L1359.02 181.165L1359.55 175.069L1365.65 175.602ZM1376.77 188.862L1370.68 188.329L1371.21 182.232L1377.31 182.766L1376.77 188.862ZM1370.68 188.329L1370.14 194.426L1357.95 193.359L1358.48 187.262L1370.68 188.329ZM1402.53 178.829L1403.06 172.732L1409.16 173.266L1408.63 179.362L1402.53 178.829ZM1401.46 191.022L1395.37 190.489L1396.43 178.296L1402.53 178.829L1401.46 191.022ZM1413.66 192.089L1407.56 191.556L1408.63 179.362L1414.72 179.896L1413.66 192.089ZM1407.56 191.556L1407.03 197.653L1400.93 197.119L1401.46 191.022L1407.56 191.556ZM1427.6 174.879L1428.14 168.783L1434.23 169.316L1433.7 175.413L1427.6 174.879ZM1425.47 199.266L1419.37 198.733L1421.51 174.346L1427.6 174.879L1427.07 180.976L1433.17 181.509L1432.63 187.606L1426.54 187.073L1425.47 199.266ZM1458.39 177.573L1458.93 171.476L1465.02 172.01L1464.49 178.106L1458.39 177.573ZM1456.26 201.96L1450.16 201.426L1452.3 177.04L1458.39 177.573L1457.86 183.67L1463.96 184.203L1463.42 190.3L1457.33 189.766L1456.26 201.96ZM1474.7 203.573L1475.23 197.477L1469.14 196.943L1470.74 178.653L1476.83 179.186L1475.23 197.477L1481.33 198.01L1482.93 179.72L1489.03 180.253L1486.89 204.64L1474.7 203.573ZM1499.24 205.72L1493.14 205.187L1495.28 180.8L1507.47 181.867L1506.94 187.963L1500.84 187.43L1499.24 205.72ZM1511.43 206.787L1505.34 206.254L1506.94 187.963L1513.03 188.497L1511.43 206.787ZM1536.13 208.947L1536.66 202.85L1530.56 202.317L1531.63 190.124L1537.73 190.657L1536.66 202.85L1542.76 203.384L1543.82 191.19L1537.73 190.657L1538.26 184.56L1550.45 185.627L1548.32 210.014L1536.13 208.947ZM1560.66 211.094L1554.57 210.561L1556.7 186.174L1568.89 187.241L1568.36 193.337L1562.26 192.804L1560.66 211.094ZM1572.86 212.161L1566.76 211.628L1568.36 193.337L1574.46 193.871L1572.86 212.161ZM1585.2 213.241L1585.74 207.144L1579.64 206.611L1580.71 194.417L1586.8 194.951L1585.74 207.144L1591.83 207.678L1592.9 195.484L1586.8 194.951L1587.34 188.854L1593.43 189.388L1593.97 183.291L1600.06 183.824L1597.4 214.308L1585.2 213.241ZM1615.99 215.935L1622.09 216.468L1622.62 210.371L1616.53 209.838L1617.59 197.645L1623.69 198.178L1622.62 210.371L1628.72 210.905L1629.79 198.711L1623.69 198.178L1624.22 192.081L1636.42 193.148L1634.28 217.535L1628.19 217.001L1627.65 223.098L1615.46 222.031L1615.99 215.935ZM1646.63 218.615L1647.16 212.518L1641.06 211.985L1642.13 199.791L1648.23 200.325L1647.16 212.518L1653.26 213.052L1654.33 200.858L1648.23 200.325L1648.76 194.228L1660.96 195.295L1658.82 219.682L1646.63 218.615ZM1671.17 220.762L1665.07 220.228L1667.2 195.842L1691.59 197.975L1691.06 204.072L1684.96 203.539L1683.36 221.829L1677.26 221.295L1678.86 203.005L1672.77 202.472L1671.17 220.762ZM1695.55 222.895L1689.46 222.362L1691.06 204.072L1697.15 204.605L1695.55 222.895ZM1708.43 217.879L1702.34 217.345L1703.4 205.152L1709.5 205.685L1710.03 199.589L1716.13 200.122L1715.6 206.219L1721.69 206.752L1721.16 212.849L1708.97 211.782L1708.43 217.879ZM1707.9 223.976L1708.43 217.879L1720.63 218.946L1720.09 225.042L1707.9 223.976ZM1734.04 207.832L1734.57 201.736L1746.77 202.802L1746.23 208.899L1740.14 208.366L1739.6 214.462L1727.41 213.396L1727.94 207.299L1734.04 207.832ZM1745.17 221.093L1739.07 220.559L1739.6 214.462L1745.7 214.996L1745.17 221.093ZM1739.07 220.559L1738.54 226.656L1726.34 225.589L1726.88 219.492L1739.07 220.559Z" fill="white"/>
<path d="M-289.7 -3.77842L-289.167 -9.87514L-270.877 -8.27496L-271.41 -2.17824L-289.7 -3.77842ZM-265.161 -1.63152L-264.627 -7.72823L-246.337 -6.12805L-246.871 -0.0313371L-265.161 -1.63152ZM-240.622 0.515391L-240.088 -5.58132L-221.798 -3.98114L-222.331 2.11557L-240.622 0.515391ZM-216.082 2.6623L-215.549 -3.43441L-197.259 -1.83423L-197.792 4.26248L-216.082 2.6623ZM-191.543 4.80921L-191.01 -1.28751L-172.72 0.312674L-173.253 6.40939L-191.543 4.80921ZM-167.004 6.95611L-166.47 0.859402L-148.18 2.45958L-148.714 8.55629L-167.004 6.95611ZM-142.464 9.10302L-141.931 3.00631L-123.641 4.60649L-124.174 10.7032L-142.464 9.10302ZM-117.925 11.2499L-117.392 5.15322L-99.1017 6.7534L-99.6351 12.8501L-117.925 11.2499ZM-93.386 13.3968L-92.8526 7.30012L-74.5624 8.9003L-75.0958 14.997L-93.386 13.3968ZM-68.8467 15.5437L-68.3133 9.44703L-50.0232 11.0472L-50.5566 17.1439L-68.8467 15.5437ZM-44.3074 17.6907L-43.774 11.5939L-25.4839 13.1941L-26.0173 19.2908L-44.3074 17.6907ZM-19.7682 19.8376L-19.2348 13.7408L-0.944668 15.341L-1.47806 21.4377L-19.7682 19.8376ZM4.77109 21.9845L5.30449 15.8878L23.5946 17.4879L23.0612 23.5846L4.77109 21.9845ZM29.3104 24.1314L29.8437 18.0347L48.1339 19.6348L47.6005 25.7316L29.3104 24.1314ZM53.8496 26.2783L54.383 20.1816L72.6731 21.7817L72.1398 27.8785L53.8496 26.2783ZM78.3889 28.4252L78.9223 22.3285L97.2124 23.9287L96.679 30.0254L78.3889 28.4252ZM102.928 30.5721L103.462 24.4754L121.752 26.0756L121.218 32.1723L102.928 30.5721ZM127.467 32.719L128.001 26.6223L146.291 28.2225L145.758 34.3192L127.467 32.719ZM152.007 34.8659L152.54 28.7692L170.83 30.3694L170.297 36.4661L152.007 34.8659ZM176.546 37.0128L177.079 30.9161L195.369 32.5163L194.836 38.613L176.546 37.0128ZM201.085 39.1597L201.619 33.063L219.909 34.6632L219.375 40.7599L201.085 39.1597ZM225.624 41.3066L226.158 35.2099L244.448 36.8101L243.915 42.9068L225.624 41.3066ZM250.164 43.4535L250.697 37.3568L268.987 38.957L268.454 45.0537L250.164 43.4535ZM274.703 45.6004L275.236 39.5037L293.526 41.1039L292.993 47.2006L274.703 45.6004ZM299.242 47.7474L299.776 41.6506L318.066 43.2508L317.532 49.3475L299.242 47.7474ZM323.782 49.8943L324.315 43.7976L342.605 45.3977L342.072 51.4944L323.782 49.8943ZM348.321 52.0412L348.854 45.9445L367.144 47.5446L366.611 53.6413L348.321 52.0412ZM372.86 54.1881L373.393 48.0914L391.684 49.6915L391.15 55.7883L372.86 54.1881ZM397.399 56.335L397.933 50.2383L416.223 51.8385L415.689 57.9352L397.399 56.335ZM421.939 58.4819L422.472 52.3852L440.762 53.9854L440.229 60.0821L421.939 58.4819ZM446.478 60.6288L447.011 54.5321L465.301 56.1323L464.768 62.229L446.478 60.6288ZM471.017 62.7757L471.55 56.679L489.841 58.2792L489.307 64.3759L471.017 62.7757ZM495.556 64.9226L496.09 58.8259L514.38 60.4261L513.846 66.5228L495.556 64.9226ZM520.096 67.0695L520.629 60.9728L538.919 62.573L538.386 68.6697L520.096 67.0695ZM544.635 69.2164L545.168 63.1197L563.458 64.7199L562.925 70.8166L544.635 69.2164ZM569.174 71.3633L569.708 65.2666L587.998 66.8668L587.464 72.9635L569.174 71.3633ZM593.713 73.5102L594.247 67.4135L612.537 69.0137L612.004 75.1104L593.713 73.5102ZM618.253 75.6571L618.786 69.5604L637.076 71.1606L636.543 77.2573L618.253 75.6571ZM642.792 77.8041L643.325 71.7073L661.615 73.3075L661.082 79.4042L642.792 77.8041ZM667.331 79.951L667.865 73.8543L686.155 75.4544L685.621 81.5511L667.331 79.951ZM691.871 82.0979L692.404 76.0012L710.694 77.6013L710.161 83.6981L691.871 82.0979ZM716.41 84.2448L716.943 78.1481L735.233 79.7482L734.7 85.845L716.41 84.2448ZM740.949 86.3917L741.482 80.295L759.772 81.8952L759.239 87.9919L740.949 86.3917ZM765.488 88.5386L766.022 82.4419L784.312 84.0421L783.778 90.1388L765.488 88.5386ZM790.027 90.6855L790.561 84.5888L808.851 86.189L808.318 92.2857L790.027 90.6855ZM814.567 92.8324L815.1 86.7357L833.39 88.3359L832.857 94.4326L814.567 92.8324ZM839.106 94.9793L839.639 88.8826L857.93 90.4828L857.396 96.5795L839.106 94.9793ZM863.645 97.1262L864.179 91.0295L882.469 92.6297L881.935 98.7264L863.645 97.1262ZM888.185 99.2731L888.718 93.1764L907.008 94.7766L906.475 100.873L888.185 99.2731ZM912.724 101.42L913.257 95.3233L931.547 96.9235L931.014 103.02L912.724 101.42ZM937.263 103.567L937.797 97.4702L956.087 99.0704L955.553 105.167L937.263 103.567ZM961.802 105.714L962.336 99.6171L980.626 101.217L980.092 107.314L961.802 105.714ZM986.342 107.861L986.875 101.764L1005.17 103.364L1004.63 109.461L986.342 107.861ZM1010.88 110.008L1011.41 103.911L1029.7 105.511L1029.17 111.608L1010.88 110.008ZM1035.42 112.155L1035.95 106.058L1054.24 107.658L1053.71 113.755L1035.42 112.155ZM1059.96 114.301L1060.49 108.205L1078.78 109.805L1078.25 115.902L1059.96 114.301ZM1084.5 116.448L1085.03 110.352L1103.32 111.952L1102.79 118.049L1084.5 116.448ZM1109.04 118.595L1109.57 112.499L1127.86 114.099L1127.33 120.195L1109.04 118.595ZM1133.58 120.742L1134.11 114.645L1152.4 116.246L1151.87 122.342L1133.58 120.742ZM1158.12 122.889L1158.65 116.792L1176.94 118.393L1176.41 124.489L1158.12 122.889ZM1182.66 125.036L1183.19 118.939L1201.48 120.539L1200.95 126.636L1182.66 125.036ZM1207.19 127.183L1207.73 121.086L1226.02 122.686L1225.49 128.783L1207.19 127.183ZM1231.73 129.33L1232.27 123.233L1250.56 124.833L1250.02 130.93L1231.73 129.33ZM1256.27 131.477L1256.81 125.38L1275.1 126.98L1274.56 133.077L1256.27 131.477ZM1280.81 133.624L1281.35 127.527L1299.64 129.127L1299.1 135.224L1280.81 133.624ZM1305.35 135.771L1305.89 129.674L1324.18 131.274L1323.64 137.371L1305.35 135.771ZM1329.89 137.917L1330.42 131.821L1348.71 133.421L1348.18 139.518L1329.89 137.917ZM1354.43 140.064L1354.96 133.968L1373.25 135.568L1372.72 141.665L1354.43 140.064ZM1378.97 142.211L1379.5 136.115L1397.79 137.715L1397.26 143.811L1378.97 142.211ZM1403.51 144.358L1404.04 138.261L1422.33 139.862L1421.8 145.958L1403.51 144.358ZM1428.05 146.505L1428.58 140.408L1446.87 142.009L1446.34 148.105L1428.05 146.505ZM1452.59 148.652L1453.12 142.555L1471.41 144.155L1470.88 150.252L1452.59 148.652ZM1477.13 150.799L1477.66 144.702L1495.95 146.302L1495.42 152.399L1477.13 150.799ZM1501.67 152.946L1502.2 146.849L1520.49 148.449L1519.96 154.546L1501.67 152.946ZM1526.21 155.093L1526.74 148.996L1545.03 150.596L1544.5 156.693L1526.21 155.093ZM1550.74 157.24L1551.28 151.143L1569.57 152.743L1569.03 158.84L1550.74 157.24ZM1575.28 159.387L1575.82 153.29L1594.11 154.89L1593.57 160.987L1575.28 159.387ZM1599.82 161.533L1600.36 155.437L1618.65 157.037L1618.11 163.134L1599.82 161.533ZM1624.36 163.68L1624.9 157.584L1643.19 159.184L1642.65 165.281L1624.36 163.68ZM1648.9 165.827L1649.44 159.731L1667.73 161.331L1667.19 167.427L1648.9 165.827ZM1673.44 167.974L1673.97 161.877L1692.26 163.478L1691.73 169.574L1673.44 167.974ZM1697.98 170.121L1698.51 164.024L1716.8 165.625L1716.27 171.721L1697.98 170.121ZM1722.52 172.268L1723.05 166.171L1741.34 167.771L1740.81 173.868L1722.52 172.268ZM1747.06 174.415L1747.59 168.318L1765.88 169.918L1765.35 176.015L1747.06 174.415ZM1771.6 176.562L1772.13 170.465L1790.42 172.065L1789.89 178.162L1771.6 176.562ZM1796.14 178.709L1796.67 172.612L1814.96 174.212L1814.43 180.309L1796.14 178.709ZM1820.68 180.856L1821.21 174.759L1839.5 176.359L1838.97 182.456L1820.68 180.856ZM1845.22 183.003L1845.75 176.906L1864.04 178.506L1863.51 184.603L1845.22 183.003ZM1869.76 185.149L1870.29 179.053L1888.58 180.653L1888.05 186.75L1869.76 185.149ZM1894.29 187.296L1894.83 181.2L1913.12 182.8L1912.58 188.897L1894.29 187.296ZM1918.83 189.443L1919.37 183.347L1937.66 184.947L1937.12 191.043L1918.83 189.443ZM1943.37 191.59L1943.91 185.493L1962.2 187.094L1961.66 193.19L1943.37 191.59ZM1967.91 193.737L1968.45 187.64L1986.74 189.241L1986.2 195.337L1967.91 193.737ZM1992.45 195.884L1992.98 189.787L2011.27 191.387L2010.74 197.484L1992.45 195.884ZM2016.99 198.031L2017.52 191.934L2035.81 193.534L2035.28 199.631L2016.99 198.031ZM2041.53 200.178L2042.06 194.081L2060.35 195.681L2059.82 201.778L2041.53 200.178ZM2066.07 202.325L2066.6 196.228L2084.89 197.828L2084.36 203.925L2066.07 202.325ZM2090.61 204.472L2091.14 198.375L2109.43 199.975L2108.9 206.072L2090.61 204.472Z" fill="white"/>
<path d="M-161.304 88.8545L-160.77 82.7578L-142.48 84.358L-143.013 90.4547L-161.304 88.8545ZM-136.764 91.0014L-136.231 84.9047L-117.941 86.5049L-118.474 92.6016L-136.764 91.0014ZM-112.225 93.1484L-111.692 87.0516L-93.4015 88.6518L-93.9349 94.7485L-112.225 93.1484ZM-87.6857 95.2953L-87.1523 89.1986L-68.8622 90.7987L-69.3956 96.8954L-87.6857 95.2953ZM-63.1465 97.4422L-62.6131 91.3455L-44.3229 92.9456L-44.8563 99.0424L-63.1465 97.4422ZM-38.6072 99.5891L-38.0738 93.4924L-19.7837 95.0925L-20.3171 101.189L-38.6072 99.5891ZM-14.0679 101.736L-13.5345 95.6393L4.75559 97.2395L4.22219 103.336L-14.0679 101.736ZM10.4713 103.883L11.0047 97.7862L29.2948 99.3864L28.7615 105.483L10.4713 103.883ZM35.0106 106.03L35.544 99.9331L53.8341 101.533L53.3007 107.63L35.0106 106.03ZM59.5498 108.177L60.0832 102.08L78.3734 103.68L77.84 109.777L59.5498 108.177ZM84.0891 110.324L84.6225 104.227L102.913 105.827L102.379 111.924L84.0891 110.324ZM108.628 112.471L109.162 106.374L127.452 107.974L126.918 114.071L108.628 112.471ZM133.168 114.617L133.701 108.521L151.991 110.121L151.458 116.218L133.168 114.617ZM157.707 116.764L158.24 110.668L176.53 112.268L175.997 118.365L157.707 116.764ZM182.246 118.911L182.78 112.815L201.07 114.415L200.536 120.511L182.246 118.911ZM206.785 121.058L207.319 114.961L225.609 116.562L225.076 122.658L206.785 121.058ZM231.325 123.205L231.858 117.108L250.148 118.709L249.615 124.805L231.325 123.205ZM255.864 125.352L256.397 119.255L274.687 120.855L274.154 126.952L255.864 125.352ZM280.403 127.499L280.937 121.402L299.227 123.002L298.693 129.099L280.403 127.499ZM304.942 129.646L305.476 123.549L323.766 125.149L323.233 131.246L304.942 129.646ZM329.482 131.793L330.015 125.696L348.305 127.296L347.772 133.393L329.482 131.793ZM354.021 133.94L354.554 127.843L372.845 129.443L372.311 135.54L354.021 133.94ZM378.56 136.087L379.094 129.99L397.384 131.59L396.85 137.687L378.56 136.087ZM403.1 138.233L403.633 132.137L421.923 133.737L421.39 139.834L403.1 138.233ZM427.639 140.38L428.172 134.284L446.462 135.884L445.929 141.981L427.639 140.38ZM452.178 142.527L452.711 136.431L471.002 138.031L470.468 144.127L452.178 142.527ZM476.717 144.674L477.251 138.577L495.541 140.178L495.007 146.274L476.717 144.674ZM501.257 146.821L501.79 140.724L520.08 142.325L519.547 148.421L501.257 146.821ZM525.796 148.968L526.329 142.871L544.619 144.471L544.086 150.568L525.796 148.968ZM550.335 151.115L550.869 145.018L569.159 146.618L568.625 152.715L550.335 151.115ZM574.874 153.262L575.408 147.165L593.698 148.765L593.165 154.862L574.874 153.262ZM599.414 155.409L599.947 149.312L618.237 150.912L617.704 157.009L599.414 155.409ZM623.953 157.556L624.486 151.459L642.776 153.059L642.243 159.156L623.953 157.556ZM648.492 159.702L649.026 153.606L667.316 155.206L666.782 161.303L648.492 159.702ZM673.031 161.849L673.565 155.753L691.855 157.353L691.322 163.45L673.031 161.849ZM697.571 163.996L698.104 157.9L716.394 159.5L715.861 165.596L697.571 163.996ZM722.11 166.143L722.643 160.046L740.933 161.647L740.4 167.743L722.11 166.143ZM746.649 168.29L747.183 162.193L765.473 163.794L764.939 169.89L746.649 168.29ZM771.188 170.437L771.722 164.34L790.012 165.94L789.479 172.037L771.188 170.437ZM795.728 172.584L796.261 166.487L814.551 168.087L814.018 174.184L795.728 172.584ZM820.267 174.731L820.8 168.634L839.091 170.234L838.557 176.331L820.267 174.731ZM844.806 176.878L845.34 170.781L863.63 172.381L863.096 178.478L844.806 176.878ZM869.346 179.025L869.879 172.928L888.169 174.528L887.636 180.625L869.346 179.025ZM893.885 181.172L894.418 175.075L912.708 176.675L912.175 182.772L893.885 181.172ZM918.424 183.318L918.957 177.222L937.248 178.822L936.714 184.919L918.424 183.318ZM942.963 185.465L943.497 179.369L961.787 180.969L961.253 187.066L942.963 185.465ZM967.503 187.612L968.036 181.516L986.326 183.116L985.793 189.212L967.503 187.612ZM992.042 189.759L992.575 183.662L1010.87 185.263L1010.33 191.359L992.042 189.759ZM1016.58 191.906L1017.11 185.809L1035.4 187.41L1034.87 193.506L1016.58 191.906ZM1041.12 194.053L1041.65 187.956L1059.94 189.556L1059.41 195.653L1041.12 194.053ZM1065.66 196.2L1066.19 190.103L1084.48 191.703L1083.95 197.8L1065.66 196.2ZM1090.2 198.347L1090.73 192.25L1109.02 193.85L1108.49 199.947L1090.2 198.347ZM1114.74 200.494L1115.27 194.397L1133.56 195.997L1133.03 202.094L1114.74 200.494ZM1139.28 202.641L1139.81 196.544L1158.1 198.144L1157.57 204.241L1139.28 202.641ZM1163.82 204.788L1164.35 198.691L1182.64 200.291L1182.11 206.388L1163.82 204.788ZM1188.36 206.934L1188.89 200.838L1207.18 202.438L1206.65 208.535L1188.36 206.934ZM1212.9 209.081L1213.43 202.985L1231.72 204.585L1231.19 210.682L1212.9 209.081ZM1237.43 211.228L1237.97 205.132L1256.26 206.732L1255.72 212.828L1237.43 211.228ZM1261.97 213.375L1262.51 207.278L1280.8 208.879L1280.26 214.975L1261.97 213.375ZM1286.51 215.522L1287.05 209.425L1305.34 211.026L1304.8 217.122L1286.51 215.522ZM1311.05 217.669L1311.59 211.572L1329.88 213.172L1329.34 219.269L1311.05 217.669ZM1335.59 219.816L1336.12 213.719L1354.42 215.319L1353.88 221.416L1335.59 219.816ZM1360.13 221.963L1360.66 215.866L1378.95 217.466L1378.42 223.563L1360.13 221.963ZM1384.67 224.11L1385.2 218.013L1403.49 219.613L1402.96 225.71L1384.67 224.11ZM1409.21 226.257L1409.74 220.16L1428.03 221.76L1427.5 227.857L1409.21 226.257ZM1433.75 228.404L1434.28 222.307L1452.57 223.907L1452.04 230.004L1433.75 228.404ZM1458.29 230.55L1458.82 224.454L1477.11 226.054L1476.58 232.151L1458.29 230.55ZM1482.83 232.697L1483.36 226.601L1501.65 228.201L1501.12 234.298L1482.83 232.697ZM1507.37 234.844L1507.9 228.748L1526.19 230.348L1525.66 236.444L1507.37 234.844ZM1531.91 236.991L1532.44 230.894L1550.73 232.495L1550.2 238.591L1531.91 236.991ZM1556.44 239.138L1556.98 233.041L1575.27 234.642L1574.74 240.738L1556.44 239.138ZM1580.98 241.285L1581.52 235.188L1599.81 236.788L1599.27 242.885L1580.98 241.285ZM1605.52 243.432L1606.06 237.335L1624.35 238.935L1623.81 245.032L1605.52 243.432ZM1630.06 245.579L1630.6 239.482L1648.89 241.082L1648.35 247.179L1630.06 245.579ZM1654.6 247.726L1655.14 241.629L1673.43 243.229L1672.89 249.326L1654.6 247.726ZM1679.14 249.873L1679.67 243.776L1697.96 245.376L1697.43 251.473L1679.14 249.873ZM1703.68 252.02L1704.21 245.923L1722.5 247.523L1721.97 253.62L1703.68 252.02ZM1728.22 254.166L1728.75 248.07L1747.04 249.67L1746.51 255.767L1728.22 254.166ZM1752.76 256.313L1753.29 250.217L1771.58 251.817L1771.05 257.914L1752.76 256.313ZM1777.3 258.46L1777.83 252.364L1796.12 253.964L1795.59 260.06L1777.3 258.46ZM1801.84 260.607L1802.37 254.51L1820.66 256.111L1820.13 262.207L1801.84 260.607ZM1826.38 262.754L1826.91 256.657L1845.2 258.258L1844.67 264.354L1826.38 262.754ZM1850.92 264.901L1851.45 258.804L1869.74 260.404L1869.21 266.501L1850.92 264.901ZM1875.46 267.048L1875.99 260.951L1894.28 262.551L1893.75 268.648L1875.46 267.048ZM1899.99 269.195L1900.53 263.098L1918.82 264.698L1918.28 270.795L1899.99 269.195ZM1924.53 271.342L1925.07 265.245L1943.36 266.845L1942.82 272.942L1924.53 271.342ZM1949.07 273.489L1949.61 267.392L1967.9 268.992L1967.36 275.089L1949.07 273.489Z" fill="white"/>
</g>
<defs>
<clipPath id="clip0_38_121">
<rect width="1899.98" height="111.69" fill="white" transform="translate(-31.2656) rotate(5)"/>
</clipPath>
</defs>
</svg>
