<svg width="336" height="437" viewBox="0 0 336 437" fill="none" xmlns="http://www.w3.org/2000/svg">
<path d="M75.8044 42.855L258.116 354.319L183.815 397.602C180.479 399.55 176.48 399.495 173.927 397.456L58.9454 305.936C40.1493 290.689 21.8521 269.308 6.78125 243.473C5.71007 241.636 4.67704 239.788 3.66144 237.953C3.40743 237.507 3.16976 237.053 2.91914 236.595C1.9167 234.763 0.948228 232.933 0.0013641 231.102C-0.0552564 231.003 -0.0987128 230.908 -0.146638 230.804C-1.04724 229.056 -1.91026 227.296 -2.75953 225.541C-2.97618 225.085 -3.20068 224.634 -3.41734 224.178C-4.28312 222.356 -5.13599 220.537 -5.94678 218.715C-6.02945 218.533 -6.09893 218.353 -6.18079 218.171C-6.9282 216.499 -7.64084 214.83 -8.33245 213.158C-8.52806 212.701 -8.71524 212.24 -8.90159 211.779C-9.64361 209.983 -10.35 208.19 -11.0449 206.4C-11.1478 206.142 -11.2304 205.883 -11.3338 205.625C-11.936 204.034 -12.5083 202.459 -13.0712 200.879C-13.2373 200.416 -13.4034 199.954 -13.5609 199.486C-14.1724 197.726 -14.7585 195.972 -15.31 194.222C-15.417 193.9 -15.5117 193.582 -15.6049 193.265C-16.0797 191.765 -16.5276 190.271 -16.9546 188.777C-17.0905 188.309 -17.2277 187.84 -17.3557 187.367C-17.8365 185.663 -18.2966 183.959 -18.7261 182.269C-18.819 181.896 -18.9114 181.523 -18.9965 181.145C-19.3417 179.735 -19.6745 178.329 -19.9945 176.926C-20.1014 176.452 -20.2085 175.979 -20.311 175.512C-20.6692 173.87 -21.0028 172.234 -21.3038 170.614C-21.3835 170.189 -21.4573 169.772 -21.5357 169.347C-21.7746 168.029 -21.9952 166.723 -22.1951 165.417C-22.2681 164.945 -22.3455 164.465 -22.414 164.001C-22.6451 162.428 -22.8544 160.875 -23.0376 159.329C-23.0879 158.877 -23.139 158.425 -23.1887 157.973C-23.3249 156.739 -23.4437 155.517 -23.5449 154.306C-23.5839 153.836 -23.6308 153.371 -23.6647 152.91C-23.7722 151.42 -23.8622 149.941 -23.9304 148.482C-23.9484 148.011 -23.9613 147.549 -23.9784 147.077C-24.0207 145.932 -24.0369 144.794 -24.0435 143.672C-24.0475 143.225 -24.0545 142.771 -24.05 142.32C-24.0425 140.917 -24.0088 139.52 -23.962 138.149C-23.9446 137.68 -23.9157 137.216 -23.8944 136.754C-23.8385 135.685 -23.77 134.618 -23.679 133.571C-23.6431 133.157 -23.6232 132.731 -23.5741 132.32C-23.4516 131.004 -23.2979 129.703 -23.1347 128.418C-23.0752 127.969 -23.0098 127.528 -22.9416 127.073C-22.7932 126.07 -22.631 125.07 -22.4469 124.091C-22.3787 123.713 -22.3185 123.339 -22.2453 122.97C-22.2313 122.918 -22.2304 122.863 -22.2163 122.811C-21.9836 121.629 -21.7244 120.475 -21.4342 119.337C-21.3304 118.906 -21.2142 118.479 -21.0975 118.052C-20.8663 117.155 -20.6127 116.278 -20.3467 115.404C-20.2359 115.024 -20.1172 114.639 -20.0014 114.267C-19.6351 113.128 -19.2419 112.018 -18.8254 110.928C-18.6921 110.568 -18.5421 110.22 -18.4035 109.868C-18.0635 109.028 -17.7139 108.205 -17.3461 107.394C-17.1989 107.059 -17.043 106.718 -16.8912 106.391C-16.3919 105.352 -15.8786 104.338 -15.3244 103.354C-15.1772 103.096 -15.0177 102.84 -14.8696 102.581C-14.412 101.795 -13.9362 101.02 -13.4458 100.271C-13.2655 99.9928 -13.0852 99.7151 -12.897 99.4329C-12.2679 98.505 -11.6118 97.6057 -10.9243 96.7429C-10.7892 96.5783 -10.6483 96.4217 -10.5132 96.2571C-9.91564 95.5225 -9.30039 94.8208 -8.65398 94.1347C-8.44507 93.9067 -8.23226 93.6857 -8.01887 93.4655C-7.24697 92.6749 -6.45177 91.9045 -5.61649 91.1656C-5.52749 91.0924 -5.4377 91.0186 -5.34024 90.9418C-4.56845 90.2822 -3.7784 89.6563 -2.9606 89.0585C-2.72449 88.8799 -2.48308 88.7086 -2.24977 88.5431C-1.32898 87.8966 -0.394396 87.2758 0.581942 86.7076L70.898 45.6895M133.551 168.533C134.452 170.074 135.327 171.607 136.195 173.144C136.482 173.648 136.748 174.151 137.022 174.65C137.593 175.69 138.166 176.73 138.729 177.774C139.046 178.369 139.356 178.969 139.674 179.563C140.173 180.513 140.672 181.463 141.154 182.423C141.47 183.053 141.786 183.681 142.096 184.302C142.559 185.228 143.014 186.159 143.47 187.091C143.777 187.725 144.079 188.349 144.373 188.98C144.826 189.924 145.256 190.869 145.695 191.81C145.975 192.416 146.251 193.012 146.518 193.614C146.979 194.651 147.435 195.68 147.883 196.714C148.107 197.22 148.33 197.727 148.546 198.238C149.195 199.758 149.824 201.279 150.431 202.802C150.534 203.059 150.625 203.314 150.728 203.572C151.236 204.845 151.731 206.114 152.206 207.384C152.415 207.943 152.617 208.505 152.826 209.063C153.181 210.03 153.531 210.988 153.869 211.943C154.087 212.573 154.305 213.203 154.523 213.833C154.822 214.721 155.13 215.606 155.418 216.492C155.636 217.143 155.842 217.79 156.053 218.446C156.33 219.315 156.603 220.176 156.863 221.033C157.061 221.685 157.253 222.329 157.446 222.973C157.708 223.852 157.955 224.726 158.199 225.593C158.378 226.212 158.544 226.828 158.718 227.439C158.979 228.394 159.219 229.35 159.467 230.301C159.603 230.825 159.738 231.349 159.868 231.864C160.223 233.291 160.552 234.709 160.864 236.117C161.565 239.258 162.175 242.374 162.689 245.437" fill="url(#paint0_linear_165_295)"/>
<path d="M75.8044 42.855L258.116 354.319L183.815 397.602C180.479 399.55 176.48 399.495 173.927 397.456L58.9454 305.936C40.1493 290.689 21.8521 269.308 6.78125 243.473C5.71007 241.636 4.67704 239.788 3.66144 237.953C3.40742 237.507 3.16976 237.053 2.91914 236.595C1.9167 234.763 0.948231 232.933 0.0013641 231.102C-0.0552472 231.003 -0.09871 230.908 -0.146638 230.804C-1.04724 229.056 -1.91026 227.296 -2.75953 225.541C-2.97617 225.085 -3.20069 224.634 -3.41734 224.178C-4.28312 222.356 -5.13598 220.537 -5.94678 218.715C-6.02944 218.533 -6.09894 218.353 -6.18079 218.171C-6.92821 216.499 -7.64084 214.83 -8.33245 213.158C-8.52807 212.701 -8.71524 212.24 -8.90159 211.779C-9.64361 209.983 -10.35 208.19 -11.0449 206.4C-11.1478 206.142 -11.2304 205.883 -11.3338 205.625C-11.936 204.034 -12.5083 202.459 -13.0712 200.879C-13.2373 200.416 -13.4034 199.954 -13.5609 199.486C-14.1724 197.726 -14.7585 195.972 -15.31 194.222C-15.417 193.9 -15.5117 193.582 -15.6049 193.265C-16.0797 191.765 -16.5276 190.271 -16.9546 188.777C-17.0905 188.309 -17.2277 187.84 -17.3557 187.367C-17.8365 185.663 -18.2966 183.959 -18.7261 182.269C-18.819 181.896 -18.9114 181.523 -18.9965 181.145C-19.3417 179.735 -19.6745 178.329 -19.9945 176.926C-20.1014 176.452 -20.2085 175.979 -20.311 175.512C-20.6692 173.87 -21.0028 172.234 -21.3038 170.614C-21.3835 170.189 -21.4573 169.772 -21.5357 169.347C-21.7746 168.029 -21.9952 166.723 -22.1951 165.417C-22.2681 164.945 -22.3455 164.465 -22.414 164.001C-22.6451 162.428 -22.8544 160.875 -23.0376 159.329C-23.0879 158.877 -23.139 158.425 -23.1887 157.973C-23.3249 156.739 -23.4437 155.517 -23.5449 154.306C-23.5839 153.836 -23.6308 153.371 -23.6647 152.91C-23.7722 151.42 -23.8622 149.941 -23.9304 148.482C-23.9484 148.011 -23.9613 147.549 -23.9784 147.077C-24.0207 145.932 -24.0369 144.794 -24.0435 143.672C-24.0475 143.225 -24.0545 142.771 -24.05 142.32C-24.0425 140.917 -24.0088 139.52 -23.962 138.149C-23.9446 137.68 -23.9157 137.216 -23.8944 136.754C-23.8385 135.685 -23.77 134.618 -23.679 133.571C-23.6431 133.157 -23.6232 132.731 -23.5741 132.32C-23.4516 131.004 -23.2979 129.703 -23.1347 128.418C-23.0752 127.969 -23.0098 127.528 -22.9416 127.073C-22.7932 126.07 -22.631 125.07 -22.4469 124.091C-22.3787 123.713 -22.3185 123.339 -22.2453 122.97C-22.2313 122.918 -22.2304 122.863 -22.2163 122.811C-21.9836 121.629 -21.7244 120.475 -21.4342 119.337C-21.3304 118.906 -21.2142 118.479 -21.0975 118.052C-20.8663 117.155 -20.6127 116.278 -20.3467 115.404C-20.2359 115.024 -20.1172 114.639 -20.0014 114.267C-19.6351 113.128 -19.2419 112.018 -18.8254 110.928C-18.6921 110.568 -18.5421 110.22 -18.4035 109.868C-18.0635 109.028 -17.7139 108.205 -17.3461 107.394C-17.1989 107.059 -17.043 106.718 -16.8912 106.391C-16.3919 105.352 -15.8786 104.338 -15.3244 103.354C-15.1772 103.096 -15.0176 102.84 -14.8696 102.581C-14.412 101.795 -13.9362 101.02 -13.4458 100.271C-13.2655 99.9928 -13.0852 99.7151 -12.897 99.4329C-12.2679 98.505 -11.6118 97.6057 -10.9243 96.7429C-10.7893 96.5783 -10.6483 96.4217 -10.5132 96.2571C-9.91565 95.5225 -9.30038 94.8208 -8.65398 94.1347C-8.44506 93.9067 -8.23226 93.6857 -8.01887 93.4655C-7.24696 92.6749 -6.45177 91.9045 -5.61649 91.1656C-5.52749 91.0924 -5.4377 91.0186 -5.34024 90.9418C-4.56846 90.2822 -3.7784 89.6563 -2.9606 89.0585C-2.72448 88.8799 -2.48308 88.7086 -2.24977 88.5431C-1.32898 87.8966 -0.394392 87.2758 0.581942 86.7076L70.898 45.6895M133.551 168.533C134.452 170.074 135.327 171.607 136.195 173.144C136.482 173.648 136.748 174.151 137.022 174.65C137.593 175.69 138.166 176.73 138.729 177.774C139.046 178.369 139.356 178.969 139.674 179.563C140.173 180.513 140.672 181.463 141.154 182.423C141.47 183.053 141.786 183.681 142.096 184.302C142.559 185.228 143.014 186.159 143.47 187.091C143.777 187.725 144.079 188.349 144.373 188.98C144.826 189.924 145.256 190.869 145.695 191.81C145.975 192.416 146.251 193.012 146.518 193.614C146.979 194.651 147.435 195.68 147.883 196.714C148.108 197.221 148.33 197.727 148.546 198.238C149.195 199.758 149.824 201.279 150.431 202.802C150.534 203.059 150.625 203.314 150.728 203.572C151.236 204.845 151.731 206.114 152.206 207.384C152.415 207.943 152.617 208.505 152.826 209.063C153.181 210.03 153.531 210.988 153.869 211.943C154.087 212.573 154.305 213.203 154.523 213.833C154.822 214.721 155.13 215.606 155.418 216.492C155.636 217.143 155.842 217.79 156.053 218.446C156.33 219.315 156.603 220.176 156.863 221.033C157.061 221.685 157.253 222.329 157.446 222.973C157.708 223.852 157.955 224.726 158.199 225.593C158.378 226.212 158.544 226.828 158.718 227.439C158.979 228.394 159.219 229.35 159.467 230.301C159.603 230.825 159.738 231.349 159.868 231.864C160.223 233.291 160.552 234.709 160.864 236.117C161.565 239.258 162.175 242.374 162.689 245.437" stroke="#282828" stroke-width="1.8" stroke-miterlimit="10"/>
<path d="M222.16 374.997C218.824 376.947 215.205 377.537 212.644 375.502L97.6628 283.983C78.8667 268.736 60.5687 247.355 45.4978 221.52C44.4274 219.682 43.3944 217.835 42.3788 215.999C42.124 215.554 41.8871 215.1 41.6365 214.642C40.6333 212.81 39.6648 210.98 38.7179 209.149C38.6621 209.05 38.6178 208.955 38.5699 208.851C37.6701 207.102 36.8071 205.343 35.9579 203.587C35.7412 203.132 35.5167 202.68 35.3 202.225C34.4334 200.403 33.5808 198.583 32.7706 196.761C32.6879 196.579 32.6184 196.4 32.5358 196.218C31.7892 194.546 31.0765 192.876 30.3841 191.205C30.1885 190.748 30.0021 190.287 29.8144 189.825C29.0738 188.03 28.3665 186.237 27.6725 184.446C27.5688 184.189 27.487 183.93 27.3828 183.672C26.7806 182.081 26.2091 180.506 25.6454 178.926C25.4793 178.464 25.314 178 25.1565 177.533C24.5441 175.773 23.9581 174.019 23.4066 172.269C23.2995 171.947 23.2057 171.629 23.1116 171.312C22.6377 169.811 22.189 168.318 21.7627 166.824C21.6261 166.356 21.4897 165.887 21.3617 165.414C20.8801 163.71 20.4208 162.005 19.9913 160.316C19.8984 159.942 19.806 159.569 19.7209 159.191C19.3749 157.782 19.042 156.376 18.7221 154.974C18.6152 154.499 18.5083 154.024 18.4064 153.558C18.0473 151.917 17.7146 150.28 17.4122 148.661C17.3339 148.236 17.26 147.819 17.1809 147.394C16.9428 146.076 16.7213 144.77 16.5215 143.464C16.4493 142.991 16.3719 142.511 16.3034 142.047C16.0722 140.475 15.8624 138.921 15.6792 137.375C15.6287 136.924 15.5784 136.471 15.5273 136.019C15.3917 134.786 15.2731 133.563 15.1717 132.353C15.1335 131.883 15.0866 131.418 15.0527 130.957C14.9444 129.467 14.8538 127.987 14.787 126.529C14.769 126.058 14.7561 125.595 14.7381 125.124C14.6967 123.978 14.6805 122.84 14.6739 121.718C14.6699 121.272 14.6621 120.818 14.6674 120.367C14.6749 118.963 14.7077 117.567 14.7554 116.195C14.772 115.727 14.8017 115.262 14.8222 114.802C14.8789 113.731 14.9466 112.665 15.0376 111.618C15.0743 111.204 15.0928 110.778 15.1432 110.367C15.2658 109.05 15.4195 107.749 15.5819 106.466C15.6422 106.015 15.7076 105.574 15.7757 105.119C15.9242 104.116 16.0856 103.117 16.2697 102.138C16.3378 101.76 16.3981 101.386 16.4713 101.017C16.4853 100.965 16.4862 100.91 16.5003 100.858C16.733 99.6763 16.9922 98.5225 17.2819 97.3837C17.3857 96.9527 17.5024 96.5259 17.6193 96.0978C17.8503 95.2016 18.1039 94.3248 18.3699 93.4514C18.4807 93.0709 18.6001 92.6854 18.7152 92.3142C19.0815 91.1754 19.4755 90.0647 19.8912 88.9752C20.0239 88.6148 20.1753 88.2665 20.313 87.9147C20.6531 87.0753 21.0035 86.2519 21.3704 85.4411C21.5177 85.1059 21.6736 84.7656 21.8254 84.4382C22.3255 83.3988 22.8388 82.3843 23.3922 81.4014C23.5394 81.1427 23.6997 80.8869 23.8469 80.6282C24.3053 79.8414 24.7812 79.0666 25.2708 78.3176C25.4511 78.0399 25.6314 77.7622 25.8198 77.4786C26.4487 76.552 27.1048 75.6527 27.793 74.7894C27.9281 74.6247 28.0683 74.4688 28.2042 74.3036C28.8003 73.5687 29.417 72.8672 30.0634 72.1812C30.2717 71.9524 30.4843 71.7328 30.6977 71.5126C31.4704 70.7214 32.2656 69.951 33.1009 69.212C33.1899 69.1389 33.2789 69.0657 33.3771 68.9883C34.1481 68.3293 34.939 67.7028 35.756 67.1056C35.9929 66.9264 36.2335 66.7557 36.4668 66.5902C37.3876 65.9436 38.323 65.3223 39.2993 64.7541" stroke="#282828" stroke-width="1.8" stroke-miterlimit="10"/>
<path d="M78.9132 194.128C78.6592 193.683 78.4216 193.229 78.1709 192.771C77.1685 190.938 76.2 189.108 75.2531 187.278C75.1959 187.178 75.1531 187.083 75.1043 186.98C74.204 185.231 73.3415 183.472 72.4922 181.716C72.2756 181.261 72.0511 180.81 71.8344 180.354C70.9687 178.531 70.1152 176.712 69.305 174.891C69.2223 174.708 69.1528 174.529 69.071 174.346C68.3236 172.675 67.6109 171.005 66.9185 169.335C66.7237 168.877 66.5365 168.416 66.3488 167.954C65.6082 166.159 64.9009 164.366 64.2068 162.575C64.1032 162.318 64.0214 162.059 63.9172 161.801C63.315 160.211 62.7435 158.635 62.1806 157.055C62.0145 156.592 61.8484 156.129 61.6909 155.662C61.0793 153.902 60.4933 152.148 59.9418 150.397C59.8348 150.076 59.7401 149.758 59.646 149.441C59.1721 147.94 58.7242 146.447 58.2971 144.953C58.1613 144.485 58.0241 144.016 57.8961 143.543C57.4153 141.839 56.9552 140.134 56.5257 138.445C56.4328 138.071 56.3398 137.698 56.2553 137.32C55.9101 135.911 55.5764 134.505 55.2573 133.102C55.1496 132.628 55.0427 132.153 54.9408 131.688C54.5825 130.045 54.249 128.41 53.9474 126.789C53.8683 126.365 53.7944 125.948 53.7161 125.523C53.4772 124.205 53.2557 122.9 53.0567 121.593C52.9837 121.12 52.9057 120.64 52.8378 120.176C52.606 118.603 52.3968 117.05 52.2136 115.504C52.1639 115.052 52.1128 114.6 52.0626 114.148C51.9263 112.914 51.8075 111.692 51.7069 110.481C51.6679 110.012 51.621 109.547 51.5871 109.086C51.479 107.595 51.389 106.116 51.3214 104.658C51.3034 104.187 51.2905 103.724 51.2733 103.253C51.2311 102.107 51.2149 100.969 51.2083 99.8475C51.2043 99.4008 51.1973 98.9464 51.2012 98.4952C51.2093 97.0924 51.2421 95.6963 51.2898 94.3241C51.3064 93.8563 51.3361 93.3913 51.3574 92.93C51.4133 91.8606 51.481 90.7938 51.572 89.7471C51.6087 89.3326 51.628 88.9061 51.6776 88.4958C51.8002 87.1792 51.9539 85.8784 52.1171 84.594C52.1766 84.1445 52.242 83.7032 52.3101 83.2486C52.4586 82.2455 52.6208 81.246 52.8041 80.267C52.873 79.8885 52.9325 79.5156 53.0065 79.1457C53.0197 79.0942 53.0214 79.0386 53.0355 78.9864C53.2674 77.8054 53.5274 76.6511 53.8171 75.5122C53.92 75.0818 54.0376 74.6544 54.1537 74.2269C54.3855 73.3301 54.6377 72.4531 54.9051 71.5799C55.0159 71.1994 55.1345 70.8145 55.2504 70.4427C55.6167 69.3039 56.0099 68.1938 56.4256 67.1043C56.5591 66.7433 56.7097 66.3956 56.8474 66.0438C57.1883 65.2038 57.5379 64.381 57.9057 63.5696C58.0529 63.2344 58.208 62.8947 58.3598 62.5673C58.8599 61.5278 59.3732 60.5134 59.9265 59.5305C60.0746 59.2712 60.2341 59.016 60.3821 58.7567C60.8397 57.9704 61.3155 57.1957 61.806 56.4461C61.9863 56.1684 62.1666 55.8907 62.3542 55.6077C62.9839 54.6805 63.64 53.7813 64.3274 52.9185C64.4625 52.7539 64.6029 52.5965 64.738 52.4319C65.3356 51.6973 65.9514 50.9963 66.5978 50.3103C66.8061 50.0815 67.0195 49.8613 67.2321 49.6417C68.0048 48.8505 68.8 48.0801 69.6347 47.3403C69.7243 47.268 69.8141 47.1942 69.9115 47.1174C70.6833 46.4578 71.4734 45.8319 72.2898 45.2339C72.5273 45.0555 72.7687 44.8842 73.002 44.7187C73.9228 44.0722 74.8574 43.4514 75.8337 42.8831C110.895 22.4342 170.075 58.845 208.794 124.714C209.695 126.254 210.571 127.787 211.438 129.325C211.725 129.828 211.991 130.332 212.265 130.831C212.837 131.87 213.409 132.911 213.972 133.955C214.29 134.549 214.6 135.149 214.918 135.744C215.416 136.694 215.915 137.644 216.398 138.603C216.713 139.233 217.029 139.861 217.339 140.481C217.803 141.408 218.258 142.34 218.713 143.271C219.021 143.905 219.323 144.53 219.617 145.16C220.069 146.104 220.5 147.05 220.938 147.99C221.219 148.596 221.493 149.192 221.761 149.794C222.222 150.832 222.678 151.861 223.127 152.894C223.35 153.401 223.574 153.907 223.789 154.418C224.438 155.938 225.067 157.46 225.674 158.982C225.777 159.24 225.868 159.494 225.972 159.752C226.48 161.025 226.975 162.294 227.449 163.565C227.659 164.123 227.86 164.685 228.069 165.243C228.424 166.21 228.775 167.169 229.113 168.123C229.33 168.753 229.548 169.384 229.766 170.014C230.065 170.902 230.374 171.786 230.66 172.672C230.88 173.323 231.085 173.971 231.296 174.627C231.574 175.495 231.846 176.356 232.107 177.213C232.304 177.866 232.496 178.509 232.689 179.154C232.95 180.032 233.199 180.906 233.442 181.774C233.621 182.393 233.787 183.009 233.962 183.619C234.222 184.574 234.463 185.53 234.71 186.482C234.846 187.006 234.981 187.529 235.111 188.045C235.467 189.471 235.795 190.89 236.108 192.297C236.808 195.439 237.418 198.555 237.932 201.617L261.04 344.869C261.893 350.152 260.259 353.185 257.718 354.669C255.176 356.152 251.724 356.079 247.543 352.739L134.223 262.119C115.427 246.872 97.1291 225.491 82.0591 199.655C80.9879 197.818 79.9549 195.971 78.9393 194.136L78.9132 194.128Z" fill="#F0F0F0" stroke="#282828" stroke-width="1.8" stroke-miterlimit="10"/>
<path d="M125.468 175.687C114.701 157.23 114.822 137.106 125.739 130.738C136.656 124.368 154.234 134.167 165.001 152.623C175.768 171.079 175.647 191.203 164.73 197.572C153.813 203.941 136.235 194.143 125.468 175.687Z" fill="url(#paint1_linear_165_295)" stroke="#282828" stroke-width="1.8" stroke-miterlimit="10"/>
<mask id="mask0_165_295" style="mask-type:luminance" maskUnits="userSpaceOnUse" x="117" y="128" width="57" height="72">
<path d="M125.472 175.689C114.705 157.233 114.826 137.109 125.743 130.74C136.661 124.371 154.239 134.17 165.006 152.626C175.772 171.082 175.652 191.206 164.734 197.575C153.817 203.944 136.239 194.145 125.472 175.689Z" fill="white"/>
</mask>
<g mask="url(#mask0_165_295)">
<path d="M138.321 212.786C149.243 206.417 149.359 186.293 138.599 167.833C127.831 149.378 110.258 139.585 99.3356 145.953" stroke="#282828" stroke-width="1.8" stroke-miterlimit="10"/>
</g>
<path d="M125.468 175.694C114.701 157.238 114.822 137.113 125.739 130.744C136.656 124.375 154.234 134.174 165.001 152.63C175.769 171.086 175.647 191.211 164.73 197.579C153.813 203.949 136.235 194.15 125.468 175.694Z" stroke="#282828" stroke-width="1.8" stroke-miterlimit="10"/>
<path d="M150.895 273.799L74.8417 318.071" stroke="#282828" stroke-width="1.8" stroke-miterlimit="10"/>
<path d="M106.38 235.7L33.162 278.354" stroke="#282828" stroke-width="1.8" stroke-miterlimit="10"/>
<path d="M164.806 152.639L125.173 175.763" stroke="#282828" stroke-width="1.8" stroke-miterlimit="10"/>
<path d="M150.307 134.197L117.475 153.383" stroke="#282828" stroke-width="1.8" stroke-miterlimit="10"/>
<path d="M173.655 174.401L141.112 193.324" stroke="#282828" stroke-width="1.8" stroke-miterlimit="10"/>
<path d="M72.0337 183.317L-1.17154 225.974" stroke="#282828" stroke-width="1.8" stroke-miterlimit="10"/>
<path d="M53.1899 124.659L-21.8767 168.401" stroke="#282828" stroke-width="1.8" stroke-miterlimit="10"/>
<defs>
<linearGradient id="paint0_linear_165_295" x1="224.437" y1="307.404" x2="-17.9779" y2="201.919" gradientUnits="userSpaceOnUse">
<stop stop-color="#FFCB32"/>
<stop offset="0.18" stop-color="#FFCB32"/>
<stop offset="0.53" stop-color="#F46831"/>
<stop offset="0.79" stop-color="#EA4335"/>
<stop offset="1" stop-color="#EA4335"/>
</linearGradient>
<linearGradient id="paint1_linear_165_295" x1="164.79" y1="197.675" x2="125.799" y2="130.84" gradientUnits="userSpaceOnUse">
<stop stop-color="#FFCB32"/>
<stop offset="0.18" stop-color="#FFCB32"/>
<stop offset="0.53" stop-color="#F46831"/>
<stop offset="0.79" stop-color="#EA4335"/>
<stop offset="1" stop-color="#EA4335"/>
</linearGradient>
</defs>
</svg>
