<svg width="1728" height="709" viewBox="0 0 1728 709" fill="none" xmlns="http://www.w3.org/2000/svg">
<path d="M-93.5037 429.671C-93.5037 429.671 466.619 349.099 818.612 266.724C1180.16 182.112 1729.89 0.171875 1729.89 0.171875L1746.95 177.335C1746.95 177.335 1189.21 302.411 827.797 362.12C471.859 420.925 -88.5072 481.562 -88.5072 481.562L-93.5037 429.671Z" fill="#468EF5"/>
<path d="M1764.01 354.499L-83.5106 533.453L-88.5072 481.562C-88.5072 481.562 471.859 420.925 827.797 362.12C1189.21 302.411 1746.95 177.335 1746.95 177.335L1764.01 354.499Z" fill="#38A852"/>
<path d="M1798.13 708.826C1798.13 708.826 1211.3 636.12 832.351 623.013C479.064 610.794 -73.5175 637.235 -73.5175 637.235L-78.5141 585.344C-78.5141 585.344 483.794 546.672 844.553 536.138C1210.25 525.461 1781.07 531.662 1781.07 531.662L1798.13 708.826Z" fill="#FFBA03"/>
<path d="M-83.5106 533.453L1764.01 354.499L1781.07 531.662C1781.07 531.662 1210.25 525.461 844.553 536.138C483.794 546.672 -78.5141 585.344 -78.5141 585.344L-83.5106 533.453Z" fill="#FF554E"/>
<path d="M-86.7806 482.38L-87.4171 482.449L-82.6111 532.361L1762.92 353.6L1746.06 178.559L1745.56 178.672C1744.49 178.91 1742.9 179.265 1740.82 179.731C1736.64 180.661 1730.47 182.034 1722.5 183.803C1706.54 187.339 1683.34 192.459 1654.37 198.788C1596.43 211.448 1515.42 228.948 1423.11 248.315C1238.5 287.048 1008.69 333.248 827.96 363.107C649.969 392.512 420.876 422.375 236.289 444.885C143.994 456.141 62.8225 465.558 4.7245 472.162C-24.3244 475.464 -47.6051 478.062 -63.6237 479.835C-71.633 480.722 -77.8268 481.402 -82.0184 481.86C-84.1141 482.09 -85.7094 482.264 -86.7806 482.38ZM-87.6088 480.458L-86.997 480.392C-85.9261 480.275 -84.3313 480.102 -82.2358 479.872C-78.0451 479.414 -71.8522 478.734 -63.8437 477.847C-47.8269 476.075 -24.5482 473.476 4.4987 470.175C62.5925 463.571 143.759 454.154 236.047 442.9C420.629 420.39 649.687 390.532 827.634 361.133C1008.32 331.282 1238.09 285.09 1422.7 246.358C1515 226.992 1596.01 209.493 1653.94 196.834C1682.91 190.505 1706.11 185.386 1722.06 181.85C1730.04 180.082 1736.21 178.709 1740.38 177.779C1742.47 177.313 1744.06 176.958 1745.12 176.72L1745.87 176.552L1729.02 1.51425C1728.89 1.55505 1728.76 1.59898 1728.62 1.64602C1727.57 1.99295 1726 2.50904 1723.94 3.18575C1719.83 4.53919 1713.74 6.53515 1705.88 9.10547C1690.14 14.2461 1667.25 21.6842 1638.65 30.8742C1581.46 49.2542 1501.45 74.6422 1410.13 102.675C1227.5 158.737 999.65 225.384 818.84 267.698C642.81 308.893 414.754 349.634 230.72 380.075C138.7 395.295 57.6806 407.942 -0.334056 416.783C-29.3414 421.203 -52.5976 424.673 -68.6023 427.037C-76.6047 428.219 -82.7942 429.125 -86.9831 429.735C-89.0776 430.04 -90.6721 430.272 -91.743 430.427L-92.4169 430.524L-87.6088 480.458ZM1763.11 355.591L-82.4194 534.352L-77.6119 584.28L-76.9582 584.235C-75.8831 584.161 -74.2822 584.052 -72.1788 583.909C-67.972 583.623 -61.7552 583.203 -53.7146 582.664C-37.6338 581.586 -14.2588 580.034 14.9186 578.139C73.2733 574.349 154.838 569.185 247.676 563.693C433.35 552.708 664.129 540.406 844.524 535.139C1027.39 529.8 1261.53 528.681 1449.95 528.896C1544.16 529.004 1626.94 529.446 1686.17 529.86C1715.79 530.067 1739.51 530.268 1755.84 530.417C1764 530.491 1770.31 530.552 1774.58 530.595C1776.71 530.617 1778.34 530.633 1779.43 530.645L1779.97 530.65L1763.11 355.591ZM-76.8218 586.23L-77.4202 586.271L-72.6134 636.191L-71.9686 636.161L-70.621 636.097C-69.7098 636.055 -68.5913 636.003 -67.2716 635.942C-63.1376 635.751 -57.0284 635.473 -49.128 635.124C-33.327 634.424 -10.3603 633.439 18.3036 632.295C75.6313 630.007 155.748 627.084 246.906 624.542C429.216 619.459 655.71 615.903 832.386 622.014C1021.89 628.568 1263.36 650.024 1457.45 669.84C1554.49 679.748 1639.69 689.246 1700.63 696.267C1731.1 699.778 1755.5 702.669 1772.29 704.683C1780.69 705.69 1787.17 706.478 1791.57 707.013C1793.76 707.281 1795.43 707.486 1796.55 707.624C1796.72 707.644 1796.87 707.663 1797.01 707.681L1780.16 532.653L1779.41 532.645C1778.32 532.633 1776.69 532.617 1774.56 532.595C1770.29 532.552 1763.98 532.491 1755.82 532.417C1739.5 532.268 1715.77 532.067 1686.16 531.86C1626.93 531.446 1544.15 531.004 1449.95 530.896C1261.53 530.681 1027.42 531.8 844.583 537.138C664.219 542.404 433.464 554.705 247.794 565.689C154.96 571.182 73.4 576.345 15.0482 580.135C-14.1276 582.03 -37.5013 583.581 -53.5809 584.659C-61.6207 585.198 -67.837 585.619 -72.0432 585.905C-74.1464 586.048 -75.747 586.157 -76.8218 586.23Z" stroke="black" stroke-width="2"/>
</svg>
