<svg width="544" height="151" viewBox="0 0 544 151" fill="none" xmlns="http://www.w3.org/2000/svg">
<rect x="1" y="1" width="542" height="149" rx="74.5" stroke="#F0F0F0" stroke-width="2"/>
<rect x="16.5" y="16.5" width="511" height="118" rx="59" fill="url(#paint0_linear_138_5)"/>
<rect x="16.5" y="16.5" width="511" height="118" rx="59" stroke="url(#paint1_linear_138_5)"/>
<path d="M51.552 91.5V57.9H61.488C63.856 57.9 65.872 58.252 67.536 58.956C69.2 59.628 70.48 60.652 71.376 62.028C72.272 63.404 72.72 65.148 72.72 67.26C72.72 69.884 72.032 71.868 70.656 73.212C69.312 74.556 67.472 75.436 65.136 75.852L74.784 91.5H69.792L61.152 76.62H55.584V91.5H51.552ZM55.584 73.212H61.392C63.184 73.212 64.608 73.004 65.664 72.588C66.72 72.14 67.472 71.468 67.92 70.572C68.368 69.676 68.592 68.572 68.592 67.26C68.592 65.916 68.368 64.796 67.92 63.9C67.472 63.004 66.72 62.348 65.664 61.932C64.608 61.484 63.184 61.26 61.392 61.26H55.584V73.212ZM87.576 92.076C85.368 92.076 83.368 91.564 81.576 90.54C79.816 89.516 78.424 88.076 77.4 86.22C76.376 84.332 75.864 82.124 75.864 79.596C75.864 77.1 76.344 74.924 77.304 73.068C78.296 71.18 79.672 69.724 81.432 68.7C83.224 67.644 85.304 67.116 87.672 67.116C89.912 67.116 91.864 67.612 93.528 68.604C95.192 69.596 96.488 70.94 97.416 72.636C98.376 74.3 98.856 76.172 98.856 78.252C98.856 78.7 98.856 79.052 98.856 79.308C98.856 79.564 98.84 79.964 98.808 80.508H79.848C79.944 82.076 80.312 83.484 80.952 84.732C81.624 85.948 82.52 86.908 83.64 87.612C84.792 88.316 86.104 88.668 87.576 88.668C89.24 88.668 90.632 88.284 91.752 87.516C92.872 86.748 93.688 85.708 94.2 84.396H98.184C97.768 85.868 97.08 87.18 96.12 88.332C95.16 89.484 93.96 90.396 92.52 91.068C91.112 91.74 89.464 92.076 87.576 92.076ZM79.896 77.388H94.872C94.776 75.244 94.04 73.564 92.664 72.348C91.288 71.132 89.592 70.524 87.576 70.524C85.656 70.524 83.944 71.116 82.44 72.3C80.968 73.452 80.12 75.148 79.896 77.388ZM112.216 102.636C110.328 102.636 108.52 102.396 106.792 101.916C105.064 101.436 103.656 100.62 102.568 99.468C101.512 98.348 100.984 96.844 100.984 94.956C100.984 93.644 101.288 92.556 101.896 91.692C102.504 90.828 103.304 90.172 104.296 89.724C103.528 89.276 102.904 88.716 102.424 88.044C101.944 87.372 101.704 86.604 101.704 85.74C101.704 83.82 102.568 82.268 104.296 81.084C103.656 80.348 103.144 79.532 102.76 78.636C102.408 77.708 102.232 76.684 102.232 75.564C102.232 73.804 102.632 72.3 103.432 71.052C104.264 69.772 105.384 68.796 106.792 68.124C108.232 67.452 109.864 67.116 111.688 67.116C113.032 67.116 114.296 67.308 115.48 67.692H123.592V71.1H119.896C120.312 71.74 120.616 72.444 120.808 73.212C121.032 73.948 121.144 74.732 121.144 75.564C121.144 77.388 120.712 78.924 119.848 80.172C119.016 81.42 117.88 82.38 116.44 83.052C115.032 83.692 113.448 84.012 111.688 84.012C110.792 84.012 109.976 83.916 109.24 83.724C108.504 83.532 107.768 83.26 107.032 82.908C106.2 83.324 105.784 83.964 105.784 84.828C105.784 86.428 107.128 87.228 109.816 87.228H113.8C115.592 87.228 117.176 87.468 118.552 87.948C119.928 88.396 121 89.148 121.768 90.204C122.568 91.228 122.968 92.636 122.968 94.428C122.968 96.252 122.456 97.772 121.432 98.988C120.408 100.204 119.08 101.116 117.448 101.724C115.816 102.332 114.072 102.636 112.216 102.636ZM112.12 99.276C114.04 99.276 115.672 98.908 117.016 98.172C118.36 97.468 119.032 96.38 119.032 94.908C119.032 92.156 117.368 90.78 114.04 90.78H109.96C108.392 90.78 107.16 91.116 106.264 91.788C105.368 92.492 104.92 93.532 104.92 94.908C104.92 95.964 105.256 96.812 105.928 97.452C106.6 98.092 107.48 98.556 108.568 98.844C109.656 99.132 110.84 99.276 112.12 99.276ZM111.592 80.652C113.256 80.652 114.616 80.172 115.672 79.212C116.728 78.252 117.256 77.036 117.256 75.564C117.256 74.092 116.728 72.876 115.672 71.916C114.616 70.956 113.256 70.476 111.592 70.476C109.928 70.476 108.584 70.956 107.56 71.916C106.568 72.876 106.072 74.092 106.072 75.564C106.072 77.036 106.552 78.252 107.512 79.212C108.504 80.172 109.864 80.652 111.592 80.652ZM129.174 62.412C128.374 62.412 127.702 62.156 127.158 61.644C126.646 61.1 126.39 60.428 126.39 59.628C126.39 58.86 126.646 58.22 127.158 57.708C127.702 57.196 128.374 56.94 129.174 56.94C129.942 56.94 130.598 57.196 131.142 57.708C131.686 58.22 131.958 58.86 131.958 59.628C131.958 60.428 131.686 61.1 131.142 61.644C130.598 62.156 129.942 62.412 129.174 62.412ZM127.158 91.5V67.692H131.19V91.5H127.158ZM145.891 92.076C144.003 92.076 142.307 91.756 140.803 91.116C139.299 90.444 138.083 89.516 137.155 88.332C136.259 87.116 135.699 85.692 135.475 84.06H139.603C139.859 85.308 140.515 86.396 141.571 87.324C142.659 88.22 144.115 88.668 145.939 88.668C147.635 88.668 148.883 88.316 149.683 87.612C150.483 86.876 150.883 86.012 150.883 85.02C150.883 84.06 150.643 83.324 150.163 82.812C149.715 82.3 149.043 81.916 148.147 81.66C147.283 81.372 146.211 81.1 144.931 80.844C143.587 80.556 142.275 80.172 140.995 79.692C139.715 79.18 138.659 78.492 137.827 77.628C136.995 76.764 136.579 75.628 136.579 74.22C136.579 72.812 136.931 71.58 137.635 70.524C138.339 69.468 139.331 68.636 140.611 68.028C141.923 67.42 143.459 67.116 145.219 67.116C147.747 67.116 149.811 67.756 151.411 69.036C153.043 70.284 153.987 72.076 154.243 74.412H150.259C150.099 73.196 149.571 72.252 148.675 71.58C147.811 70.876 146.643 70.524 145.171 70.524C143.731 70.524 142.611 70.828 141.811 71.436C141.043 72.044 140.659 72.844 140.659 73.836C140.659 74.476 140.883 75.02 141.331 75.468C141.779 75.916 142.419 76.3 143.251 76.62C144.115 76.94 145.123 77.228 146.275 77.484C147.875 77.804 149.331 78.204 150.643 78.684C151.955 79.164 153.011 79.868 153.811 80.796C154.611 81.692 155.011 82.988 155.011 84.684C155.043 86.092 154.675 87.356 153.907 88.476C153.171 89.596 152.115 90.476 150.739 91.116C149.395 91.756 147.779 92.076 145.891 92.076ZM167.661 91.5C165.485 91.5 163.773 90.972 162.525 89.916C161.277 88.86 160.653 86.956 160.653 84.204V71.1H156.525V67.692H160.653V61.98H164.685V67.692H171.357V71.1H164.685V84.204C164.685 85.708 164.989 86.732 165.597 87.276C166.205 87.788 167.277 88.044 168.813 88.044H171.357V91.5H167.661ZM185.423 92.076C183.215 92.076 181.215 91.564 179.423 90.54C177.663 89.516 176.271 88.076 175.247 86.22C174.223 84.332 173.711 82.124 173.711 79.596C173.711 77.1 174.191 74.924 175.151 73.068C176.143 71.18 177.519 69.724 179.279 68.7C181.071 67.644 183.151 67.116 185.519 67.116C187.759 67.116 189.711 67.612 191.375 68.604C193.039 69.596 194.335 70.94 195.263 72.636C196.223 74.3 196.703 76.172 196.703 78.252C196.703 78.7 196.703 79.052 196.703 79.308C196.703 79.564 196.687 79.964 196.655 80.508H177.695C177.791 82.076 178.159 83.484 178.799 84.732C179.471 85.948 180.367 86.908 181.487 87.612C182.639 88.316 183.951 88.668 185.423 88.668C187.087 88.668 188.479 88.284 189.599 87.516C190.719 86.748 191.535 85.708 192.047 84.396H196.031C195.615 85.868 194.927 87.18 193.967 88.332C193.007 89.484 191.807 90.396 190.367 91.068C188.959 91.74 187.311 92.076 185.423 92.076ZM177.743 77.388H192.719C192.623 75.244 191.887 73.564 190.511 72.348C189.135 71.132 187.439 70.524 185.423 70.524C183.503 70.524 181.791 71.116 180.287 72.3C178.815 73.452 177.967 75.148 177.743 77.388ZM200.607 91.5V67.692H204.255L204.591 72.252C205.327 70.684 206.447 69.436 207.951 68.508C209.455 67.58 211.311 67.116 213.519 67.116V71.34H212.415C209.791 71.34 207.839 72.044 206.559 73.452C205.279 74.86 204.639 76.876 204.639 79.5V91.5H200.607ZM228.108 91.5V57.9H232.14L250.044 84.828V57.9H254.076V91.5H250.044L232.14 64.572V91.5H228.108ZM270.513 92.076C268.337 92.076 266.337 91.596 264.513 90.636C262.689 89.644 261.233 88.22 260.145 86.364C259.057 84.476 258.513 82.204 258.513 79.548C258.513 77.02 259.041 74.828 260.097 72.972C261.185 71.116 262.641 69.676 264.465 68.652C266.321 67.628 268.401 67.116 270.705 67.116C272.913 67.116 274.929 67.596 276.753 68.556C278.609 69.516 280.097 70.924 281.217 72.78C282.337 74.636 282.897 76.892 282.897 79.548C282.897 81.98 282.369 84.14 281.313 86.028C280.257 87.916 278.785 89.404 276.897 90.492C275.041 91.548 272.913 92.076 270.513 92.076ZM270.513 88.572C272.081 88.572 273.489 88.204 274.737 87.468C275.985 86.7 276.977 85.644 277.713 84.3C278.449 82.956 278.817 81.372 278.817 79.548C278.817 77.82 278.497 76.284 277.857 74.94C277.217 73.596 276.289 72.54 275.073 71.772C273.857 71.004 272.385 70.62 270.657 70.62C268.897 70.62 267.409 71.02 266.193 71.82C265.009 72.62 264.113 73.692 263.505 75.036C262.897 76.38 262.593 77.884 262.593 79.548C262.593 81.66 262.977 83.388 263.745 84.732C264.513 86.044 265.505 87.02 266.721 87.66C267.937 88.268 269.201 88.572 270.513 88.572ZM290.96 91.5L284 67.692H288.032L293.072 86.364L298.64 67.692H303.2L308.816 86.364L313.808 67.692H317.888L310.928 91.5H306.8L300.944 71.868L295.088 91.5H290.96Z" fill="#282828"/>
<path d="M477.742 77.8334H449.333V73.1667H477.742L464.675 60.1L468 56.8334L486.667 75.5L468 94.1667L464.675 90.9L477.742 77.8334Z" fill="#282828"/>
<defs>
<linearGradient id="paint0_linear_138_5" x1="16" y1="75.5" x2="528" y2="75.5" gradientUnits="userSpaceOnUse">
<stop stop-color="#FFBA03"/>
<stop offset="0.33" stop-color="#38A852"/>
<stop offset="0.66" stop-color="#FE5246"/>
<stop offset="1" stop-color="#438BFF"/>
</linearGradient>
<linearGradient id="paint1_linear_138_5" x1="16" y1="75.5" x2="528" y2="75.5" gradientUnits="userSpaceOnUse">
<stop stop-color="#FFBA03"/>
<stop offset="0.33" stop-color="#38A852"/>
<stop offset="0.66" stop-color="#FE5246"/>
<stop offset="1" stop-color="#468AFB"/>
</linearGradient>
</defs>
</svg>
