<svg width="266" height="55" viewBox="0 0 266 55" fill="none" xmlns="http://www.w3.org/2000/svg">
<rect x="0.75" y="0.75" width="264.5" height="53.5" rx="14.25" stroke="white" stroke-width="1.5"/>
<path d="M31.128 36.288C29.992 36.288 28.96 36.08 28.032 35.664C27.12 35.248 26.392 34.648 25.848 33.864C25.32 33.064 25.056 32.096 25.056 30.96H27.168C27.168 32.08 27.536 32.968 28.272 33.624C29.008 34.264 29.96 34.584 31.128 34.584C32.152 34.584 33 34.336 33.672 33.84C34.36 33.344 34.704 32.64 34.704 31.728C34.704 31.104 34.592 30.608 34.368 30.24C34.16 29.856 33.84 29.544 33.408 29.304C32.976 29.048 32.432 28.808 31.776 28.584C31.12 28.36 30.344 28.096 29.448 27.792C28.648 27.504 27.96 27.176 27.384 26.808C26.824 26.44 26.392 25.992 26.088 25.464C25.784 24.92 25.632 24.272 25.632 23.52C25.616 22.528 25.84 21.696 26.304 21.024C26.784 20.336 27.424 19.816 28.224 19.464C29.04 19.096 29.936 18.912 30.912 18.912C31.904 18.912 32.792 19.096 33.576 19.464C34.376 19.816 35.016 20.344 35.496 21.048C35.976 21.736 36.224 22.576 36.24 23.568H34.128C34.128 22.72 33.824 22.024 33.216 21.48C32.608 20.92 31.816 20.64 30.84 20.64C29.976 20.608 29.24 20.824 28.632 21.288C28.024 21.752 27.72 22.432 27.72 23.328C27.72 23.92 27.84 24.392 28.08 24.744C28.336 25.08 28.768 25.376 29.376 25.632C29.984 25.888 30.824 26.2 31.896 26.568C32.664 26.824 33.352 27.096 33.96 27.384C34.568 27.656 35.08 27.984 35.496 28.368C35.912 28.736 36.232 29.184 36.456 29.712C36.68 30.224 36.792 30.856 36.792 31.608C36.792 32.616 36.528 33.472 36 34.176C35.488 34.864 34.8 35.392 33.936 35.76C33.088 36.112 32.152 36.288 31.128 36.288ZM44.163 36.288C43.059 36.288 42.059 36.032 41.163 35.52C40.283 35.008 39.587 34.288 39.075 33.36C38.563 32.416 38.307 31.312 38.307 30.048C38.307 28.8 38.547 27.712 39.027 26.784C39.523 25.84 40.211 25.112 41.091 24.6C41.987 24.072 43.027 23.808 44.211 23.808C45.331 23.808 46.307 24.056 47.139 24.552C47.971 25.048 48.619 25.72 49.083 26.568C49.563 27.4 49.803 28.336 49.803 29.376C49.803 29.6 49.803 29.776 49.803 29.904C49.803 30.032 49.795 30.232 49.779 30.504H40.299C40.347 31.288 40.531 31.992 40.851 32.616C41.187 33.224 41.635 33.704 42.195 34.056C42.771 34.408 43.427 34.584 44.163 34.584C44.995 34.584 45.691 34.392 46.251 34.008C46.811 33.624 47.219 33.104 47.475 32.448H49.467C49.259 33.184 48.915 33.84 48.435 34.416C47.955 34.992 47.355 35.448 46.635 35.784C45.931 36.12 45.107 36.288 44.163 36.288ZM40.323 28.944H47.811C47.763 27.872 47.395 27.032 46.707 26.424C46.019 25.816 45.171 25.512 44.163 25.512C43.203 25.512 42.347 25.808 41.595 26.4C40.859 26.976 40.435 27.824 40.323 28.944ZM57.1071 36.288C56.0031 36.288 55.0031 36.032 54.1071 35.52C53.2271 35.008 52.5311 34.288 52.0191 33.36C51.5071 32.416 51.2511 31.312 51.2511 30.048C51.2511 28.8 51.4911 27.712 51.9711 26.784C52.4671 25.84 53.1551 25.112 54.0351 24.6C54.9311 24.072 55.9711 23.808 57.1551 23.808C58.2751 23.808 59.2511 24.056 60.0831 24.552C60.9151 25.048 61.5631 25.72 62.0271 26.568C62.5071 27.4 62.7471 28.336 62.7471 29.376C62.7471 29.6 62.7471 29.776 62.7471 29.904C62.7471 30.032 62.7391 30.232 62.7231 30.504H53.2431C53.2911 31.288 53.4751 31.992 53.7951 32.616C54.1311 33.224 54.5791 33.704 55.1391 34.056C55.7151 34.408 56.3711 34.584 57.1071 34.584C57.9391 34.584 58.6351 34.392 59.1951 34.008C59.7551 33.624 60.1631 33.104 60.4191 32.448H62.4111C62.2031 33.184 61.8591 33.84 61.3791 34.416C60.8991 34.992 60.2991 35.448 59.5791 35.784C58.8751 36.12 58.0511 36.288 57.1071 36.288ZM53.2671 28.944H60.7551C60.7071 27.872 60.3391 27.032 59.6511 26.424C58.9631 25.816 58.1151 25.512 57.1071 25.512C56.1471 25.512 55.2911 25.808 54.5391 26.4C53.8031 26.976 53.3791 27.824 53.2671 28.944ZM75.8267 36.288C74.7387 36.288 73.7387 36.048 72.8267 35.568C71.9147 35.072 71.1867 34.36 70.6427 33.432C70.0987 32.488 69.8267 31.352 69.8267 30.024C69.8267 28.76 70.0907 27.664 70.6187 26.736C71.1627 25.808 71.8907 25.088 72.8027 24.576C73.7307 24.064 74.7707 23.808 75.9227 23.808C77.0267 23.808 78.0347 24.048 78.9467 24.528C79.8747 25.008 80.6187 25.712 81.1787 26.64C81.7387 27.568 82.0187 28.696 82.0187 30.024C82.0187 31.24 81.7547 32.32 81.2267 33.264C80.6987 34.208 79.9627 34.952 79.0187 35.496C78.0907 36.024 77.0267 36.288 75.8267 36.288ZM75.8267 34.536C76.6107 34.536 77.3147 34.352 77.9387 33.984C78.5627 33.6 79.0587 33.072 79.4267 32.4C79.7947 31.728 79.9787 30.936 79.9787 30.024C79.9787 29.16 79.8187 28.392 79.4987 27.72C79.1787 27.048 78.7147 26.52 78.1067 26.136C77.4987 25.752 76.7627 25.56 75.8987 25.56C75.0187 25.56 74.2747 25.76 73.6667 26.16C73.0747 26.56 72.6267 27.096 72.3227 27.768C72.0187 28.44 71.8667 29.192 71.8667 30.024C71.8667 31.08 72.0587 31.944 72.4427 32.616C72.8267 33.272 73.3227 33.76 73.9307 34.08C74.5387 34.384 75.1707 34.536 75.8267 34.536ZM84.0951 36V24.096H85.9191L86.0391 26.232C86.4231 25.48 86.9751 24.888 87.6951 24.456C88.4151 24.024 89.2311 23.808 90.1431 23.808C91.5511 23.808 92.6711 24.24 93.5031 25.104C94.3511 25.952 94.7751 27.264 94.7751 29.04V36H92.7591V29.256C92.7591 28.024 92.5031 27.096 91.9911 26.472C91.4791 25.848 90.7111 25.536 89.6871 25.536C88.6631 25.536 87.8071 25.912 87.1191 26.664C86.4471 27.4 86.1111 28.456 86.1111 29.832V36H84.0951ZM110.108 36.288C108.508 36.288 107.116 35.92 105.932 35.184C104.764 34.432 103.852 33.408 103.196 32.112C102.556 30.8 102.236 29.304 102.236 27.624C102.236 25.96 102.556 24.472 103.196 23.16C103.836 21.848 104.764 20.816 105.98 20.064C107.196 19.296 108.668 18.912 110.396 18.912C112.284 18.912 113.852 19.368 115.1 20.28C116.364 21.192 117.18 22.448 117.548 24.048H115.22C114.996 23.04 114.46 22.24 113.612 21.648C112.78 21.056 111.708 20.76 110.396 20.76C109.068 20.76 107.948 21.064 107.036 21.672C106.124 22.28 105.436 23.104 104.972 24.144C104.524 25.168 104.3 26.328 104.3 27.624C104.3 28.936 104.532 30.112 104.996 31.152C105.46 32.192 106.132 33.008 107.012 33.6C107.892 34.192 108.948 34.488 110.18 34.488C111.972 34.488 113.324 33.968 114.236 32.928C115.148 31.872 115.668 30.432 115.796 28.608H109.748V27.024H117.86V36H116.012L115.844 33.24C115.236 34.216 114.492 34.968 113.612 35.496C112.732 36.024 111.564 36.288 110.108 36.288ZM125.704 36.288C124.616 36.288 123.616 36.048 122.704 35.568C121.792 35.072 121.064 34.36 120.52 33.432C119.976 32.488 119.704 31.352 119.704 30.024C119.704 28.76 119.968 27.664 120.496 26.736C121.04 25.808 121.768 25.088 122.68 24.576C123.608 24.064 124.648 23.808 125.8 23.808C126.904 23.808 127.912 24.048 128.824 24.528C129.752 25.008 130.496 25.712 131.056 26.64C131.616 27.568 131.896 28.696 131.896 30.024C131.896 31.24 131.632 32.32 131.104 33.264C130.576 34.208 129.84 34.952 128.896 35.496C127.968 36.024 126.904 36.288 125.704 36.288ZM125.704 34.536C126.488 34.536 127.192 34.352 127.816 33.984C128.44 33.6 128.936 33.072 129.304 32.4C129.672 31.728 129.856 30.936 129.856 30.024C129.856 29.16 129.696 28.392 129.376 27.72C129.056 27.048 128.592 26.52 127.984 26.136C127.376 25.752 126.64 25.56 125.776 25.56C124.896 25.56 124.152 25.76 123.544 26.16C122.952 26.56 122.504 27.096 122.2 27.768C121.896 28.44 121.744 29.192 121.744 30.024C121.744 31.08 121.936 31.944 122.32 32.616C122.704 33.272 123.2 33.76 123.808 34.08C124.416 34.384 125.048 34.536 125.704 34.536ZM139.469 36.288C138.381 36.288 137.381 36.048 136.469 35.568C135.557 35.072 134.829 34.36 134.285 33.432C133.741 32.488 133.469 31.352 133.469 30.024C133.469 28.76 133.733 27.664 134.261 26.736C134.805 25.808 135.533 25.088 136.445 24.576C137.373 24.064 138.413 23.808 139.565 23.808C140.669 23.808 141.677 24.048 142.589 24.528C143.517 25.008 144.261 25.712 144.821 26.64C145.381 27.568 145.661 28.696 145.661 30.024C145.661 31.24 145.397 32.32 144.869 33.264C144.341 34.208 143.605 34.952 142.661 35.496C141.733 36.024 140.669 36.288 139.469 36.288ZM139.469 34.536C140.253 34.536 140.957 34.352 141.581 33.984C142.205 33.6 142.701 33.072 143.069 32.4C143.437 31.728 143.621 30.936 143.621 30.024C143.621 29.16 143.461 28.392 143.141 27.72C142.821 27.048 142.357 26.52 141.749 26.136C141.141 25.752 140.405 25.56 139.541 25.56C138.661 25.56 137.917 25.76 137.309 26.16C136.717 26.56 136.269 27.096 135.965 27.768C135.661 28.44 135.509 29.192 135.509 30.024C135.509 31.08 135.701 31.944 136.085 32.616C136.469 33.272 136.965 33.76 137.573 34.08C138.181 34.384 138.813 34.536 139.469 34.536ZM152.348 41.568C151.404 41.568 150.5 41.448 149.636 41.208C148.772 40.968 148.068 40.56 147.524 39.984C146.996 39.424 146.732 38.672 146.732 37.728C146.732 37.072 146.884 36.528 147.188 36.096C147.492 35.664 147.892 35.336 148.388 35.112C148.004 34.888 147.692 34.608 147.452 34.272C147.212 33.936 147.092 33.552 147.092 33.12C147.092 32.16 147.524 31.384 148.388 30.792C148.068 30.424 147.812 30.016 147.62 29.568C147.444 29.104 147.356 28.592 147.356 28.032C147.356 27.152 147.556 26.4 147.956 25.776C148.372 25.136 148.932 24.648 149.636 24.312C150.356 23.976 151.172 23.808 152.084 23.808C152.756 23.808 153.388 23.904 153.98 24.096H158.036V25.8H156.188C156.396 26.12 156.548 26.472 156.644 26.856C156.756 27.224 156.812 27.616 156.812 28.032C156.812 28.944 156.596 29.712 156.164 30.336C155.748 30.96 155.18 31.44 154.46 31.776C153.756 32.096 152.964 32.256 152.084 32.256C151.636 32.256 151.228 32.208 150.86 32.112C150.492 32.016 150.124 31.88 149.756 31.704C149.34 31.912 149.132 32.232 149.132 32.664C149.132 33.464 149.804 33.864 151.148 33.864H153.14C154.036 33.864 154.828 33.984 155.516 34.224C156.204 34.448 156.74 34.824 157.124 35.352C157.524 35.864 157.724 36.568 157.724 37.464C157.724 38.376 157.468 39.136 156.956 39.744C156.444 40.352 155.78 40.808 154.964 41.112C154.148 41.416 153.276 41.568 152.348 41.568ZM152.3 39.888C153.26 39.888 154.076 39.704 154.748 39.336C155.42 38.984 155.756 38.44 155.756 37.704C155.756 36.328 154.924 35.64 153.26 35.64H151.22C150.436 35.64 149.82 35.808 149.372 36.144C148.924 36.496 148.7 37.016 148.7 37.704C148.7 38.232 148.868 38.656 149.204 38.976C149.54 39.296 149.98 39.528 150.524 39.672C151.068 39.816 151.66 39.888 152.3 39.888ZM152.036 30.576C152.868 30.576 153.548 30.336 154.076 29.856C154.604 29.376 154.868 28.768 154.868 28.032C154.868 27.296 154.604 26.688 154.076 26.208C153.548 25.728 152.868 25.488 152.036 25.488C151.204 25.488 150.532 25.728 150.02 26.208C149.524 26.688 149.276 27.296 149.276 28.032C149.276 28.768 149.516 29.376 149.996 29.856C150.492 30.336 151.172 30.576 152.036 30.576ZM159.603 36V19.2H161.619V36H159.603ZM169.556 36.288C168.452 36.288 167.452 36.032 166.556 35.52C165.676 35.008 164.98 34.288 164.468 33.36C163.956 32.416 163.7 31.312 163.7 30.048C163.7 28.8 163.94 27.712 164.42 26.784C164.916 25.84 165.604 25.112 166.484 24.6C167.38 24.072 168.42 23.808 169.604 23.808C170.724 23.808 171.7 24.056 172.532 24.552C173.364 25.048 174.012 25.72 174.476 26.568C174.956 27.4 175.196 28.336 175.196 29.376C175.196 29.6 175.196 29.776 175.196 29.904C175.196 30.032 175.188 30.232 175.172 30.504H165.692C165.74 31.288 165.924 31.992 166.244 32.616C166.58 33.224 167.028 33.704 167.588 34.056C168.164 34.408 168.82 34.584 169.556 34.584C170.388 34.584 171.084 34.392 171.644 34.008C172.204 33.624 172.612 33.104 172.868 32.448H174.86C174.652 33.184 174.308 33.84 173.828 34.416C173.348 34.992 172.748 35.448 172.028 35.784C171.324 36.12 170.5 36.288 169.556 36.288ZM165.716 28.944H173.204C173.156 27.872 172.788 27.032 172.1 26.424C171.412 25.816 170.564 25.512 169.556 25.512C168.596 25.512 167.74 25.808 166.988 26.4C166.252 26.976 165.828 27.824 165.716 28.944ZM182.779 36V24.096H184.603L184.747 25.824C185.131 25.184 185.643 24.688 186.283 24.336C186.923 23.984 187.643 23.808 188.443 23.808C189.387 23.808 190.195 24 190.867 24.384C191.555 24.768 192.083 25.352 192.451 26.136C192.867 25.416 193.435 24.848 194.155 24.432C194.891 24.016 195.683 23.808 196.531 23.808C197.491 23.808 198.315 24 199.003 24.384C199.707 24.752 200.251 25.328 200.635 26.112C201.019 26.88 201.211 27.856 201.211 29.04V36H199.219V29.256C199.219 28.024 198.971 27.096 198.475 26.472C197.979 25.848 197.267 25.536 196.339 25.536C195.379 25.536 194.579 25.912 193.939 26.664C193.315 27.4 193.003 28.456 193.003 29.832V36H190.987V29.256C190.987 28.024 190.739 27.096 190.243 26.472C189.747 25.848 189.035 25.536 188.107 25.536C187.163 25.536 186.371 25.912 185.731 26.664C185.107 27.4 184.795 28.456 184.795 29.832V36H182.779ZM207.488 36.288C206.672 36.288 205.928 36.152 205.256 35.88C204.584 35.608 204.048 35.2 203.648 34.656C203.264 34.096 203.072 33.416 203.072 32.616C203.072 31.688 203.312 30.952 203.792 30.408C204.272 29.848 204.904 29.448 205.688 29.208C206.488 28.952 207.344 28.824 208.256 28.824H211.472C211.472 27.992 211.328 27.336 211.04 26.856C210.768 26.376 210.408 26.032 209.96 25.824C209.512 25.616 209.016 25.512 208.472 25.512C207.688 25.512 207.008 25.704 206.432 26.088C205.872 26.456 205.52 27.032 205.376 27.816H203.312C203.392 26.952 203.68 26.224 204.176 25.632C204.672 25.04 205.296 24.592 206.048 24.288C206.816 23.968 207.624 23.808 208.472 23.808C209.672 23.808 210.64 24.032 211.376 24.48C212.112 24.912 212.648 25.496 212.984 26.232C213.32 26.968 213.488 27.784 213.488 28.68V32.328C213.488 32.92 213.56 33.368 213.704 33.672C213.848 33.976 214.216 34.16 214.808 34.224V36C214.28 36 213.8 35.936 213.368 35.808C212.936 35.664 212.568 35.44 212.264 35.136C211.976 34.816 211.768 34.4 211.64 33.888C211.24 34.56 210.688 35.128 209.984 35.592C209.296 36.056 208.464 36.288 207.488 36.288ZM207.8 34.584C208.6 34.584 209.272 34.384 209.816 33.984C210.36 33.568 210.768 33.04 211.04 32.4C211.328 31.76 211.472 31.096 211.472 30.408V30.384H208.424C207.864 30.384 207.336 30.448 206.84 30.576C206.344 30.688 205.944 30.904 205.64 31.224C205.336 31.528 205.184 31.96 205.184 32.52C205.184 33.24 205.44 33.768 205.952 34.104C206.464 34.424 207.08 34.584 207.8 34.584ZM216.519 41.28V24.096H218.343L218.535 26.064C218.919 25.488 219.463 24.968 220.167 24.504C220.887 24.04 221.799 23.808 222.903 23.808C224.103 23.808 225.143 24.08 226.023 24.624C226.903 25.168 227.583 25.912 228.063 26.856C228.543 27.8 228.783 28.872 228.783 30.072C228.783 31.256 228.543 32.32 228.063 33.264C227.583 34.208 226.895 34.952 225.999 35.496C225.119 36.024 224.079 36.288 222.879 36.288C221.903 36.288 221.031 36.088 220.263 35.688C219.511 35.288 218.935 34.728 218.535 34.008V41.28H216.519ZM222.663 34.536C223.479 34.536 224.191 34.352 224.799 33.984C225.407 33.6 225.879 33.072 226.215 32.4C226.567 31.712 226.743 30.928 226.743 30.048C226.743 29.2 226.575 28.44 226.239 27.768C225.919 27.08 225.455 26.544 224.847 26.16C224.239 25.76 223.511 25.56 222.663 25.56C221.863 25.56 221.151 25.752 220.527 26.136C219.919 26.504 219.439 27.024 219.087 27.696C218.751 28.368 218.583 29.152 218.583 30.048C218.583 30.88 218.751 31.64 219.087 32.328C219.423 33 219.895 33.536 220.503 33.936C221.111 34.336 221.831 34.536 222.663 34.536ZM235.429 36.288C234.485 36.288 233.637 36.128 232.885 35.808C232.133 35.472 231.525 35.008 231.061 34.416C230.613 33.808 230.333 33.096 230.221 32.28H232.285C232.413 32.904 232.741 33.448 233.269 33.912C233.813 34.36 234.541 34.584 235.453 34.584C236.301 34.584 236.925 34.408 237.325 34.056C237.725 33.688 237.925 33.256 237.925 32.76C237.925 32.28 237.805 31.912 237.565 31.656C237.341 31.4 237.005 31.208 236.557 31.08C236.125 30.936 235.589 30.8 234.949 30.672C234.277 30.528 233.621 30.336 232.981 30.096C232.341 29.84 231.813 29.496 231.397 29.064C230.981 28.632 230.773 28.064 230.773 27.36C230.773 26.656 230.949 26.04 231.301 25.512C231.653 24.984 232.149 24.568 232.789 24.264C233.445 23.96 234.213 23.808 235.093 23.808C236.357 23.808 237.389 24.128 238.189 24.768C239.005 25.392 239.477 26.288 239.605 27.456H237.613C237.533 26.848 237.269 26.376 236.821 26.04C236.389 25.688 235.805 25.512 235.069 25.512C234.349 25.512 233.789 25.664 233.389 25.968C233.005 26.272 232.813 26.672 232.813 27.168C232.813 27.488 232.925 27.76 233.149 27.984C233.373 28.208 233.693 28.4 234.109 28.56C234.541 28.72 235.045 28.864 235.621 28.992C236.421 29.152 237.149 29.352 237.805 29.592C238.461 29.832 238.989 30.184 239.389 30.648C239.789 31.096 239.989 31.744 239.989 32.592C240.005 33.296 239.821 33.928 239.437 34.488C239.069 35.048 238.541 35.488 237.853 35.808C237.181 36.128 236.373 36.288 235.429 36.288Z" fill="white"/>
</svg>
