<svg width="270" height="60" viewBox="0 0 270 60" fill="none" xmlns="http://www.w3.org/2000/svg">
<rect x="1" y="1.5" width="268" height="57" rx="16" fill="url(#paint0_linear_119_67)"/>
<rect x="1" y="1.5" width="268" height="57" rx="16" stroke="#282828" stroke-width="2"/>
<path d="M33.128 38.788C31.992 38.788 30.96 38.58 30.032 38.164C29.12 37.748 28.392 37.148 27.848 36.364C27.32 35.564 27.056 34.596 27.056 33.46H29.168C29.168 34.58 29.536 35.468 30.272 36.124C31.008 36.764 31.96 37.084 33.128 37.084C34.152 37.084 35 36.836 35.672 36.34C36.36 35.844 36.704 35.14 36.704 34.228C36.704 33.604 36.592 33.108 36.368 32.74C36.16 32.356 35.84 32.044 35.408 31.804C34.976 31.548 34.432 31.308 33.776 31.084C33.12 30.86 32.344 30.596 31.448 30.292C30.648 30.004 29.96 29.676 29.384 29.308C28.824 28.94 28.392 28.492 28.088 27.964C27.784 27.42 27.632 26.772 27.632 26.02C27.616 25.028 27.84 24.196 28.304 23.524C28.784 22.836 29.424 22.316 30.224 21.964C31.04 21.596 31.936 21.412 32.912 21.412C33.904 21.412 34.792 21.596 35.576 21.964C36.376 22.316 37.016 22.844 37.496 23.548C37.976 24.236 38.224 25.076 38.24 26.068H36.128C36.128 25.22 35.824 24.524 35.216 23.98C34.608 23.42 33.816 23.14 32.84 23.14C31.976 23.108 31.24 23.324 30.632 23.788C30.024 24.252 29.72 24.932 29.72 25.828C29.72 26.42 29.84 26.892 30.08 27.244C30.336 27.58 30.768 27.876 31.376 28.132C31.984 28.388 32.824 28.7 33.896 29.068C34.664 29.324 35.352 29.596 35.96 29.884C36.568 30.156 37.08 30.484 37.496 30.868C37.912 31.236 38.232 31.684 38.456 32.212C38.68 32.724 38.792 33.356 38.792 34.108C38.792 35.116 38.528 35.972 38 36.676C37.488 37.364 36.8 37.892 35.936 38.26C35.088 38.612 34.152 38.788 33.128 38.788ZM46.163 38.788C45.059 38.788 44.059 38.532 43.163 38.02C42.283 37.508 41.587 36.788 41.075 35.86C40.563 34.916 40.307 33.812 40.307 32.548C40.307 31.3 40.547 30.212 41.027 29.284C41.523 28.34 42.211 27.612 43.091 27.1C43.987 26.572 45.027 26.308 46.211 26.308C47.331 26.308 48.307 26.556 49.139 27.052C49.971 27.548 50.619 28.22 51.083 29.068C51.563 29.9 51.803 30.836 51.803 31.876C51.803 32.1 51.803 32.276 51.803 32.404C51.803 32.532 51.795 32.732 51.779 33.004H42.299C42.347 33.788 42.531 34.492 42.851 35.116C43.187 35.724 43.635 36.204 44.195 36.556C44.771 36.908 45.427 37.084 46.163 37.084C46.995 37.084 47.691 36.892 48.251 36.508C48.811 36.124 49.219 35.604 49.475 34.948H51.467C51.259 35.684 50.915 36.34 50.435 36.916C49.955 37.492 49.355 37.948 48.635 38.284C47.931 38.62 47.107 38.788 46.163 38.788ZM42.323 31.444H49.811C49.763 30.372 49.395 29.532 48.707 28.924C48.019 28.316 47.171 28.012 46.163 28.012C45.203 28.012 44.347 28.308 43.595 28.9C42.859 29.476 42.435 30.324 42.323 31.444ZM59.1071 38.788C58.0031 38.788 57.0031 38.532 56.1071 38.02C55.2271 37.508 54.5311 36.788 54.0191 35.86C53.5071 34.916 53.2511 33.812 53.2511 32.548C53.2511 31.3 53.4911 30.212 53.9711 29.284C54.4671 28.34 55.1551 27.612 56.0351 27.1C56.9311 26.572 57.9711 26.308 59.1551 26.308C60.2751 26.308 61.2511 26.556 62.0831 27.052C62.9151 27.548 63.5631 28.22 64.0271 29.068C64.5071 29.9 64.7471 30.836 64.7471 31.876C64.7471 32.1 64.7471 32.276 64.7471 32.404C64.7471 32.532 64.7391 32.732 64.7231 33.004H55.2431C55.2911 33.788 55.4751 34.492 55.7951 35.116C56.1311 35.724 56.5791 36.204 57.1391 36.556C57.7151 36.908 58.3711 37.084 59.1071 37.084C59.9391 37.084 60.6351 36.892 61.1951 36.508C61.7551 36.124 62.1631 35.604 62.4191 34.948H64.4111C64.2031 35.684 63.8591 36.34 63.3791 36.916C62.8991 37.492 62.2991 37.948 61.5791 38.284C60.8751 38.62 60.0511 38.788 59.1071 38.788ZM55.2671 31.444H62.7551C62.7071 30.372 62.3391 29.532 61.6511 28.924C60.9631 28.316 60.1151 28.012 59.1071 28.012C58.1471 28.012 57.2911 28.308 56.5391 28.9C55.8031 29.476 55.3791 30.324 55.2671 31.444ZM77.8267 38.788C76.7387 38.788 75.7387 38.548 74.8267 38.068C73.9147 37.572 73.1867 36.86 72.6427 35.932C72.0987 34.988 71.8267 33.852 71.8267 32.524C71.8267 31.26 72.0907 30.164 72.6187 29.236C73.1627 28.308 73.8907 27.588 74.8027 27.076C75.7307 26.564 76.7707 26.308 77.9227 26.308C79.0267 26.308 80.0347 26.548 80.9467 27.028C81.8747 27.508 82.6187 28.212 83.1787 29.14C83.7387 30.068 84.0187 31.196 84.0187 32.524C84.0187 33.74 83.7547 34.82 83.2267 35.764C82.6987 36.708 81.9627 37.452 81.0187 37.996C80.0907 38.524 79.0267 38.788 77.8267 38.788ZM77.8267 37.036C78.6107 37.036 79.3147 36.852 79.9387 36.484C80.5627 36.1 81.0587 35.572 81.4267 34.9C81.7947 34.228 81.9787 33.436 81.9787 32.524C81.9787 31.66 81.8187 30.892 81.4987 30.22C81.1787 29.548 80.7147 29.02 80.1067 28.636C79.4987 28.252 78.7627 28.06 77.8987 28.06C77.0187 28.06 76.2747 28.26 75.6667 28.66C75.0747 29.06 74.6267 29.596 74.3227 30.268C74.0187 30.94 73.8667 31.692 73.8667 32.524C73.8667 33.58 74.0587 34.444 74.4427 35.116C74.8267 35.772 75.3227 36.26 75.9307 36.58C76.5387 36.884 77.1707 37.036 77.8267 37.036ZM86.0951 38.5V26.596H87.9191L88.0391 28.732C88.4231 27.98 88.9751 27.388 89.6951 26.956C90.4151 26.524 91.2311 26.308 92.1431 26.308C93.5511 26.308 94.6711 26.74 95.5031 27.604C96.3511 28.452 96.7751 29.764 96.7751 31.54V38.5H94.7591V31.756C94.7591 30.524 94.5031 29.596 93.9911 28.972C93.4791 28.348 92.7111 28.036 91.6871 28.036C90.6631 28.036 89.8071 28.412 89.1191 29.164C88.4471 29.9 88.1111 30.956 88.1111 32.332V38.5H86.0951ZM112.108 38.788C110.508 38.788 109.116 38.42 107.932 37.684C106.764 36.932 105.852 35.908 105.196 34.612C104.556 33.3 104.236 31.804 104.236 30.124C104.236 28.46 104.556 26.972 105.196 25.66C105.836 24.348 106.764 23.316 107.98 22.564C109.196 21.796 110.668 21.412 112.396 21.412C114.284 21.412 115.852 21.868 117.1 22.78C118.364 23.692 119.18 24.948 119.548 26.548H117.22C116.996 25.54 116.46 24.74 115.612 24.148C114.78 23.556 113.708 23.26 112.396 23.26C111.068 23.26 109.948 23.564 109.036 24.172C108.124 24.78 107.436 25.604 106.972 26.644C106.524 27.668 106.3 28.828 106.3 30.124C106.3 31.436 106.532 32.612 106.996 33.652C107.46 34.692 108.132 35.508 109.012 36.1C109.892 36.692 110.948 36.988 112.18 36.988C113.972 36.988 115.324 36.468 116.236 35.428C117.148 34.372 117.668 32.932 117.796 31.108H111.748V29.524H119.86V38.5H118.012L117.844 35.74C117.236 36.716 116.492 37.468 115.612 37.996C114.732 38.524 113.564 38.788 112.108 38.788ZM127.704 38.788C126.616 38.788 125.616 38.548 124.704 38.068C123.792 37.572 123.064 36.86 122.52 35.932C121.976 34.988 121.704 33.852 121.704 32.524C121.704 31.26 121.968 30.164 122.496 29.236C123.04 28.308 123.768 27.588 124.68 27.076C125.608 26.564 126.648 26.308 127.8 26.308C128.904 26.308 129.912 26.548 130.824 27.028C131.752 27.508 132.496 28.212 133.056 29.14C133.616 30.068 133.896 31.196 133.896 32.524C133.896 33.74 133.632 34.82 133.104 35.764C132.576 36.708 131.84 37.452 130.896 37.996C129.968 38.524 128.904 38.788 127.704 38.788ZM127.704 37.036C128.488 37.036 129.192 36.852 129.816 36.484C130.44 36.1 130.936 35.572 131.304 34.9C131.672 34.228 131.856 33.436 131.856 32.524C131.856 31.66 131.696 30.892 131.376 30.22C131.056 29.548 130.592 29.02 129.984 28.636C129.376 28.252 128.64 28.06 127.776 28.06C126.896 28.06 126.152 28.26 125.544 28.66C124.952 29.06 124.504 29.596 124.2 30.268C123.896 30.94 123.744 31.692 123.744 32.524C123.744 33.58 123.936 34.444 124.32 35.116C124.704 35.772 125.2 36.26 125.808 36.58C126.416 36.884 127.048 37.036 127.704 37.036ZM141.469 38.788C140.381 38.788 139.381 38.548 138.469 38.068C137.557 37.572 136.829 36.86 136.285 35.932C135.741 34.988 135.469 33.852 135.469 32.524C135.469 31.26 135.733 30.164 136.261 29.236C136.805 28.308 137.533 27.588 138.445 27.076C139.373 26.564 140.413 26.308 141.565 26.308C142.669 26.308 143.677 26.548 144.589 27.028C145.517 27.508 146.261 28.212 146.821 29.14C147.381 30.068 147.661 31.196 147.661 32.524C147.661 33.74 147.397 34.82 146.869 35.764C146.341 36.708 145.605 37.452 144.661 37.996C143.733 38.524 142.669 38.788 141.469 38.788ZM141.469 37.036C142.253 37.036 142.957 36.852 143.581 36.484C144.205 36.1 144.701 35.572 145.069 34.9C145.437 34.228 145.621 33.436 145.621 32.524C145.621 31.66 145.461 30.892 145.141 30.22C144.821 29.548 144.357 29.02 143.749 28.636C143.141 28.252 142.405 28.06 141.541 28.06C140.661 28.06 139.917 28.26 139.309 28.66C138.717 29.06 138.269 29.596 137.965 30.268C137.661 30.94 137.509 31.692 137.509 32.524C137.509 33.58 137.701 34.444 138.085 35.116C138.469 35.772 138.965 36.26 139.573 36.58C140.181 36.884 140.813 37.036 141.469 37.036ZM154.348 44.068C153.404 44.068 152.5 43.948 151.636 43.708C150.772 43.468 150.068 43.06 149.524 42.484C148.996 41.924 148.732 41.172 148.732 40.228C148.732 39.572 148.884 39.028 149.188 38.596C149.492 38.164 149.892 37.836 150.388 37.612C150.004 37.388 149.692 37.108 149.452 36.772C149.212 36.436 149.092 36.052 149.092 35.62C149.092 34.66 149.524 33.884 150.388 33.292C150.068 32.924 149.812 32.516 149.62 32.068C149.444 31.604 149.356 31.092 149.356 30.532C149.356 29.652 149.556 28.9 149.956 28.276C150.372 27.636 150.932 27.148 151.636 26.812C152.356 26.476 153.172 26.308 154.084 26.308C154.756 26.308 155.388 26.404 155.98 26.596H160.036V28.3H158.188C158.396 28.62 158.548 28.972 158.644 29.356C158.756 29.724 158.812 30.116 158.812 30.532C158.812 31.444 158.596 32.212 158.164 32.836C157.748 33.46 157.18 33.94 156.46 34.276C155.756 34.596 154.964 34.756 154.084 34.756C153.636 34.756 153.228 34.708 152.86 34.612C152.492 34.516 152.124 34.38 151.756 34.204C151.34 34.412 151.132 34.732 151.132 35.164C151.132 35.964 151.804 36.364 153.148 36.364H155.14C156.036 36.364 156.828 36.484 157.516 36.724C158.204 36.948 158.74 37.324 159.124 37.852C159.524 38.364 159.724 39.068 159.724 39.964C159.724 40.876 159.468 41.636 158.956 42.244C158.444 42.852 157.78 43.308 156.964 43.612C156.148 43.916 155.276 44.068 154.348 44.068ZM154.3 42.388C155.26 42.388 156.076 42.204 156.748 41.836C157.42 41.484 157.756 40.94 157.756 40.204C157.756 38.828 156.924 38.14 155.26 38.14H153.22C152.436 38.14 151.82 38.308 151.372 38.644C150.924 38.996 150.7 39.516 150.7 40.204C150.7 40.732 150.868 41.156 151.204 41.476C151.54 41.796 151.98 42.028 152.524 42.172C153.068 42.316 153.66 42.388 154.3 42.388ZM154.036 33.076C154.868 33.076 155.548 32.836 156.076 32.356C156.604 31.876 156.868 31.268 156.868 30.532C156.868 29.796 156.604 29.188 156.076 28.708C155.548 28.228 154.868 27.988 154.036 27.988C153.204 27.988 152.532 28.228 152.02 28.708C151.524 29.188 151.276 29.796 151.276 30.532C151.276 31.268 151.516 31.876 151.996 32.356C152.492 32.836 153.172 33.076 154.036 33.076ZM161.603 38.5V21.7H163.619V38.5H161.603ZM171.556 38.788C170.452 38.788 169.452 38.532 168.556 38.02C167.676 37.508 166.98 36.788 166.468 35.86C165.956 34.916 165.7 33.812 165.7 32.548C165.7 31.3 165.94 30.212 166.42 29.284C166.916 28.34 167.604 27.612 168.484 27.1C169.38 26.572 170.42 26.308 171.604 26.308C172.724 26.308 173.7 26.556 174.532 27.052C175.364 27.548 176.012 28.22 176.476 29.068C176.956 29.9 177.196 30.836 177.196 31.876C177.196 32.1 177.196 32.276 177.196 32.404C177.196 32.532 177.188 32.732 177.172 33.004H167.692C167.74 33.788 167.924 34.492 168.244 35.116C168.58 35.724 169.028 36.204 169.588 36.556C170.164 36.908 170.82 37.084 171.556 37.084C172.388 37.084 173.084 36.892 173.644 36.508C174.204 36.124 174.612 35.604 174.868 34.948H176.86C176.652 35.684 176.308 36.34 175.828 36.916C175.348 37.492 174.748 37.948 174.028 38.284C173.324 38.62 172.5 38.788 171.556 38.788ZM167.716 31.444H175.204C175.156 30.372 174.788 29.532 174.1 28.924C173.412 28.316 172.564 28.012 171.556 28.012C170.596 28.012 169.74 28.308 168.988 28.9C168.252 29.476 167.828 30.324 167.716 31.444ZM184.779 38.5V26.596H186.603L186.747 28.324C187.131 27.684 187.643 27.188 188.283 26.836C188.923 26.484 189.643 26.308 190.443 26.308C191.387 26.308 192.195 26.5 192.867 26.884C193.555 27.268 194.083 27.852 194.451 28.636C194.867 27.916 195.435 27.348 196.155 26.932C196.891 26.516 197.683 26.308 198.531 26.308C199.491 26.308 200.315 26.5 201.003 26.884C201.707 27.252 202.251 27.828 202.635 28.612C203.019 29.38 203.211 30.356 203.211 31.54V38.5H201.219V31.756C201.219 30.524 200.971 29.596 200.475 28.972C199.979 28.348 199.267 28.036 198.339 28.036C197.379 28.036 196.579 28.412 195.939 29.164C195.315 29.9 195.003 30.956 195.003 32.332V38.5H192.987V31.756C192.987 30.524 192.739 29.596 192.243 28.972C191.747 28.348 191.035 28.036 190.107 28.036C189.163 28.036 188.371 28.412 187.731 29.164C187.107 29.9 186.795 30.956 186.795 32.332V38.5H184.779ZM209.488 38.788C208.672 38.788 207.928 38.652 207.256 38.38C206.584 38.108 206.048 37.7 205.648 37.156C205.264 36.596 205.072 35.916 205.072 35.116C205.072 34.188 205.312 33.452 205.792 32.908C206.272 32.348 206.904 31.948 207.688 31.708C208.488 31.452 209.344 31.324 210.256 31.324H213.472C213.472 30.492 213.328 29.836 213.04 29.356C212.768 28.876 212.408 28.532 211.96 28.324C211.512 28.116 211.016 28.012 210.472 28.012C209.688 28.012 209.008 28.204 208.432 28.588C207.872 28.956 207.52 29.532 207.376 30.316H205.312C205.392 29.452 205.68 28.724 206.176 28.132C206.672 27.54 207.296 27.092 208.048 26.788C208.816 26.468 209.624 26.308 210.472 26.308C211.672 26.308 212.64 26.532 213.376 26.98C214.112 27.412 214.648 27.996 214.984 28.732C215.32 29.468 215.488 30.284 215.488 31.18V34.828C215.488 35.42 215.56 35.868 215.704 36.172C215.848 36.476 216.216 36.66 216.808 36.724V38.5C216.28 38.5 215.8 38.436 215.368 38.308C214.936 38.164 214.568 37.94 214.264 37.636C213.976 37.316 213.768 36.9 213.64 36.388C213.24 37.06 212.688 37.628 211.984 38.092C211.296 38.556 210.464 38.788 209.488 38.788ZM209.8 37.084C210.6 37.084 211.272 36.884 211.816 36.484C212.36 36.068 212.768 35.54 213.04 34.9C213.328 34.26 213.472 33.596 213.472 32.908V32.884H210.424C209.864 32.884 209.336 32.948 208.84 33.076C208.344 33.188 207.944 33.404 207.64 33.724C207.336 34.028 207.184 34.46 207.184 35.02C207.184 35.74 207.44 36.268 207.952 36.604C208.464 36.924 209.08 37.084 209.8 37.084ZM218.519 43.78V26.596H220.343L220.535 28.564C220.919 27.988 221.463 27.468 222.167 27.004C222.887 26.54 223.799 26.308 224.903 26.308C226.103 26.308 227.143 26.58 228.023 27.124C228.903 27.668 229.583 28.412 230.063 29.356C230.543 30.3 230.783 31.372 230.783 32.572C230.783 33.756 230.543 34.82 230.063 35.764C229.583 36.708 228.895 37.452 227.999 37.996C227.119 38.524 226.079 38.788 224.879 38.788C223.903 38.788 223.031 38.588 222.263 38.188C221.511 37.788 220.935 37.228 220.535 36.508V43.78H218.519ZM224.663 37.036C225.479 37.036 226.191 36.852 226.799 36.484C227.407 36.1 227.879 35.572 228.215 34.9C228.567 34.212 228.743 33.428 228.743 32.548C228.743 31.7 228.575 30.94 228.239 30.268C227.919 29.58 227.455 29.044 226.847 28.66C226.239 28.26 225.511 28.06 224.663 28.06C223.863 28.06 223.151 28.252 222.527 28.636C221.919 29.004 221.439 29.524 221.087 30.196C220.751 30.868 220.583 31.652 220.583 32.548C220.583 33.38 220.751 34.14 221.087 34.828C221.423 35.5 221.895 36.036 222.503 36.436C223.111 36.836 223.831 37.036 224.663 37.036ZM237.429 38.788C236.485 38.788 235.637 38.628 234.885 38.308C234.133 37.972 233.525 37.508 233.061 36.916C232.613 36.308 232.333 35.596 232.221 34.78H234.285C234.413 35.404 234.741 35.948 235.269 36.412C235.813 36.86 236.541 37.084 237.453 37.084C238.301 37.084 238.925 36.908 239.325 36.556C239.725 36.188 239.925 35.756 239.925 35.26C239.925 34.78 239.805 34.412 239.565 34.156C239.341 33.9 239.005 33.708 238.557 33.58C238.125 33.436 237.589 33.3 236.949 33.172C236.277 33.028 235.621 32.836 234.981 32.596C234.341 32.34 233.813 31.996 233.397 31.564C232.981 31.132 232.773 30.564 232.773 29.86C232.773 29.156 232.949 28.54 233.301 28.012C233.653 27.484 234.149 27.068 234.789 26.764C235.445 26.46 236.213 26.308 237.093 26.308C238.357 26.308 239.389 26.628 240.189 27.268C241.005 27.892 241.477 28.788 241.605 29.956H239.613C239.533 29.348 239.269 28.876 238.821 28.54C238.389 28.188 237.805 28.012 237.069 28.012C236.349 28.012 235.789 28.164 235.389 28.468C235.005 28.772 234.813 29.172 234.813 29.668C234.813 29.988 234.925 30.26 235.149 30.484C235.373 30.708 235.693 30.9 236.109 31.06C236.541 31.22 237.045 31.364 237.621 31.492C238.421 31.652 239.149 31.852 239.805 32.092C240.461 32.332 240.989 32.684 241.389 33.148C241.789 33.596 241.989 34.244 241.989 35.092C242.005 35.796 241.821 36.428 241.437 36.988C241.069 37.548 240.541 37.988 239.853 38.308C239.181 38.628 238.373 38.788 237.429 38.788Z" fill="#F0F0F0"/>
<defs>
<linearGradient id="paint0_linear_119_67" x1="2" y1="30" x2="268" y2="30" gradientUnits="userSpaceOnUse">
<stop stop-color="#FFBA03"/>
<stop offset="0.33" stop-color="#38A852"/>
<stop offset="0.66" stop-color="#FE5246"/>
<stop offset="1" stop-color="#438BFF"/>
</linearGradient>
</defs>
</svg>
