<svg width="230" height="281" viewBox="0 0 230 281" fill="none" xmlns="http://www.w3.org/2000/svg">
<path d="M229.094 224.456C192.751 198.05 165.617 130.085 171.119 81.2412C172.503 68.9293 176.608 48.8198 182.721 34.7441L134.344 2L26.6697 246.737L75.0457 279.48C81.2817 265.488 92.6977 250.324 100.3 242.212C130.444 210.031 191.237 201.482 228.824 225.063" fill="url(#paint0_linear_164_37)"/>
<path d="M229.094 224.456C192.751 198.05 165.617 130.085 171.119 81.2412C172.503 68.9293 176.608 48.8198 182.721 34.7441L134.344 2L26.6697 246.737L75.0457 279.48C81.2817 265.488 92.6977 250.324 100.3 242.212C130.444 210.031 191.237 201.482 228.824 225.063" stroke="#282828" stroke-width="1.8" stroke-miterlimit="10"/>
<path d="M202.755 207.213C165.38 181.889 108.595 193.853 77.8539 226.665C70.2519 234.776 58.8359 249.941 52.6009 263.932L27.2319 246.886L134.736 2.55566L160.28 19.2037C154.167 33.2792 150.062 53.3883 148.678 65.7002C143.07 115.502 165.339 181.985 202.755 207.213Z" stroke="#282828" stroke-width="1.8" stroke-miterlimit="10"/>
<path d="M3.05093 72.9362L0.999969 71.512C38.444 96.5374 83.1439 77.3364 111.384 41.5039C120.437 30.0121 127.926 16.7797 134.121 2.70166C114.272 48.2542 108.911 110.459 136.191 153.596C142.797 164.04 151.252 172.36 160.627 178.704C123.061 153.589 78.1579 172.561 49.7569 208.573C40.7049 220.051 33.5179 232.613 27.3299 246.685C46.8449 201.907 52.1259 142.032 26.5019 98.776C20.2419 88.2105 12.172 79.5204 3.04495 72.9424L3.05093 72.9362Z" fill="#F0F0F0" stroke="#282828" stroke-width="1.8" stroke-miterlimit="10"/>
<path d="M122.76 40.8027L171.809 73.9617" stroke="#282828" stroke-width="1.8" stroke-miterlimit="10"/>
<path d="M118.374 80.9595L172.17 117.322" stroke="#282828" stroke-width="1.8" stroke-miterlimit="10"/>
<path d="M123.468 122.956L185.72 165.036" stroke="#282828" stroke-width="1.8" stroke-miterlimit="10"/>
<path d="M46.6354 213.806L95.6895 246.965" stroke="#282828" stroke-width="1.8" stroke-miterlimit="10"/>
<path d="M71.5028 187.489L125.299 223.851" stroke="#282828" stroke-width="1.8" stroke-miterlimit="10"/>
<path d="M102.743 170.062L164.994 212.142" stroke="#282828" stroke-width="1.8" stroke-miterlimit="10"/>
<path d="M157.124 176.328L227.622 223.98" stroke="#282828" stroke-width="1.8" stroke-miterlimit="10"/>
<defs>
<linearGradient id="paint0_linear_164_37" x1="156.518" y1="64.2812" x2="33.5169" y2="205.783" gradientUnits="userSpaceOnUse">
<stop stop-color="#FF554E"/>
<stop offset="0.24" stop-color="#FF554E"/>
<stop offset="0.76" stop-color="#1B86E8"/>
<stop offset="1" stop-color="#4285F4"/>
</linearGradient>
</defs>
</svg>
