<svg width="168" height="281" viewBox="0 0 168 281" fill="none" xmlns="http://www.w3.org/2000/svg">
<path d="M1 224.334C37.343 197.928 64.477 129.963 58.975 81.1192C57.591 68.8073 53.486 48.6977 47.373 34.622L95.75 1.87793L203.424 246.615L155.048 279.358C148.812 265.366 137.396 250.202 129.794 242.09C99.65 209.909 38.857 201.36 1.27002 224.941" fill="url(#paint0_linear_146_20)"/>
<path d="M1 224.334C37.343 197.928 64.477 129.963 58.975 81.1192C57.591 68.8073 53.486 48.6977 47.373 34.622L95.75 1.87793L203.424 246.615L155.048 279.358C148.812 265.366 137.396 250.202 129.794 242.09C99.65 209.909 38.857 201.36 1.27002 224.941" stroke="#282828" stroke-width="1.8" stroke-miterlimit="10"/>
<path d="M27.3389 207.091C64.7139 181.767 121.499 193.731 152.24 226.543C159.842 234.654 171.258 249.819 177.493 263.811L202.862 246.764L95.3578 2.43384L69.8139 19.0819C75.9269 33.1574 80.0319 53.2665 81.4159 65.5784C87.0239 115.38 64.7549 181.863 27.3389 207.091Z" stroke="#282828" stroke-width="1.8" stroke-miterlimit="10"/>
<path d="M227.043 72.8142L229.094 71.39C191.65 96.4154 146.95 77.2144 118.71 41.3818C109.657 29.89 102.168 16.6576 95.9728 2.57959C115.822 48.1321 121.183 110.337 93.9028 153.474C87.2968 163.918 78.8418 172.238 69.4668 178.581C107.033 153.467 151.936 172.438 180.337 208.451C189.389 219.928 196.576 232.491 202.764 246.563C183.249 201.785 177.968 141.91 203.592 98.6539C209.852 88.0884 217.922 79.3984 227.049 72.8204L227.043 72.8142Z" fill="#F0F0F0" stroke="#282828" stroke-width="1.8" stroke-miterlimit="10"/>
<path d="M107.334 40.6804L58.2852 73.8394" stroke="#282828" stroke-width="1.8" stroke-miterlimit="10"/>
<path d="M111.72 80.8376L57.9238 117.201" stroke="#282828" stroke-width="1.8" stroke-miterlimit="10"/>
<path d="M106.626 122.834L44.374 164.914" stroke="#282828" stroke-width="1.8" stroke-miterlimit="10"/>
<path d="M183.458 213.684L134.404 246.843" stroke="#282828" stroke-width="1.8" stroke-miterlimit="10"/>
<path d="M158.591 187.367L104.795 223.729" stroke="#282828" stroke-width="1.8" stroke-miterlimit="10"/>
<path d="M127.351 169.94L65.1001 212.02" stroke="#282828" stroke-width="1.8" stroke-miterlimit="10"/>
<path d="M72.9697 176.206L2.47168 223.858" stroke="#282828" stroke-width="1.8" stroke-miterlimit="10"/>
<defs>
<linearGradient id="paint0_linear_146_20" x1="73.576" y1="64.1592" x2="196.577" y2="205.661" gradientUnits="userSpaceOnUse">
<stop stop-color="#FFCB32"/>
<stop offset="0.24" stop-color="#FFCB32"/>
<stop offset="0.76" stop-color="#34A853"/>
<stop offset="1" stop-color="#34A853"/>
</linearGradient>
</defs>
</svg>
