<svg width="1499" height="377" viewBox="0 0 1499 377" fill="none" xmlns="http://www.w3.org/2000/svg">
<mask id="path-1-inside-1_144_9" fill="white">
<path d="M6.44992 374.879C5.34544 374.894 4.43826 374.01 4.42366 372.906L0.203938 53.6546C0.18934 52.5502 1.07286 51.643 2.17733 51.6284L61.4435 50.845C62.548 50.8304 63.4552 51.714 63.4698 52.8184L65.0161 169.807C65.0307 170.911 65.9378 171.795 67.0423 171.78L175.56 170.346C176.664 170.331 177.548 169.424 177.533 168.32L175.987 51.3312C175.972 50.2267 176.856 49.3196 177.96 49.305L236.826 48.5269C237.93 48.5123 238.838 49.3958 238.852 50.5003L243.072 369.752C243.086 370.856 242.203 371.763 241.099 371.778L182.233 372.556C181.128 372.57 180.221 371.687 180.207 370.582L178.416 235.122C178.401 234.018 177.494 233.134 176.39 233.149L67.8724 234.583C66.7679 234.598 65.8844 235.505 65.899 236.61L67.6895 372.07C67.7041 373.174 66.8206 374.081 65.7161 374.096L6.44992 374.879Z"/>
<path d="M326.418 376.192C314.939 376.344 304.227 373.869 294.28 368.766C284.33 363.355 276.218 355.61 269.944 345.532C263.933 335.142 260.83 322.559 260.635 307.782C260.411 290.85 264.1 277.099 271.703 266.529C279.302 255.652 289.476 247.666 302.224 242.571C315.239 237.472 329.488 234.82 344.971 234.616L387.818 234.049C388.922 234.035 389.809 233.127 389.766 232.023C389.486 224.837 388.208 218.439 385.933 212.828C383.449 206.703 379.783 201.979 374.933 198.656C370.079 195.025 364.048 193.257 356.841 193.353C349.366 193.451 342.584 195.389 336.493 199.164C330.782 202.704 327.096 208.518 325.436 216.606C325.241 217.554 324.426 218.26 323.458 218.273L267.599 219.011C266.445 219.026 265.516 218.063 265.596 216.912C266.72 200.873 271.424 187.048 279.711 175.436C288.357 163.005 299.442 153.313 312.967 146.36C326.759 139.404 341.529 135.822 357.279 135.613C375.698 135.37 391.901 139.159 405.888 146.979C420.138 154.489 431.231 165.581 439.168 180.256C447.1 194.623 451.203 212.12 451.476 232.746L452.251 291.393C452.34 298.166 453.21 303.389 454.861 307.062C456.601 310.393 460.631 312.171 466.949 312.397C468.053 312.437 468.961 313.314 468.975 314.418L469.667 366.756C469.682 367.861 468.797 368.769 467.692 368.775C455.763 368.841 445.74 368.052 437.624 366.409C429.057 364.675 421.805 361.384 415.867 356.535C410.575 351.944 405.683 345.515 401.19 337.25C400.447 335.884 398.489 335.79 397.622 337.08C389.402 349.301 379.77 358.765 368.727 365.472C356.804 372.404 342.701 375.977 326.418 376.192ZM347.32 321.416C355.061 321.313 362.111 319.373 368.469 315.594C375.089 311.504 380.355 305.892 384.266 298.758C388.176 291.624 390.072 283.593 389.954 274.666L389.944 273.895C389.93 272.79 389.022 271.907 387.918 271.921L351.878 272.398C346.539 272.468 341.613 273.457 337.099 275.364C332.582 276.963 329.013 279.628 326.392 283.357C323.767 286.779 322.496 291.569 322.577 297.726C322.695 306.654 325.314 312.931 330.435 316.558C335.552 319.878 341.18 321.497 347.32 321.416Z"/>
<path d="M579.869 372.842C559.848 373.107 542.164 368.414 526.818 358.764C511.472 349.114 499.277 335.419 490.232 317.679C481.449 299.629 476.897 278.443 476.576 254.122C476.267 230.725 480.132 210.044 488.171 192.079C496.206 173.806 507.765 159.489 522.846 149.129C537.924 138.46 555.873 132.988 576.695 132.713C600.186 132.403 620.834 139.212 638.64 153.14C655.972 166.402 667.967 187.615 674.626 216.779C674.907 218.01 673.976 219.182 672.713 219.199L610.576 220.02C609.692 220.032 608.909 219.46 608.624 218.623C605.84 210.447 601.769 204.355 596.412 200.347C591.012 195.8 584.308 193.579 576.299 193.685C567.49 193.801 560.319 196.667 554.787 202.283C549.521 207.895 545.612 215.183 543.061 224.146C540.776 233.105 539.703 242.819 539.842 253.286C539.976 263.445 541.305 273.127 543.83 282.331C546.617 291.224 550.717 298.405 556.129 303.876C561.808 309.343 569.053 312.019 577.862 311.902C585.87 311.797 592.513 309.399 597.791 304.711C603.031 300.277 606.936 294.073 609.506 286.1C609.775 285.265 610.539 284.682 611.416 284.671L673.573 283.849C674.834 283.832 675.796 284.975 675.549 286.212C671.987 304.001 665.944 319.142 657.419 331.635C648.514 344.685 637.434 354.839 624.181 362.096C611.19 369.041 596.419 372.624 579.869 372.842Z"/>
<path d="M697.625 365.744C696.521 365.758 695.613 364.875 695.599 363.77L691.379 44.519C691.365 43.4145 692.248 42.5073 693.353 42.4927L751.017 41.7306C752.122 41.716 753.029 42.5995 753.043 43.7039L755.381 220.542C755.407 222.537 758.018 223.267 759.076 221.575L812.545 136.056C812.905 135.479 813.534 135.125 814.214 135.116L885.301 134.177C886.931 134.155 887.901 135.987 886.967 137.323L809.85 247.615C809.354 248.325 809.371 249.272 809.891 249.964L892.663 359.984C893.647 361.293 892.728 363.165 891.091 363.186L819.658 364.131C818.97 364.14 818.326 363.795 817.953 363.218L759.772 273.342C758.682 271.658 756.067 272.449 756.093 274.456L757.263 362.955C757.278 364.06 756.394 364.967 755.29 364.981L697.625 365.744Z"/>
<path d="M1132.76 365.535C1113.54 365.789 1095.07 362.184 1077.35 354.72C1059.9 347.253 1044.13 336.377 1030.06 322.091C1016.26 307.801 1005.21 290.396 996.932 269.876C988.918 249.352 984.74 226.16 984.398 200.299C984.056 174.439 987.62 151.145 995.088 130.416C1002.82 109.684 1013.4 91.9931 1026.83 77.3438C1040.52 62.691 1055.99 51.4017 1073.24 43.4759C1090.75 35.5466 1109.12 31.4549 1128.34 31.2009C1147.56 30.9468 1166.03 34.5516 1183.75 42.0152C1201.47 49.4787 1217.23 60.3552 1231.04 74.6446C1245.11 88.9305 1256.29 106.334 1264.57 126.854C1272.85 147.375 1277.16 170.565 1277.5 196.425C1277.84 222.285 1274.15 245.582 1266.41 266.314C1258.68 287.046 1247.96 304.739 1234.27 319.392C1220.85 334.041 1205.38 345.33 1187.86 353.26C1170.35 361.189 1151.98 365.281 1132.76 365.535ZM1131.89 299.499C1144.97 299.326 1157.73 295.463 1170.18 287.908C1182.63 280.354 1192.76 269.135 1200.57 254.252C1208.65 239.057 1212.54 220.07 1212.23 197.288C1211.93 174.199 1207.54 155.32 1199.07 140.652C1190.6 125.677 1180.04 114.731 1167.4 107.816C1154.76 100.594 1142.03 97.067 1129.21 97.2364C1116.4 97.4058 1103.77 101.268 1091.32 108.822C1079.13 116.065 1069 127.284 1060.93 142.478C1053.11 157.361 1049.36 176.347 1049.67 199.437C1049.97 222.218 1054.22 241.099 1062.43 256.078C1070.63 270.749 1080.92 281.698 1093.3 288.924C1105.94 296.147 1118.81 299.672 1131.89 299.499Z"/>
<path d="M1304.12 357.727C1303.01 357.742 1302.1 356.858 1302.09 355.754L1299.11 130.707C1299.1 129.603 1299.98 128.696 1301.09 128.681L1358.75 127.919C1359.86 127.904 1360.76 128.788 1360.78 129.892L1361.03 148.541C1361.05 150.557 1363.8 151.327 1364.96 149.68C1371.18 140.89 1378.33 134.284 1386.41 129.863C1396.22 124.498 1407.26 121.735 1419.54 121.573C1444.37 121.245 1463.31 130.232 1476.37 148.534C1489.42 166.528 1496.14 190.149 1496.53 219.395L1498.29 353.161C1498.31 354.265 1497.42 355.172 1496.32 355.187L1439.06 355.944C1437.95 355.958 1437.04 355.075 1437.03 353.97L1435.38 228.979C1435.19 214.509 1431.96 203.005 1425.71 194.466C1419.45 185.62 1410.18 181.278 1397.9 181.44C1385.89 181.599 1376.88 186.336 1370.86 195.653C1364.84 204.662 1361.92 216.094 1362.1 229.947L1363.75 354.939C1363.77 356.043 1362.88 356.951 1361.78 356.965L1304.12 357.727Z"/>
<path d="M854.241 123.028C851.93 64.8685 850.651 63.4408 800.179 62.3205C850.603 59.8757 851.837 58.4056 852.617 0.205183C854.928 58.3648 856.207 59.7927 906.679 60.9128C856.255 63.3667 855.021 64.8098 854.241 123.028Z"/>
</mask>
<path d="M6.44992 374.879C5.34544 374.894 4.43826 374.01 4.42366 372.906L0.203938 53.6546C0.18934 52.5502 1.07286 51.643 2.17733 51.6284L61.4435 50.845C62.548 50.8304 63.4552 51.714 63.4698 52.8184L65.0161 169.807C65.0307 170.911 65.9378 171.795 67.0423 171.78L175.56 170.346C176.664 170.331 177.548 169.424 177.533 168.32L175.987 51.3312C175.972 50.2267 176.856 49.3196 177.96 49.305L236.826 48.5269C237.93 48.5123 238.838 49.3958 238.852 50.5003L243.072 369.752C243.086 370.856 242.203 371.763 241.099 371.778L182.233 372.556C181.128 372.57 180.221 371.687 180.207 370.582L178.416 235.122C178.401 234.018 177.494 233.134 176.39 233.149L67.8724 234.583C66.7679 234.598 65.8844 235.505 65.899 236.61L67.6895 372.07C67.7041 373.174 66.8206 374.081 65.7161 374.096L6.44992 374.879Z" fill="#F0F0F0"/>
<path d="M326.418 376.192C314.939 376.344 304.227 373.869 294.28 368.766C284.33 363.355 276.218 355.61 269.944 345.532C263.933 335.142 260.83 322.559 260.635 307.782C260.411 290.85 264.1 277.099 271.703 266.529C279.302 255.652 289.476 247.666 302.224 242.571C315.239 237.472 329.488 234.82 344.971 234.616L387.818 234.049C388.922 234.035 389.809 233.127 389.766 232.023C389.486 224.837 388.208 218.439 385.933 212.828C383.449 206.703 379.783 201.979 374.933 198.656C370.079 195.025 364.048 193.257 356.841 193.353C349.366 193.451 342.584 195.389 336.493 199.164C330.782 202.704 327.096 208.518 325.436 216.606C325.241 217.554 324.426 218.26 323.458 218.273L267.599 219.011C266.445 219.026 265.516 218.063 265.596 216.912C266.72 200.873 271.424 187.048 279.711 175.436C288.357 163.005 299.442 153.313 312.967 146.36C326.759 139.404 341.529 135.822 357.279 135.613C375.698 135.37 391.901 139.159 405.888 146.979C420.138 154.489 431.231 165.581 439.168 180.256C447.1 194.623 451.203 212.12 451.476 232.746L452.251 291.393C452.34 298.166 453.21 303.389 454.861 307.062C456.601 310.393 460.631 312.171 466.949 312.397C468.053 312.437 468.961 313.314 468.975 314.418L469.667 366.756C469.682 367.861 468.797 368.769 467.692 368.775C455.763 368.841 445.74 368.052 437.624 366.409C429.057 364.675 421.805 361.384 415.867 356.535C410.575 351.944 405.683 345.515 401.19 337.25C400.447 335.884 398.489 335.79 397.622 337.08C389.402 349.301 379.77 358.765 368.727 365.472C356.804 372.404 342.701 375.977 326.418 376.192ZM347.32 321.416C355.061 321.313 362.111 319.373 368.469 315.594C375.089 311.504 380.355 305.892 384.266 298.758C388.176 291.624 390.072 283.593 389.954 274.666L389.944 273.895C389.93 272.79 389.022 271.907 387.918 271.921L351.878 272.398C346.539 272.468 341.613 273.457 337.099 275.364C332.582 276.963 329.013 279.628 326.392 283.357C323.767 286.779 322.496 291.569 322.577 297.726C322.695 306.654 325.314 312.931 330.435 316.558C335.552 319.878 341.18 321.497 347.32 321.416Z" fill="#F0F0F0"/>
<path d="M579.869 372.842C559.848 373.107 542.164 368.414 526.818 358.764C511.472 349.114 499.277 335.419 490.232 317.679C481.449 299.629 476.897 278.443 476.576 254.122C476.267 230.725 480.132 210.044 488.171 192.079C496.206 173.806 507.765 159.489 522.846 149.129C537.924 138.46 555.873 132.988 576.695 132.713C600.186 132.403 620.834 139.212 638.64 153.14C655.972 166.402 667.967 187.615 674.626 216.779C674.907 218.01 673.976 219.182 672.713 219.199L610.576 220.02C609.692 220.032 608.909 219.46 608.624 218.623C605.84 210.447 601.769 204.355 596.412 200.347C591.012 195.8 584.308 193.579 576.299 193.685C567.49 193.801 560.319 196.667 554.787 202.283C549.521 207.895 545.612 215.183 543.061 224.146C540.776 233.105 539.703 242.819 539.842 253.286C539.976 263.445 541.305 273.127 543.83 282.331C546.617 291.224 550.717 298.405 556.129 303.876C561.808 309.343 569.053 312.019 577.862 311.902C585.87 311.797 592.513 309.399 597.791 304.711C603.031 300.277 606.936 294.073 609.506 286.1C609.775 285.265 610.539 284.682 611.416 284.671L673.573 283.849C674.834 283.832 675.796 284.975 675.549 286.212C671.987 304.001 665.944 319.142 657.419 331.635C648.514 344.685 637.434 354.839 624.181 362.096C611.19 369.041 596.419 372.624 579.869 372.842Z" fill="#F0F0F0"/>
<path d="M697.625 365.744C696.521 365.758 695.613 364.875 695.599 363.77L691.379 44.519C691.365 43.4145 692.248 42.5073 693.353 42.4927L751.017 41.7306C752.122 41.716 753.029 42.5995 753.043 43.7039L755.381 220.542C755.407 222.537 758.018 223.267 759.076 221.575L812.545 136.056C812.905 135.479 813.534 135.125 814.214 135.116L885.301 134.177C886.931 134.155 887.901 135.987 886.967 137.323L809.85 247.615C809.354 248.325 809.371 249.272 809.891 249.964L892.663 359.984C893.647 361.293 892.728 363.165 891.091 363.186L819.658 364.131C818.97 364.14 818.326 363.795 817.953 363.218L759.772 273.342C758.682 271.658 756.067 272.449 756.093 274.456L757.263 362.955C757.278 364.06 756.394 364.967 755.29 364.981L697.625 365.744Z" fill="#F0F0F0"/>
<path d="M1132.76 365.535C1113.54 365.789 1095.07 362.184 1077.35 354.72C1059.9 347.253 1044.13 336.377 1030.06 322.091C1016.26 307.801 1005.21 290.396 996.932 269.876C988.918 249.352 984.74 226.16 984.398 200.299C984.056 174.439 987.62 151.145 995.088 130.416C1002.82 109.684 1013.4 91.9931 1026.83 77.3438C1040.52 62.691 1055.99 51.4017 1073.24 43.4759C1090.75 35.5466 1109.12 31.4549 1128.34 31.2009C1147.56 30.9468 1166.03 34.5516 1183.75 42.0152C1201.47 49.4787 1217.23 60.3552 1231.04 74.6446C1245.11 88.9305 1256.29 106.334 1264.57 126.854C1272.85 147.375 1277.16 170.565 1277.5 196.425C1277.84 222.285 1274.15 245.582 1266.41 266.314C1258.68 287.046 1247.96 304.739 1234.27 319.392C1220.85 334.041 1205.38 345.33 1187.86 353.26C1170.35 361.189 1151.98 365.281 1132.76 365.535ZM1131.89 299.499C1144.97 299.326 1157.73 295.463 1170.18 287.908C1182.63 280.354 1192.76 269.135 1200.57 254.252C1208.65 239.057 1212.54 220.07 1212.23 197.288C1211.93 174.199 1207.54 155.32 1199.07 140.652C1190.6 125.677 1180.04 114.731 1167.4 107.816C1154.76 100.594 1142.03 97.067 1129.21 97.2364C1116.4 97.4058 1103.77 101.268 1091.32 108.822C1079.13 116.065 1069 127.284 1060.93 142.478C1053.11 157.361 1049.36 176.347 1049.67 199.437C1049.97 222.218 1054.22 241.099 1062.43 256.078C1070.63 270.749 1080.92 281.698 1093.3 288.924C1105.94 296.147 1118.81 299.672 1131.89 299.499Z" fill="#F0F0F0"/>
<path d="M1304.12 357.727C1303.01 357.742 1302.1 356.858 1302.09 355.754L1299.11 130.707C1299.1 129.603 1299.98 128.696 1301.09 128.681L1358.75 127.919C1359.86 127.904 1360.76 128.788 1360.78 129.892L1361.03 148.541C1361.05 150.557 1363.8 151.327 1364.96 149.68C1371.18 140.89 1378.33 134.284 1386.41 129.863C1396.22 124.498 1407.26 121.735 1419.54 121.573C1444.37 121.245 1463.31 130.232 1476.37 148.534C1489.42 166.528 1496.14 190.149 1496.53 219.395L1498.29 353.161C1498.31 354.265 1497.42 355.172 1496.32 355.187L1439.06 355.944C1437.95 355.958 1437.04 355.075 1437.03 353.97L1435.38 228.979C1435.19 214.509 1431.96 203.005 1425.71 194.466C1419.45 185.62 1410.18 181.278 1397.9 181.44C1385.89 181.599 1376.88 186.336 1370.86 195.653C1364.84 204.662 1361.92 216.094 1362.1 229.947L1363.75 354.939C1363.77 356.043 1362.88 356.951 1361.78 356.965L1304.12 357.727Z" fill="#F0F0F0"/>
<path d="M854.241 123.028C851.93 64.8685 850.651 63.4408 800.179 62.3205C850.603 59.8757 851.837 58.4056 852.617 0.205183C854.928 58.3648 856.207 59.7927 906.679 60.9128C856.255 63.3667 855.021 64.8098 854.241 123.028Z" fill="#F0F0F0"/>
<path d="M6.44992 374.879C5.34544 374.894 4.43826 374.01 4.42366 372.906L0.203938 53.6546C0.18934 52.5502 1.07286 51.643 2.17733 51.6284L61.4435 50.845C62.548 50.8304 63.4552 51.714 63.4698 52.8184L65.0161 169.807C65.0307 170.911 65.9378 171.795 67.0423 171.78L175.56 170.346C176.664 170.331 177.548 169.424 177.533 168.32L175.987 51.3312C175.972 50.2267 176.856 49.3196 177.96 49.305L236.826 48.5269C237.93 48.5123 238.838 49.3958 238.852 50.5003L243.072 369.752C243.086 370.856 242.203 371.763 241.099 371.778L182.233 372.556C181.128 372.57 180.221 371.687 180.207 370.582L178.416 235.122C178.401 234.018 177.494 233.134 176.39 233.149L67.8724 234.583C66.7679 234.598 65.8844 235.505 65.899 236.61L67.6895 372.07C67.7041 373.174 66.8206 374.081 65.7161 374.096L6.44992 374.879Z" stroke="black" stroke-width="4" mask="url(#path-1-inside-1_144_9)"/>
<path d="M326.418 376.192C314.939 376.344 304.227 373.869 294.28 368.766C284.33 363.355 276.218 355.61 269.944 345.532C263.933 335.142 260.83 322.559 260.635 307.782C260.411 290.85 264.1 277.099 271.703 266.529C279.302 255.652 289.476 247.666 302.224 242.571C315.239 237.472 329.488 234.82 344.971 234.616L387.818 234.049C388.922 234.035 389.809 233.127 389.766 232.023C389.486 224.837 388.208 218.439 385.933 212.828C383.449 206.703 379.783 201.979 374.933 198.656C370.079 195.025 364.048 193.257 356.841 193.353C349.366 193.451 342.584 195.389 336.493 199.164C330.782 202.704 327.096 208.518 325.436 216.606C325.241 217.554 324.426 218.26 323.458 218.273L267.599 219.011C266.445 219.026 265.516 218.063 265.596 216.912C266.72 200.873 271.424 187.048 279.711 175.436C288.357 163.005 299.442 153.313 312.967 146.36C326.759 139.404 341.529 135.822 357.279 135.613C375.698 135.37 391.901 139.159 405.888 146.979C420.138 154.489 431.231 165.581 439.168 180.256C447.1 194.623 451.203 212.12 451.476 232.746L452.251 291.393C452.34 298.166 453.21 303.389 454.861 307.062C456.601 310.393 460.631 312.171 466.949 312.397C468.053 312.437 468.961 313.314 468.975 314.418L469.667 366.756C469.682 367.861 468.797 368.769 467.692 368.775C455.763 368.841 445.74 368.052 437.624 366.409C429.057 364.675 421.805 361.384 415.867 356.535C410.575 351.944 405.683 345.515 401.19 337.25C400.447 335.884 398.489 335.79 397.622 337.08C389.402 349.301 379.77 358.765 368.727 365.472C356.804 372.404 342.701 375.977 326.418 376.192ZM347.32 321.416C355.061 321.313 362.111 319.373 368.469 315.594C375.089 311.504 380.355 305.892 384.266 298.758C388.176 291.624 390.072 283.593 389.954 274.666L389.944 273.895C389.93 272.79 389.022 271.907 387.918 271.921L351.878 272.398C346.539 272.468 341.613 273.457 337.099 275.364C332.582 276.963 329.013 279.628 326.392 283.357C323.767 286.779 322.496 291.569 322.577 297.726C322.695 306.654 325.314 312.931 330.435 316.558C335.552 319.878 341.18 321.497 347.32 321.416Z" stroke="black" stroke-width="4" mask="url(#path-1-inside-1_144_9)"/>
<path d="M579.869 372.842C559.848 373.107 542.164 368.414 526.818 358.764C511.472 349.114 499.277 335.419 490.232 317.679C481.449 299.629 476.897 278.443 476.576 254.122C476.267 230.725 480.132 210.044 488.171 192.079C496.206 173.806 507.765 159.489 522.846 149.129C537.924 138.46 555.873 132.988 576.695 132.713C600.186 132.403 620.834 139.212 638.64 153.14C655.972 166.402 667.967 187.615 674.626 216.779C674.907 218.01 673.976 219.182 672.713 219.199L610.576 220.02C609.692 220.032 608.909 219.46 608.624 218.623C605.84 210.447 601.769 204.355 596.412 200.347C591.012 195.8 584.308 193.579 576.299 193.685C567.49 193.801 560.319 196.667 554.787 202.283C549.521 207.895 545.612 215.183 543.061 224.146C540.776 233.105 539.703 242.819 539.842 253.286C539.976 263.445 541.305 273.127 543.83 282.331C546.617 291.224 550.717 298.405 556.129 303.876C561.808 309.343 569.053 312.019 577.862 311.902C585.87 311.797 592.513 309.399 597.791 304.711C603.031 300.277 606.936 294.073 609.506 286.1C609.775 285.265 610.539 284.682 611.416 284.671L673.573 283.849C674.834 283.832 675.796 284.975 675.549 286.212C671.987 304.001 665.944 319.142 657.419 331.635C648.514 344.685 637.434 354.839 624.181 362.096C611.19 369.041 596.419 372.624 579.869 372.842Z" stroke="black" stroke-width="4" mask="url(#path-1-inside-1_144_9)"/>
<path d="M697.625 365.744C696.521 365.758 695.613 364.875 695.599 363.77L691.379 44.519C691.365 43.4145 692.248 42.5073 693.353 42.4927L751.017 41.7306C752.122 41.716 753.029 42.5995 753.043 43.7039L755.381 220.542C755.407 222.537 758.018 223.267 759.076 221.575L812.545 136.056C812.905 135.479 813.534 135.125 814.214 135.116L885.301 134.177C886.931 134.155 887.901 135.987 886.967 137.323L809.85 247.615C809.354 248.325 809.371 249.272 809.891 249.964L892.663 359.984C893.647 361.293 892.728 363.165 891.091 363.186L819.658 364.131C818.97 364.14 818.326 363.795 817.953 363.218L759.772 273.342C758.682 271.658 756.067 272.449 756.093 274.456L757.263 362.955C757.278 364.06 756.394 364.967 755.29 364.981L697.625 365.744Z" stroke="black" stroke-width="4" mask="url(#path-1-inside-1_144_9)"/>
<path d="M1132.76 365.535C1113.54 365.789 1095.07 362.184 1077.35 354.72C1059.9 347.253 1044.13 336.377 1030.06 322.091C1016.26 307.801 1005.21 290.396 996.932 269.876C988.918 249.352 984.74 226.16 984.398 200.299C984.056 174.439 987.62 151.145 995.088 130.416C1002.82 109.684 1013.4 91.9931 1026.83 77.3438C1040.52 62.691 1055.99 51.4017 1073.24 43.4759C1090.75 35.5466 1109.12 31.4549 1128.34 31.2009C1147.56 30.9468 1166.03 34.5516 1183.75 42.0152C1201.47 49.4787 1217.23 60.3552 1231.04 74.6446C1245.11 88.9305 1256.29 106.334 1264.57 126.854C1272.85 147.375 1277.16 170.565 1277.5 196.425C1277.84 222.285 1274.15 245.582 1266.41 266.314C1258.68 287.046 1247.96 304.739 1234.27 319.392C1220.85 334.041 1205.38 345.33 1187.86 353.26C1170.35 361.189 1151.98 365.281 1132.76 365.535ZM1131.89 299.499C1144.97 299.326 1157.73 295.463 1170.18 287.908C1182.63 280.354 1192.76 269.135 1200.57 254.252C1208.65 239.057 1212.54 220.07 1212.23 197.288C1211.93 174.199 1207.54 155.32 1199.07 140.652C1190.6 125.677 1180.04 114.731 1167.4 107.816C1154.76 100.594 1142.03 97.067 1129.21 97.2364C1116.4 97.4058 1103.77 101.268 1091.32 108.822C1079.13 116.065 1069 127.284 1060.93 142.478C1053.11 157.361 1049.36 176.347 1049.67 199.437C1049.97 222.218 1054.22 241.099 1062.43 256.078C1070.63 270.749 1080.92 281.698 1093.3 288.924C1105.94 296.147 1118.81 299.672 1131.89 299.499Z" stroke="black" stroke-width="4" mask="url(#path-1-inside-1_144_9)"/>
<path d="M1304.12 357.727C1303.01 357.742 1302.1 356.858 1302.09 355.754L1299.11 130.707C1299.1 129.603 1299.98 128.696 1301.09 128.681L1358.75 127.919C1359.86 127.904 1360.76 128.788 1360.78 129.892L1361.03 148.541C1361.05 150.557 1363.8 151.327 1364.96 149.68C1371.18 140.89 1378.33 134.284 1386.41 129.863C1396.22 124.498 1407.26 121.735 1419.54 121.573C1444.37 121.245 1463.31 130.232 1476.37 148.534C1489.42 166.528 1496.14 190.149 1496.53 219.395L1498.29 353.161C1498.31 354.265 1497.42 355.172 1496.32 355.187L1439.06 355.944C1437.95 355.958 1437.04 355.075 1437.03 353.97L1435.38 228.979C1435.19 214.509 1431.96 203.005 1425.71 194.466C1419.45 185.62 1410.18 181.278 1397.9 181.44C1385.89 181.599 1376.88 186.336 1370.86 195.653C1364.84 204.662 1361.92 216.094 1362.1 229.947L1363.75 354.939C1363.77 356.043 1362.88 356.951 1361.78 356.965L1304.12 357.727Z" stroke="black" stroke-width="4" mask="url(#path-1-inside-1_144_9)"/>
<path d="M854.241 123.028C851.93 64.8685 850.651 63.4408 800.179 62.3205C850.603 59.8757 851.837 58.4056 852.617 0.205183C854.928 58.3648 856.207 59.7927 906.679 60.9128C856.255 63.3667 855.021 64.8098 854.241 123.028Z" stroke="black" stroke-width="4" mask="url(#path-1-inside-1_144_9)"/>
</svg>
