<svg width="397" height="105" viewBox="0 0 397 105" fill="none" xmlns="http://www.w3.org/2000/svg">
<path d="M5.34112 104.381C4.23722 104.42 3.31109 103.556 3.27254 102.452L0.439282 21.3182C0.400734 20.2143 1.26437 19.2881 2.36827 19.2496L15.0324 18.8074C16.1363 18.7688 17.0624 19.6324 17.101 20.7363L18.0741 48.6023C18.1126 49.7062 19.0388 50.5698 20.1427 50.5312L45.7776 49.6361C46.8815 49.5975 47.7452 48.6714 47.7066 47.5675L46.7335 19.7015C46.695 18.5976 47.5586 17.6715 48.6625 17.633L61.2212 17.1944C62.3251 17.1559 63.2512 18.0195 63.2898 19.1234L66.123 100.257C66.1616 101.361 65.298 102.287 64.1941 102.326L51.6354 102.764C50.5315 102.803 49.6053 101.939 49.5668 100.835L48.4238 68.1049C48.3853 67.001 47.4591 66.1373 46.3552 66.1759L20.7203 67.0711C19.6164 67.1096 18.7527 68.0358 18.7913 69.1397L19.9343 101.87C19.9728 102.974 19.1092 103.9 18.0053 103.939L5.34112 104.381Z" fill="#F0F0F0"/>
<path d="M88.1675 102.95C85.1445 103.055 82.3083 102.465 79.659 101.177C77.0068 99.8084 74.8256 97.8146 73.1152 95.1955C71.4722 92.4929 70.5828 89.1957 70.4469 85.304C70.2912 80.8447 71.1846 77.2012 73.1271 74.3733C75.0668 71.4644 77.7012 69.3024 81.0305 67.8874C84.43 66.4698 88.1685 65.6899 92.2461 65.5475L102.058 65.2048C103.162 65.1663 104.04 64.2368 103.885 63.1432C103.7 61.8385 103.376 60.6487 102.912 59.5738C102.223 57.9743 101.23 56.7508 99.9336 55.9031C98.6341 54.9744 97.0353 54.5432 95.1372 54.6094C93.1687 54.6782 91.393 55.2273 89.81 56.2566C88.618 57.0318 87.7785 58.1858 87.2915 59.7188C86.9983 60.6417 86.2216 61.3743 85.2538 61.4081L73.3421 61.8241C72.1887 61.8643 71.232 60.9208 71.3565 59.7735C71.7447 56.1953 72.8645 53.0476 74.7159 50.3302C76.9226 47.0061 79.7876 44.3896 83.3107 42.4807C86.9042 40.5693 90.7748 39.5412 94.9227 39.3963C99.7735 39.227 104.064 40.1324 107.793 42.1128C111.59 44.0096 114.576 46.8683 116.75 50.6888C118.922 54.4283 120.103 59.0141 120.293 64.4463L120.832 79.8916C120.894 81.6753 121.153 83.0462 121.609 84.0044C121.928 84.5842 122.513 84.9754 123.362 85.1782C124.437 85.4346 125.382 86.2298 125.421 87.3337L125.799 98.1734C125.838 99.2773 124.974 100.208 123.869 100.211C121.365 100.22 119.211 100.062 117.407 99.737C115.141 99.3291 113.211 98.5036 111.619 97.2603C110.724 96.5172 109.867 95.581 109.047 94.4517C108.134 93.1937 106.156 93.136 105.205 94.3657C103.451 96.6326 101.467 98.472 99.2522 99.884C96.1508 101.778 92.456 102.8 88.1675 102.95ZM93.3609 88.4003C95.3996 88.3291 97.2457 87.7776 98.899 86.7457C100.62 85.6303 101.975 84.1218 102.964 82.2202C103.954 80.3186 104.407 78.1922 104.325 75.8409C104.311 75.4379 103.973 75.1226 103.57 75.1367L94.2816 75.4611C92.8755 75.5102 91.5834 75.7988 90.4053 76.327C89.2243 76.7742 88.2993 77.4965 87.6302 78.4939C86.9583 79.4103 86.6507 80.6793 86.7073 82.3009C86.7895 84.6521 87.5154 86.2909 88.8851 87.2172C90.252 88.0624 91.7439 88.4568 93.3609 88.4003Z" fill="#F0F0F0"/>
<path d="M154.917 100.619C149.644 100.803 144.959 99.6679 140.861 97.2133C136.763 94.7588 133.472 91.2208 130.988 86.5993C128.571 81.8943 127.251 76.3392 127.027 69.9341C126.812 63.7722 127.712 58.3019 129.727 53.5233C131.739 48.6636 134.702 44.826 138.616 42.0105C142.527 39.114 147.224 37.5699 152.708 37.3784C158.895 37.1624 164.373 38.8381 169.143 42.4057C173.426 45.5374 176.55 50.4781 178.517 57.2278C178.87 58.4406 177.961 59.6319 176.699 59.676L163.229 60.1463C162.346 60.1772 161.562 59.6168 161.196 58.8122C160.455 57.1816 159.486 55.9385 158.289 55.083C156.84 53.9159 155.061 53.3692 152.952 53.4428C150.632 53.5239 148.76 54.3198 147.334 55.8308C145.979 57.3393 144.991 59.2814 144.37 61.6572C143.82 64.0306 143.592 66.5956 143.689 69.3522C143.782 72.0278 144.188 74.5707 144.905 76.9809C145.69 79.3076 146.812 81.1761 148.269 82.5864C149.796 83.9943 151.72 84.6577 154.04 84.5766C156.149 84.503 157.885 83.8335 159.249 82.5683C160.376 81.5716 161.253 80.2576 161.879 78.6262C162.194 77.8079 162.932 77.2038 163.808 77.1732L177.299 76.702C178.56 76.658 179.549 77.7793 179.276 79.0106C178.397 82.968 177.009 86.4045 175.111 89.3202C172.839 92.809 169.978 95.5471 166.528 97.5346C163.146 99.4386 159.275 100.467 154.917 100.619Z" fill="#F0F0F0"/>
<path d="M187.369 98.0245C186.265 98.0631 185.339 97.1994 185.301 96.0955L182.467 14.9616C182.429 13.8577 183.293 12.9316 184.396 12.893L196.639 12.4655C197.743 12.427 198.669 13.2906 198.707 14.3945L200.107 54.488C200.177 56.4823 202.804 57.156 203.825 55.4415L214.447 37.6016C214.795 37.0173 215.416 36.6498 216.096 36.6261L231.143 36.1006C232.771 36.0437 233.781 37.8541 232.876 39.2096L215.379 65.4265C214.899 66.1463 214.936 67.0934 215.471 67.7735L235.449 93.1624C236.461 94.4492 235.583 96.3408 233.947 96.398L218.849 96.9252C218.162 96.9492 217.511 96.6185 217.124 96.0494L204.61 77.6074C203.484 75.947 200.886 76.7949 200.956 78.8002L201.541 95.5284C201.579 96.6323 200.716 97.5585 199.612 97.597L187.369 98.0245Z" fill="#F0F0F0"/>
<path d="M300.526 95.5342C295.464 95.7109 290.578 94.8669 285.867 93.0019C281.227 91.1346 277.012 88.3594 273.223 84.6764C269.505 80.991 266.496 76.469 264.197 71.1104C261.969 65.7494 260.736 59.6637 260.498 52.8531C260.26 46.0426 261.066 39.8857 262.915 34.3823C264.834 28.8764 267.52 24.1556 270.972 20.2197C274.495 16.2814 278.506 13.219 283.005 11.0325C287.574 8.84352 292.389 7.66066 297.451 7.4839C302.513 7.30713 307.399 8.15121 312.11 10.0161C316.821 11.881 321.035 14.6562 324.754 18.3416C328.543 22.0246 331.587 26.5454 333.885 31.9039C336.184 37.2625 337.452 43.347 337.69 50.1575C337.928 56.9681 337.087 63.1262 335.168 68.6321C333.249 74.1379 330.527 78.86 327.005 82.7983C323.552 86.7342 319.542 89.7966 314.972 91.9856C310.403 94.1745 305.588 95.3574 300.526 95.5342ZM299.919 78.143C303.364 78.0227 306.704 76.9319 309.94 74.8707C313.177 72.8095 315.781 69.7961 317.755 65.8308C319.795 61.7819 320.711 56.7575 320.501 50.7578C320.289 44.677 319.025 39.7288 316.71 35.9131C314.392 32.0164 311.548 29.1934 308.179 27.444C304.806 25.6135 301.433 24.7572 298.059 24.875C294.684 24.9929 291.379 26.0824 288.142 28.1437C284.974 30.1214 282.369 33.1347 280.328 37.1836C278.355 41.149 277.475 46.1721 277.687 52.2529C277.896 58.2526 279.125 63.2021 281.373 67.1012C283.618 70.9193 286.391 73.7448 289.693 75.5777C293.065 77.4082 296.474 78.2633 299.919 78.143Z" fill="#F0F0F0"/>
<path d="M347.095 92.4468C345.991 92.4853 345.065 91.6217 345.026 90.5178L343.059 34.1936C343.021 33.0897 343.884 32.1636 344.988 32.125L357.618 31.684C358.508 31.6529 359.255 32.349 359.286 33.2387C359.342 34.8626 361.734 35.5314 362.889 34.3887C363.854 33.4343 364.891 32.6381 366 32.0001C368.553 30.531 371.446 29.7399 374.68 29.627C381.218 29.3987 386.26 31.6579 389.804 36.4047C393.346 41.0705 395.251 47.2545 395.52 54.9569L396.699 88.7133C396.737 89.8172 395.874 90.7434 394.77 90.7819L382.633 91.2058C381.529 91.2443 380.603 90.3807 380.564 89.2768L379.466 57.8311C379.333 54.0204 378.418 51.0082 376.722 48.7945C375.023 46.4997 372.557 45.4088 369.323 45.5217C366.159 45.6322 363.811 46.9318 362.279 49.4206C360.744 51.8284 360.041 54.8565 360.168 58.505L361.266 89.9507C361.305 91.0546 360.441 91.9807 359.337 92.0193L347.095 92.4468Z" fill="#F0F0F0"/>
<path d="M225.768 33.2409C224.827 17.9328 224.482 17.564 211.18 17.5573C224.449 16.6251 224.766 16.2308 224.639 0.894211C225.58 16.2023 225.925 16.5712 239.227 16.5778C225.958 17.5124 225.641 17.8997 225.768 33.2409Z" fill="#F0F0F0"/>
</svg>
