<svg width="40" height="42" viewBox="0 0 40 42" fill="none" xmlns="http://www.w3.org/2000/svg">
<g id="Group">
<path id="Vector" fill-rule="evenodd" clip-rule="evenodd" d="M34.1922 6.6963C30.7657 3.30885 26.2284 1.27531 21.4196 0.971878C16.6108 0.668444 11.8552 2.11818 8.03123 5.0496C4.20726 7.98102 1.57395 12.1971 0.61574 16.9208C-0.340697 21.6426 0.443618 26.5526 2.82672 30.7421L0 41.0677L10.5652 38.2978C13.4859 39.8912 16.7616 40.7252 20.0887 40.7252C24.028 40.7181 27.8768 39.5452 31.149 37.3537C34.4229 35.1623 36.9728 32.0516 38.4811 28.4122C39.9893 24.7728 40.3851 20.7696 39.6203 16.9048C38.8555 13.04 36.9639 9.48931 34.1851 6.69985H34.1922V6.6963ZM20.094 37.3573C17.1271 37.3573 14.217 36.5606 11.6636 35.0487L11.0585 34.6796L4.77864 36.3228L6.4555 30.2239L6.06335 29.5993C4.11144 26.4887 3.24727 22.8191 3.60926 19.1637C3.97126 15.5101 5.53633 12.0783 8.05962 9.41123C10.5829 6.74244 13.9207 4.98927 17.5495 4.42499C21.1782 3.86071 24.8904 4.51903 28.1058 6.29527C31.3193 8.07151 33.8532 10.8645 35.3065 14.2378C36.7598 17.6093 37.0508 21.3694 36.1352 24.9254C35.2196 28.4814 33.147 31.6329 30.2458 33.8829C27.3445 36.1329 23.7761 37.3555 20.1047 37.3573H20.094ZM29.1633 24.952C28.6683 24.7 26.2088 23.4969 25.7617 23.3301C25.3145 23.1633 24.9756 23.0835 24.6526 23.5821C24.3315 24.0807 23.3679 25.2004 23.0751 25.5323C22.7841 25.8641 22.4949 25.9013 21.9963 25.6582C20.5306 25.078 19.1784 24.2475 17.9949 23.2059C16.9071 22.198 15.9737 21.0358 15.2249 19.7564C14.9375 19.2577 15.1947 18.988 15.4432 18.7414C15.6898 18.4947 15.9418 18.1611 16.1813 17.8701C16.3854 17.6181 16.5522 17.3378 16.6764 17.0397C16.7439 16.903 16.774 16.7504 16.7669 16.5978C16.7598 16.4452 16.7155 16.2979 16.6356 16.1666C16.5132 15.9146 15.5266 13.4659 15.1025 12.4722C14.6784 11.4785 14.2862 11.6329 13.9934 11.6187C13.7024 11.6045 13.3724 11.6187 13.0405 11.6187C12.7886 11.6258 12.5401 11.6843 12.313 11.7926C12.0841 11.9008 11.8818 12.0534 11.715 12.2433C11.1543 12.7703 10.7071 13.4073 10.4037 14.1153C10.1003 14.8234 9.94765 15.5864 9.95297 16.3547C9.95297 18.807 11.7363 21.1564 11.9847 21.5042C12.2314 21.852 15.4982 26.8684 20.4809 29.0262C21.4072 29.4272 22.3547 29.7768 23.3182 30.0749C24.335 30.3836 25.4086 30.4493 26.4537 30.2701C27.4102 30.1263 29.4082 29.0652 29.8146 27.9029C30.2209 26.7389 30.228 25.7416 30.1056 25.5358C29.9867 25.3246 29.6779 25.2004 29.1633 24.952Z" fill="white"/>
</g>
</svg>
