<svg width="156" height="156" viewBox="0 0 156 156" fill="none" xmlns="http://www.w3.org/2000/svg">
<rect x="1.5" y="1.5" width="153" height="153" rx="28.5" fill="#F0F0F0"/>
<rect x="1.5" y="1.5" width="153" height="153" rx="28.5" stroke="#F0F0F0" stroke-width="3"/>
<path fill-rule="evenodd" clip-rule="evenodd" d="M112.012 43.9502C102.989 34.9588 90.9883 30.0046 78.2016 30C51.8536 30 30.4103 51.3382 30.4011 77.5666C30.3965 85.9513 32.5991 94.1353 36.7818 101.348L30 126L55.3396 119.385C62.3208 123.176 70.1821 125.172 78.1811 125.174H78.2016C104.545 125.174 125.991 103.834 126 77.6054C126.005 64.8939 121.038 52.9439 112.012 43.9525V43.9502ZM78.2016 117.141H78.1856C71.0576 117.139 64.0651 115.232 57.964 111.63L56.5131 110.773L41.4757 114.698L45.4889 100.107L44.5446 98.6105C40.5681 92.3152 38.4664 85.0389 38.471 77.569C38.4802 55.77 56.3022 38.0334 78.2179 38.0334C88.8293 38.038 98.804 42.1551 106.305 49.6297C113.807 57.1021 117.935 67.0379 117.93 77.6009C117.921 99.4021 100.099 117.139 78.2016 117.139V117.141ZM99.9933 87.5298C98.7992 86.9345 92.9275 84.0604 91.8317 83.6636C90.7363 83.2666 89.9411 83.0684 89.1456 84.2589C88.3504 85.4497 86.0608 88.1274 85.364 88.9188C84.6672 89.7126 83.9704 89.8108 82.7763 89.2153C81.5824 88.62 77.7341 87.3655 73.1709 83.3168C69.6208 80.1645 67.2232 76.2734 66.5267 75.0826C65.8299 73.8921 66.4533 73.2488 67.0491 72.658C67.5853 72.1243 68.2432 71.269 68.8413 70.5755C69.4397 69.8821 69.6368 69.385 70.0355 68.5934C70.4344 67.7996 70.2349 67.1064 69.9371 66.5109C69.6389 65.9156 67.2509 60.0649 66.2539 57.686C65.2843 55.3686 64.2989 55.6833 63.5677 55.6446C62.8709 55.6103 62.0757 55.6035 61.2781 55.6035C60.4805 55.6035 59.1877 55.9 58.0923 57.0907C56.9968 58.2812 53.9118 61.1575 53.9118 67.0058C53.9118 72.8541 58.1909 78.5087 58.7891 79.3025C59.3872 80.0963 67.2117 92.1008 79.1917 97.2512C82.0408 98.4759 84.2661 99.2081 86.0011 99.7556C88.8616 100.661 91.4651 100.533 93.5232 100.228C95.8176 99.8857 100.589 97.3515 101.584 94.5755C102.579 91.7996 102.579 89.4183 102.281 88.9233C101.983 88.4284 101.185 88.1296 99.9912 87.5343L99.9933 87.5298Z" fill="#25D366"/>
</svg>
