<svg width="1186" height="708" viewBox="0 0 1186 708" fill="none" xmlns="http://www.w3.org/2000/svg">
<g filter="url(#filter0_f_1_2)">
<path d="M501.868 61H684.132L811 493H375L501.868 61Z" fill="url(#paint0_linear_1_2)" fill-opacity="0.8"/>
</g>
<path fill-rule="evenodd" clip-rule="evenodd" d="M518.06 0C511.92 0 506.496 4.00069 504.684 9.86701L487.451 65.641H698.549L681.691 9.94421C679.904 4.03899 674.461 0 668.292 0H518.06Z" fill="#333333"/>
<path d="M480 72.8205C480 76.7856 483.214 80 487.179 80H698.821C702.786 80 706 76.7856 706 72.8205V72.8205C706 68.8554 702.786 65.641 698.821 65.641H698.549H487.451H487.179C483.214 65.641 480 68.8554 480 72.8205V72.8205Z" fill="#FFAE0A"/>
<path d="M571.333 235V226.333H588.667V212.9C585.128 212.106 581.968 210.607 579.188 208.404C576.407 206.201 574.367 203.439 573.067 200.117C567.65 199.467 563.118 197.101 559.471 193.021C555.824 188.94 554 184.156 554 178.667V174.333C554 171.95 554.849 169.91 556.546 168.213C558.243 166.515 560.283 165.667 562.667 165.667H571.333V157H614.667V165.667H623.333C625.717 165.667 627.757 166.515 629.454 168.213C631.151 169.91 632 171.95 632 174.333V178.667C632 184.156 630.176 188.94 626.529 193.021C622.882 197.101 618.35 199.467 612.933 200.117C611.633 203.439 609.593 206.201 606.813 208.404C604.032 210.607 600.872 212.106 597.333 212.9V226.333H614.667V235H571.333ZM571.333 190.8V174.333H562.667V178.667C562.667 181.411 563.461 183.885 565.05 186.088C566.639 188.29 568.733 189.861 571.333 190.8ZM614.667 190.8C617.267 189.861 619.361 188.29 620.95 186.088C622.539 183.885 623.333 181.411 623.333 178.667V174.333H614.667V190.8Z" fill="#FFAE0A"/>
<path d="M590.992 196C590.721 196 590.585 195.856 590.585 195.569V177.503L588.407 177.59C588.136 177.59 588 177.446 588 177.158V173.431C588 173.144 588.136 173 588.407 173H595.593C595.864 173 596 173.144 596 173.431V195.569C596 195.856 595.864 196 595.593 196H590.992Z" fill="#FFDD99"/>
<path d="M520.822 312C520.289 312 520.022 311.733 520.022 311.2V281.536C520.022 281.259 520.129 280.939 520.342 280.576L527.926 269.824C528.161 269.504 528.502 269.344 528.95 269.344H539.542C540.012 269.344 540.353 269.504 540.566 269.824L548.182 280.576C548.396 280.875 548.502 281.195 548.502 281.536V311.2C548.502 311.733 548.236 312 547.702 312H538.646C538.113 312 537.846 311.733 537.846 311.2V297.6H530.71V311.2C530.71 311.733 530.444 312 529.91 312H520.822ZM534.262 290.72C536.225 290.72 537.548 290.293 538.23 289.44C538.934 288.565 539.286 286.912 539.286 284.48C539.286 282.048 538.934 280.405 538.23 279.552C537.548 278.677 536.225 278.24 534.262 278.24C532.321 278.24 530.998 278.677 530.294 279.552C529.612 280.405 529.27 282.048 529.27 284.48C529.27 286.912 529.612 288.565 530.294 289.44C530.998 290.293 532.321 290.72 534.262 290.72ZM556.412 312C555.879 312 555.612 311.733 555.612 311.2V270.144C555.612 269.611 555.879 269.344 556.412 269.344H564.956C565.49 269.344 565.756 269.611 565.756 270.144V311.2C565.756 311.733 565.49 312 564.956 312H556.412ZM573.609 321.6C573.075 321.6 572.809 321.333 572.809 320.8V277.6C572.809 277.067 573.075 276.8 573.609 276.8H580.233C580.617 276.8 580.99 276.981 581.353 277.344L582.953 278.944L584.553 277.344C584.894 276.981 585.321 276.8 585.833 276.8H590.729C591.219 276.8 591.646 276.981 592.009 277.344L598.409 283.744C598.771 284.085 598.953 284.512 598.953 285.024V303.776C598.953 304.288 598.771 304.715 598.409 305.056L592.009 311.456C591.646 311.819 591.219 312 590.729 312H585.833C585.321 312 584.894 311.819 584.553 311.456L582.953 309.856V320.8C582.953 321.333 582.686 321.6 582.153 321.6H573.609ZM582.953 304.544H586.985C587.689 304.544 588.169 304.405 588.425 304.128C588.681 303.851 588.809 303.36 588.809 302.656V286.144C588.809 285.44 588.681 284.949 588.425 284.672C588.169 284.395 587.689 284.256 586.985 284.256H584.745C584.062 284.256 583.593 284.395 583.337 284.672C583.081 284.949 582.953 285.44 582.953 286.144V304.544ZM607.234 312C606.7 312 606.434 311.733 606.434 311.2V270.144C606.434 269.611 606.7 269.344 607.234 269.344H615.778C616.311 269.344 616.578 269.611 616.578 270.144V276.8H624.354C624.844 276.8 625.271 276.981 625.634 277.344L632.034 283.744C632.396 284.085 632.578 284.512 632.578 285.024V311.2C632.578 311.733 632.311 312 631.778 312H623.234C622.7 312 622.434 311.733 622.434 311.2V286.144C622.434 285.248 621.986 284.8 621.09 284.8H616.578V311.2C616.578 311.733 616.311 312 615.778 312H607.234ZM648.059 312C647.568 312 647.141 311.819 646.779 311.456L640.379 305.056C640.016 304.715 639.835 304.288 639.835 303.776V285.024C639.835 284.512 640.016 284.085 640.379 283.744L646.779 277.344C647.141 276.981 647.568 276.8 648.059 276.8H665.179C665.712 276.8 665.979 277.067 665.979 277.6V311.2C665.979 311.733 665.712 312 665.179 312H658.523C658.245 312 658.032 311.947 657.883 311.84C657.755 311.733 657.605 311.605 657.435 311.456L655.835 309.856L654.235 311.456C653.893 311.819 653.467 312 652.955 312H648.059ZM651.803 304.544H654.043C654.725 304.544 655.195 304.405 655.451 304.128C655.707 303.851 655.835 303.36 655.835 302.656V284.256H651.803C651.099 284.256 650.619 284.395 650.363 284.672C650.107 284.949 649.979 285.44 649.979 286.144V302.656C649.979 303.36 650.107 303.851 650.363 304.128C650.619 304.405 651.099 304.544 651.803 304.544Z" fill="#FFAE0A"/>
<g filter="url(#filter1_f_1_2)">
<path d="M857.868 257H1040.13L1167 689H731L857.868 257Z" fill="url(#paint1_linear_1_2)" fill-opacity="0.8"/>
</g>
<path fill-rule="evenodd" clip-rule="evenodd" d="M874.06 196C867.92 196 862.496 200.001 860.684 205.867L843.451 261.641H1054.55L1037.69 205.944C1035.9 200.039 1030.46 196 1024.29 196H874.06Z" fill="#333333"/>
<path d="M836 268.821C836 272.786 839.214 276 843.179 276H1054.82C1058.79 276 1062 272.786 1062 268.821V268.821C1062 264.855 1058.79 261.641 1054.82 261.641H1054.55H843.451H843.179C839.214 261.641 836 264.855 836 268.821V268.821Z" fill="#D76834"/>
<path d="M927.333 431V422.333H944.667V408.9C941.128 408.106 937.968 406.607 935.188 404.404C932.407 402.201 930.367 399.439 929.067 396.117C923.65 395.467 919.118 393.101 915.471 389.021C911.824 384.94 910 380.156 910 374.667V370.333C910 367.95 910.849 365.91 912.546 364.213C914.243 362.515 916.283 361.667 918.667 361.667H927.333V353H970.667V361.667H979.333C981.717 361.667 983.757 362.515 985.454 364.213C987.151 365.91 988 367.95 988 370.333V374.667C988 380.156 986.176 384.94 982.529 389.021C978.882 393.101 974.35 395.467 968.933 396.117C967.633 399.439 965.593 402.201 962.813 404.404C960.032 406.607 956.872 408.106 953.333 408.9V422.333H970.667V431H927.333ZM927.333 386.8V370.333H918.667V374.667C918.667 377.411 919.461 379.885 921.05 382.088C922.639 384.29 924.733 385.861 927.333 386.8ZM970.667 386.8C973.267 385.861 975.361 384.29 976.95 382.088C978.539 379.885 979.333 377.411 979.333 374.667V370.333H970.667V386.8Z" fill="#D76834"/>
<path d="M943.482 389C943.161 389 943 388.844 943 388.531V384.78C943 384.468 943.161 384.311 943.482 384.311H951.58V378.685H945.082C944.761 378.685 944.6 378.529 944.6 378.216V374.465C944.6 374.153 944.761 373.996 945.082 373.996H951.58V368.989H943.482C943.161 368.989 943 368.832 943 368.52V364.469C943 364.156 943.161 364 943.482 364H953.064C953.36 364 953.617 364.1 953.835 364.3L957.692 368.051C957.897 368.264 958 368.514 958 368.801V372.552C958 372.815 957.936 373.002 957.807 373.115L955.301 375.909V377.091L957.807 379.866C957.936 379.991 958 380.179 958 380.429V384.18C958 384.48 957.897 384.73 957.692 384.93L953.835 388.681C953.617 388.894 953.36 389 953.064 389H943.482Z" fill="#793B1E"/>
<path d="M872.078 508C871.544 508 871.278 507.733 871.278 507.2V466.144C871.278 465.611 871.544 465.344 872.078 465.344H894.382C894.915 465.344 895.182 465.611 895.182 466.144V473.056C895.182 473.589 894.915 473.856 894.382 473.856H881.934V482.944H893.294C893.827 482.944 894.094 483.211 894.094 483.744V489.6C894.094 490.133 893.827 490.4 893.294 490.4H881.934V499.456H894.382C894.915 499.456 895.182 499.723 895.182 500.256V507.2C895.182 507.733 894.915 508 894.382 508H872.078ZM910.84 508C910.349 508 909.923 507.819 909.56 507.456L903.16 501.056C902.797 500.715 902.616 500.288 902.616 499.776V473.6C902.616 473.067 902.883 472.8 903.416 472.8H911.96C912.493 472.8 912.76 473.067 912.76 473.6V500H918.616V473.6C918.616 473.067 918.883 472.8 919.416 472.8H927.96C928.493 472.8 928.76 473.067 928.76 473.6V499.776C928.76 500.288 928.579 500.715 928.216 501.056L921.816 507.456C921.475 507.819 921.048 508 920.536 508H910.84ZM944.215 508C943.724 508 943.298 507.819 942.935 507.456L936.535 501.056C936.172 500.715 935.991 500.288 935.991 499.776V481.024C935.991 480.512 936.172 480.085 936.535 479.744L942.935 473.344C943.298 472.981 943.724 472.8 944.215 472.8H953.911C954.423 472.8 954.85 472.981 955.191 473.344L961.591 479.744C961.954 480.085 962.135 480.512 962.135 481.024V499.776C962.135 500.288 961.954 500.715 961.591 501.056L955.191 507.456C954.85 507.819 954.423 508 953.911 508H944.215ZM947.959 500.544H950.199C950.882 500.544 951.351 500.405 951.607 500.128C951.863 499.851 951.991 499.36 951.991 498.656V482.144C951.991 481.44 951.863 480.949 951.607 480.672C951.351 480.395 950.882 480.256 950.199 480.256H947.959C947.255 480.256 946.775 480.395 946.519 480.672C946.263 480.949 946.135 481.44 946.135 482.144V498.656C946.135 499.36 946.263 499.851 946.519 500.128C946.775 500.405 947.255 500.544 947.959 500.544ZM987.35 508C987.073 508 986.849 507.957 986.678 507.872C986.529 507.787 986.433 507.669 986.39 507.52L982.71 493.024H979.734V485.344H982.71L986.39 473.344C986.433 473.173 986.529 473.056 986.678 472.992C986.849 472.907 987.073 472.864 987.35 472.864H995.446C995.979 472.864 996.246 473.131 996.246 473.664V477.056C996.246 477.355 996.225 477.589 996.182 477.76C996.139 477.931 996.075 478.112 995.99 478.304L991.254 489.216V490.304L996.246 502.56C996.353 502.795 996.427 503.008 996.47 503.2C996.513 503.371 996.534 503.563 996.534 503.776V507.2C996.534 507.733 996.267 508 995.734 508H987.35ZM970.39 508C969.857 508 969.59 507.733 969.59 507.2V466.144C969.59 465.611 969.857 465.344 970.39 465.344H978.934C979.467 465.344 979.734 465.611 979.734 466.144V507.2C979.734 507.733 979.467 508 978.934 508H970.39ZM1016.61 508C1016.4 508 1016.17 507.968 1015.91 507.904C1015.67 507.84 1015.45 507.787 1015.24 507.744L1009.54 506.336L1003.01 504.16C1002.37 503.947 1002.05 503.328 1002.05 502.304V481.024C1002.05 480.512 1002.23 480.085 1002.6 479.744L1009 473.344C1009.36 472.981 1009.79 472.8 1010.28 472.8H1020.52C1021.01 472.8 1021.43 472.981 1021.8 473.344L1028.2 479.744C1028.56 480.085 1028.74 480.512 1028.74 481.024V494.144H1011.56L1011.33 498.4L1015.88 499.904L1024.04 500.48C1024.4 500.544 1024.58 500.789 1024.58 501.216V507.2C1024.58 507.733 1024.31 508 1023.78 508H1016.61ZM1015.33 489.12H1015.94C1016.99 489.12 1017.82 488.725 1018.44 487.936C1019.08 487.147 1019.4 486.08 1019.4 484.736V484.096C1019.4 482.773 1019.08 481.717 1018.44 480.928C1017.82 480.139 1016.99 479.744 1015.94 479.744H1015.3C1014.28 479.744 1013.46 480.139 1012.84 480.928C1012.24 481.717 1011.94 482.773 1011.94 484.096V484.736C1011.94 486.08 1012.24 487.147 1012.84 487.936C1013.46 488.725 1014.29 489.12 1015.33 489.12Z" fill="#D76834"/>
<g filter="url(#filter2_f_1_2)">
<path d="M145.868 225H328.132L455 657H19L145.868 225Z" fill="url(#paint2_linear_1_2)" fill-opacity="0.8"/>
</g>
<path fill-rule="evenodd" clip-rule="evenodd" d="M162.06 164C155.92 164 150.496 168.001 148.684 173.867L131.451 229.641H342.549L325.691 173.944C323.904 168.039 318.461 164 312.292 164H162.06Z" fill="#333333"/>
<path d="M124 236.821C124 240.786 127.214 244 131.179 244H342.821C346.786 244 350 240.786 350 236.821V236.821C350 232.855 346.786 229.641 342.821 229.641H342.549H131.451H131.179C127.214 229.641 124 232.855 124 236.821V236.821Z" fill="#BBBBBB"/>
<path d="M215.333 399V390.333H232.667V376.9C229.128 376.106 225.968 374.607 223.188 372.404C220.407 370.201 218.367 367.439 217.067 364.117C211.65 363.467 207.118 361.101 203.471 357.021C199.824 352.94 198 348.156 198 342.667V338.333C198 335.95 198.849 333.91 200.546 332.213C202.243 330.515 204.283 329.667 206.667 329.667H215.333V321H258.667V329.667H267.333C269.717 329.667 271.757 330.515 273.454 332.213C275.151 333.91 276 335.95 276 338.333V342.667C276 348.156 274.176 352.94 270.529 357.021C266.882 361.101 262.35 363.467 256.933 364.117C255.633 367.439 253.593 370.201 250.813 372.404C248.032 374.607 244.872 376.106 241.333 376.9V390.333H258.667V399H215.333ZM215.333 354.8V338.333H206.667V342.667C206.667 345.411 207.461 347.885 209.05 350.088C210.639 352.29 212.733 353.861 215.333 354.8ZM258.667 354.8C261.267 353.861 263.361 352.29 264.95 350.088C266.539 347.885 267.333 345.411 267.333 342.667V338.333H258.667V354.8Z" fill="#BBBBBB"/>
<path d="M230.579 361C230.208 361 230.022 360.819 230.022 360.456L230 353.386C230 353.241 230.03 353.125 230.089 353.038C230.149 352.936 230.23 352.82 230.334 352.689L237.376 344.314V339.897L230.334 337.243C230.111 337.171 230 336.953 230 336.59V332.544C230 332.181 230.186 332 230.557 332H236.195C236.403 332 236.566 332.029 236.685 332.087C236.804 332.145 236.938 332.21 237.086 332.283L244.44 335.437C244.633 335.51 244.745 335.611 244.774 335.742C244.804 335.872 244.819 336.061 244.819 336.308V345.706C244.819 345.851 244.782 345.96 244.708 346.032C244.648 346.09 244.559 346.199 244.44 346.359L237.465 354.647V355.518H245.443C245.814 355.518 246 355.699 246 356.062V360.456C246 360.819 245.814 361 245.443 361H230.579Z" fill="#838281"/>
<path d="M141.535 459C141.135 459 140.935 458.8 140.935 458.4V427.608C140.935 427.208 141.135 427.008 141.535 427.008H154.807C155.191 427.008 155.511 427.136 155.767 427.392L160.567 432.192C160.839 432.464 160.975 432.784 160.975 433.152V441.432C160.975 441.816 160.839 442.136 160.567 442.392L155.767 447.192C155.511 447.464 155.191 447.6 154.807 447.6H148.927V458.4C148.927 458.8 148.727 459 148.327 459H141.535ZM150.727 441.072C152.055 441.072 152.959 440.808 153.439 440.28C153.935 439.752 154.183 438.752 154.183 437.28C154.183 435.808 153.935 434.808 153.439 434.28C152.959 433.752 152.055 433.488 150.727 433.488C149.415 433.488 148.511 433.752 148.015 434.28C147.535 434.808 147.295 435.808 147.295 437.28C147.295 438.752 147.535 439.752 148.015 440.28C148.511 440.808 149.415 441.072 150.727 441.072ZM175.593 459C175.433 459 175.257 458.976 175.065 458.928C174.889 458.88 174.721 458.84 174.561 458.808L170.289 457.752L165.393 456.12C164.913 455.96 164.673 455.496 164.673 454.728V438.768C164.673 438.384 164.809 438.064 165.081 437.808L169.881 433.008C170.153 432.736 170.473 432.6 170.841 432.6H178.521C178.889 432.6 179.209 432.736 179.481 433.008L184.281 437.808C184.553 438.064 184.689 438.384 184.689 438.768V448.608H171.801L171.633 451.8L175.041 452.928L181.161 453.36C181.433 453.408 181.569 453.592 181.569 453.912V458.4C181.569 458.8 181.369 459 180.969 459H175.593ZM174.633 444.84H175.089C175.873 444.84 176.497 444.544 176.961 443.952C177.441 443.36 177.681 442.56 177.681 441.552V441.072C177.681 440.08 177.441 439.288 176.961 438.696C176.497 438.104 175.873 437.808 175.089 437.808H174.609C173.841 437.808 173.225 438.104 172.761 438.696C172.313 439.288 172.089 440.08 172.089 441.072V441.552C172.089 442.56 172.313 443.36 172.761 443.952C173.225 444.544 173.849 444.84 174.633 444.84ZM190.285 459C189.885 459 189.685 458.8 189.685 458.4V433.2C189.685 432.8 189.885 432.6 190.285 432.6H193.933C194.237 432.6 194.501 432.736 194.725 433.008L197.077 435.72L199.693 432.888C199.869 432.696 200.093 432.6 200.365 432.6H202.957C203.357 432.6 203.557 432.8 203.557 433.2V438.36C203.557 438.616 203.541 438.792 203.509 438.888C203.477 438.968 203.389 439.056 203.245 439.152L197.293 443.544V458.4C197.293 458.8 197.093 459 196.693 459H190.285ZM207.019 466.2C206.619 466.2 206.419 466 206.419 465.6V433.2C206.419 432.8 206.619 432.6 207.019 432.6H211.987C212.275 432.6 212.555 432.736 212.827 433.008L214.027 434.208L215.227 433.008C215.483 432.736 215.803 432.6 216.187 432.6H219.859C220.227 432.6 220.547 432.736 220.819 433.008L225.619 437.808C225.891 438.064 226.027 438.384 226.027 438.768V452.832C226.027 453.216 225.891 453.536 225.619 453.792L220.819 458.592C220.547 458.864 220.227 459 219.859 459H216.187C215.803 459 215.483 458.864 215.227 458.592L214.027 457.392V465.6C214.027 466 213.827 466.2 213.427 466.2H207.019ZM214.027 453.408H217.051C217.579 453.408 217.939 453.304 218.131 453.096C218.323 452.888 218.419 452.52 218.419 451.992V439.608C218.419 439.08 218.323 438.712 218.131 438.504C217.939 438.296 217.579 438.192 217.051 438.192H215.371C214.859 438.192 214.507 438.296 214.315 438.504C214.123 438.712 214.027 439.08 214.027 439.608V453.408ZM231.95 459C231.55 459 231.35 458.8 231.35 458.4V427.608C231.35 427.208 231.55 427.008 231.95 427.008H238.358C238.758 427.008 238.958 427.208 238.958 427.608V458.4C238.958 458.8 238.758 459 238.358 459H231.95ZM254.999 459C254.839 459 254.663 458.976 254.471 458.928C254.295 458.88 254.127 458.84 253.967 458.808L249.695 457.752L244.799 456.12C244.319 455.96 244.079 455.496 244.079 454.728V438.768C244.079 438.384 244.215 438.064 244.487 437.808L249.287 433.008C249.559 432.736 249.879 432.6 250.247 432.6H257.927C258.295 432.6 258.615 432.736 258.887 433.008L263.687 437.808C263.959 438.064 264.095 438.384 264.095 438.768V448.608H251.207L251.039 451.8L254.447 452.928L260.567 453.36C260.839 453.408 260.975 453.592 260.975 453.912V458.4C260.975 458.8 260.775 459 260.375 459H254.999ZM254.039 444.84H254.495C255.279 444.84 255.903 444.544 256.367 443.952C256.847 443.36 257.087 442.56 257.087 441.552V441.072C257.087 440.08 256.847 439.288 256.367 438.696C255.903 438.104 255.279 437.808 254.495 437.808H254.015C253.247 437.808 252.631 438.104 252.167 438.696C251.719 439.288 251.495 440.08 251.495 441.072V441.552C251.495 442.56 251.719 443.36 252.167 443.952C252.631 444.544 253.255 444.84 254.039 444.84ZM276.891 459C276.571 459 276.251 458.896 275.931 458.688L272.019 456.048L269.331 451.728C269.219 451.52 269.123 451.384 269.043 451.32C268.963 451.24 268.923 451.08 268.923 450.84V440.76C268.923 440.52 268.955 440.36 269.019 440.28C269.083 440.2 269.187 440.056 269.331 439.848L271.779 435.768L275.931 432.912C276.075 432.816 276.219 432.744 276.363 432.696C276.507 432.632 276.683 432.6 276.891 432.6H281.043C281.443 432.6 281.643 432.8 281.643 433.2V437.688C281.643 437.816 281.627 437.952 281.595 438.096C281.579 438.24 281.507 438.352 281.379 438.432L278.643 439.8L276.531 442.56V448.968L278.763 451.512L281.379 453.168C281.539 453.264 281.619 453.384 281.619 453.528C281.635 453.656 281.643 453.784 281.643 453.912V458.4C281.643 458.8 281.443 459 281.043 459H276.891ZM287.035 459C286.635 459 286.435 458.8 286.435 458.4V433.2C286.435 432.8 286.635 432.6 287.035 432.6H293.419C293.819 432.6 294.019 432.8 294.019 433.2V458.4C294.019 458.8 293.819 459 293.419 459H287.035ZM286.915 430.608C286.595 430.608 286.435 430.448 286.435 430.128V427.08C286.435 426.76 286.595 426.6 286.915 426.6H293.587C293.875 426.6 294.019 426.76 294.019 427.08V430.128C294.019 430.448 293.875 430.608 293.587 430.608H286.915ZM305.127 459C304.759 459 304.439 458.864 304.167 458.592L300.159 454.608C299.903 454.336 299.775 454.016 299.775 453.648V438.192H298.767C298.367 438.192 298.167 437.992 298.167 437.592V433.2C298.167 432.8 298.367 432.6 298.767 432.6H299.775V429.6C299.775 429.2 299.975 429 300.375 429H306.759C307.159 429 307.359 429.2 307.359 429.6V432.6H309.687C310.087 432.6 310.287 432.8 310.287 433.2V437.592C310.287 437.992 310.087 438.192 309.687 438.192H307.359V451.008C307.359 451.312 307.455 451.56 307.647 451.752L309.999 454.128C310.159 454.272 310.239 454.512 310.239 454.848V458.4C310.239 458.8 310.039 459 309.639 459H305.127ZM321.519 466.992C321.119 466.992 320.919 466.792 320.919 466.392V462.648C320.919 462.344 321.039 462.168 321.279 462.12L324.807 461.232L327.279 459.912C327.519 459.784 327.639 459.536 327.639 459.168V455.232L325.407 457.32C325.135 457.592 324.815 457.728 324.447 457.728L320.367 457.872C319.999 457.872 319.679 457.744 319.407 457.488L315.015 453.072C314.743 452.816 314.607 452.496 314.607 452.112V433.2C314.607 432.8 314.807 432.6 315.207 432.6H321.615C322.015 432.6 322.215 432.8 322.215 433.2V451.272C322.215 451.8 322.311 452.168 322.503 452.376C322.695 452.584 323.047 452.688 323.559 452.688H326.607V433.2C326.607 432.8 326.807 432.6 327.207 432.6H333.615C334.015 432.6 334.215 432.8 334.215 433.2V462.048C334.215 462.528 334.079 462.848 333.807 463.008L330.615 465.048L326.559 466.728C326.319 466.824 326.135 466.888 326.007 466.92C325.895 466.968 325.711 466.992 325.455 466.992H321.519Z" fill="#BBBBBB"/>
<defs>
<filter id="filter0_f_1_2" x="356.5" y="42.5" width="473" height="469" filterUnits="userSpaceOnUse" color-interpolation-filters="sRGB">
<feFlood flood-opacity="0" result="BackgroundImageFix"/>
<feBlend mode="normal" in="SourceGraphic" in2="BackgroundImageFix" result="shape"/>
<feGaussianBlur stdDeviation="9.25" result="effect1_foregroundBlur_1_2"/>
</filter>
<filter id="filter1_f_1_2" x="712.5" y="238.5" width="473" height="469" filterUnits="userSpaceOnUse" color-interpolation-filters="sRGB">
<feFlood flood-opacity="0" result="BackgroundImageFix"/>
<feBlend mode="normal" in="SourceGraphic" in2="BackgroundImageFix" result="shape"/>
<feGaussianBlur stdDeviation="9.25" result="effect1_foregroundBlur_1_2"/>
</filter>
<filter id="filter2_f_1_2" x="0.5" y="206.5" width="473" height="469" filterUnits="userSpaceOnUse" color-interpolation-filters="sRGB">
<feFlood flood-opacity="0" result="BackgroundImageFix"/>
<feBlend mode="normal" in="SourceGraphic" in2="BackgroundImageFix" result="shape"/>
<feGaussianBlur stdDeviation="9.25" result="effect1_foregroundBlur_1_2"/>
</filter>
<linearGradient id="paint0_linear_1_2" x1="595.088" y1="46.9512" x2="607.188" y2="414.523" gradientUnits="userSpaceOnUse">
<stop stop-color="#FFAE0A"/>
<stop offset="0.395" stop-color="#AA7916" stop-opacity="0.605"/>
<stop offset="1" stop-color="#282828" stop-opacity="0"/>
</linearGradient>
<linearGradient id="paint1_linear_1_2" x1="951.088" y1="242.951" x2="963.188" y2="610.523" gradientUnits="userSpaceOnUse">
<stop stop-color="#D76834"/>
<stop offset="1" stop-color="#282828" stop-opacity="0"/>
</linearGradient>
<linearGradient id="paint2_linear_1_2" x1="239.088" y1="210.951" x2="251.188" y2="578.523" gradientUnits="userSpaceOnUse">
<stop stop-color="#BABABA"/>
<stop offset="1" stop-color="#282828" stop-opacity="0"/>
</linearGradient>
</defs>
</svg>
