<svg width="40" height="30" viewBox="0 0 40 30" fill="none" xmlns="http://www.w3.org/2000/svg">
<g id="g10">
<g id="g12">
<path id="path14" d="M15.9091 20.927V9.07294L26.3636 15.0003L15.9091 20.927ZM39.1641 5.34301C38.7041 3.61669 37.3486 2.25728 35.6277 1.79591C32.5084 0.957434 20 0.957434 20 0.957434C20 0.957434 7.49166 0.957434 4.37225 1.79591C2.65127 2.25728 1.29581 3.61669 0.835848 5.34301C0 8.47185 0 15 0 15C0 15 0 21.528 0.835848 24.657C1.29581 26.3833 2.65127 27.7427 4.37225 28.2043C7.49166 29.0425 20 29.0425 20 29.0425C20 29.0425 32.5084 29.0425 35.6277 28.2043C37.3486 27.7427 38.7041 26.3833 39.1641 24.657C40 21.528 40 15 40 15C40 15 40 8.47185 39.1641 5.34301Z" fill="white"/>
</g>
</g>
</svg>
